<?xml version="1.0" standalone="yes"?>
<svg width="252" height="252">

<path style="fill:#a3a3a3; stroke:none;" d="M108 5L108 6L113 6L108 5z"/>
<path style="fill:#5f5f5f; stroke:none;" d="M113 5L113 6L121 6L113 5z"/>
<path style="fill:#000000; stroke:none;" d="M121 5.70988C66.2095 6.5237 15.533 47.7342 6.32562 103C-5.0397 171.218 45.724 249.514 120 247.59C149.201 246.833 176.041 242.327 200 224.101C255.402 181.955 264.415 89.6209 212.981 40.2446C187.774 16.0449 155.066 5.2039 121 5.70988z"/>
<path style="fill:#626262; stroke:none;" d="M122 5L122 6L130 6L122 5z"/>
<path style="fill:#5c5c5c; stroke:none;" d="M131.667 5.33333L132.333 5.66667L131.667 5.33333z"/>
<path style="fill:#898989; stroke:none;" d="M134 5L134 6L139 6L134 5z"/>
<path style="fill:#a4a4a4; stroke:none;" d="M145 5L145 6L148 6L145 5z"/>
<path style="fill:#adadad; stroke:none;" d="M100.667 6.33333L101.333 6.66667L100.667 6.33333z"/>
<path style="fill:#696969; stroke:none;" d="M102.667 6.33333L103.333 6.66667L102.667 6.33333z"/>
<path style="fill:#545454; stroke:none;" d="M142 6L142 7L145 7L142 6z"/>
<path style="fill:#959595; stroke:none;" d="M150.667 6.33333L151.333 6.66667L150.667 6.33333z"/>
<path style="fill:#979797; stroke:none;" d="M98.6667 7.33333L99.3333 7.66667L98.6667 7.33333z"/>
<path style="fill:#737373; stroke:none;" d="M94 8L94 9L97 9L94 8z"/>
<path style="fill:#848484; stroke:none;" d="M156 8L157 9L156 8z"/>
<path style="fill:#464646; stroke:none;" d="M89.6667 9.33333L90.3333 9.66667L89.6667 9.33333z"/>
<path style="fill:#7c7c7c; stroke:none;" d="M87 10L88 11L87 10z"/>
<path style="fill:#545454; stroke:none;" d="M160 10L160 11L163 11L160 10z"/>
<path style="fill:#7b7b7b; stroke:none;" d="M84 11L85 12L84 11z"/>
<path style="fill:#8e8e8e; stroke:none;" d="M165 11L166 12L165 11z"/>
<path style="fill:#838383; stroke:none;" d="M82 12L83 13L82 12z"/>
<path style="fill:#606060; stroke:none;" d="M166 12L167 13L166 12z"/>
<path style="fill:#858585; stroke:none;" d="M79.6667 13.3333L80.3333 13.6667L79.6667 13.3333z"/>
<path style="fill:#514d4a; stroke:none;" d="M110 13L110 14L119 14L110 13z"/>
<path style="fill:#cac2bf; stroke:none;" d="M96 18L98 22L95 23L95 24L97 25L98 25L101 23C100.586 25.6595 101.286 26.5836 104 27L104 28L98 28L94 31L93 28L90 30L90 31L92 33L83 37L83 38L86 40L87 38L88 39L88 50L82 55L91 55L93 53L92 58L93 67L93 68L84 76L84 77L86 79L82 81L76 80L76 81L82 86L83 86L84 84L86 86L85 82L88 81L89 81L91 82L92 89L86 90L86 91L88 95L93 94L91 96L91 97L120 114C120 104.861 119.288 95.9962 119.861 87.0278C120.078 83.6261 121.861 78.8447 118 78C122.964 68.3675 119.338 52.7874 131 48L135 57L136 54L137 57L143 51L139 53L137 48L132 49L126 45L126 44L130 42L129 44L130 44L132 41L137 40L138 40L139 40C141.661 44.6186 148.117 39.935 148 36L152 38L155 32L154 32L151 35L150 35L154 29L157 30L158 33L166 30L165 33L170 35L170 31L167 30L170 29L169 25L172 24C167.242 19.8015 160.028 18.716 154 17.1551C135.885 12.4644 113.633 10.4137 96 18z"/>
<path style="fill:#726e6b; stroke:none;" d="M129 13L129 14L139 14L129 13z"/>
<path style="fill:#8e8e8e; stroke:none;" d="M77 14L78 15L77 14z"/>
<path style="fill:#514d4e; stroke:none;" d="M106.667 14.3333L107.333 14.6667L106.667 14.3333z"/>
<path style="fill:#463c3a; stroke:none;" d="M142 14L142 15L145 15L142 14z"/>
<path style="fill:#6d6d6d; stroke:none;" d="M172 14L173 15L172 14z"/>
<path style="fill:#373536; stroke:none;" d="M101 15L101 16L104 16L101 15z"/>
<path style="fill:#7d7d7d; stroke:none;" d="M145 15L145 16L148 16L145 15z"/>
<path style="fill:#666666; stroke:none;" d="M174 15L175 16L174 15z"/>
<path style="fill:#6a6a6a; stroke:none;" d="M73 16L74 17L73 16z"/>
<path style="fill:#534846; stroke:none;" d="M97 16L97 17L100 17L97 16z"/>
<path style="fill:#7c7471; stroke:none;" d="M151.667 16.3333L152.333 16.6667L151.667 16.3333z"/>
<path style="fill:#7a7a7a; stroke:none;" d="M176.667 16.3333L177.333 16.6667L176.667 16.3333z"/>
<path style="fill:#898989; stroke:none;" d="M70 17L71 18L70 17z"/>
<path style="fill:#716664; stroke:none;" d="M95.6667 17.3333L96.3333 17.6667L95.6667 17.3333z"/>
<path style="fill:#585550; stroke:none;" d="M155.667 17.3333L156.333 17.6667L155.667 17.3333z"/>
<path style="fill:#c7c7c7; stroke:none;" d="M179.667 17.3333L180.333 17.6667L179.667 17.3333z"/>
<path style="fill:#7a7a7a; stroke:none;" d="M68 18L69 19L68 18z"/>
<path style="fill:#6f6765; stroke:none;" d="M92.6667 18.3333L93.3333 18.6667L92.6667 18.3333z"/>
<path style="fill:#a59892; stroke:none;" d="M56 49L62 50L63 50L66 46L63 43L63 42L70 36L66 39C66.4958 42.034 66.874 43.0714 70 43L68 40L72 41L74 34L78 34L77 39L86 43L87 38L86 40L85 40L83 38L83 37L92 33L90 31L90 30L93 28L94 31L98 28L104 28L104 27L101 27L101 23L98 25L97 25L95 24L95 23L98 22L96 18C84.8041 20.1786 60.7685 26.9345 55.4907 38.3248C53.9869 41.5705 56.2732 45.539 56 49z"/>
<path style="fill:#726d69; stroke:none;" d="M158 18L158 19L161 19L158 18z"/>
<path style="fill:#bebdbe; stroke:none;" d="M181.667 18.3333L182.333 18.6667L181.667 18.3333z"/>
<path style="fill:#929292; stroke:none;" d="M64 20L65 21L64 20z"/>
<path style="fill:#8b8b8b; stroke:none;" d="M185 20L186 21L185 20z"/>
<path style="fill:#909090; stroke:none;" d="M62 21L63 22L62 21z"/>
<path style="fill:#6b6565; stroke:none;" d="M82 21L82 22L85 22L82 21z"/>
<path style="fill:#363231; stroke:none;" d="M168.667 21.3333L169.333 21.6667L168.667 21.3333z"/>
<path style="fill:#6d6769; stroke:none;" d="M78.6667 23.3333L79.3333 23.6667L78.6667 23.3333z"/>
<path style="fill:#e5e1de; stroke:none;" d="M169 25L167 30L170 31L170 35L165 33L166 30L158 33L157 30L154 29L150 35L151 35L154 32L155 32L152 38L148 36C148 39.9714 142.07 43.7677 139 40L138 40L137 40L132 41L129 44L130 42L129 42L126 44L126 45L132 49L137 48L139 53L143 51C140.904 54.2918 139.466 57.2512 136 54L133 56L136 58L136 60L138 59L139 65L142 64L142 65L139 69L142 66C147.413 68.5512 147.007 71.5344 148 77L152 77L152 78L148 81L152 81L155 86L163 85L163 86L158 90L165 90L163 94C168.706 94.1083 179.931 94.2888 182 88L197 90L196 93L200 90L209 96L207 90C211.548 91.8568 214.302 89.8925 218 87L214 78L217 78L217 77L216 70L220 74L218 70C221.31 69.4363 218.643 66.4427 217 65L216 69L215 69L211 61L214 59L211 56L210 56L210 59L209 59L209 50L205 50L207 53L201 52L203 54L198 56L200 63L199 64L195 63L198 73L194 71L193 76L192 76L193 72L190 73L193 70L190 64L189 59L186 60L185 55L181 55L180 53L180 51L182 51L182 50L179 49L186 44L184 41L189 39L189 37L184 32L181 32L178 35L179 31L176 34L171 33L171 32L176 31L174 26L169 25z"/>
<path style="fill:#919191; stroke:none;" d="M191 24L192 25L191 24z"/>
<path style="fill:#8b8b8b; stroke:none;" d="M56 25L57 26L56 25z"/>
<path style="fill:#3f3d3e; stroke:none;" d="M176.667 25.3333L177.333 25.6667L176.667 25.3333z"/>
<path style="fill:#626262; stroke:none;" d="M55 26L56 27L55 26z"/>
<path style="fill:#635958; stroke:none;" d="M71.6667 26.3333L72.3333 26.6667L71.6667 26.3333z"/>
<path style="fill:#d9d4d0; stroke:none;" d="M174 26L174 27L176 31L171 32L171 33L176 34L179 31L178 35L181 32L184 32L189 37L189 39L184 41L186 44C183.22 44.5852 175.967 49.2687 182 50L182 51L180 53L181 55L185 55L184 58L186 60L189 59L190 64C187.566 66.5499 190.757 68.3991 193 70L190 73L193 72L192 76L193 76L194 71L198 73L195 63L199 64L200 63L198 56L201 57L203 54L201 53L201 52L207 53L205 50L208 50C201.1 40.2043 186.595 26.6812 174 26z"/>
<path style="fill:#a7a7a7; stroke:none;" d="M53 27L54 28L53 27M196 27L197 28L196 27z"/>
<path style="fill:#989898; stroke:none;" d="M52 28L53 29L52 28z"/>
<path style="fill:#656565; stroke:none;" d="M51 29L52 30L51 29z"/>
<path style="fill:#a4a4a4; stroke:none;" d="M201 31L202 32L201 31z"/>
<path style="fill:#909191; stroke:none;" d="M47 32L48 33L47 32z"/>
<path style="fill:#909090; stroke:none;" d="M202 32L203 33L202 32z"/>
<path style="fill:#818181; stroke:none;" d="M203 33L204 34L203 33z"/>
<path style="fill:#9d9d9d; stroke:none;" d="M45 34L46 35L45 34z"/>
<path style="fill:#b9aeac; stroke:none;" d="M74 34L72 41L68 40L70 43L67 44L66 39L70 36L63 42L63 43L66 46L63 50L62 50L56 49L55 39C38.0564 46.6034 19.8347 77.7328 19 96L23 95L23 99L19 108L26 112L30 110L25 113L25 114L35 112L35 117L44 123L43 117L51 116L48 122L52 122L52 119L57 122L53 121L53 126L50 126L53 130L58 129L59 129L60 129L66 131L65 128L60 126C62.9722 125.568 61.8979 123.454 61 121L68 122L70 128L74 125L74 126L72 130L77 128L75 125L82 127L85 131L81 130L81 131L88 133L87 137C95.2519 136.569 101.411 134.472 107 128L96 128L89 130L89 129L92 129L92 125L96 125L100 126L100 119L86 112C84.7574 108.384 82.6926 107.786 79 108C73.3214 98.3229 60.6758 95.5206 60 83L93 99L91 97L91 96L93 94L88 95L86 91L86 90L92 89L91 82L88 81L85 82L86 86C83.6838 84.6103 83.6255 82.8723 83 86L82 86L76 81L76 80L82 81L86 79L84 77L84 76L93 68L93 67L91 66L91 65C93.7044 63.0902 94.6598 60.3604 92 58L93 53L91 55L82 55L88 50L84 41L77 39L78 34L74 34z"/>
<path style="fill:#787370; stroke:none;" d="M191 34L192 35L191 34z"/>
<path style="fill:#767676; stroke:none;" d="M204 34L205 35L204 34z"/>
<path style="fill:#a2a2a2; stroke:none;" d="M44 35L45 36L44 35z"/>
<path style="fill:#a4a4a4; stroke:none;" d="M43 36L44 37L43 36z"/>
<path style="fill:#636363; stroke:none;" d="M42 37L43 38L42 37z"/>
<path style="fill:#635f5e; stroke:none;" d="M195 37L196 38L195 37z"/>
<path style="fill:#7a7a7a; stroke:none;" d="M208 37L208 38L211 38L208 37z"/>
<path style="fill:#8d8d8d; stroke:none;" d="M41 38L42 39L41 38z"/>
<path style="fill:#5f5755; stroke:none;" d="M54 38L55 39L54 38z"/>
<path style="fill:#8b8b8b; stroke:none;" d="M211 38L212 39L211 38z"/>
<path style="fill:#878787; stroke:none;" d="M40 39L41 40L40 39z"/>
<path style="fill:#7c7c7c; stroke:none;" d="M39 40L40 41L39 40z"/>
<path style="fill:#5d5d5d; stroke:none;" d="M213.333 40.6667L213.667 41.3333L213.333 40.6667z"/>
<path style="fill:#909090; stroke:none;" d="M37 42L38 43L37 42z"/>
<path style="fill:#575757; stroke:none;" d="M36 44L37 45L36 44z"/>
<path style="fill:#726e6d; stroke:none;" d="M204 45L205 46L204 45z"/>
<path style="fill:#6b6b6b; stroke:none;" d="M34 46L35 47L34 46z"/>
<path style="fill:#7a7a7a; stroke:none;" d="M217 46L218 47L217 46z"/>
<path style="fill:#959595; stroke:none;" d="M33 47L34 48L33 47z"/>
<path style="fill:#696866; stroke:none;" d="M206 47L207 48L206 47z"/>
<path style="fill:#6b6b6b; stroke:none;" d="M32 48L33 49L32 48z"/>
<path style="fill:#000000; stroke:none;" d="M125 60L125 62L122 63L123 67L119 78L119 84L119 85L121 114C100.208 107.668 82.9299 85.472 61 84C61.387 92.4696 64.6816 95.4603 72 99L80 108L93.615 115.829L112 125L112 126C98.2963 132.17 85.4525 141.961 72 149.003C65.9623 152.164 58.4186 156.284 56 163C61.1501 163.97 68.7857 166.988 70 160C88.9194 159.987 103.027 145.108 119 137C119.488 158.876 115.922 183.683 121 205C131.164 200.037 130.529 185.032 133 175L133 169L131 139C152.478 144.415 168.504 167.49 191 169C190.878 157.932 179.161 152.681 172 145L166 141C162.384 140.374 160.009 137.888 156.715 136.401C153.652 135.019 142.492 131.639 141.782 128.015C141.032 124.181 152.347 119.15 155 117.464C167.398 109.583 188.345 104.127 196 91C191.058 89.3134 183.249 85.8133 182 93L158 99L133 116C133 94.1262 135.62 69.3986 131 48C126.608 49.8166 119.404 55.9624 125 60z"/>
<path style="fill:#8a8a8a; stroke:none;" d="M31 49L32 50L31 49z"/>
<path style="fill:#7d7779; stroke:none;" d="M126.667 49.3333L127.333 49.6667L126.667 49.3333z"/>
<path style="fill:#8f8f8f; stroke:none;" d="M30 50L31 51L30 50z"/>
<path style="fill:#5b5756; stroke:none;" d="M209 50L210 51L209 50z"/>
<path style="fill:#a1a1a1; stroke:none;" d="M29 51L30 52L29 51z"/>
<path style="fill:#d9d1cf; stroke:none;" d="M209 51L209 59L210 59L210 56L211 56L214 59L211 61L215 69L216 69L217 65C219.414 67.414 221.806 70.9516 218 70L220 74L216 70L217 78L214 78L218 87L207 90L209 96L200 90L195 92L171 110L182 108L183 111L186 110L186 115L193 114L193 117L193 118L192 122L193 122L194 116L206 108L206 109L203 109L203 110C207.196 109.274 208.042 106.939 209 103L212 105L210 100L214 101L215 107L208 110L214 113L217 108L218 108L220 109L219 111L222 112L224 106L219 108L217 102L217 101L217 100L215 94L220 95L219 92L223 92L225 96L225 90L220 91L224 85L224 88L225 88L225 83L219 83L222 75L223 75L227 82C226.647 72.1167 218.52 56.6606 209 51z"/>
<path style="fill:#433d3d; stroke:none;" d="M124 52L124 54L126 52L124 52z"/>
<path style="fill:#707070; stroke:none;" d="M222 52L223 53L222 52z"/>
<path style="fill:#3b3a38; stroke:none;" d="M131.333 53.6667L131.667 54.3333L131.333 53.6667z"/>
<path style="fill:#999999; stroke:none;" d="M223 53L224 54L223 53z"/>
<path style="fill:#828282; stroke:none;" d="M27 54L28 55L27 54z"/>
<path style="fill:#766c6b; stroke:none;" d="M38.3333 54.6667L38.6667 55.3333L38.3333 54.6667z"/>
<path style="fill:#66625f; stroke:none;" d="M132 55L134 59L132 55z"/>
<path style="fill:#655f5f; stroke:none;" d="M213 55L214 56L213 55z"/>
<path style="fill:#5a5552; stroke:none;" d="M37 56L38 57L37 56z"/>
<path style="fill:#888888; stroke:none;" d="M25 57L26 58L25 57z"/>
<path style="fill:#a0a0a0; stroke:none;" d="M226 57L227 58L226 57z"/>
<path style="fill:#969696; stroke:none;" d="M24 58L25 59L24 58z"/>
<path style="fill:#c7b9b6; stroke:none;" d="M135 58L133 94L136 93L136 95L139 94L137 97C143.236 95.2845 144.667 97.1956 150 100L153 97L153 98L151 99L151 100L158 101L155 96L165 98L164 96L164 95L167 96L163 94L165 90L158 90L163 86L163 85C159.791 84.0832 155.908 81.8477 155 86L152 85L152 81L148 81L152 78L152 77L148 77C147.399 71.4703 147.802 67.9297 142 66L139 69L142 65L142 64L139 65L138 59L135 58z"/>
<path style="fill:#2b2724; stroke:none;" d="M123 59L125 62L123 59z"/>
<path style="fill:#2a2623; stroke:none;" d="M133 59L133 64L134 64L133 59z"/>
<path style="fill:#828282; stroke:none;" d="M227 59L228 60L227 59z"/>
<path style="fill:#aaaaaa; stroke:none;" d="M23 60L24 61L23 60z"/>
<path style="fill:#655f5f; stroke:none;" d="M217 60L218 61L217 60z"/>
<path style="fill:#7c7c7c; stroke:none;" d="M22 62L23 63L22 62z"/>
<path style="fill:#a4a4a4; stroke:none;" d="M21 63L22 64L21 63z"/>
<path style="fill:#6b6766; stroke:none;" d="M133 64L133 71L134 71L133 64z"/>
<path style="fill:#353535; stroke:none;" d="M230.333 64.6667L230.667 65.3333L230.333 64.6667z"/>
<path style="fill:#7b7776; stroke:none;" d="M122 65L120 70L121 70L122 65z"/>
<path style="fill:#6b6764; stroke:none;" d="M221 66L222 67L221 66z"/>
<path style="fill:#6a6a6a; stroke:none;" d="M231 66L232 67L231 66z"/>
<path style="fill:#747474; stroke:none;" d="M19 67L20 68L19 67z"/>
<path style="fill:#787878; stroke:none;" d="M224 71L225 72L224 71z"/>
<path style="fill:#919191; stroke:none;" d="M234 71L235 72L234 71z"/>
<path style="fill:#504a4a; stroke:none;" d="M132 72L132 79L133 79L132 72z"/>
<path style="fill:#8e8d8d; stroke:none;" d="M16 73L17 74L16 73z"/>
<path style="fill:#878787; stroke:none;" d="M235 73L236 74L235 73z"/>
<path style="fill:#cec3c1; stroke:none;" d="M222 75L219 83L225 83L225 88L224 88L224 85L220 91L225 90L225 96L223 92L219 92L220 95L215 94L217 100L217 101L217 102C214.607 104.279 217.154 105.981 219 108L224 106L222 112L219 111L220 109L218 108L217 108L214 110L214 111L225 114L223 118L225 119L226 119L229 113L226 112L228 109L226 110L226 109L233 105L233 104L229 103L230 101L230 100L226 101L224 97L228 97C229.716 91.421 233.833 82.726 226 80L227 82L224 82L222 75z"/>
<path style="fill:#676364; stroke:none;" d="M226 75L227 76L226 75z"/>
<path style="fill:#7c7774; stroke:none;" d="M118 76L118 78L120 76L118 76z"/>
<path style="fill:#8d8d8d; stroke:none;" d="M14 77L15 78L14 77z"/>
<path style="fill:#736a6b; stroke:none;" d="M24.3333 77.6667L24.6667 78.3333L24.3333 77.6667z"/>
<path style="fill:#7c7c7c; stroke:none;" d="M237 77L238 78L237 77z"/>
<path style="fill:#585455; stroke:none;" d="M228.333 78.6667L228.667 79.3333L228.333 78.6667z"/>
<path style="fill:#7b7b7b; stroke:none;" d="M13.3333 79.6667L13.6667 80.3333L13.3333 79.6667z"/>
<path style="fill:#544f4c; stroke:none;" d="M23.3333 79.6667L23.6667 80.3333L23.3333 79.6667z"/>
<path style="fill:#6f6a67; stroke:none;" d="M133 79L133 84L134 84L133 79z"/>
<path style="fill:#6b6b6b; stroke:none;" d="M238 79L239 80L238 79z"/>
<path style="fill:#61605e; stroke:none;" d="M120 80L120 84L121 84L120 80z"/>
<path style="fill:#6d6465; stroke:none;" d="M229 81L230 82L229 81z"/>
<path style="fill:#5d5d5d; stroke:none;" d="M239.333 81.6667L239.667 82.3333L239.333 81.6667z"/>
<path style="fill:#626262; stroke:none;" d="M12.3333 82.6667L12.6667 83.3333L12.3333 82.6667z"/>
<path style="fill:#d2cdc9; stroke:none;" d="M210 82L209 86L211 85L210 88L214 89L212 82L210 82z"/>
<path style="fill:#373536; stroke:none;" d="M60 83L60 89L61 89L64 84L60 83z"/>
<path style="fill:#7d7777; stroke:none;" d="M230.333 83.6667L230.667 84.3333L230.333 83.6667z"/>
<path style="fill:#656565; stroke:none;" d="M240 84L241 85L240 84z"/>
<path style="fill:#737373; stroke:none;" d="M11 85L12 86L11 85z"/>
<path style="fill:#3b3633; stroke:none;" d="M66.6667 85.3333L67.3333 85.6667L66.6667 85.3333z"/>
<path style="fill:#3b3a38; stroke:none;" d="M120 85L120 88L121 88L120 85z"/>
<path style="fill:#403b38; stroke:none;" d="M132 85L132 90L133 90L132 85z"/>
<path style="fill:#c8c8c8; stroke:none;" d="M241 85L241 88L242 88L241 85z"/>
<path style="fill:#423d3a; stroke:none;" d="M20.3333 86.6667L20.6667 87.3333L20.3333 86.6667z"/>
<path style="fill:#716c68; stroke:none;" d="M69 86L69 87L73 87L69 86z"/>
<path style="fill:#707070; stroke:none;" d="M10.3333 87.6667L10.6667 88.3333L10.3333 87.6667z"/>
<path style="fill:#aa9c9b; stroke:none;" d="M231 87L228 97L224 97L226 101L230 100L229 103L233 104L233 105C229.166 105.437 227.398 106.343 226 110L228 109L226 112L229 113L226 119L225 119L223 118L225 114L214 111L214 113L207 115L209 120L206 120L206 121L206 134L210 133L210 134L207 135L207 136L212 136L211 139L217 137L215 131L219 130L219 131L217 134C222.533 132.245 234.016 128.946 235 123L238 125C238 113.621 238.076 96.4978 231 87z"/>
<path style="fill:#999896; stroke:none;" d="M182.667 88.3333L183.333 88.6667L182.667 88.3333z"/>
<path style="fill:#757472; stroke:none;" d="M188.667 88.3333L189.333 88.6667L188.667 88.3333z"/>
<path style="fill:#686360; stroke:none;" d="M19.3333 89.6667L19.6667 90.3333L19.3333 89.6667z"/>
<path style="fill:#4f4b4a; stroke:none;" d="M61.3333 89.6667L61.6667 90.3333L61.3333 89.6667z"/>
<path style="fill:#4e4644; stroke:none;" d="M119 89L119 93L120 93L119 89z"/>
<path style="fill:#272624; stroke:none;" d="M190 89L190 90L194 90L190 89z"/>
<path style="fill:#404040; stroke:none;" d="M9.33333 90.6667L9.66667 91.3333L9.33333 90.6667z"/>
<path style="fill:#595451; stroke:none;" d="M133.333 90.6667L133.667 91.3333L133.333 90.6667z"/>
<path style="fill:#5d5956; stroke:none;" d="M195 90L196 91L195 90z"/>
<path style="fill:#9d9996; stroke:none;" d="M196.333 90.6667L196.667 91.3333L196.333 90.6667z"/>
<path style="fill:#605b57; stroke:none;" d="M233.333 90.6667L233.667 91.3333L233.333 90.6667z"/>
<path style="fill:#5f5f5f; stroke:none;" d="M242.333 90.6667L242.667 91.3333L242.333 90.6667z"/>
<path style="fill:#333333; stroke:none;" d="M181 91L177 92L177 93L181 91z"/>
<path style="fill:#d9d9d9; stroke:none;" d="M8 92L8 96L9 96L8 92z"/>
<path style="fill:#a79996; stroke:none;" d="M18 92L14 125L18 130L21 129L22 134L25 132L26 132L28 134L28 135L21 135L21 140L24 139L25 142L28 141L30 142L32 148L32 154L33 154L33 149L42 154L45 153C43.3465 156.038 41.6272 160.139 46 161L46 158L53 158L54 161L57 161L82 143L75 135L76 135L77 138L79 136L80 139L81 139L82 136L83 139L92 137L87 137L88 133L81 131L81 130L85 131L82 127L75 125L77 128L72 130L74 126L74 125L70 128L68 122L61 121C61.5691 124.414 63.8233 126.956 60 126L66 131L60 129L59 129L58 129L58 131L53 130L50 126L53 126L53 121L57 122L52 119L52 122L48 122L51 116L43 117L44 123L35 117L35 112L25 114L25 113L30 110L26 112L19 108L23 99L23 95L19 96L18 92z"/>
<path style="fill:#5e5a57; stroke:none;" d="M81 92L82 93L81 92z"/>
<path style="fill:#473f3d; stroke:none;" d="M132 92L132 101L133 101L132 92z"/>
<path style="fill:#393836; stroke:none;" d="M173 92L173 93L177 94L177 93L173 92z"/>
<path style="fill:#6b6361; stroke:none;" d="M118.333 93.6667L118.667 94.3333L118.333 93.6667z"/>
<path style="fill:#aba19f; stroke:none;" d="M135 93C130.295 99.7175 133.767 106.811 137 113L153 104L153 98L153 97L150 100C144.927 95.9822 143.309 94.2771 137 97L139 94L136 95L135 93z"/>
<path style="fill:#64635f; stroke:none;" d="M234.333 94.6667L234.667 95.3333L234.333 94.6667z"/>
<path style="fill:#635b59; stroke:none;" d="M164.667 95.3333L165.333 95.6667L164.667 95.3333z"/>
<path style="fill:#716765; stroke:none;" d="M17.3333 96.6667L17.6667 97.3333L17.3333 96.6667z"/>
<path style="fill:#7f7e7a; stroke:none;" d="M87.6667 96.3333L88.3333 96.6667L87.6667 96.3333z"/>
<path style="fill:#a59b99; stroke:none;" d="M155 96L159 99L155 96z"/>
<path style="fill:#d9d9d9; stroke:none;" d="M244 96L244 100L245 100L244 96z"/>
<path style="fill:#574d4b; stroke:none;" d="M16.3333 98.6667L16.6667 99.3333L16.3333 98.6667z"/>
<path style="fill:#514947; stroke:none;" d="M119.333 98.6667L119.667 99.3333L119.333 98.6667z"/>
<path style="fill:#66615d; stroke:none;" d="M235.333 98.6667L235.667 99.3333L235.333 98.6667z"/>
<path style="fill:#79716f; stroke:none;" d="M70.6667 99.3333L71.3333 99.6667L70.6667 99.3333z"/>
<path style="fill:#837e7b; stroke:none;" d="M160.667 99.3333L161.333 99.6667L160.667 99.3333z"/>
<path style="fill:#949494; stroke:none;" d="M6.33333 100.667L6.66667 101.333L6.33333 100.667z"/>
<path style="fill:#a8a4a1; stroke:none;" d="M186.667 100.333L187.333 100.667L186.667 100.333z"/>
<path style="fill:#cac0be; stroke:none;" d="M210 100L212 105L209 103L203 110L203 109L206 109L206 108L194 116L193 122L192 122L193 118L193 117L193 114L186 115L186 110L183 111L182 108C174.769 109.894 165.27 108.589 161 116L164 116L161 117L162 121L169 119L176 123L177 122L176 119L188 120L186 122L186 123L186 124L186 128L190 129L189 126L193 125L193 128L197 127L198 126L196 119L199 125L203 122L204 125L206 120L209 120L209 119L207 115L212 111L208 110L215 107L214 101L210 100z"/>
<path style="fill:#424242; stroke:none;" d="M244.333 100.667L244.667 101.333L244.333 100.667z"/>
<path style="fill:#4e4c4d; stroke:none;" d="M15 101L15 105L16 105L15 101z"/>
<path style="fill:#7c7b77; stroke:none;" d="M185 101L186 102L185 101z"/>
<path style="fill:#565251; stroke:none;" d="M236 101L236 105L237 105L236 101z"/>
<path style="fill:#3b3a38; stroke:none;" d="M97 102L97 103L100 103L97 102z"/>
<path style="fill:#797574; stroke:none;" d="M181 102L181 103L184 103L181 102z"/>
<path style="fill:#d2d2d2; stroke:none;" d="M5 103L5 109L6 109L5 103z"/>
<path style="fill:#726e6d; stroke:none;" d="M180 103L181 104L180 103z"/>
<path style="fill:#a2a2a2; stroke:none;" d="M245.333 103.667L245.667 104.333L245.333 103.667z"/>
<path style="fill:#383433; stroke:none;" d="M177.667 104.333L178.333 104.667L177.667 104.333z"/>
<path style="fill:#5b5a58; stroke:none;" d="M120 105L120 114L121 114L120 105z"/>
<path style="fill:#717171; stroke:none;" d="M175 105L176 106L175 105z"/>
<path style="fill:#696969; stroke:none;" d="M245 105L245 108L246 108L245 105z"/>
<path style="fill:#504644; stroke:none;" d="M79.3333 106.667L79.6667 107.333L79.3333 106.667z"/>
<path style="fill:#676362; stroke:none;" d="M104 106L105 107L104 106z"/>
<path style="fill:#5e5a59; stroke:none;" d="M173 106L174 107L173 106z"/>
<path style="fill:#433d3f; stroke:none;" d="M14 107L14 110L15 110L14 107z"/>
<path style="fill:#6f6b6a; stroke:none;" d="M172 107L173 108L172 107z"/>
<path style="fill:#939393; stroke:none;" d="M246 108L246 113L247 113L246 108z"/>
<path style="fill:#838383; stroke:none;" d="M5 109L5 115L6 115L5 109z"/>
<path style="fill:#d4cac8; stroke:none;" d="M133 109L134 115C137.472 112.756 136.565 110.436 133 109z"/>
<path style="fill:#605c5b; stroke:none;" d="M169 109L170 110L169 109z"/>
<path style="fill:#6a6464; stroke:none;" d="M237 109L237 113L238 113L237 109z"/>
<path style="fill:#4a4945; stroke:none;" d="M86.3333 110.667L86.6667 111.333L86.3333 110.667z"/>
<path style="fill:#504c4d; stroke:none;" d="M133 111L135 116L133 111z"/>
<path style="fill:#3d3d3b; stroke:none;" d="M164 111L164 112L167 112L164 111z"/>
<path style="fill:#7a7a7a; stroke:none;" d="M115.667 112.333L116.333 112.667L115.667 112.333z"/>
<path style="fill:#676360; stroke:none;" d="M13 113L13 138L14 138L13 113z"/>
<path style="fill:#a09694; stroke:none;" d="M167 113L170 116L167 113z"/>
<path style="fill:#5b5a56; stroke:none;" d="M238 113L234 129L238 127L236 131L236 132L238 139L239 139L238 113z"/>
<path style="fill:#323232; stroke:none;" d="M246 113L246 121L247 121L246 113z"/>
<path style="fill:#575757; stroke:none;" d="M5 115L5 122L6 122L5 115z"/>
<path style="fill:#575352; stroke:none;" d="M157 115L157 116L160 116L157 115z"/>
<path style="fill:#b8aaa7; stroke:none;" d="M140 127L140 128L166 141C167.271 144.728 169.408 145.421 173 144C174.347 150.32 184.575 157.676 191 158L187 152L194 155L196 149L195 145L190 146C189.806 138.334 196.05 135.662 203 138C203.931 135.208 204.877 134.575 202 134L203 130L199 130L199 129L207 126L207 125L203 122L199 125L196 119L198 126L197 127L193 128L193 125L189 128L192 128L195 131L195 132L189 134L189 135L191 135L191 136L183 138L183 132L180 134L178 129C181.778 130.618 191.42 127.962 186 124L186 123L186 122L188 120L176 119L177 122L176 123L169 119L162 121L164 116C155.32 114.085 146.787 122.439 140 127z"/>
<path style="fill:#656160; stroke:none;" d="M96.6667 117.333L97.3333 117.667L96.6667 117.333z"/>
<path style="fill:#d5cdca; stroke:none;" d="M100 119L98 121L100 126L96 125L92 125L89 129L89 130L96 128C98.71 130.361 107.491 128.221 110 126L100 119z"/>
<path style="fill:#7e7a79; stroke:none;" d="M101 119L102 120L101 119z"/>
<path style="fill:#726e6d; stroke:none;" d="M148.667 121.333L149.333 121.667L148.667 121.333z"/>
<path style="fill:#7c7877; stroke:none;" d="M107 122L108 123L107 122z"/>
<path style="fill:#b1a9a7; stroke:none;" d="M108 123L108 126L112 126L108 123z"/>
<path style="fill:#6e6868; stroke:none;" d="M144.667 123.333L145.333 123.667L144.667 123.333z"/>
<path style="fill:#988a87; stroke:none;" d="M205 124L207 125L207 126L199 129L199 130L203 130L202 134L203 138C196.106 134.636 189.444 138.307 190 146L195 145L196 149L194 155L187 152L191 158C187.581 161.412 192.697 167.229 196 169L193 166L196 163L199 165L202 160L199 155L207 158L205 163L208 160L213 161L215 159C214.254 161.946 213.803 163.311 217 164L217 163L215 162L218 158L215 157L215 156L219 158L220 158L221 158L221 156L222 156L223 156L230 158L230 154L236 154C236.255 148.087 241.064 136.425 236 132L236 131C237.813 129.444 237.813 128.556 236 127L237 130L233 130L228 135L230 132L227 135C222.596 134.618 219.144 136.06 217 140L211 139L212 136L207 136L207 135L210 134L210 133L206 134L207 123L205 124z"/>
<path style="fill:#e3d3d3; stroke:none;" d="M235 123L237 126L235 123z"/>
<path style="fill:#5c5658; stroke:none;" d="M143 124L144 125L143 124z"/>
<path style="fill:#5a5456; stroke:none;" d="M142 125L143 126L142 125z"/>
<path style="fill:#857673; stroke:none;" d="M14 127C14 181.73 57.9022 238.519 116 239L116 238L112 237L120 224L116 226L115 226L114 226L112 224C110.543 226.796 107.879 230.094 112 231L112 232L108 232L110 215L103 215L104 211L98 217L96 213L97 208L98 208L100 210L104 208L100 205L100 204L100 198L104 195L105 195L108 197C105.389 192.98 102.415 193.26 98 194L98 193C100.68 191.495 99.1523 190.413 97 189L100 186L94 185L97 185L93 182L100 179C98.0393 174.983 95.4881 172.883 91 174L88 171L91 170L90 167C94.7499 169.698 97.0095 170.698 99 176L105 174L101 170L102 167L93 168L106 164C109.394 169.515 113.699 166.572 119 166L120 153L119 153L119 159C114.831 156.267 111.799 156.781 109 161L108 158L103 157L106 162L101 160L103 163L99 158L98 158L98 164L89 157C76.679 158.757 63.0615 170.432 53 158L46 158L46 161C43.1045 158.796 44.0396 156.249 45 153L42 154L33 149L33 154L32 154L32 148L30 142L28 141L25 142L21 140L21 135L28 135L28 134L26 132L25 132L22 134C21.5043 130.966 21.126 129.929 18 130L17 127L14 127z"/>
<path style="fill:#6a605f; stroke:none;" d="M109 127L110 128L109 127z"/>
<path style="fill:#9a8c8b; stroke:none;" d="M190 127L186 128L178 129L180 131L179 133L180 134L183 132L183 138L191 136L191 135L189 135L189 134L195 132L195 131L190 127z"/>
<path style="fill:#cabcb9; stroke:none;" d="M217 134L219 131L219 130L215 131L216 136L230 128L217 134z"/>
<path style="fill:#857774; stroke:none;" d="M214 140L227 135L230 132L228 135L233 130L237 129C230.021 127.201 217.355 133.798 214 140z"/>
<path style="fill:#565253; stroke:none;" d="M141 129L141 130L144 130L141 129z"/>
<path style="fill:#4e4e4e; stroke:none;" d="M246 129L246 140L247 140L246 129z"/>
<path style="fill:#5c5754; stroke:none;" d="M102.667 131.333L103.333 131.667L102.667 131.333z"/>
<path style="fill:#847c7a; stroke:none;" d="M146 131L146 132L149 132L146 131z"/>
<path style="fill:#4a4a4a; stroke:none;" d="M5 132L5 140L6 140L5 132z"/>
<path style="fill:#302b28; stroke:none;" d="M151 134L151 135L154 136L151 134z"/>
<path style="fill:#c2b8b6; stroke:none;" d="M75 135C76.587 141.615 83.3193 145.578 88 139L82 136L81 139L80 139C79.0859 136.734 78.9891 136.594 77 138L75 135z"/>
<path style="fill:#333331; stroke:none;" d="M95.6667 136.333L96.3333 136.667L95.6667 136.333z"/>
<path style="fill:#5b5758; stroke:none;" d="M117 137L118 142L119 142L117 137z"/>
<path style="fill:#959192; stroke:none;" d="M115.667 138.333L116.333 138.667L115.667 138.333z"/>
<path style="fill:#dad4d4; stroke:none;" d="M117 138L108 145L113 146L112 150L118 149L116 143L117 138z"/>
<path style="fill:#7a7677; stroke:none;" d="M131 142L132 142L134 140C131.86 138.882 131.473 139.749 131 142z"/>
<path style="fill:#bebebe; stroke:none;" d="M5 140L5 144L6 144L5 140z"/>
<path style="fill:#d4cbcc; stroke:none;" d="M132 140C132.09 147.52 135.969 149.917 143 147L144 148L143 152C154.015 147.751 136.767 140.717 132 140z"/>
<path style="fill:#645e60; stroke:none;" d="M135.667 140.333L136.333 140.667L135.667 140.333z"/>
<path style="fill:#aaaaaa; stroke:none;" d="M246 140L246 144L247 144L246 140z"/>
<path style="fill:#403b38; stroke:none;" d="M85 141L85 142L88 142L85 141z"/>
<path style="fill:#bbb1af; stroke:none;" d="M116 143L118 149L111 153L115 151L119 156L119 142L116 143z"/>
<path style="fill:#3e3a39; stroke:none;" d="M119.333 142.667L119.667 143.333L119.333 142.667z"/>
<path style="fill:#565251; stroke:none;" d="M131 142L131 148L132 148L131 142z"/>
<path style="fill:#706c6d; stroke:none;" d="M141 143L142 144L141 143z"/>
<path style="fill:#b9b0ab; stroke:none;" d="M107 144L104 149L112 150L113 146L107 144z"/>
<path style="fill:#504c49; stroke:none;" d="M171 144L172 147L173 147L173 144L171 144z"/>
<path style="fill:#d2d2d2; stroke:none;" d="M246 144L246 148L247 148L246 144z"/>
<path style="fill:#696969; stroke:none;" d="M6.33333 145.667L6.66667 146.333L6.33333 145.667z"/>
<path style="fill:#968784; stroke:none;" d="M94 154L87 155C89.1109 159.812 93.2045 162.194 98 164L98 158L99 158L103 163L101 160L106 162L103 157L109 161C112.339 157.621 114.623 157.14 119 159L115 151L111 153L113 150L104 149L106 146L94 154z"/>
<path style="fill:#a5a5a5; stroke:none;" d="M6 147L6 150L7 150L6 147z"/>
<path style="fill:#c1b3b0; stroke:none;" d="M132 147C134.16 151.898 139.712 155.208 145 154L154 155L155 151L147 147L143 152L144 148L143 147L132 147z"/>
<path style="fill:#827b75; stroke:none;" d="M173 147L173 148L177 148L173 147z"/>
<path style="fill:#3c3c3c; stroke:none;" d="M15 148L15 151L16 151L15 148z"/>
<path style="fill:#9c8f89; stroke:none;" d="M132 148L133 162L152 161L150 158L152 158L150 155L153 155L145 154C139.933 154.494 135.461 151.57 132 148z"/>
<path style="fill:#352f2f; stroke:none;" d="M236 148L236 152L237 152L236 148z"/>
<path style="fill:#6a6a6a; stroke:none;" d="M245 149L245 152L246 152L245 149z"/>
<path style="fill:#5b5555; stroke:none;" d="M68.6667 150.333L69.3333 150.667L68.6667 150.333z"/>
<path style="fill:#463e3b; stroke:none;" d="M95.6667 150.333L96.3333 150.667L95.6667 150.333z"/>
<path style="fill:#807674; stroke:none;" d="M97.6667 150.333L98.3333 150.667L97.6667 150.333z"/>
<path style="fill:#484441; stroke:none;" d="M152 150L152 151L155 151L152 150z"/>
<path style="fill:#2c2d28; stroke:none;" d="M179 151C180.052 154.989 181.853 157.301 186 158L186 157L179 151z"/>
<path style="fill:#42393a; stroke:none;" d="M93 152L92 154L94 154L93 152z"/>
<path style="fill:#d5cdca; stroke:none;" d="M155 152L154 155L150 155L152 159L161 156L155 152z"/>
<path style="fill:#3e3530; stroke:none;" d="M16.3333 153.667L16.6667 154.333L16.3333 153.667z"/>
<path style="fill:#514c49; stroke:none;" d="M132 153L132 157L133 157L132 153z"/>
<path style="fill:#72716d; stroke:none;" d="M158 153L159 154L158 153z"/>
<path style="fill:#8b7c79; stroke:none;" d="M230 154L230 158L223 156L222 156L221 156L221 158L220 158L219 158L215 156L215 157L218 158L217 163L217 164L213 161L208 160L205 163L207 158L199 155L202 160L201 163L199 165L196 163L193 166L196 169L192 167L170 166C166.761 159.578 160.113 161.455 154 160L156 157L150 158L152 161C146.823 161.718 134.522 157.899 133 165L136 165L147 163L147 164L143 167L150 166L148 169L154 168L150 170L153 171L152 174L163 174L161 171L172 173L172 172L169 170C173.007 169.433 177.699 165.525 178 172L180 170L181 170L181 175L182 175L184 171L186 171L186 175L201 175L201 179L206 177C208.917 174.216 211.169 173.946 215 175L219 167L220 167L221 170L222 166L226 167L235 154L230 154z"/>
<path style="fill:#b0a4a6; stroke:none;" d="M155 156L154 160C156.283 160.723 158.558 161.68 159 159L172 166L175 164C169.22 158.809 163.019 154.729 155 156z"/>
<path style="fill:#635d5d; stroke:none;" d="M161.667 155.333L162.333 155.667L161.667 155.333z"/>
<path style="fill:#d8d8d8; stroke:none;" d="M243 156L243 161L244 161L243 156z"/>
<path style="fill:#575151; stroke:none;" d="M59.6667 157.333L60.3333 157.667L59.6667 157.333z"/>
<path style="fill:#585350; stroke:none;" d="M79 159L79 160L85 157L79 159z"/>
<path style="fill:#c3c3c3; stroke:none;" d="M8.33333 158.667L8.66667 159.333L8.33333 158.667z"/>
<path style="fill:#766867; stroke:none;" d="M233 158L226 167L222 166L221 170L220 167L219 167L215 175L213 173L206 177L201 179L201 175L186 175L187 172L186 171L184 171L182 175L181 175L181 170L180 170L178 172C182.666 162.669 168.948 169.987 169 170L172 172L172 173L161 171L163 174L152 174L150 170L154 168L148 169L150 166L143 167L147 164L147 163L136 165L133 165L133 160L132 160L133 169C130.769 170.947 130.769 173.053 133 175L132 189L135 186L136 186L136 195L143 193L142 190L143 190L146 193L146 194L141 197L149 196L149 197L147 200L164 195L160 188L160 187L164 183L173 184L173 183L171 183L171 182L178 183L183 182L181 183L181 184L189 181L198 186L204 184C204.799 188.758 209.904 183.149 211 181L215 183L215 179L224 172L229 174L233 158z"/>
<path style="fill:#d9cecc; stroke:none;" d="M159 159L159 160L166 161L166 160L159 159z"/>
<path style="fill:#493e3c; stroke:none;" d="M70 162L79 161C75.9109 159.704 72.3075 159.359 70 162z"/>
<path style="fill:#979797; stroke:none;" d="M9.33333 161.667L9.66667 162.333L9.33333 161.667z"/>
<path style="fill:#c1b3b0; stroke:none;" d="M157.667 162.333L158.333 162.667L157.667 162.333z"/>
<path style="fill:#949494; stroke:none;" d="M242 162L243 163L242 162z"/>
<path style="fill:#37322f; stroke:none;" d="M119 163L119 168L120 168L119 163z"/>
<path style="fill:#766867; stroke:none;" d="M93 168L102 167L101 170L105 174L99 176C97.4287 170.261 95.2751 169.306 90 167L91 170L88 170L88 171L91 174L100 179L93 182L97 185L94 185L100 186L97 189L100 190L98 193L98 194C102.422 193.737 104.923 193.573 108 197L105 195L104 195L100 198L100 204L100 205L104 208L100 210L98 210L98 208L97 208L96 213L98 217L104 211L103 215L110 215L108 232L112 232L112 231L109 231L112 224L114 226L115 226L116 226L120 224L112 237L119 239L120 235L120 234L116 230C118.396 230.575 118.487 230.475 119 228L120 228L121 236L123 230C127.039 227.676 126.529 224.269 126 220L130 217L117 221L118 217L114 216L115 212L113 207L116 208L117 204L120 205L118.033 187.996L118 165C113.066 167.189 109.929 168.254 106 164L93 168z"/>
<path style="fill:#cfc5c4; stroke:none;" d="M171 164L171 165L175 165L171 164z"/>
<path style="fill:#3a3633; stroke:none;" d="M191 164L188 169L188 170L192 170L191 164z"/>
<path style="fill:#9d9d9d; stroke:none;" d="M10 165L10 168L11 168L10 165z"/>
<path style="fill:#3e3432; stroke:none;" d="M179.667 166.333L180.333 166.667L179.667 166.333z"/>
<path style="fill:#3b3734; stroke:none;" d="M184.667 167.333L185.333 167.667L184.667 167.333z"/>
<path style="fill:#787878; stroke:none;" d="M240 167L241 168L240 167z"/>
<path style="fill:#b4b4b4; stroke:none;" d="M239.333 169.667L239.667 170.333L239.333 169.667z"/>
<path style="fill:#a7a7a7; stroke:none;" d="M12.3333 170.667L12.6667 171.333L12.3333 170.667z"/>
<path style="fill:#787878; stroke:none;" d="M238 171L238 174L239 174L238 171z"/>
<path style="fill:#635856; stroke:none;" d="M224 172L215 179L215 183L211 181C209.289 183.566 202.692 189.232 204 184L198 186L189 181L181 184L181 183L183 182L178 183L171 182L171 183L173 183L173 184L164 183L162 184L160 187L160 188L164 195L147 200L149 197L149 196L141 197L146 194L146 193L143 190L142 190L143 193L136 195L136 186L135 186L132 189L132 182L131 182C129.623 187.94 129.314 204.903 120 203L117 204L116 208L113 207C112.254 209.946 111.803 211.311 115 212L114 216L118 217L117 221L130 217L126 220C126.229 224.264 126.639 227.278 123 230L121 236L120 228L119 228L119 231L116 230L120 234L120 235L119 239L113 239L113 240C161.545 240 208.085 221.834 228 174L224 172z"/>
<path style="fill:#7f7f7f; stroke:none;" d="M13 173L14 174L13 173z"/>
<path style="fill:#353130; stroke:none;" d="M119 173L119 181L120 181L119 173z"/>
<path style="fill:#878787; stroke:none;" d="M14 175L15 176L14 175z"/>
<path style="fill:#959595; stroke:none;" d="M237 175L238 176L237 175z"/>
<path style="fill:#5d5d5d; stroke:none;" d="M15 176L16 177L15 176z"/>
<path style="fill:#302826; stroke:none;" d="M118 182L118 194L119 194L118 182z"/>
<path style="fill:#c6c6c6; stroke:none;" d="M18.3333 183.667L18.6667 184.333L18.3333 183.667z"/>
<path style="fill:#666666; stroke:none;" d="M233 183L234 184L233 183z"/>
<path style="fill:#737373; stroke:none;" d="M232 185L233 186L232 185z"/>
<path style="fill:#848484; stroke:none;" d="M20 186L21 187L20 186z"/>
<path style="fill:#5f5f5f; stroke:none;" d="M21 188L22 189L21 188z"/>
<path style="fill:#737373; stroke:none;" d="M230 188L231 189L230 188z"/>
<path style="fill:#777777; stroke:none;" d="M22 189L23 190L22 189z"/>
<path style="fill:#7f7f7f; stroke:none;" d="M229 190L230 191L229 190z"/>
<path style="fill:#8b8b8b; stroke:none;" d="M226 195L227 196L226 195z"/>
<path style="fill:#828282; stroke:none;" d="M224 198L225 199L224 198z"/>
<path style="fill:#7f7f7f; stroke:none;" d="M223 199L224 200L223 199z"/>
<path style="fill:#7e7e7e; stroke:none;" d="M29 200L30 201L29 200z"/>
<path style="fill:#5c5c5c; stroke:none;" d="M30 201L31 202L30 201z"/>
<path style="fill:#a3a2a2; stroke:none;" d="M222 201L223 202L222 201z"/>
<path style="fill:#575757; stroke:none;" d="M31 202L32 203L31 202z"/>
<path style="fill:#7d7d7d; stroke:none;" d="M219 204L220 205L219 204z"/>
<path style="fill:#a6a6a6; stroke:none;" d="M218 205L219 206L218 205z"/>
<path style="fill:#777777; stroke:none;" d="M34 206L35 207L34 206z"/>
<path style="fill:#6a6a6a; stroke:none;" d="M217 206L218 207L217 206z"/>
<path style="fill:#424242; stroke:none;" d="M35.3333 207.667L35.6667 208.333L35.3333 207.667z"/>
<path style="fill:#606060; stroke:none;" d="M216 207L217 208L216 207z"/>
<path style="fill:#555555; stroke:none;" d="M215 208L216 209L215 208z"/>
<path style="fill:#9c9c9c; stroke:none;" d="M38.3333 211.667L38.6667 212.333L38.3333 211.667z"/>
<path style="fill:#8a8a8a; stroke:none;" d="M212 212L213 213L212 212z"/>
<path style="fill:#656565; stroke:none;" d="M39 213L40 214L39 213z"/>
<path style="fill:#979797; stroke:none;" d="M211 213L212 214L211 213z"/>
<path style="fill:#8c8c8c; stroke:none;" d="M40 214L41 215L40 214z"/>
<path style="fill:#939393; stroke:none;" d="M210 214L211 215L210 214z"/>
<path style="fill:#a6a6a6; stroke:none;" d="M41 215L41 216L44 216L41 215z"/>
<path style="fill:#9c9c9c; stroke:none;" d="M209 215L210 216L209 215z"/>
<path style="fill:#a4a4a4; stroke:none;" d="M208 216L209 217L208 216z"/>
<path style="fill:#626262; stroke:none;" d="M46 217L47 218L46 217z"/>
<path style="fill:#868686; stroke:none;" d="M47 218L48 219L47 218z"/>
<path style="fill:#818181; stroke:none;" d="M48 219L49 220L48 219z"/>
<path style="fill:#6e6e6e; stroke:none;" d="M53 223L54 224L53 223z"/>
<path style="fill:#a2a2a2; stroke:none;" d="M54 224L55 225L54 224z"/>
<path style="fill:#9c9c9c; stroke:none;" d="M57 226L58 227L57 226z"/>
<path style="fill:#727272; stroke:none;" d="M196 226L197 227L196 226z"/>
<path style="fill:#8b8b8b; stroke:none;" d="M195 227L196 228L195 227z"/>
<path style="fill:#666666; stroke:none;" d="M193 228L194 229L193 228z"/>
<path style="fill:#989898; stroke:none;" d="M62 229L63 230L62 229z"/>
<path style="fill:#666666; stroke:none;" d="M190 230L191 231L190 230z"/>
<path style="fill:#8b8b8b; stroke:none;" d="M65 231L66 232L65 231M66 232L67 233L66 232z"/>
<path style="fill:#929292; stroke:none;" d="M187 232L188 233L187 232z"/>
<path style="fill:#5f5f5f; stroke:none;" d="M68 233L69 234L68 233z"/>
<path style="fill:#696969; stroke:none;" d="M185 233L186 234L185 233z"/>
<path style="fill:#868686; stroke:none;" d="M70 234L71 235L70 234z"/>
<path style="fill:#878787; stroke:none;" d="M183 234L184 235L183 234z"/>
<path style="fill:#737373; stroke:none;" d="M72 235L73 236L72 235z"/>
<path style="fill:#6d6d6d; stroke:none;" d="M74.6667 236.333L75.3333 236.667L74.6667 236.333z"/>
<path style="fill:#666666; stroke:none;" d="M77 237L78 238L77 237z"/>
<path style="fill:#545454; stroke:none;" d="M79.6667 238.333L80.3333 238.667L79.6667 238.333z"/>
<path style="fill:#959595; stroke:none;" d="M173.667 238.333L174.333 238.667L173.667 238.333z"/>
<path style="fill:#636363; stroke:none;" d="M82 239L83 240L82 239z"/>
<path style="fill:#2d2522; stroke:none;" d="M134 239L134 240L139 240L134 239z"/>
<path style="fill:#626262; stroke:none;" d="M85 240L86 241L85 240z"/>
<path style="fill:#989898; stroke:none;" d="M86.6667 241.333L87.3333 241.667L86.6667 241.333z"/>
<path style="fill:#bababa; stroke:none;" d="M166.667 241.333L167.333 241.667L166.667 241.333z"/>
<path style="fill:#545454; stroke:none;" d="M89 242L89 243L92 243L89 242z"/>
<path style="fill:#828282; stroke:none;" d="M164 242L165 243L164 242z"/>
<path style="fill:#767676; stroke:none;" d="M93 243L94 244L93 243z"/>
<path style="fill:#a1a1a1; stroke:none;" d="M155.667 244.333L156.333 244.667L155.667 244.333z"/>
<path style="fill:#bcbcbc; stroke:none;" d="M96.6667 245.333L97.3333 245.667L96.6667 245.333z"/>
<path style="fill:#c9c9c9; stroke:none;" d="M152.667 245.333L153.333 245.667L152.667 245.333z"/>
<path style="fill:#747474; stroke:none;" d="M100 246L100 247L104 247L100 246z"/>
<path style="fill:#757575; stroke:none;" d="M107 246L107 247L111 247L107 246z"/>
<path style="fill:#5d5d5d; stroke:none;" d="M144 246L144 247L151 247L144 246z"/>
<path style="fill:#b9b9b9; stroke:none;" d="M104 247L104 248L107 248L104 247z"/>
<path style="fill:#8a8a8a; stroke:none;" d="M113 247L113 248L117 248L113 247z"/>
<path style="fill:#3d3d3d; stroke:none;" d="M119.667 247.333L120.333 247.667L119.667 247.333z"/>
<path style="fill:#626262; stroke:none;" d="M122 247L122 248L130 248L122 247M131 247L131 248L139 248L131 247z"/>
<path style="fill:#b4b4b4; stroke:none;" d="M139.667 247.333L140.333 247.667L139.667 247.333z"/>
</svg>
