<?xml version="1.0" standalone="yes"?>
<svg width="252" height="252">

<path style="fill:#a3a3a2; stroke:none;" d="M108 5L108 6L113 6L108 5z"/>
<path style="fill:#5f5f5f; stroke:none;" d="M113 5L113 6L121 6L113 5z"/>
<path style="fill:#000000; stroke:none;" d="M121 5.70988C105.757 5.93629 92.0801 8.41336 78 14.4213C2.00611 46.8476 -20.2317 152.528 38.7045 212.156C49.5031 223.081 64.8015 232.32 79 238C92.4731 243.389 105.261 247.971 120 247.59C149.201 246.833 176.041 242.327 200 224.101C255.402 181.955 264.415 89.6209 212.981 40.2446C187.774 16.0449 155.066 5.2039 121 5.70988z"/>
<path style="fill:#626262; stroke:none;" d="M122 5L122 6L130 6L122 5z"/>
<path style="fill:#5c5c5c; stroke:none;" d="M131.667 5.33333L132.333 5.66667L131.667 5.33333z"/>
<path style="fill:#898989; stroke:none;" d="M134 5L134 6L139 6L134 5z"/>
<path style="fill:#a4a4a4; stroke:none;" d="M145 5L145 6L148 6L145 5z"/>
<path style="fill:#adadad; stroke:none;" d="M100.667 6.33333L101.333 6.66667L100.667 6.33333z"/>
<path style="fill:#696969; stroke:none;" d="M102.667 6.33333L103.333 6.66667L102.667 6.33333z"/>
<path style="fill:#545454; stroke:none;" d="M142 6L142 7L145 7L142 6z"/>
<path style="fill:#959595; stroke:none;" d="M150.667 6.33333L151.333 6.66667L150.667 6.33333z"/>
<path style="fill:#979797; stroke:none;" d="M98.6667 7.33333L99.3333 7.66667L98.6667 7.33333z"/>
<path style="fill:#737373; stroke:none;" d="M94 8L94 9L97 9L94 8z"/>
<path style="fill:#848484; stroke:none;" d="M156 8L157 9L156 8z"/>
<path style="fill:#464646; stroke:none;" d="M89.6667 9.33333L90.3333 9.66667L89.6667 9.33333z"/>
<path style="fill:#7c7c7c; stroke:none;" d="M87 10L88 11L87 10z"/>
<path style="fill:#545454; stroke:none;" d="M160 10L160 11L163 11L160 10z"/>
<path style="fill:#7b7b7b; stroke:none;" d="M84 11L85 12L84 11z"/>
<path style="fill:#8e8e8e; stroke:none;" d="M165 11L166 12L165 11z"/>
<path style="fill:#838383; stroke:none;" d="M82 12L83 13L82 12z"/>
<path style="fill:#606060; stroke:none;" d="M166 12L167 13L166 12z"/>
<path style="fill:#858585; stroke:none;" d="M79.6667 13.3333L80.3333 13.6667L79.6667 13.3333z"/>
<path style="fill:#665e73; stroke:none;" d="M112 13L112 14L139 14L112 13z"/>
<path style="fill:#8e8e8e; stroke:none;" d="M77 14L78 15L77 14z"/>
<path style="fill:#2f2349; stroke:none;" d="M105 14L105 15L108 15L105 14z"/>
<path style="fill:#816aae; stroke:none;" d="M40 56C34.6202 57.7717 31.606 64.3329 28.8225 69C20.7034 82.6138 14.0257 100.012 14 116C13.9787 129.242 13.6379 142.059 16.7492 155C25.6295 191.937 55.7983 223.647 92 234.818C106.85 239.4 120.664 240.164 136 239.09C141.308 238.717 149.154 239.375 153.247 235.14C157.251 230.997 156.366 219.357 155.613 214.171C155.021 210.091 152.147 206.402 150 203C153.948 205.054 164.799 206.063 160 199L161 197L166 198C165.149 187.856 144.956 177.295 136.246 172.377C132.845 170.456 129.197 167.061 125.039 167.452C119.097 168.012 107.655 175.928 102.3 178.969C97.6008 181.637 82.4925 196.244 77.5231 192.353C72.8892 188.725 76.9828 178.697 78.1312 174C82.2224 157.265 96.5175 136.794 74 128L75 125L66 117L62 118C59.2486 112.351 49.5555 108.083 48.6474 102.981C47.2979 95.4016 56.3801 96.2702 61 95.8302C72.5312 94.7321 91.164 98.5281 101.683 93.3966C106.938 90.8332 106.558 80.321 112 77C114.906 65.1543 118.881 44.0498 133 44L133 40L131 43L125 40L129 39L134 33L138 36L136 34L131 27L136 22C134.319 18.5982 136.773 17.5259 140 17L140 16C138.04 15.3466 137.446 15 140 15C134.538 12.7079 126.887 14 121 14C98.6782 14 75.8732 21.6275 58 35.1312C50.9612 40.4492 41.2518 46.6351 40 56z"/>
<path style="fill:#715a9e; stroke:none;" d="M138 15L140 16L140 17C136.959 17.2422 132.665 18.8349 136 22L131 27L138 36L134 33L129 39L127 37L125 40L131 43L133 40L133 44L128 44L128 45L135.742 57.831L151 96C158.539 91.8894 167.391 96.5458 175 97.99C184.577 99.8077 195.045 97.668 205 100C204.692 104.089 203.7 106.135 200 108L200 112L203 112L203 110L205 111L212 108L212 104L218 104L219 93L232 89C227.393 58.266 192.758 29.6026 165 20.4105C156.754 17.6798 146.789 13.6254 138 15z"/>
<path style="fill:#6d6d6d; stroke:none;" d="M172 14L173 15L172 14z"/>
<path style="fill:#33313e; stroke:none;" d="M101 15L101 16L104 16L101 15z"/>
<path style="fill:#494755; stroke:none;" d="M146 15L146 16L149 16L146 15z"/>
<path style="fill:#666666; stroke:none;" d="M174 15L175 16L174 15z"/>
<path style="fill:#6a6a6b; stroke:none;" d="M73 16L74 17L73 16z"/>
<path style="fill:#3d2c59; stroke:none;" d="M152.667 16.3333L153.333 16.6667L152.667 16.3333z"/>
<path style="fill:#7a7a7a; stroke:none;" d="M176.667 16.3333L177.333 16.6667L176.667 16.3333z"/>
<path style="fill:#898989; stroke:none;" d="M70 17L71 18L70 17z"/>
<path style="fill:#3a343e; stroke:none;" d="M155.667 17.3333L156.333 17.6667L155.667 17.3333z"/>
<path style="fill:#c7c7c7; stroke:none;" d="M179.667 17.3333L180.333 17.6667L179.667 17.3333z"/>
<path style="fill:#7a7a7a; stroke:none;" d="M68 18L69 19L68 18z"/>
<path style="fill:#483a6f; stroke:none;" d="M91.6667 18.3333L92.3333 18.6667L91.6667 18.3333z"/>
<path style="fill:#bebebd; stroke:none;" d="M181.667 18.3333L182.333 18.6667L181.667 18.3333z"/>
<path style="fill:#929292; stroke:none;" d="M64 20L65 21L64 20z"/>
<path style="fill:#8b8b8b; stroke:none;" d="M185 20L186 21L185 20z"/>
<path style="fill:#909090; stroke:none;" d="M62 21L63 22L62 21z"/>
<path style="fill:#919191; stroke:none;" d="M191 24L192 25L191 24z"/>
<path style="fill:#8b8b8b; stroke:none;" d="M56 25L57 26L56 25z"/>
<path style="fill:#626262; stroke:none;" d="M55 26L56 27L55 26z"/>
<path style="fill:#a7a7a7; stroke:none;" d="M53 27L54 28L53 27M196 27L197 28L196 27z"/>
<path style="fill:#989898; stroke:none;" d="M52 28L53 29L52 28z"/>
<path style="fill:#656565; stroke:none;" d="M51 29L52 30L51 29z"/>
<path style="fill:#a4a4a4; stroke:none;" d="M201 31L202 32L201 31z"/>
<path style="fill:#919190; stroke:none;" d="M47 32L48 33L47 32z"/>
<path style="fill:#908f90; stroke:none;" d="M202 32L203 33L202 32z"/>
<path style="fill:#818181; stroke:none;" d="M203 33L204 34L203 33z"/>
<path style="fill:#9d9d9d; stroke:none;" d="M45 34L46 35L45 34z"/>
<path style="fill:#767676; stroke:none;" d="M204 34L205 35L204 34z"/>
<path style="fill:#a2a2a2; stroke:none;" d="M44 35L45 36L44 35z"/>
<path style="fill:#a4a4a4; stroke:none;" d="M43 36L44 37L43 36z"/>
<path style="fill:#636363; stroke:none;" d="M42 37L43 38L42 37z"/>
<path style="fill:#7a7a7a; stroke:none;" d="M208 37L208 38L211 38L208 37z"/>
<path style="fill:#8d8d8e; stroke:none;" d="M41 38L42 39L41 38z"/>
<path style="fill:#8b8b8b; stroke:none;" d="M211 38L212 39L211 38z"/>
<path style="fill:#878787; stroke:none;" d="M40 39L41 40L40 39z"/>
<path style="fill:#7c7c7c; stroke:none;" d="M39 40L40 41L39 40z"/>
<path style="fill:#5d5d5d; stroke:none;" d="M213.333 40.6667L213.667 41.3333L213.333 40.6667z"/>
<path style="fill:#909090; stroke:none;" d="M37 42L38 43L37 42z"/>
<path style="fill:#575759; stroke:none;" d="M36 44L37 45L36 44z"/>
<path style="fill:#000000; stroke:none;" d="M77 126L76 129L88 136C87.3723 150.619 79.7693 163.775 77.0802 178C76.2597 182.341 72.4813 191.075 79.0579 192.667C84.1733 193.905 92.6528 185.915 98 184L97 181L100 178L111 173L111 175C114.492 173.213 122.441 166.406 126.093 167.132C137.85 169.47 149.289 182.92 159.704 188.576C163.553 190.666 167.835 195.112 172.656 193.471C178.281 191.556 173.678 177.211 172.117 173.174C171.064 170.448 168.334 168.688 167.602 165.826C166.346 160.918 167.773 155.192 166.66 150C165.872 146.33 163.484 141.535 165.562 138.04C173.777 124.226 204.429 117.525 205 100L183 96L182 96L177 100C170.237 94.1983 156.055 99.2128 149.943 93.5123C141.737 85.8596 139.809 66.1487 134.921 56C133.164 52.3527 132.001 44.7715 126.961 44.4923C120.668 44.1437 121.898 51.9199 119.552 55.5756C116.157 60.8658 116.893 65.19 114.581 70.4861C112.443 75.3828 108.76 79.6006 106.444 84.4282C105.031 87.3719 105.279 91.6311 102.427 93.6821C99.3972 95.862 94.511 94.907 91 95.1551C80.6904 95.8836 70.3066 95.4977 60 96.7145C55.3277 97.2661 43.8778 97.4898 49.3187 105.686C50.9709 108.175 54.3677 108.36 56.4522 110.393C59.5095 113.375 60.6342 115.705 64.7253 117.62C69.406 119.811 72.4484 123.816 77 126z"/>
<path style="fill:#6b6b6b; stroke:none;" d="M34 46L35 47L34 46z"/>
<path style="fill:#42364e; stroke:none;" d="M131.333 46.6667L131.667 47.3333L131.333 46.6667z"/>
<path style="fill:#7a7a7a; stroke:none;" d="M217 46L218 47L217 46z"/>
<path style="fill:#959595; stroke:none;" d="M33 47L34 48L33 47z"/>
<path style="fill:#6b6b6b; stroke:none;" d="M32 48L33 49L32 48z"/>
<path style="fill:#8a8a8a; stroke:none;" d="M31 49L32 50L31 49z"/>
<path style="fill:#8f8f8f; stroke:none;" d="M30 50L31 51L30 50z"/>
<path style="fill:#a1a1a1; stroke:none;" d="M29 51L30 52L29 51z"/>
<path style="fill:#3c324d; stroke:none;" d="M121.333 51.6667L121.667 52.3333L121.333 51.6667z"/>
<path style="fill:#423c48; stroke:none;" d="M133 51L133 54L134 54L133 51z"/>
<path style="fill:#707070; stroke:none;" d="M222 52L223 53L222 52z"/>
<path style="fill:#615376; stroke:none;" d="M39 53L38 56L39 53z"/>
<path style="fill:#999999; stroke:none;" d="M223 53L224 54L223 53z"/>
<path style="fill:#828282; stroke:none;" d="M27 54L28 55L27 54z"/>
<path style="fill:#423560; stroke:none;" d="M134.333 54.6667L134.667 55.3333L134.333 54.6667z"/>
<path style="fill:#888888; stroke:none;" d="M25 57L26 58L25 57z"/>
<path style="fill:#a0a0a0; stroke:none;" d="M226 57L227 58L226 57z"/>
<path style="fill:#969696; stroke:none;" d="M24 58L25 59L24 58z"/>
<path style="fill:#828282; stroke:none;" d="M227 59L228 60L227 59z"/>
<path style="fill:#aaaaaa; stroke:none;" d="M23 60L24 61L23 60z"/>
<path style="fill:#413857; stroke:none;" d="M137.333 60.6667L137.667 61.3333L137.333 60.6667z"/>
<path style="fill:#7c7c7c; stroke:none;" d="M22 62L23 63L22 62z"/>
<path style="fill:#a4a4a4; stroke:none;" d="M21 63L22 64L21 63z"/>
<path style="fill:#353535; stroke:none;" d="M230.333 64.6667L230.667 65.3333L230.333 64.6667z"/>
<path style="fill:#6a6a6a; stroke:none;" d="M231 66L232 67L231 66z"/>
<path style="fill:#747474; stroke:none;" d="M19 67L20 68L19 67z"/>
<path style="fill:#423553; stroke:none;" d="M115 68L115 71L116 71L115 68z"/>
<path style="fill:#413b49; stroke:none;" d="M125 69L125 72L127 69L125 69z"/>
<path style="fill:#6a5290; stroke:none;" d="M117 94L135 95L128 71C121.364 74.5687 118.978 87.0812 117 94z"/>
<path style="fill:#919191; stroke:none;" d="M234 71L235 72L234 71z"/>
<path style="fill:#8e8e8f; stroke:none;" d="M16 73L17 74L16 73z"/>
<path style="fill:#878787; stroke:none;" d="M235 73L236 74L235 73z"/>
<path style="fill:#8d8d8d; stroke:none;" d="M14 77L15 78L14 77z"/>
<path style="fill:#413445; stroke:none;" d="M109 77L109 79L111 79L111 77L109 77z"/>
<path style="fill:#7c7c7c; stroke:none;" d="M237 77L238 78L237 77z"/>
<path style="fill:#3f3a41; stroke:none;" d="M143.333 78.6667L143.667 79.3333L143.333 78.6667z"/>
<path style="fill:#7b7b7b; stroke:none;" d="M13.3333 79.6667L13.6667 80.3333L13.3333 79.6667z"/>
<path style="fill:#4c4064; stroke:none;" d="M23.3333 79.6667L23.6667 80.3333L23.3333 79.6667z"/>
<path style="fill:#6b6b6b; stroke:none;" d="M238 79L239 80L238 79z"/>
<path style="fill:#342649; stroke:none;" d="M144.333 81.6667L144.667 82.3333L144.333 81.6667z"/>
<path style="fill:#5d5d5d; stroke:none;" d="M239.333 81.6667L239.667 82.3333L239.333 81.6667z"/>
<path style="fill:#626262; stroke:none;" d="M12.3333 82.6667L12.6667 83.3333L12.3333 82.6667z"/>
<path style="fill:#656565; stroke:none;" d="M240 84L241 85L240 84z"/>
<path style="fill:#737373; stroke:none;" d="M11 85L12 86L11 85z"/>
<path style="fill:#c8c8c8; stroke:none;" d="M241 85L241 88L242 88L241 85z"/>
<path style="fill:#40345c; stroke:none;" d="M20.3333 86.6667L20.6667 87.3333L20.3333 86.6667z"/>
<path style="fill:#707070; stroke:none;" d="M10.3333 87.6667L10.6667 88.3333L10.3333 87.6667z"/>
<path style="fill:#443b4c; stroke:none;" d="M104 87L104 93L105 93L104 87z"/>
<path style="fill:#634b89; stroke:none;" d="M219 93L218 104L212 104L212 108C208.525 107.736 206.824 107.952 205 111L203 112L200 112L197 110C189.881 121.779 171.063 126.014 165.046 138.055C163.201 141.747 165.912 147.208 166.646 151C168.489 160.521 171.692 170.607 172.498 179.985C173.116 187.167 179.194 196.295 166 194L165 195L166 198L161 197L160 199C163.424 206.252 154.016 204.538 150 203C155.503 215.301 155.685 222.578 154 236C194.347 225.214 225.297 195.219 235.403 154C239.159 138.68 239.678 120.461 236.513 105C235.745 101.249 236.123 92.4436 232.426 90.1358C229.891 88.5537 222.228 92.7341 219 93z"/>
<path style="fill:#404040; stroke:none;" d="M9.33333 90.6667L9.66667 91.3333L9.33333 90.6667z"/>
<path style="fill:#5f5f5f; stroke:none;" d="M242.333 90.6667L242.667 91.3333L242.333 90.6667z"/>
<path style="fill:#d9d9d9; stroke:none;" d="M8 92L8 96L9 96L8 92z"/>
<path style="fill:#4f465b; stroke:none;" d="M89 94L89 95L103 95L89 94z"/>
<path style="fill:#2b262d; stroke:none;" d="M152 94L152 95L158 95L152 94z"/>
<path style="fill:#2d1b45; stroke:none;" d="M63 95L63 96L76 96L63 95z"/>
<path style="fill:#2b213a; stroke:none;" d="M85 95L85 96L89 96L85 95z"/>
<path style="fill:#473461; stroke:none;" d="M160 95L160 96L172 97L160 95z"/>
<path style="fill:#58536a; stroke:none;" d="M50 96L50 97L62 97L50 96z"/>
<path style="fill:#d9d9d9; stroke:none;" d="M244 96L244 100L245 100L244 96z"/>
<path style="fill:#2b2443; stroke:none;" d="M184 97L184 98L189 98L184 97z"/>
<path style="fill:#3c2f4b; stroke:none;" d="M177.333 98.6667L177.667 99.3333L177.333 98.6667z"/>
<path style="fill:#35264f; stroke:none;" d="M191 99L191 100L196 100L191 99z"/>
<path style="fill:#949494; stroke:none;" d="M6.33333 100.667L6.66667 101.333L6.33333 100.667z"/>
<path style="fill:#424242; stroke:none;" d="M244.333 100.667L244.667 101.333L244.333 100.667z"/>
<path style="fill:#473e4f; stroke:none;" d="M236 101L236 106L237 106L236 101z"/>
<path style="fill:#353535; stroke:none;" d="M6 102L6 105L7 105L6 102z"/>
<path style="fill:#a2a2a2; stroke:none;" d="M245.333 103.667L245.667 104.333L245.333 103.667z"/>
<path style="fill:#c8c8c7; stroke:none;" d="M5 104L5 109L6 109L5 104z"/>
<path style="fill:#696969; stroke:none;" d="M245 105L245 108L246 108L245 105z"/>
<path style="fill:#1d1927; stroke:none;" d="M80 107L80 108L100 109C96.387 104.865 85.2494 107 80 107z"/>
<path style="fill:#26232a; stroke:none;" d="M120 107L120 108L130 108L120 107z"/>
<path style="fill:#816da8; stroke:none;" d="M71 108C74.04 111.397 87.953 124.846 92.5008 122.673C96.0659 120.969 97.3084 111.524 99 108L71 108z"/>
<path style="fill:#785fa3; stroke:none;" d="M112 108L104 134C109.565 137.48 119.089 148.632 126 148.12C130.426 147.791 136.587 142.541 139.83 139.75C142.214 137.699 146.002 135.252 146.59 131.946C147.995 124.033 141.338 115.506 140 108L112 108z"/>
<path style="fill:#6c5697; stroke:none;" d="M154 108C154.371 112.693 154.48 117.631 159 120L158 126L180 109L154 108z"/>
<path style="fill:#2d2b30; stroke:none;" d="M171 108L171 109L181 110L171 108z"/>
<path style="fill:#939393; stroke:none;" d="M246 108L246 113L247 113L246 108z"/>
<path style="fill:#838383; stroke:none;" d="M5 109L5 115L6 115L5 109z"/>
<path style="fill:#34343e; stroke:none;" d="M111.333 110.667L111.667 111.333L111.333 110.667z"/>
<path style="fill:#635a6b; stroke:none;" d="M13 112L13 138L14 138L13 112z"/>
<path style="fill:#585560; stroke:none;" d="M96 113L96 118L97 118L96 113z"/>
<path style="fill:#323232; stroke:none;" d="M246 113L246 121L247 121L246 113z"/>
<path style="fill:#473f54; stroke:none;" d="M238 114L238 139L239 139L238 114z"/>
<path style="fill:#575757; stroke:none;" d="M5 115L5 124L6 124L5 115z"/>
<path style="fill:#383141; stroke:none;" d="M62.6667 117.333L63.3333 117.667L62.6667 117.333z"/>
<path style="fill:#2c252c; stroke:none;" d="M156 118L159 122L156 118z"/>
<path style="fill:#29212c; stroke:none;" d="M71 121L73 124L71 121z"/>
<path style="fill:#3a3144; stroke:none;" d="M107 121L107 124L108 124L107 121z"/>
<path style="fill:#4d4b56; stroke:none;" d="M91 125L94 123L91 125z"/>
<path style="fill:#44355e; stroke:none;" d="M106 124L106 129L107 129L106 124z"/>
<path style="fill:#3a3442; stroke:none;" d="M74 128L77 126L74 128z"/>
<path style="fill:#4e4e4e; stroke:none;" d="M246 129L246 140L247 140L246 129z"/>
<path style="fill:#4a4a4a; stroke:none;" d="M5 132L5 140L6 140L5 132z"/>
<path style="fill:#473663; stroke:none;" d="M170 134L173 133L170 134z"/>
<path style="fill:#433856; stroke:none;" d="M85 136L85 137L88 138L85 136z"/>
<path style="fill:#bebebf; stroke:none;" d="M5 140L5 144L6 144L5 140z"/>
<path style="fill:#3b3446; stroke:none;" d="M163.333 140.667L163.667 141.333L163.333 140.667z"/>
<path style="fill:#aaaaaa; stroke:none;" d="M246 140L246 144L247 144L246 140z"/>
<path style="fill:#4d4b50; stroke:none;" d="M118.667 144.333L119.333 144.667L118.667 144.333z"/>
<path style="fill:#d2d2d2; stroke:none;" d="M246 144L246 148L247 148L246 144z"/>
<path style="fill:#69696a; stroke:none;" d="M6.33333 145.667L6.66667 146.333L6.33333 145.667z"/>
<path style="fill:#282432; stroke:none;" d="M86 145L86 149L87 149L86 145z"/>
<path style="fill:#353340; stroke:none;" d="M15 146L15 152L16 152L15 146z"/>
<path style="fill:#474550; stroke:none;" d="M99 146L99 149L100 149L101 146L99 146z"/>
<path style="fill:#312839; stroke:none;" d="M236 146L236 152L237 152L236 146z"/>
<path style="fill:#a5a5a6; stroke:none;" d="M6 147L6 150L7 150L6 147z"/>
<path style="fill:#806aab; stroke:none;" d="M100 147L92 173L114 159L114 157L106 150L102 151L102 147L100 147z"/>
<path style="fill:#4c3b68; stroke:none;" d="M102 147L104 151L102 147z"/>
<path style="fill:#765d9f; stroke:none;" d="M142 156L137 157C142.399 163.537 152.056 169.993 160 173L153 147C148.151 148.913 143.532 150.715 142 156z"/>
<path style="fill:#6a6a6a; stroke:none;" d="M245 149L245 152L246 152L245 149z"/>
<path style="fill:#403361; stroke:none;" d="M153 150L153 153L154 153L153 150z"/>
<path style="fill:#4a3d59; stroke:none;" d="M106.667 151.333L107.333 151.667L106.667 151.333z"/>
<path style="fill:#3d3544; stroke:none;" d="M154.333 154.667L154.667 155.333L154.333 154.667z"/>
<path style="fill:#58505f; stroke:none;" d="M166.333 155.667L166.667 156.333L166.333 155.667z"/>
<path style="fill:#342c44; stroke:none;" d="M136 156L136 158L138 156L136 156z"/>
<path style="fill:#d8d8d8; stroke:none;" d="M243 156L243 161L244 161L243 156z"/>
<path style="fill:#c3c3c3; stroke:none;" d="M8.33333 158.667L8.66667 159.333L8.33333 158.667z"/>
<path style="fill:#979797; stroke:none;" d="M9.33333 161.667L9.66667 162.333L9.33333 161.667z"/>
<path style="fill:#2c2048; stroke:none;" d="M157 162L157 168L158 168L157 162z"/>
<path style="fill:#2c2a2d; stroke:none;" d="M167 162L169 170L170 170L167 162z"/>
<path style="fill:#949494; stroke:none;" d="M242 162L243 163L242 162z"/>
<path style="fill:#9d9d9d; stroke:none;" d="M10 165L10 168L11 168L10 165z"/>
<path style="fill:#554a6c; stroke:none;" d="M123 168L127 167L123 168z"/>
<path style="fill:#787878; stroke:none;" d="M240 167L241 168L240 167z"/>
<path style="fill:#3c2a5a; stroke:none;" d="M79.3333 168.667L79.6667 169.333L79.3333 168.667z"/>
<path style="fill:#b4b4b4; stroke:none;" d="M239.333 169.667L239.667 170.333L239.333 169.667z"/>
<path style="fill:#a7a7a7; stroke:none;" d="M12.3333 170.667L12.6667 171.333L12.3333 170.667z"/>
<path style="fill:#787878; stroke:none;" d="M238 171L238 174L239 174L238 171z"/>
<path style="fill:#7f7f7f; stroke:none;" d="M13 173L14 174L13 173z"/>
<path style="fill:#41344e; stroke:none;" d="M110 173L112 176L110 173z"/>
<path style="fill:#4d4260; stroke:none;" d="M113.667 173.333L114.333 173.667L113.667 173.333z"/>
<path style="fill:#878787; stroke:none;" d="M14 175L15 176L14 175z"/>
<path style="fill:#665975; stroke:none;" d="M104 177L104 178L110 175L104 177z"/>
<path style="fill:#959595; stroke:none;" d="M237 175L238 176L237 175z"/>
<path style="fill:#5d5d5d; stroke:none;" d="M15 176L16 177L15 176z"/>
<path style="fill:#392f51; stroke:none;" d="M100 178L100 181L101 181L102 178L100 178z"/>
<path style="fill:#322536; stroke:none;" d="M97 183L100 182L97 183z"/>
<path style="fill:#c6c6c6; stroke:none;" d="M18.3333 183.667L18.6667 184.333L18.3333 183.667z"/>
<path style="fill:#666667; stroke:none;" d="M233 183L234 184L233 183z"/>
<path style="fill:#737373; stroke:none;" d="M232 185L233 186L232 185z"/>
<path style="fill:#848484; stroke:none;" d="M20 186L21 187L20 186z"/>
<path style="fill:#201736; stroke:none;" d="M89 186L89 187L93 187L89 186z"/>
<path style="fill:#5f5f5f; stroke:none;" d="M21 188L22 189L21 188z"/>
<path style="fill:#4a3c60; stroke:none;" d="M74.3333 188.667L74.6667 189.333L74.3333 188.667z"/>
<path style="fill:#352748; stroke:none;" d="M158 188L158 189L161 189L158 188z"/>
<path style="fill:#737373; stroke:none;" d="M230 188L231 189L230 188z"/>
<path style="fill:#777777; stroke:none;" d="M22 189L23 190L22 189z"/>
<path style="fill:#7f7f7f; stroke:none;" d="M229 190L230 191L229 190z"/>
<path style="fill:#352a48; stroke:none;" d="M174.333 192.667L174.667 193.333L174.333 192.667z"/>
<path style="fill:#413245; stroke:none;" d="M77 193L77 194L82 194L77 193z"/>
<path style="fill:#392a47; stroke:none;" d="M166.667 193.333L167.333 193.667L166.667 193.333z"/>
<path style="fill:#3d2d5c; stroke:none;" d="M168 194L168 195L174 195L168 194z"/>
<path style="fill:#8b8b8b; stroke:none;" d="M226 195L227 196L226 195z"/>
<path style="fill:#828282; stroke:none;" d="M224 198L225 199L224 198z"/>
<path style="fill:#7f7f7f; stroke:none;" d="M223 199L224 200L223 199z"/>
<path style="fill:#7e7e7e; stroke:none;" d="M29 200L30 201L29 200z"/>
<path style="fill:#5c5c5c; stroke:none;" d="M30 201L31 202L30 201z"/>
<path style="fill:#a3a2a3; stroke:none;" d="M222 201L223 202L222 201z"/>
<path style="fill:#575757; stroke:none;" d="M31 202L32 203L31 202z"/>
<path style="fill:#7d7d7d; stroke:none;" d="M219 204L220 205L219 204z"/>
<path style="fill:#a6a6a6; stroke:none;" d="M218 205L219 206L218 205z"/>
<path style="fill:#777777; stroke:none;" d="M34 206L35 207L34 206z"/>
<path style="fill:#6a6a6a; stroke:none;" d="M217 206L218 207L217 206z"/>
<path style="fill:#424242; stroke:none;" d="M35.3333 207.667L35.6667 208.333L35.3333 207.667z"/>
<path style="fill:#606060; stroke:none;" d="M216 207L217 208L216 207z"/>
<path style="fill:#555555; stroke:none;" d="M215 208L216 209L215 208z"/>
<path style="fill:#9c9c9c; stroke:none;" d="M38.3333 211.667L38.6667 212.333L38.3333 211.667z"/>
<path style="fill:#8a8a8a; stroke:none;" d="M212 212L213 213L212 212z"/>
<path style="fill:#656565; stroke:none;" d="M39 213L40 214L39 213z"/>
<path style="fill:#979797; stroke:none;" d="M211 213L212 214L211 213z"/>
<path style="fill:#8c8c8c; stroke:none;" d="M40 214L41 215L40 214z"/>
<path style="fill:#939393; stroke:none;" d="M210 214L211 215L210 214z"/>
<path style="fill:#a6a6a6; stroke:none;" d="M41 215L41 216L44 216L41 215z"/>
<path style="fill:#9c9c9c; stroke:none;" d="M209 215L210 216L209 215z"/>
<path style="fill:#a4a4a4; stroke:none;" d="M208 216L209 217L208 216z"/>
<path style="fill:#626262; stroke:none;" d="M46 217L47 218L46 217z"/>
<path style="fill:#aaaaaa; stroke:none;" d="M207 217L208 218L207 217z"/>
<path style="fill:#868686; stroke:none;" d="M47 218L48 219L47 218z"/>
<path style="fill:#818181; stroke:none;" d="M48 219L49 220L48 219z"/>
<path style="fill:#6e6e6e; stroke:none;" d="M53 223L54 224L53 223z"/>
<path style="fill:#a2a2a2; stroke:none;" d="M54 224L55 225L54 224z"/>
<path style="fill:#9c9c9c; stroke:none;" d="M57 226L58 227L57 226z"/>
<path style="fill:#727272; stroke:none;" d="M196 226L197 227L196 226z"/>
<path style="fill:#8b8b8b; stroke:none;" d="M195 227L196 228L195 227z"/>
<path style="fill:#666666; stroke:none;" d="M193 228L194 229L193 228z"/>
<path style="fill:#989898; stroke:none;" d="M62 229L63 230L62 229z"/>
<path style="fill:#666666; stroke:none;" d="M190 230L191 231L190 230z"/>
<path style="fill:#8b8b8b; stroke:none;" d="M65 231L66 232L65 231M66 232L67 233L66 232z"/>
<path style="fill:#929292; stroke:none;" d="M187 232L188 233L187 232z"/>
<path style="fill:#5f5f5f; stroke:none;" d="M68 233L69 234L68 233z"/>
<path style="fill:#696969; stroke:none;" d="M185 233L186 234L185 233z"/>
<path style="fill:#868686; stroke:none;" d="M70 234L71 235L70 234z"/>
<path style="fill:#878787; stroke:none;" d="M183 234L184 235L183 234z"/>
<path style="fill:#737373; stroke:none;" d="M72 235L73 236L72 235z"/>
<path style="fill:#6d6d6d; stroke:none;" d="M74.6667 236.333L75.3333 236.667L74.6667 236.333z"/>
<path style="fill:#38323e; stroke:none;" d="M98 236L98 237L101 237L98 236z"/>
<path style="fill:#2f2838; stroke:none;" d="M150 236L150 237L154 237L150 236z"/>
<path style="fill:#666666; stroke:none;" d="M77 237L78 238L77 237z"/>
<path style="fill:#545454; stroke:none;" d="M79.6667 238.333L80.3333 238.667L79.6667 238.333z"/>
<path style="fill:#969596; stroke:none;" d="M173.667 238.333L174.333 238.667L173.667 238.333z"/>
<path style="fill:#636363; stroke:none;" d="M82 239L83 240L82 239z"/>
<path style="fill:#201132; stroke:none;" d="M132 239L132 240L140 240L132 239z"/>
<path style="fill:#626262; stroke:none;" d="M85 240L86 241L85 240z"/>
<path style="fill:#989898; stroke:none;" d="M86.6667 241.333L87.3333 241.667L86.6667 241.333z"/>
<path style="fill:#bababa; stroke:none;" d="M166.667 241.333L167.333 241.667L166.667 241.333z"/>
<path style="fill:#545454; stroke:none;" d="M89 242L89 243L92 243L89 242z"/>
<path style="fill:#828282; stroke:none;" d="M164 242L165 243L164 242z"/>
<path style="fill:#767676; stroke:none;" d="M93 243L94 244L93 243z"/>
<path style="fill:#a1a1a1; stroke:none;" d="M155.667 244.333L156.333 244.667L155.667 244.333z"/>
<path style="fill:#bcbcbc; stroke:none;" d="M96.6667 245.333L97.3333 245.667L96.6667 245.333z"/>
<path style="fill:#c9c9c9; stroke:none;" d="M152.667 245.333L153.333 245.667L152.667 245.333z"/>
<path style="fill:#747474; stroke:none;" d="M100 246L100 247L104 247L100 246z"/>
<path style="fill:#757575; stroke:none;" d="M107 246L107 247L111 247L107 246z"/>
<path style="fill:#5d5d5d; stroke:none;" d="M144 246L144 247L151 247L144 246z"/>
<path style="fill:#b9b9b9; stroke:none;" d="M104 247L104 248L107 248L104 247z"/>
<path style="fill:#8a8a8a; stroke:none;" d="M113 247L113 248L117 248L113 247z"/>
<path style="fill:#3d3d3d; stroke:none;" d="M119.667 247.333L120.333 247.667L119.667 247.333z"/>
<path style="fill:#626262; stroke:none;" d="M122 247L122 248L130 248L122 247M131 247L131 248L139 248L131 247z"/>
<path style="fill:#b4b4b4; stroke:none;" d="M139.667 247.333L140.333 247.667L139.667 247.333z"/>
</svg>
