<?xml version="1.0" standalone="yes"?>
<svg width="252" height="252">

<path style="fill:#a3a3a4; stroke:none;" d="M108 5L108 6L113 6L108 5z"/>
<path style="fill:#5f5f5f; stroke:none;" d="M113 5L113 6L121 6L113 5z"/>
<path style="fill:#010000; stroke:none;" d="M121 5.70988C105.757 5.93629 92.0801 8.41336 78 14.4213C2.00611 46.8476 -20.2317 152.528 38.7045 212.156C49.5031 223.081 64.8015 232.32 79 238C92.4731 243.389 105.261 247.971 120 247.59C149.201 246.833 176.041 242.327 200 224.101C255.396 181.959 264.411 89.6176 212.981 40.2446C187.774 16.0449 155.066 5.2039 121 5.70988z"/>
<path style="fill:#626262; stroke:none;" d="M122 5L122 6L130 6L122 5z"/>
<path style="fill:#5c5c5c; stroke:none;" d="M131.667 5.33333L132.333 5.66667L131.667 5.33333z"/>
<path style="fill:#898989; stroke:none;" d="M134 5L134 6L139 6L134 5z"/>
<path style="fill:#a4a4a4; stroke:none;" d="M145 5L145 6L148 6L145 5z"/>
<path style="fill:#adadad; stroke:none;" d="M100.667 6.33333L101.333 6.66667L100.667 6.33333z"/>
<path style="fill:#696969; stroke:none;" d="M102.667 6.33333L103.333 6.66667L102.667 6.33333z"/>
<path style="fill:#545454; stroke:none;" d="M142 6L142 7L145 7L142 6z"/>
<path style="fill:#959595; stroke:none;" d="M150.667 6.33333L151.333 6.66667L150.667 6.33333z"/>
<path style="fill:#979797; stroke:none;" d="M98.6667 7.33333L99.3333 7.66667L98.6667 7.33333z"/>
<path style="fill:#737373; stroke:none;" d="M94 8L94 9L97 9L94 8z"/>
<path style="fill:#848484; stroke:none;" d="M156 8L157 9L156 8z"/>
<path style="fill:#464646; stroke:none;" d="M89.6667 9.33333L90.3333 9.66667L89.6667 9.33333z"/>
<path style="fill:#7c7c7c; stroke:none;" d="M87 10L88 11L87 10z"/>
<path style="fill:#545454; stroke:none;" d="M160 10L160 11L163 11L160 10z"/>
<path style="fill:#7b7b7b; stroke:none;" d="M84 11L85 12L84 11z"/>
<path style="fill:#8e8e8e; stroke:none;" d="M165 11L166 12L165 11z"/>
<path style="fill:#838383; stroke:none;" d="M82 12L83 13L82 12z"/>
<path style="fill:#606060; stroke:none;" d="M166 12L167 13L166 12z"/>
<path style="fill:#858585; stroke:none;" d="M79.6667 13.3333L80.3333 13.6667L79.6667 13.3333z"/>
<path style="fill:#494e64; stroke:none;" d="M110 13L110 14L138 14L110 13z"/>
<path style="fill:#8e8e8e; stroke:none;" d="M77 14L78 15L77 14z"/>
<path style="fill:#5a6bb0; stroke:none;" d="M28 76L30 74L31 74L32 74L32 76L33 76L34 76L36 74L36 82L40 81L41 84L48 74L90 71.169L106 71C113.799 73.1453 122.097 70.2088 130 70.0147C146.645 69.6058 163.349 70 180 70C190.076 70 204.107 67.8416 205.991 80.9105C207.653 92.4396 193.427 104.361 192 116C187.998 117.171 187.933 120.371 189 124L186 128L190 129L190 131L186 135L183 134L188 138L188 133L192 136L193 136L199 131L196 136C197.041 140.707 195.342 142.282 191 144L192 153L188 158L190 155L191 155L195 157L193 161L184 162L184 164L188 164L183 167L186 170L186 171L180 174L180 175L184 172L185 172L185 177L180 176L180 177L184 180L176 176L175 176L174 176L172 178L172 179L172 180L172 183L172 184L175 182L176 182C175.198 187.652 178.585 208.651 185 208L185 218L190 216L187 218L184 222C190.586 223.425 199.511 213.391 203.91 209.282C220.96 193.357 232.217 169.645 236.46 147C245.613 98.1516 221.873 47.8052 177 25.1698C156.173 14.6636 132.067 11.9594 109 14.1042C83.2131 16.5018 51.7172 33.1216 37.6952 55.0895C33.9053 61.0271 26.5853 68.6547 28 76z"/>
<path style="fill:#6d6d6d; stroke:none;" d="M172 14L173 15L172 14z"/>
<path style="fill:#666666; stroke:none;" d="M174 15L175 16L174 15z"/>
<path style="fill:#6b6a6b; stroke:none;" d="M73 16L74 17L73 16z"/>
<path style="fill:#7a7a78; stroke:none;" d="M176.667 16.3333L177.333 16.6667L176.667 16.3333z"/>
<path style="fill:#898989; stroke:none;" d="M70 17L71 18L70 17z"/>
<path style="fill:#737373; stroke:none;" d="M179 17L180 18L179 17z"/>
<path style="fill:#7a7a7a; stroke:none;" d="M68 18L69 19L68 18z"/>
<path style="fill:#bebdbe; stroke:none;" d="M181.667 18.3333L182.333 18.6667L181.667 18.3333z"/>
<path style="fill:#929292; stroke:none;" d="M64 20L65 21L64 20z"/>
<path style="fill:#8b8b8b; stroke:none;" d="M185 20L186 21L185 20z"/>
<path style="fill:#909090; stroke:none;" d="M62 21L63 22L62 21z"/>
<path style="fill:#919191; stroke:none;" d="M191 24L192 25L191 24z"/>
<path style="fill:#8b8b8b; stroke:none;" d="M56 25L57 26L56 25z"/>
<path style="fill:#626262; stroke:none;" d="M55 26L56 27L55 26z"/>
<path style="fill:#a7a7a7; stroke:none;" d="M53 27L54 28L53 27M196 27L197 28L196 27z"/>
<path style="fill:#989898; stroke:none;" d="M52 28L53 29L52 28z"/>
<path style="fill:#656565; stroke:none;" d="M51 29L52 30L51 29z"/>
<path style="fill:#a4a4a4; stroke:none;" d="M201 31L202 32L201 31z"/>
<path style="fill:#919191; stroke:none;" d="M47 32L48 33L47 32z"/>
<path style="fill:#908f90; stroke:none;" d="M202 32L203 33L202 32z"/>
<path style="fill:#818181; stroke:none;" d="M203 33L204 34L203 33z"/>
<path style="fill:#9d9d9d; stroke:none;" d="M45 34L46 35L45 34z"/>
<path style="fill:#767676; stroke:none;" d="M204 34L205 35L204 34z"/>
<path style="fill:#a2a2a2; stroke:none;" d="M44 35L45 36L44 35z"/>
<path style="fill:#a4a4a4; stroke:none;" d="M43 36L44 37L43 36z"/>
<path style="fill:#636363; stroke:none;" d="M42 37L43 38L42 37z"/>
<path style="fill:#7a7a7a; stroke:none;" d="M208 37L208 38L211 38L208 37z"/>
<path style="fill:#8e8d8d; stroke:none;" d="M41 38L42 39L41 38z"/>
<path style="fill:#8b8b8b; stroke:none;" d="M211 38L212 39L211 38z"/>
<path style="fill:#878787; stroke:none;" d="M40 39L41 40L40 39z"/>
<path style="fill:#7c7c7c; stroke:none;" d="M39 40L40 41L39 40z"/>
<path style="fill:#5d5d5d; stroke:none;" d="M213.333 40.6667L213.667 41.3333L213.333 40.6667z"/>
<path style="fill:#909090; stroke:none;" d="M37 42L38 43L37 42z"/>
<path style="fill:#575757; stroke:none;" d="M36 44L37 45L36 44z"/>
<path style="fill:#6b6b6b; stroke:none;" d="M34 46L35 47L34 46z"/>
<path style="fill:#7a7a7a; stroke:none;" d="M217 46L218 47L217 46z"/>
<path style="fill:#959595; stroke:none;" d="M33 47L34 48L33 47z"/>
<path style="fill:#6b6b6b; stroke:none;" d="M32 48L33 49L32 48z"/>
<path style="fill:#8a8a8a; stroke:none;" d="M31 49L32 50L31 49z"/>
<path style="fill:#8f8f8f; stroke:none;" d="M30 50L31 51L30 50z"/>
<path style="fill:#a1a1a1; stroke:none;" d="M29 51L30 52L29 51z"/>
<path style="fill:#707070; stroke:none;" d="M222 52L223 53L222 52z"/>
<path style="fill:#999999; stroke:none;" d="M223 53L224 54L223 53z"/>
<path style="fill:#828282; stroke:none;" d="M27 54L28 55L27 54z"/>
<path style="fill:#888888; stroke:none;" d="M25 57L26 58L25 57z"/>
<path style="fill:#a0a0a0; stroke:none;" d="M226 57L227 58L226 57z"/>
<path style="fill:#969696; stroke:none;" d="M24 58L25 59L24 58z"/>
<path style="fill:#828282; stroke:none;" d="M227 59L228 60L227 59z"/>
<path style="fill:#aaaaaa; stroke:none;" d="M23 60L24 61L23 60z"/>
<path style="fill:#7c7c7c; stroke:none;" d="M22 62L23 63L22 62z"/>
<path style="fill:#a4a4a4; stroke:none;" d="M21 63L22 64L21 63z"/>
<path style="fill:#353535; stroke:none;" d="M230.333 64.6667L230.667 65.3333L230.333 64.6667z"/>
<path style="fill:#6a6a6a; stroke:none;" d="M231 66L232 67L231 66z"/>
<path style="fill:#747474; stroke:none;" d="M19 67L20 68L19 67z"/>
<path style="fill:#000000; stroke:none;" d="M106 71L87 71.5139L48 74L42 82C53.0245 107.402 70.2709 132.264 84.946 155.478C91.6011 166.005 96.4193 178.293 103.475 188.285C109.356 196.616 117.915 219.526 131.829 214.386C139.867 211.417 144.144 196.989 147.629 190.004C154.225 176.781 163.421 164.752 170.868 152C174.528 145.734 175.524 138.218 181 133C181.999 127.603 187.23 118.811 192 116L206.376 82.7145L203 71L128.039 70.2238L106 71z"/>
<path style="fill:#545d66; stroke:none;" d="M130 70L130 71L138 71L130 70z"/>
<path style="fill:#6b7090; stroke:none;" d="M138 70L138 71L186 71C173.586 65.7908 151.526 70 138 70z"/>
<path style="fill:#3c4451; stroke:none;" d="M186 70L186 71L195 71L186 70z"/>
<path style="fill:#2f375b; stroke:none;" d="M73 71L73 72L84 72L73 71z"/>
<path style="fill:#283055; stroke:none;" d="M87 71L87 72L93 72L87 71z"/>
<path style="fill:#212759; stroke:none;" d="M112 71L112 72L117 72L112 71z"/>
<path style="fill:#333953; stroke:none;" d="M119 71L119 72L124 72L119 71z"/>
<path style="fill:#181d3d; stroke:none;" d="M138 71L138 72L148 72L138 71z"/>
<path style="fill:#1a1f3f; stroke:none;" d="M155 71L155 72L161 72L155 71z"/>
<path style="fill:#2f3356; stroke:none;" d="M164 71L164 72L173 72L164 71z"/>
<path style="fill:#222745; stroke:none;" d="M196 71L196 72L200 72L196 71z"/>
<path style="fill:#919191; stroke:none;" d="M234 71L235 72L234 71z"/>
<path style="fill:#323641; stroke:none;" d="M56 72L56 73L73 73L56 72z"/>
<path style="fill:#393c4b; stroke:none;" d="M99 72L99 73L103 73L99 72z"/>
<path style="fill:#8e8d8f; stroke:none;" d="M16 73L17 74L16 73z"/>
<path style="fill:#445799; stroke:none;" d="M26 73C22.7488 83.4752 16.9916 93.0798 14.8079 104C9.61211 129.982 15.3568 160.193 28.0918 183C35.8729 196.935 47.2834 208.936 60 218.474C64.7452 222.033 74.4515 230.534 76 220L81 220L81 216L86 216L87 201L91 201L96 189C90.0108 193.114 88.1638 187.515 88 182L82 178L86 178L86 172L93 176L93 166L90 167C88.1482 157.285 80.8697 150.472 76.4213 142C65.8498 121.865 54.801 98.2381 40 81L36 82L36 74L34 76L33 76L32 76L32 74L31 74L30 74L28 76L26 73z"/>
<path style="fill:#878787; stroke:none;" d="M235 73L236 74L235 73z"/>
<path style="fill:#8d8d8d; stroke:none;" d="M14 77L15 78L14 77z"/>
<path style="fill:#7c7c7c; stroke:none;" d="M237 77L238 78L237 77z"/>
<path style="fill:#7b7b7b; stroke:none;" d="M13.3333 79.6667L13.6667 80.3333L13.3333 79.6667z"/>
<path style="fill:#6b6b6b; stroke:none;" d="M238 79L239 80L238 79z"/>
<path style="fill:#5d5d5d; stroke:none;" d="M239.333 81.6667L239.667 82.3333L239.333 81.6667z"/>
<path style="fill:#626262; stroke:none;" d="M12.3333 82.6667L12.6667 83.3333L12.3333 82.6667z"/>
<path style="fill:#5e6db0; stroke:none;" d="M146 85L122.985 85.946L80 88L80 92L90 92L93 102L91 107L88 107L88 104L87 104C87.872 109.225 91.3446 108.984 96 109L94 114L101 112L96 115L107 125L122 127L120 125L119 112L129 118L127 115L132 114L131 109L133 112L139 112L138 109L143 110L142 114L145 114L144 118L149 117L150 120L154 114L172 113L172 118L174 118L191 84L159 84.1551L146 85z"/>
<path style="fill:#393745; stroke:none;" d="M179 83L179 84L191 86C192.731 81.4093 181.858 83 179 83z"/>
<path style="fill:#1b244f; stroke:none;" d="M66 84L66 85L77 85L66 84z"/>
<path style="fill:#4b5ea0; stroke:none;" d="M59 86L80 126L84 125C83.0715 133.845 91.4342 139.143 95.3557 146.019C105.878 164.465 115.066 183.295 127 201L138.87 178.131L145 167L151 162L151 161L149 160C154.592 154.852 156.127 147.487 159.598 141C164.966 130.967 172.037 124.97 172 113L154 114L150 120L149 117L144 118L145 114L142 114L143 110L138 109L139 112L133 112L133 109L131 109L132 114L127 115L129 118L119 112L122 127L107 125C106.456 118.175 100.235 119.093 96 115L101 112L94 114L96 109C91.4614 108.946 88.4275 108.702 87 104L88 104L88 107L91 107L93 102L90 92L80 92L80 88L112 85L96 84.9985L59 86z"/>
<path style="fill:#37406b; stroke:none;" d="M91 84L91 85L97 85L91 84z"/>
<path style="fill:#3e4d86; stroke:none;" d="M135 84L135 85L140 85L135 84z"/>
<path style="fill:#3e4674; stroke:none;" d="M161 84L161 85L165 85L161 84z"/>
<path style="fill:#656565; stroke:none;" d="M240 84L241 85L240 84z"/>
<path style="fill:#737373; stroke:none;" d="M11 85L12 86L11 85z"/>
<path style="fill:#35383f; stroke:none;" d="M58 87L64 86L58 87z"/>
<path style="fill:#5d6474; stroke:none;" d="M113 85L113 86L122 86L113 85z"/>
<path style="fill:#c8c8c8; stroke:none;" d="M241 85L241 88L242 88L241 85z"/>
<path style="fill:#3f4370; stroke:none;" d="M204 86L204 90L205 90L204 86z"/>
<path style="fill:#707070; stroke:none;" d="M10.3333 87.6667L10.6667 88.3333L10.3333 87.6667z"/>
<path style="fill:#313c5c; stroke:none;" d="M60 89L62 92L60 89z"/>
<path style="fill:#404040; stroke:none;" d="M9.33333 90.6667L9.66667 91.3333L9.33333 90.6667z"/>
<path style="fill:#5f5f5f; stroke:none;" d="M242.333 90.6667L242.667 91.3333L242.333 90.6667z"/>
<path style="fill:#d9d9d9; stroke:none;" d="M8 92L8 96L9 96L8 92M244 96L244 100L245 100L244 96z"/>
<path style="fill:#949494; stroke:none;" d="M6.33333 100.667L6.66667 101.333L6.33333 100.667z"/>
<path style="fill:#363b61; stroke:none;" d="M183.333 100.667L183.667 101.333L183.333 100.667z"/>
<path style="fill:#424242; stroke:none;" d="M244.333 100.667L244.667 101.333L244.333 100.667z"/>
<path style="fill:#4a525d; stroke:none;" d="M236 101L236 106L237 106L236 101z"/>
<path style="fill:#353535; stroke:none;" d="M6 102L6 105L7 105L6 102z"/>
<path style="fill:#d1d2d1; stroke:none;" d="M5 103L5 109L6 109L5 103z"/>
<path style="fill:#a2a2a2; stroke:none;" d="M245.333 103.667L245.667 104.333L245.333 103.667z"/>
<path style="fill:#696969; stroke:none;" d="M245 105L245 108L246 108L245 105z"/>
<path style="fill:#939393; stroke:none;" d="M246 108L246 113L247 113L246 108z"/>
<path style="fill:#838383; stroke:none;" d="M5 109L5 115L6 115L5 109z"/>
<path style="fill:#323a4f; stroke:none;" d="M192 110L192 112L194 110L192 110z"/>
<path style="fill:#3d3b48; stroke:none;" d="M176.333 111.667L176.667 112.333L176.333 111.667z"/>
<path style="fill:#3a3d4c; stroke:none;" d="M13 112L13 138L14 138L13 112z"/>
<path style="fill:#313c42; stroke:none;" d="M75 113L75 116L76 116L75 113z"/>
<path style="fill:#595a6f; stroke:none;" d="M238 113L238 139L239 139L238 113z"/>
<path style="fill:#323232; stroke:none;" d="M246 113L246 121L247 121L246 113z"/>
<path style="fill:#575759; stroke:none;" d="M5 115L5 124L6 124L5 115z"/>
<path style="fill:#4f61a3; stroke:none;" d="M187 120L180 130L182 134C174.347 138.004 173.927 146.439 169.571 153C160.559 166.572 152.531 180.752 144.715 195C141.322 201.185 135.059 209.154 134 216C111.279 215.024 110.693 189.84 97.186 176.614C94.983 174.457 89.0049 173.478 86 172L86 178L82 178L88 182C88.0611 187.479 89.9763 194.656 96 189L97 192C92.0871 193.962 90.1536 195.54 91 201L87 201L86 216L81 216L81 220L76 220L73 227C102.115 238.377 128.221 244.419 159 234.444C170.365 230.761 184.256 227.488 190 216L185 218L185 208C178.44 207.277 175.735 188.04 176 182L175 182L172 184L172 183C174.006 181.873 174.006 181.127 172 180L172 179L172 178L174 176L175 176L176 176L184 180L180 177L180 176L185 177L185 172L184 172L184 175L180 175L180 174L186 171L186 170L183 167L188 164L184 164L184 162L193 161L195 157L191 155L190 155L188 158L192 153L191 144C195.684 142.824 197.53 140.746 196 136L199 131L193 136L192 136L188 133L188 138L183 134L186 135L190 131L190 129L186 128L189 124L187 120z"/>
<path style="fill:#333742; stroke:none;" d="M66.3333 124.667L66.6667 125.333L66.3333 124.667z"/>
<path style="fill:#1b2445; stroke:none;" d="M82 125L82 128L83 128L84 125L82 125z"/>
<path style="fill:#4e4e4e; stroke:none;" d="M246 129L246 140L247 140L246 129z"/>
<path style="fill:#394776; stroke:none;" d="M180 131L178 136C180.246 134.594 182.748 133.02 180 131z"/>
<path style="fill:#4a4a4a; stroke:none;" d="M5 132L5 140L6 140L5 132z"/>
<path style="fill:#bebebf; stroke:none;" d="M5 140L5 144L6 144L5 140z"/>
<path style="fill:#aaaaaa; stroke:none;" d="M246 140L246 144L247 144L246 140z"/>
<path style="fill:#182343; stroke:none;" d="M237 142L237 146L238 146L237 142z"/>
<path style="fill:#333649; stroke:none;" d="M15 144L15 152L16 152L15 144z"/>
<path style="fill:#d2d2d2; stroke:none;" d="M246 144L246 148L247 148L246 144z"/>
<path style="fill:#69696a; stroke:none;" d="M6.33333 145.667L6.66667 146.333L6.33333 145.667z"/>
<path style="fill:#353942; stroke:none;" d="M95.3333 145.667L95.6667 146.333L95.3333 145.667z"/>
<path style="fill:#313944; stroke:none;" d="M236 146L236 150L237 150L236 146z"/>
<path style="fill:#a5a5a6; stroke:none;" d="M6 147L6 150L7 150L6 147z"/>
<path style="fill:#6a6a6a; stroke:none;" d="M245 149L245 152L246 152L245 149z"/>
<path style="fill:#d8d8d8; stroke:none;" d="M243 156L243 161L244 161L243 156z"/>
<path style="fill:#c3c3c2; stroke:none;" d="M8.33333 158.667L8.66667 159.333L8.33333 158.667z"/>
<path style="fill:#979797; stroke:none;" d="M9.33333 161.667L9.66667 162.333L9.33333 161.667z"/>
<path style="fill:#212f4c; stroke:none;" d="M89.3333 162.667L89.6667 163.333L89.3333 162.667z"/>
<path style="fill:#949494; stroke:none;" d="M242 162L243 163L242 162z"/>
<path style="fill:#282e3c; stroke:none;" d="M90 164L92 167L90 164z"/>
<path style="fill:#9d9d9d; stroke:none;" d="M10 165L10 168L11 168L10 165z"/>
<path style="fill:#787878; stroke:none;" d="M240 167L241 168L240 167z"/>
<path style="fill:#b4b4b5; stroke:none;" d="M239.333 169.667L239.667 170.333L239.333 169.667z"/>
<path style="fill:#a7a7a7; stroke:none;" d="M12.3333 170.667L12.6667 171.333L12.3333 170.667z"/>
<path style="fill:#14243e; stroke:none;" d="M95 171L94 175L98 176L95 171z"/>
<path style="fill:#78787a; stroke:none;" d="M238 171L238 174L239 174L238 171z"/>
<path style="fill:#7f7f7f; stroke:none;" d="M13 173L14 174L13 173z"/>
<path style="fill:#202950; stroke:none;" d="M141.333 174.667L141.667 175.333L141.333 174.667z"/>
<path style="fill:#878787; stroke:none;" d="M14 175L15 176L14 175z"/>
<path style="fill:#959595; stroke:none;" d="M237 175L238 176L237 175z"/>
<path style="fill:#5d5d5d; stroke:none;" d="M15 176L16 177L15 176z"/>
<path style="fill:#39414e; stroke:none;" d="M138 177L138 180L139 180L138 177z"/>
<path style="fill:#303644; stroke:none;" d="M115.333 182.667L115.667 183.333L115.333 182.667z"/>
<path style="fill:#2e3641; stroke:none;" d="M136.333 182.667L136.667 183.333L136.333 182.667z"/>
<path style="fill:#c6c6c7; stroke:none;" d="M18.3333 183.667L18.6667 184.333L18.3333 183.667z"/>
<path style="fill:#676666; stroke:none;" d="M233 183L234 184L233 183z"/>
<path style="fill:#737373; stroke:none;" d="M232 185L233 186L232 185z"/>
<path style="fill:#848484; stroke:none;" d="M20 186L21 187L20 186z"/>
<path style="fill:#595959; stroke:none;" d="M231 186L232 187L231 186z"/>
<path style="fill:#5f5f5f; stroke:none;" d="M21 188L22 189L21 188z"/>
<path style="fill:#737373; stroke:none;" d="M230 188L231 189L230 188z"/>
<path style="fill:#777777; stroke:none;" d="M22 189L23 190L22 189z"/>
<path style="fill:#7f7f7f; stroke:none;" d="M229 190L230 191L229 190z"/>
<path style="fill:#313d4d; stroke:none;" d="M121.333 192.667L121.667 193.333L121.333 192.667z"/>
<path style="fill:#8b8b8b; stroke:none;" d="M226 195L227 196L226 195z"/>
<path style="fill:#2c304d; stroke:none;" d="M128.333 198.667L128.667 199.333L128.333 198.667z"/>
<path style="fill:#828282; stroke:none;" d="M224 198L225 199L224 198z"/>
<path style="fill:#7f7f7f; stroke:none;" d="M223 199L224 200L223 199z"/>
<path style="fill:#7e7e7e; stroke:none;" d="M29 200L30 201L29 200z"/>
<path style="fill:#5c5c5c; stroke:none;" d="M30 201L31 202L30 201z"/>
<path style="fill:#a2a2a3; stroke:none;" d="M222 201L223 202L222 201z"/>
<path style="fill:#575757; stroke:none;" d="M31 202L32 203L31 202z"/>
<path style="fill:#7d7d7d; stroke:none;" d="M219 204L220 205L219 204z"/>
<path style="fill:#a6a6a5; stroke:none;" d="M218 205L219 206L218 205z"/>
<path style="fill:#777778; stroke:none;" d="M34 206L35 207L34 206z"/>
<path style="fill:#6a6a6a; stroke:none;" d="M217 206L218 207L217 206z"/>
<path style="fill:#424242; stroke:none;" d="M35.3333 207.667L35.6667 208.333L35.3333 207.667z"/>
<path style="fill:#606060; stroke:none;" d="M216 207L217 208L216 207z"/>
<path style="fill:#9c9c9c; stroke:none;" d="M38.3333 211.667L38.6667 212.333L38.3333 211.667z"/>
<path style="fill:#8a8a8a; stroke:none;" d="M212 212L213 213L212 212z"/>
<path style="fill:#656565; stroke:none;" d="M39 213L40 214L39 213z"/>
<path style="fill:#979797; stroke:none;" d="M211 213L212 214L211 213z"/>
<path style="fill:#8c8c8c; stroke:none;" d="M40 214L41 215L40 214z"/>
<path style="fill:#171f43; stroke:none;" d="M121 214L121 215L127 215L121 214z"/>
<path style="fill:#222c2d; stroke:none;" d="M133 214L128 215L128 216L133 214z"/>
<path style="fill:#939393; stroke:none;" d="M210 214L211 215L210 214z"/>
<path style="fill:#a6a6a6; stroke:none;" d="M41 215L41 216L44 216L41 215z"/>
<path style="fill:#9c9c9c; stroke:none;" d="M209 215L210 216L209 215z"/>
<path style="fill:#a4a4a4; stroke:none;" d="M208 216L209 217L208 216z"/>
<path style="fill:#626262; stroke:none;" d="M46 217L47 218L46 217z"/>
<path style="fill:#aaaaaa; stroke:none;" d="M207 217L208 218L207 217z"/>
<path style="fill:#868686; stroke:none;" d="M47 218L48 219L47 218z"/>
<path style="fill:#818181; stroke:none;" d="M48 219L49 220L48 219z"/>
<path style="fill:#6e6e6e; stroke:none;" d="M53 223L54 224L53 223z"/>
<path style="fill:#1e2c53; stroke:none;" d="M184.667 223.333L185.333 223.667L184.667 223.333z"/>
<path style="fill:#a2a2a2; stroke:none;" d="M54 224L55 225L54 224z"/>
<path style="fill:#9c9c9c; stroke:none;" d="M57 226L58 227L57 226z"/>
<path style="fill:#727272; stroke:none;" d="M196 226L197 227L196 226z"/>
<path style="fill:#8b8b8b; stroke:none;" d="M195 227L196 228L195 227z"/>
<path style="fill:#666666; stroke:none;" d="M193 228L194 229L193 228z"/>
<path style="fill:#989898; stroke:none;" d="M62 229L63 230L62 229z"/>
<path style="fill:#666666; stroke:none;" d="M190 230L191 231L190 230z"/>
<path style="fill:#8b8b8b; stroke:none;" d="M65 231L66 232L65 231M66 232L67 233L66 232z"/>
<path style="fill:#929292; stroke:none;" d="M187 232L188 233L187 232z"/>
<path style="fill:#5f5f5f; stroke:none;" d="M68 233L69 234L68 233z"/>
<path style="fill:#696969; stroke:none;" d="M185 233L186 234L185 233z"/>
<path style="fill:#868685; stroke:none;" d="M70 234L71 235L70 234z"/>
<path style="fill:#878787; stroke:none;" d="M183 234L184 235L183 234z"/>
<path style="fill:#747373; stroke:none;" d="M72 235L73 236L72 235z"/>
<path style="fill:#6d6d6d; stroke:none;" d="M74.6667 236.333L75.3333 236.667L74.6667 236.333z"/>
<path style="fill:#262c38; stroke:none;" d="M150 236L150 237L154 237L150 236z"/>
<path style="fill:#666666; stroke:none;" d="M77 237L78 238L77 237z"/>
<path style="fill:#545454; stroke:none;" d="M79.6667 238.333L80.3333 238.667L79.6667 238.333z"/>
<path style="fill:#383b4a; stroke:none;" d="M106 238L106 239L110 239L106 238z"/>
<path style="fill:#979596; stroke:none;" d="M173.667 238.333L174.333 238.667L173.667 238.333z"/>
<path style="fill:#636363; stroke:none;" d="M82 239L83 240L82 239z"/>
<path style="fill:#172447; stroke:none;" d="M134 239L134 240L140 240L134 239z"/>
<path style="fill:#626262; stroke:none;" d="M85 240L86 241L85 240z"/>
<path style="fill:#989898; stroke:none;" d="M86.6667 241.333L87.3333 241.667L86.6667 241.333z"/>
<path style="fill:#bababa; stroke:none;" d="M166.667 241.333L167.333 241.667L166.667 241.333z"/>
<path style="fill:#545454; stroke:none;" d="M89 242L89 243L92 243L89 242z"/>
<path style="fill:#828282; stroke:none;" d="M164 242L165 243L164 242z"/>
<path style="fill:#767676; stroke:none;" d="M93 243L94 244L93 243z"/>
<path style="fill:#a1a1a1; stroke:none;" d="M155.667 244.333L156.333 244.667L155.667 244.333z"/>
<path style="fill:#bcbcbc; stroke:none;" d="M96.6667 245.333L97.3333 245.667L96.6667 245.333z"/>
<path style="fill:#c9c9c9; stroke:none;" d="M152.667 245.333L153.333 245.667L152.667 245.333z"/>
<path style="fill:#747474; stroke:none;" d="M100 246L100 247L104 247L100 246z"/>
<path style="fill:#757575; stroke:none;" d="M107 246L107 247L111 247L107 246z"/>
<path style="fill:#5d5d5d; stroke:none;" d="M144 246L144 247L151 247L144 246z"/>
<path style="fill:#b9b9b9; stroke:none;" d="M104 247L104 248L107 248L104 247z"/>
<path style="fill:#8a8a8a; stroke:none;" d="M113 247L113 248L117 248L113 247z"/>
<path style="fill:#3d3d3d; stroke:none;" d="M119.667 247.333L120.333 247.667L119.667 247.333z"/>
<path style="fill:#626262; stroke:none;" d="M122 247L122 248L130 248L122 247M131 247L131 248L139 248L131 247z"/>
<path style="fill:#b4b4b4; stroke:none;" d="M139.667 247.333L140.333 247.667L139.667 247.333z"/>
</svg>
