<?xml version="1.0" standalone="yes"?>
<svg width="252" height="252">

<path style="fill:#a3a3a3; stroke:none;" d="M108 5L108 6L113 6L108 5z"/>
<path style="fill:#5f5f5f; stroke:none;" d="M113 5L113 6L121 6L113 5z"/>
<path style="fill:#000100; stroke:none;" d="M121 5.70988C105.757 5.93629 92.0801 8.41336 78 14.4213C2.00611 46.8476 -20.2317 152.528 38.7045 212.156C49.5031 223.081 64.8015 232.32 79 238C92.4731 243.389 105.261 247.971 120 247.59C149.201 246.833 176.041 242.327 200 224.101C255.401 181.955 264.414 89.6206 212.981 40.2446C187.774 16.0449 155.066 5.2039 121 5.70988z"/>
<path style="fill:#626262; stroke:none;" d="M122 5L122 6L130 6L122 5z"/>
<path style="fill:#5c5c5c; stroke:none;" d="M131.667 5.33333L132.333 5.66667L131.667 5.33333z"/>
<path style="fill:#898989; stroke:none;" d="M134 5L134 6L139 6L134 5z"/>
<path style="fill:#a4a4a4; stroke:none;" d="M145 5L145 6L148 6L145 5z"/>
<path style="fill:#adadac; stroke:none;" d="M100.667 6.33333L101.333 6.66667L100.667 6.33333z"/>
<path style="fill:#696969; stroke:none;" d="M102.667 6.33333L103.333 6.66667L102.667 6.33333z"/>
<path style="fill:#545454; stroke:none;" d="M142 6L142 7L145 7L142 6z"/>
<path style="fill:#959595; stroke:none;" d="M150.667 6.33333L151.333 6.66667L150.667 6.33333z"/>
<path style="fill:#979797; stroke:none;" d="M98.6667 7.33333L99.3333 7.66667L98.6667 7.33333z"/>
<path style="fill:#737373; stroke:none;" d="M94 8L94 9L97 9L94 8z"/>
<path style="fill:#848484; stroke:none;" d="M156 8L157 9L156 8z"/>
<path style="fill:#464646; stroke:none;" d="M89.6667 9.33333L90.3333 9.66667L89.6667 9.33333z"/>
<path style="fill:#7c7c7c; stroke:none;" d="M87 10L88 11L87 10z"/>
<path style="fill:#545454; stroke:none;" d="M160 10L160 11L163 11L160 10z"/>
<path style="fill:#7b7b7b; stroke:none;" d="M84 11L85 12L84 11z"/>
<path style="fill:#8e8e8e; stroke:none;" d="M165 11L166 12L165 11z"/>
<path style="fill:#838383; stroke:none;" d="M82 12L83 13L82 12z"/>
<path style="fill:#606060; stroke:none;" d="M166 12L167 13L166 12z"/>
<path style="fill:#858585; stroke:none;" d="M79.6667 13.3333L80.3333 13.6667L79.6667 13.3333z"/>
<path style="fill:#50425c; stroke:none;" d="M110 13L110 14L139 14L110 13z"/>
<path style="fill:#8e8e8e; stroke:none;" d="M77 14L78 15L77 14z"/>
<path style="fill:#6b3a89; stroke:none;" d="M70 27L70 28C73.8207 28 77.7557 26.9772 77 30L84 28L83 31L90 31L94 47L90 48L90 49L96 49L96 50C93.4714 50.5057 93.4715 50.4943 96 51L96 52L92 55L98 62L102 60L101 66L126.833 64.5L129 59L129 58L120 59L122 57L124 50L120 44L133 42L135 39L135 38L129 38C128.461 42.1046 124.949 40.259 123 38C117.975 37.6972 115.034 33.2808 113 29C109.058 29.8954 106.989 29.8116 104 27L109 26L110 22L119 25L120 33L124 33L124 32L121 32L122 27L127 29L124 28L128 31L128 27L130 29L131 29L131 24C125.553 23.4365 124.059 19.9259 128 16C111.471 7.21246 85.0397 19.8735 70 27z"/>
<path style="fill:#754696; stroke:none;" d="M124 14L124 15L128 15L128 16C122.774 19.313 125.123 24.558 131 24L131 29L130 29L128 27L128 31L124 28L127 29L122 27C121.5 29.9129 120.877 31.3168 124 32L124 33L120 33L119 25L110 22L109 26L104 27C106.438 30.3797 109.199 30.1133 113 29C114.415 33.8298 117.744 38.0024 123 38C124.705 40.812 128.496 41.9961 129 38L135 38L135 39L133 42L120 44L124 50L120 59L129 58L129 59C123.979 64.1584 143.42 64 146 64C164.302 64 192.097 58.8376 209 66L206 56C203.318 55.5769 199.792 54.4625 203 52L203 51L199 51L196 48L192 44L193 40L200 46C199.72 37.5399 190.56 33.1338 184 29.064C165.552 17.6197 145.293 14 124 14z"/>
<path style="fill:#6d6d6d; stroke:none;" d="M172 14L173 15L172 14z"/>
<path style="fill:#312539; stroke:none;" d="M100 15L100 16L104 16L100 15z"/>
<path style="fill:#666666; stroke:none;" d="M174 15L175 16L174 15z"/>
<path style="fill:#6b6b6b; stroke:none;" d="M73 16L74 17L73 16z"/>
<path style="fill:#787a7a; stroke:none;" d="M176.667 16.3333L177.333 16.6667L176.667 16.3333z"/>
<path style="fill:#898989; stroke:none;" d="M70 17L71 18L70 17z"/>
<path style="fill:#c7c7c7; stroke:none;" d="M179.667 17.3333L180.333 17.6667L179.667 17.3333z"/>
<path style="fill:#7a7a7a; stroke:none;" d="M68 18L69 19L68 18z"/>
<path style="fill:#bebebd; stroke:none;" d="M181.667 18.3333L182.333 18.6667L181.667 18.3333z"/>
<path style="fill:#929292; stroke:none;" d="M64 20L65 21L64 20z"/>
<path style="fill:#8b8b8b; stroke:none;" d="M185 20L186 21L185 20z"/>
<path style="fill:#909090; stroke:none;" d="M62 21L63 22L62 21z"/>
<path style="fill:#919191; stroke:none;" d="M191 24L192 25L191 24z"/>
<path style="fill:#8b8b8b; stroke:none;" d="M56 25L57 26L56 25z"/>
<path style="fill:#626262; stroke:none;" d="M55 26L56 27L55 26z"/>
<path style="fill:#a7a7a7; stroke:none;" d="M53 27L54 28L53 27M196 27L197 28L196 27z"/>
<path style="fill:#989898; stroke:none;" d="M52 28L53 29L52 28z"/>
<path style="fill:#7e529d; stroke:none;" d="M224 182C218.41 180.552 216.497 176.482 216 171L213 171C212.023 182.851 203.757 181.854 194 182.95C176.173 184.951 157.848 184.651 140 184.079C132.682 183.844 125.349 186.698 118.595 182.407C106.737 174.871 112 145.035 112 133L103 135L100 130L101 125C97.9504 127.321 98.4046 129.774 100 133L95 135C90.6096 132.035 86.5107 137.813 82 139L82 138L85 137L77 127L73 130L76 129L76 133L73 132L73 136L64 144L65 158L60 158L64 164L61 168L60 168L60 166L59 166L59 172L55 169L54 169C53.1368 175.44 47.0549 181.213 42 185C38.6448 156.617 40.139 127.66 40.0008 99C39.9672 92.0397 36.8959 74.5804 42.3179 69.5139C49.3457 62.9469 71.7601 64.822 81 64.598C85.0377 64.5001 90.0087 67.3701 93 64L94 64L101 66L102 60L98 62L92 55L96 52L96 51C94.0399 50.3466 93.446 50 96 50L96 49L90 49L90 48L94 47L90 31L83 31L84 28L77 30C76.374 26.2441 68.6638 28.128 66 29.4907C56.1354 34.5372 46.29 43.7825 39.4907 52.412C19.3647 77.9558 11.4065 108.952 14.0648 141C21.585 231.662 137.592 269.219 202 211.042C210.79 203.102 218.908 192.753 224 182z"/>
<path style="fill:#656565; stroke:none;" d="M51 29L52 30L51 29z"/>
<path style="fill:#a4a4a4; stroke:none;" d="M201 31L202 32L201 31z"/>
<path style="fill:#919190; stroke:none;" d="M47 32L48 33L47 32z"/>
<path style="fill:#908f90; stroke:none;" d="M202 32L203 33L202 32z"/>
<path style="fill:#818181; stroke:none;" d="M203 33L204 34L203 33z"/>
<path style="fill:#9d9d9d; stroke:none;" d="M45 34L46 35L45 34z"/>
<path style="fill:#767676; stroke:none;" d="M204 34L205 35L204 34z"/>
<path style="fill:#a2a2a2; stroke:none;" d="M44 35L45 36L44 35z"/>
<path style="fill:#a4a4a4; stroke:none;" d="M43 36L44 37L43 36z"/>
<path style="fill:#636363; stroke:none;" d="M42 37L43 38L42 37z"/>
<path style="fill:#7a7a7a; stroke:none;" d="M208 37L208 38L211 38L208 37z"/>
<path style="fill:#8e8d8e; stroke:none;" d="M41 38L42 39L41 38z"/>
<path style="fill:#8b8b8b; stroke:none;" d="M211 38L212 39L211 38z"/>
<path style="fill:#878787; stroke:none;" d="M40 39L41 40L40 39z"/>
<path style="fill:#7c7c7c; stroke:none;" d="M39 40L40 41L39 40z"/>
<path style="fill:#62327e; stroke:none;" d="M193 40L192 44L196 48L199 51L203 51L203 52L200 52C201.099 55.3213 202.59 55.7375 206 56L209 66L207 65L207 66C209.975 73.6963 212.655 85.7679 211.826 94C211.318 99.0359 207.527 107.091 212 111L212.451 130.09L212 176L213 176L213 171L216 171C216.169 174.643 218.74 185.213 224.465 180.393C231.537 174.439 235.604 155.74 237.079 147C241.985 117.947 236.422 87.3814 219.806 63C214.82 55.6847 208.143 46.0029 200 42L200 46L193 40z"/>
<path style="fill:#5d5d5d; stroke:none;" d="M213.333 40.6667L213.667 41.3333L213.333 40.6667z"/>
<path style="fill:#909090; stroke:none;" d="M37 42L38 43L37 42z"/>
<path style="fill:#575759; stroke:none;" d="M36 44L37 45L36 44z"/>
<path style="fill:#6b6b6b; stroke:none;" d="M34 46L35 47L34 46z"/>
<path style="fill:#7a7a7a; stroke:none;" d="M217 46L218 47L217 46z"/>
<path style="fill:#959595; stroke:none;" d="M33 47L34 48L33 47z"/>
<path style="fill:#6b6b6b; stroke:none;" d="M32 48L33 49L32 48z"/>
<path style="fill:#8a8a8a; stroke:none;" d="M31 49L32 50L31 49z"/>
<path style="fill:#8f8f8f; stroke:none;" d="M30 50L31 51L30 50z"/>
<path style="fill:#a1a1a1; stroke:none;" d="M29 51L30 52L29 51z"/>
<path style="fill:#5a5a5a; stroke:none;" d="M221 51L222 52L221 51z"/>
<path style="fill:#707070; stroke:none;" d="M222 52L223 53L222 52z"/>
<path style="fill:#99999a; stroke:none;" d="M223 53L224 54L223 53z"/>
<path style="fill:#828282; stroke:none;" d="M27 54L28 55L27 54z"/>
<path style="fill:#888888; stroke:none;" d="M25 57L26 58L25 57z"/>
<path style="fill:#a0a0a0; stroke:none;" d="M226 57L227 58L226 57z"/>
<path style="fill:#969696; stroke:none;" d="M24 58L25 59L24 58z"/>
<path style="fill:#828282; stroke:none;" d="M227 59L228 60L227 59z"/>
<path style="fill:#aaaaaa; stroke:none;" d="M23 60L24 61L23 60z"/>
<path style="fill:#7c7c7c; stroke:none;" d="M22 62L23 63L22 62z"/>
<path style="fill:#a4a4a4; stroke:none;" d="M21 63L22 64L21 63z"/>
<path style="fill:#29073a; stroke:none;" d="M128 63L128 64L134 64L128 63z"/>
<path style="fill:#010000; stroke:none;" d="M42 185C54.5714 178.734 51.362 153.095 54 141L53.9113 121L52 78L116.999 78.9985L150 78L166 77.9144L197 76L199 170L125 172C125 149.754 128.109 124.448 123 103L114 113L114 114C116.928 118.566 112.5 122.99 112.599 128.004C112.895 143.09 108.026 164.471 114.585 178.74C118.655 187.594 132.503 184 140 184C154.421 184.001 168.595 184.99 183 184.405C192.505 184.019 201.481 181.001 211 181C212.716 159.251 210 137.523 210 116C210 99.1317 212.851 81.2383 207 65C181.781 64.4795 155.14 62.2474 130 64.0903C120.534 64.7841 102.139 70.1661 94 64C89.6433 66.3042 86.5642 64.1743 82 64.4329C73.9849 64.8869 66.1847 65.9613 58 66.0008C53.7422 66.0213 45.9311 65.7203 42.6034 68.858C36.4756 74.636 40.9093 91.6958 40.9961 99C41.3372 127.673 41.9811 156.437 42 185z"/>
<path style="fill:#3b1b4d; stroke:none;" d="M102 64L108 66L108 65L102 64z"/>
<path style="fill:#544a63; stroke:none;" d="M142 64L142 65L152 65L142 64z"/>
<path style="fill:#4a3e4c; stroke:none;" d="M159 64L159 65L165 65L159 64z"/>
<path style="fill:#594161; stroke:none;" d="M168 64L168 65L179 65L168 64z"/>
<path style="fill:#2b2831; stroke:none;" d="M179 64L179 65L190 65L179 64z"/>
<path style="fill:#3c2b3b; stroke:none;" d="M200 64L200 65L207 65L200 64z"/>
<path style="fill:#353538; stroke:none;" d="M230.333 64.6667L230.667 65.3333L230.333 64.6667z"/>
<path style="fill:#280f39; stroke:none;" d="M69 65L69 66L79 66L69 65z"/>
<path style="fill:#27103e; stroke:none;" d="M117 65L117 66L121 66L117 65z"/>
<path style="fill:#6a6a6a; stroke:none;" d="M231 66L232 67L231 66z"/>
<path style="fill:#747474; stroke:none;" d="M19 67L20 68L19 67z"/>
<path style="fill:#5a4a57; stroke:none;" d="M40 70L40 77L41 77L40 70z"/>
<path style="fill:#919191; stroke:none;" d="M234 71L235 72L234 71z"/>
<path style="fill:#8d8e8e; stroke:none;" d="M16 73L17 74L16 73z"/>
<path style="fill:#878787; stroke:none;" d="M235 73L236 74L235 73z"/>
<path style="fill:#422950; stroke:none;" d="M135 76L135 77L139 77L135 76z"/>
<path style="fill:#6e3d8e; stroke:none;" d="M150 76L128 77.7006L53 79C53 94.9086 54.3484 110.278 53.1111 126C52.7908 130.07 49.8477 138.896 55 140L49 178C52.6749 175.734 53.7139 173.252 54 169L55 169L59 172L59 166L60 166L60 168L61 168L64 164L60 158L65 158L64 144L73 136L73 132L76 133L76 129L73 130L77 127L85 137L82 138L82 139L95 135L100 133L101 125L100 130L103 135C114.915 132.399 112.393 120.264 115.113 111.235C116.104 107.948 120.521 105.141 123 103L127 122L128 119L134 123L135 120L133 120C137.127 116.26 141.09 118.946 146 120L146 122L136 123L136 124L151 125L150 130L155 129L161 144L167 144L164 160L158 160L160 164L154 166L155 169L147 170L147 171L199 170L196.097 122.985L197 77L150 76z"/>
<path style="fill:#351949; stroke:none;" d="M152 76L152 77L157 77L152 76z"/>
<path style="fill:#33173f; stroke:none;" d="M183 76L183 77L197 77L183 76z"/>
<path style="fill:#8d8d8d; stroke:none;" d="M14 77L15 78L14 77z"/>
<path style="fill:#28232a; stroke:none;" d="M74 77L74 78L81 78L74 77z"/>
<path style="fill:#301d3b; stroke:none;" d="M124 77L124 78L129 78L124 77z"/>
<path style="fill:#3c2947; stroke:none;" d="M131 77L131 78L135 78L131 77z"/>
<path style="fill:#3f2e4e; stroke:none;" d="M144 77L144 78L149 78L144 77z"/>
<path style="fill:#7c7c7c; stroke:none;" d="M237 77L238 78L237 77z"/>
<path style="fill:#442858; stroke:none;" d="M52 78L52 99L53 99L53 79L62 79L52 78z"/>
<path style="fill:#3e1b53; stroke:none;" d="M93 78L93 79L100 79L93 78z"/>
<path style="fill:#7b7b7b; stroke:none;" d="M13.3333 79.6667L13.6667 80.3333L13.3333 79.6667z"/>
<path style="fill:#47355b; stroke:none;" d="M23.3333 79.6667L23.6667 80.3333L23.3333 79.6667z"/>
<path style="fill:#6b6b6b; stroke:none;" d="M238 79L239 80L238 79z"/>
<path style="fill:#5d5d5d; stroke:none;" d="M239.333 81.6667L239.667 82.3333L239.333 81.6667z"/>
<path style="fill:#626262; stroke:none;" d="M12.3333 82.6667L12.6667 83.3333L12.3333 82.6667z"/>
<path style="fill:#656565; stroke:none;" d="M240 84L241 85L240 84z"/>
<path style="fill:#737373; stroke:none;" d="M11 85L12 86L11 85z"/>
<path style="fill:#c8c8c8; stroke:none;" d="M241 85L241 88L242 88L241 85z"/>
<path style="fill:#442859; stroke:none;" d="M20.3333 86.6667L20.6667 87.3333L20.3333 86.6667z"/>
<path style="fill:#4f3c58; stroke:none;" d="M210 86L211 95L212 95L212 86L210 86z"/>
<path style="fill:#707070; stroke:none;" d="M10.3333 87.6667L10.6667 88.3333L10.3333 87.6667z"/>
<path style="fill:#404040; stroke:none;" d="M9.33333 90.6667L9.66667 91.3333L9.33333 90.6667z"/>
<path style="fill:#5f5f5f; stroke:none;" d="M242.333 90.6667L242.667 91.3333L242.333 90.6667z"/>
<path style="fill:#25222b; stroke:none;" d="M198 91L198 96L199 96L198 91z"/>
<path style="fill:#d9d9d9; stroke:none;" d="M8 92L8 96L9 96L8 92z"/>
<path style="fill:#392d41; stroke:none;" d="M40 92L40 107L41 107L40 92z"/>
<path style="fill:#d9d9d9; stroke:none;" d="M244 96L244 100L245 100L244 96z"/>
<path style="fill:#949494; stroke:none;" d="M6.33333 100.667L6.66667 101.333L6.33333 100.667z"/>
<path style="fill:#424242; stroke:none;" d="M244.333 100.667L244.667 101.333L244.333 100.667z"/>
<path style="fill:#2f242c; stroke:none;" d="M53 101L53 112L54 112L53 101z"/>
<path style="fill:#353535; stroke:none;" d="M6 102L6 105L7 105L6 102z"/>
<path style="fill:#d2d2d1; stroke:none;" d="M5 103L5 109L6 109L5 103z"/>
<path style="fill:#a2a2a2; stroke:none;" d="M245.333 103.667L245.667 104.333L245.333 103.667z"/>
<path style="fill:#381152; stroke:none;" d="M197 104L197 110L198 110L197 104z"/>
<path style="fill:#696969; stroke:none;" d="M245 105L245 108L246 108L245 105z"/>
<path style="fill:#4e3366; stroke:none;" d="M14 106L14 110L15 110L14 106z"/>
<path style="fill:#939393; stroke:none;" d="M246 108L246 113L247 113L246 108z"/>
<path style="fill:#838383; stroke:none;" d="M5 109L5 115L6 115L5 109z"/>
<path style="fill:#382248; stroke:none;" d="M114 110L114 113L115 113L116 110L114 110z"/>
<path style="fill:#3e234e; stroke:none;" d="M124 110L124 114L125 114L124 110z"/>
<path style="fill:#300d4d; stroke:none;" d="M210 111L210 118L211 118L212 111L210 111z"/>
<path style="fill:#615468; stroke:none;" d="M13 112L13 138L14 138L13 112z"/>
<path style="fill:#290c42; stroke:none;" d="M54 113L54 118L55 118L54 113z"/>
<path style="fill:#382f42; stroke:none;" d="M238 113L238 139L239 139L238 113z"/>
<path style="fill:#323232; stroke:none;" d="M246 113L246 121L247 121L246 113z"/>
<path style="fill:#575757; stroke:none;" d="M5 115L5 124L6 124L5 115z"/>
<path style="fill:#7d519e; stroke:none;" d="M133 120L135 120L134 123C128.214 117.214 129.118 121.779 126 121L126 172L155 169L154 166L160 164L158 160L164 160L167 144L161 144C162.975 135.111 158.735 136.208 155 129L150 130L151 125L136 124L136 123L146 122L146 120C141.405 118.614 136.366 115.354 133 120z"/>
<path style="fill:#4e3d50; stroke:none;" d="M196 118L196 128L197 128L196 118z"/>
<path style="fill:#453e4e; stroke:none;" d="M113 119L112 126L113 126L115 119L113 119z"/>
<path style="fill:#382930; stroke:none;" d="M125 119L125 126L126 126L125 119z"/>
<path style="fill:#2a1035; stroke:none;" d="M210 121L212 132L213 132L210 121z"/>
<path style="fill:#54455c; stroke:none;" d="M40 122L40 130L41 130L40 122z"/>
<path style="fill:#321847; stroke:none;" d="M124 126L124 132L125 132L124 126z"/>
<path style="fill:#343237; stroke:none;" d="M112 128L110 132L112 144L113 144L112 128z"/>
<path style="fill:#302335; stroke:none;" d="M198 128L199 144L200 144L198 128z"/>
<path style="fill:#4e4e4e; stroke:none;" d="M246 129L246 140L247 140L246 129z"/>
<path style="fill:#4a4a4a; stroke:none;" d="M5 132L5 140L6 140L5 132z"/>
<path style="fill:#4a394c; stroke:none;" d="M125 132L125 140L126 140L125 132z"/>
<path style="fill:#58525c; stroke:none;" d="M40 134L40 150L41 150L40 134z"/>
<path style="fill:#bebebf; stroke:none;" d="M5 140L5 144L6 144L5 140z"/>
<path style="fill:#413543; stroke:none;" d="M52 140L52 141L55 142L52 140z"/>
<path style="fill:#2d1342; stroke:none;" d="M124 140L124 145L125 145L124 140z"/>
<path style="fill:#aaaaaa; stroke:none;" d="M246 140L246 144L247 144L246 140z"/>
<path style="fill:#d2d2d2; stroke:none;" d="M246 144L246 148L247 148L246 144z"/>
<path style="fill:#69696a; stroke:none;" d="M6.33333 145.667L6.66667 146.333L6.33333 145.667z"/>
<path style="fill:#393140; stroke:none;" d="M15 146L15 150L16 150L15 146z"/>
<path style="fill:#a5a5a6; stroke:none;" d="M6 147L6 150L7 150L6 147z"/>
<path style="fill:#4a3266; stroke:none;" d="M124 148L124 154L125 154L124 148z"/>
<path style="fill:#413344; stroke:none;" d="M211 148L211 152L212 152L211 148z"/>
<path style="fill:#6a6a6a; stroke:none;" d="M245 149L245 152L246 152L245 149z"/>
<path style="fill:#625068; stroke:none;" d="M52 152L51 162L52 162L52 152z"/>
<path style="fill:#3c2750; stroke:none;" d="M16 153L16 156L17 156L16 153z"/>
<path style="fill:#2e1c34; stroke:none;" d="M50 156L50 159L51 159L52 156L50 156z"/>
<path style="fill:#5b4d64; stroke:none;" d="M125 156L125 166L126 166L125 156z"/>
<path style="fill:#d8d8d8; stroke:none;" d="M243 156L243 161L244 161L243 156z"/>
<path style="fill:#c3c3c3; stroke:none;" d="M8.33333 158.667L8.66667 159.333L8.33333 158.667z"/>
<path style="fill:#3f2554; stroke:none;" d="M39 160L39 168L40 168L39 160z"/>
<path style="fill:#4d4958; stroke:none;" d="M112 160L112 172L113 172L112 160z"/>
<path style="fill:#332f3e; stroke:none;" d="M211 160L211 169L212 169L211 160z"/>
<path style="fill:#979797; stroke:none;" d="M9.33333 161.667L9.66667 162.333L9.33333 161.667z"/>
<path style="fill:#949494; stroke:none;" d="M242 162L243 163L242 162z"/>
<path style="fill:#9d9d9d; stroke:none;" d="M10 165L10 168L11 168L10 165z"/>
<path style="fill:#35283a; stroke:none;" d="M125 166L125 172L126 172L125 166z"/>
<path style="fill:#787878; stroke:none;" d="M240 167L241 168L240 167z"/>
<path style="fill:#2f1b37; stroke:none;" d="M50 168L51 171L52 171L52 168L50 168z"/>
<path style="fill:#b4b4b4; stroke:none;" d="M239.333 169.667L239.667 170.333L239.333 169.667z"/>
<path style="fill:#a7a7a7; stroke:none;" d="M12.3333 170.667L12.6667 171.333L12.3333 170.667z"/>
<path style="fill:#4b3e50; stroke:none;" d="M161 170L161 171L176 171L161 170z"/>
<path style="fill:#311840; stroke:none;" d="M131 171L131 172L136 172L131 171z"/>
<path style="fill:#291a2f; stroke:none;" d="M147 171L147 172L157 172L147 171z"/>
<path style="fill:#7a7878; stroke:none;" d="M238 171L238 174L239 174L238 171z"/>
<path style="fill:#7f7f7f; stroke:none;" d="M13 173L14 174L13 173z"/>
<path style="fill:#878787; stroke:none;" d="M14 175L15 176L14 175z"/>
<path style="fill:#959595; stroke:none;" d="M237 175L238 176L237 175z"/>
<path style="fill:#5d5d5d; stroke:none;" d="M15 176L16 177L15 176z"/>
<path style="fill:#3b2848; stroke:none;" d="M211 176L211 180L212 180L211 176z"/>
<path style="fill:#341a41; stroke:none;" d="M41 177L41 182L42 182L41 177z"/>
<path style="fill:#433449; stroke:none;" d="M116.667 181.333L117.333 181.667L116.667 181.333z"/>
<path style="fill:#423644; stroke:none;" d="M200 181L200 182L209 182L200 181z"/>
<path style="fill:#282530; stroke:none;" d="M167 183L167 184L172 183L167 183z"/>
<path style="fill:#c6c6c7; stroke:none;" d="M18.3333 183.667L18.6667 184.333L18.3333 183.667z"/>
<path style="fill:#676666; stroke:none;" d="M233 183L234 184L233 183z"/>
<path style="fill:#512b68; stroke:none;" d="M127 184L127 185L134 185L127 184z"/>
<path style="fill:#35144b; stroke:none;" d="M143 184L143 185L146 185L143 184z"/>
<path style="fill:#737373; stroke:none;" d="M232 185L233 186L232 185z"/>
<path style="fill:#848484; stroke:none;" d="M20 186L21 187L20 186z"/>
<path style="fill:#5f5f5f; stroke:none;" d="M21 188L22 189L21 188z"/>
<path style="fill:#737373; stroke:none;" d="M230 188L231 189L230 188z"/>
<path style="fill:#777777; stroke:none;" d="M22 189L23 190L22 189z"/>
<path style="fill:#7f7f7f; stroke:none;" d="M229 190L230 191L229 190z"/>
<path style="fill:#8b8b8b; stroke:none;" d="M226 195L227 196L226 195z"/>
<path style="fill:#828282; stroke:none;" d="M224 198L225 199L224 198z"/>
<path style="fill:#7f7f7f; stroke:none;" d="M223 199L224 200L223 199z"/>
<path style="fill:#7e7e7e; stroke:none;" d="M29 200L30 201L29 200z"/>
<path style="fill:#5c5c5c; stroke:none;" d="M30 201L31 202L30 201z"/>
<path style="fill:#a3a2a3; stroke:none;" d="M222 201L223 202L222 201z"/>
<path style="fill:#575757; stroke:none;" d="M31 202L32 203L31 202z"/>
<path style="fill:#7d7d7d; stroke:none;" d="M219 204L220 205L219 204z"/>
<path style="fill:#a6a6a6; stroke:none;" d="M218 205L219 206L218 205z"/>
<path style="fill:#777777; stroke:none;" d="M34 206L35 207L34 206z"/>
<path style="fill:#6a6a6a; stroke:none;" d="M217 206L218 207L217 206z"/>
<path style="fill:#424242; stroke:none;" d="M35.3333 207.667L35.6667 208.333L35.3333 207.667z"/>
<path style="fill:#606060; stroke:none;" d="M216 207L217 208L216 207z"/>
<path style="fill:#555555; stroke:none;" d="M215 208L216 209L215 208z"/>
<path style="fill:#9c9c9c; stroke:none;" d="M38.3333 211.667L38.6667 212.333L38.3333 211.667z"/>
<path style="fill:#8a8a8a; stroke:none;" d="M212 212L213 213L212 212z"/>
<path style="fill:#656565; stroke:none;" d="M39 213L40 214L39 213z"/>
<path style="fill:#979797; stroke:none;" d="M211 213L212 214L211 213z"/>
<path style="fill:#8c8c8c; stroke:none;" d="M40 214L41 215L40 214z"/>
<path style="fill:#939393; stroke:none;" d="M210 214L211 215L210 214z"/>
<path style="fill:#a6a6a6; stroke:none;" d="M41 215L41 216L44 216L41 215z"/>
<path style="fill:#9c9c9c; stroke:none;" d="M209 215L210 216L209 215z"/>
<path style="fill:#a4a4a4; stroke:none;" d="M208 216L209 217L208 216z"/>
<path style="fill:#626262; stroke:none;" d="M46 217L47 218L46 217z"/>
<path style="fill:#aaaaaa; stroke:none;" d="M207 217L208 218L207 217z"/>
<path style="fill:#868686; stroke:none;" d="M47 218L48 219L47 218z"/>
<path style="fill:#818181; stroke:none;" d="M48 219L49 220L48 219z"/>
<path style="fill:#6e6e6e; stroke:none;" d="M53 223L54 224L53 223z"/>
<path style="fill:#a2a2a2; stroke:none;" d="M54 224L55 225L54 224z"/>
<path style="fill:#9c9c9c; stroke:none;" d="M57 226L58 227L57 226z"/>
<path style="fill:#727272; stroke:none;" d="M196 226L197 227L196 226z"/>
<path style="fill:#8b8b8b; stroke:none;" d="M195 227L196 228L195 227z"/>
<path style="fill:#666666; stroke:none;" d="M193 228L194 229L193 228z"/>
<path style="fill:#989898; stroke:none;" d="M62 229L63 230L62 229z"/>
<path style="fill:#666666; stroke:none;" d="M190 230L191 231L190 230z"/>
<path style="fill:#8b8b8b; stroke:none;" d="M65 231L66 232L65 231M66 232L67 233L66 232z"/>
<path style="fill:#929292; stroke:none;" d="M187 232L188 233L187 232z"/>
<path style="fill:#5f5f5f; stroke:none;" d="M68 233L69 234L68 233z"/>
<path style="fill:#696969; stroke:none;" d="M185 233L186 234L185 233z"/>
<path style="fill:#868586; stroke:none;" d="M70 234L71 235L70 234z"/>
<path style="fill:#878787; stroke:none;" d="M183 234L184 235L183 234z"/>
<path style="fill:#737373; stroke:none;" d="M72 235L73 236L72 235z"/>
<path style="fill:#6d6d6d; stroke:none;" d="M74.6667 236.333L75.3333 236.667L74.6667 236.333z"/>
<path style="fill:#666666; stroke:none;" d="M77 237L78 238L77 237z"/>
<path style="fill:#545454; stroke:none;" d="M79.6667 238.333L80.3333 238.667L79.6667 238.333z"/>
<path style="fill:#393242; stroke:none;" d="M106 238L106 239L112 239L106 238z"/>
<path style="fill:#959597; stroke:none;" d="M173.667 238.333L174.333 238.667L173.667 238.333z"/>
<path style="fill:#636363; stroke:none;" d="M82 239L83 240L82 239z"/>
<path style="fill:#626262; stroke:none;" d="M85 240L86 241L85 240z"/>
<path style="fill:#989898; stroke:none;" d="M86.6667 241.333L87.3333 241.667L86.6667 241.333z"/>
<path style="fill:#bababa; stroke:none;" d="M166.667 241.333L167.333 241.667L166.667 241.333z"/>
<path style="fill:#545454; stroke:none;" d="M89 242L89 243L92 243L89 242z"/>
<path style="fill:#828282; stroke:none;" d="M164 242L165 243L164 242z"/>
<path style="fill:#767676; stroke:none;" d="M93 243L94 244L93 243z"/>
<path style="fill:#a1a1a1; stroke:none;" d="M155.667 244.333L156.333 244.667L155.667 244.333z"/>
<path style="fill:#bcbcbc; stroke:none;" d="M96.6667 245.333L97.3333 245.667L96.6667 245.333z"/>
<path style="fill:#c9c9c9; stroke:none;" d="M152.667 245.333L153.333 245.667L152.667 245.333z"/>
<path style="fill:#747474; stroke:none;" d="M100 246L100 247L104 247L100 246z"/>
<path style="fill:#757575; stroke:none;" d="M107 246L107 247L111 247L107 246z"/>
<path style="fill:#5d5d5d; stroke:none;" d="M144 246L144 247L151 247L144 246z"/>
<path style="fill:#b9b9b9; stroke:none;" d="M104 247L104 248L107 248L104 247z"/>
<path style="fill:#8a8a8a; stroke:none;" d="M113 247L113 248L117 248L113 247z"/>
<path style="fill:#3d3d3d; stroke:none;" d="M119.667 247.333L120.333 247.667L119.667 247.333z"/>
<path style="fill:#626262; stroke:none;" d="M122 247L122 248L130 248L122 247M131 247L131 248L139 248L131 247z"/>
<path style="fill:#b4b4b4; stroke:none;" d="M139.667 247.333L140.333 247.667L139.667 247.333z"/>
</svg>
