<?xml version="1.0" standalone="yes"?>
<svg width="252" height="252">
<path style="fill:#a3a3a1; stroke:none;" d="M108 5L108 6L113 6L108 5z"/>
<path style="fill:#5f5f5f; stroke:none;" d="M113 5L113 6L121 6L113 5z"/>
<path style="fill:#000100; stroke:none;" d="M121 5.70988C66.2095 6.5237 15.533 47.7342 6.32562 103C-5.04018 171.221 45.7303 249.514 120 247.59C149.201 246.833 176.041 242.327 200 224.101C255.401 181.955 264.417 89.6228 212.981 40.2446C187.774 16.0449 155.066 5.2039 121 5.70988z"/>
<path style="fill:#626262; stroke:none;" d="M122 5L122 6L130 6L122 5z"/>
<path style="fill:#5c5c5c; stroke:none;" d="M131.667 5.33333L132.333 5.66667L131.667 5.33333z"/>
<path style="fill:#898989; stroke:none;" d="M134 5L134 6L139 6L134 5z"/>
<path style="fill:#a4a4a4; stroke:none;" d="M145 5L145 6L148 6L145 5z"/>
<path style="fill:#adadad; stroke:none;" d="M100.667 6.33333L101.333 6.66667L100.667 6.33333z"/>
<path style="fill:#696969; stroke:none;" d="M102.667 6.33333L103.333 6.66667L102.667 6.33333z"/>
<path style="fill:#545454; stroke:none;" d="M142 6L142 7L145 7L142 6z"/>
<path style="fill:#959595; stroke:none;" d="M150.667 6.33333L151.333 6.66667L150.667 6.33333z"/>
<path style="fill:#979797; stroke:none;" d="M98.6667 7.33333L99.3333 7.66667L98.6667 7.33333z"/>
<path style="fill:#737373; stroke:none;" d="M94 8L94 9L97 9L94 8z"/>
<path style="fill:#848484; stroke:none;" d="M156 8L157 9L156 8z"/>
<path style="fill:#464646; stroke:none;" d="M89.6667 9.33333L90.3333 9.66667L89.6667 9.33333z"/>
<path style="fill:#7c7c7c; stroke:none;" d="M87 10L88 11L87 10z"/>
<path style="fill:#545454; stroke:none;" d="M160 10L160 11L163 11L160 10z"/>
<path style="fill:#7b7b7b; stroke:none;" d="M84 11L85 12L84 11z"/>
<path style="fill:#8e8e8e; stroke:none;" d="M165 11L166 12L165 11z"/>
<path style="fill:#838383; stroke:none;" d="M82 12L83 13L82 12z"/>
<path style="fill:#606060; stroke:none;" d="M166 12L167 13L166 12z"/>
<path style="fill:#858585; stroke:none;" d="M79.6667 13.3333L80.3333 13.6667L79.6667 13.3333z"/>
<path style="fill:#3c3f2e; stroke:none;" d="M110 13L110 14L115 14L110 13z"/>
<path style="fill:#5e6345; stroke:none;" d="M115 13L115 14L139 14L115 13z"/>
<path style="fill:#8e8e8e; stroke:none;" d="M77 14L78 15L77 14z"/>
<path style="fill:#495412; stroke:none;" d="M106 14L106 15L109 15L106 14z"/>
<path style="fill:#98a73e; stroke:none;" d="M65 30L67 32C65.192 32.4754 61.5315 33.3242 64 35L64 36L61 36L61 37L74 42L73 39L85 32L84 43L96 48L96 49L92 49C94.5926 53.0027 102.207 54.2584 105 50L110 48L107 49L108 42L112 42L110 46L111 47L114 39L115 41L116 41C122.178 31.4753 133.108 44.3913 136.708 48.9954C146.736 61.8175 156.312 77.69 164.139 91.9954C166.619 96.5289 168.923 106.516 174 108L178 121L182 121L192 152C201.906 154.229 201.458 170.142 201 178C188.306 166.148 180.559 148.162 172.608 133C168.648 125.45 163.303 118.931 160 111C154.006 111.214 152.21 111.124 150 118L152 117L152 118L149 120L150 124L153 123L154 129C147.979 130.999 149.475 146.742 154 150L154 151L151 151L151 152L160 160L161 160L163 158C163.666 162.005 165.456 163.368 169 161L170 165L175 165L175 166L168 167L168 168C177.319 171.475 179.395 178.055 168 178L172 192L176 192C173.066 196.565 172.042 199.58 173 205C161.7 205.586 156.28 211.872 147 216L147 221C143.117 222.097 142.275 224.098 142 228L128 228L120 230L120 226L112 228C107.308 226.301 97.5288 225.962 94 230L93 230L92 230L86 227L77 228L77 229C112.54 242.27 147.662 242.823 182 225.243C192.227 220.007 208.761 209.646 212 198L209 200L207 187L216 190L216 186L207 184L208 181L206 184L205 184C204.591 180.406 204.897 178.948 208 177L207 180L208 180L210 177L210 176L205 170L208 170C207.447 166.684 204.333 163.083 208 164L206 162L210 157L210 153L214 153L214 143L219 144L218 139L210 143C210.577 140.289 210.768 139.605 208 139L211 136L206 117L203 120L205 106L197 97L200 77L203 78L204 75L199 74C200.903 66.0068 192.863 57.744 198 53L198 51C192.322 46.0125 195.471 39.1633 201 46C202.873 36.7004 179.09 25.918 172 22.8727C135.17 7.05307 99.903 14.1357 65 30z"/>
<path style="fill:#6d6d6d; stroke:none;" d="M172 14L173 15L172 14z"/>
<path style="fill:#373a29; stroke:none;" d="M101 15L101 16L104 16L101 15z"/>
<path style="fill:#666666; stroke:none;" d="M174 15L175 16L174 15z"/>
<path style="fill:#6a6a6a; stroke:none;" d="M73 16L74 17L73 16z"/>
<path style="fill:#535c1d; stroke:none;" d="M151 16L151 17L154 17L151 16z"/>
<path style="fill:#7a7a7a; stroke:none;" d="M176.667 16.3333L177.333 16.6667L176.667 16.3333z"/>
<path style="fill:#898989; stroke:none;" d="M70 17L71 18L70 17z"/>
<path style="fill:#3d3d33; stroke:none;" d="M155.667 17.3333L156.333 17.6667L155.667 17.3333z"/>
<path style="fill:#c7c7c7; stroke:none;" d="M179.667 17.3333L180.333 17.6667L179.667 17.3333z"/>
<path style="fill:#7a7a7a; stroke:none;" d="M68 18L69 19L68 18z"/>
<path style="fill:#515e0c; stroke:none;" d="M91.6667 18.3333L92.3333 18.6667L91.6667 18.3333z"/>
<path style="fill:#546109; stroke:none;" d="M158 18L158 19L161 19L158 18z"/>
<path style="fill:#bebebe; stroke:none;" d="M181.667 18.3333L182.333 18.6667L181.667 18.3333z"/>
<path style="fill:#929292; stroke:none;" d="M64 20L65 21L64 20z"/>
<path style="fill:#8b8b8b; stroke:none;" d="M185 20L186 21L185 20z"/>
<path style="fill:#909090; stroke:none;" d="M62 21L63 22L62 21z"/>
<path style="fill:#919191; stroke:none;" d="M191 24L192 25L191 24z"/>
<path style="fill:#8b8b8b; stroke:none;" d="M56 25L57 26L56 25z"/>
<path style="fill:#626262; stroke:none;" d="M55 26L56 27L55 26z"/>
<path style="fill:#5e6d10; stroke:none;" d="M71.6667 26.3333L72.3333 26.6667L71.6667 26.3333z"/>
<path style="fill:#a7a7a7; stroke:none;" d="M53 27L54 28L53 27M196 27L197 28L196 27z"/>
<path style="fill:#989898; stroke:none;" d="M52 28L53 29L52 28z"/>
<path style="fill:#656565; stroke:none;" d="M51 29L52 30L51 29z"/>
<path style="fill:#adc042; stroke:none;" d="M86 227L92 230L93 230L94 230C98.6185 226.501 106.588 226.624 112 228L120 226L120 230L128 228L142 228L147 221L147 216L157.093 208.987L173 205L176 192L172 192L168 178C179.834 178.202 178.333 170.621 168 168L168 167L175 166L175 165L170 165L169 161C165.521 162.617 164.079 161.549 163 158L161 160L160 160C158.12 155.324 156.081 152.931 151 152L151 151L154 151L154 150C150.142 145.389 148.113 132.257 154 129L153 123L150 124L149 120L152 117L150 118L152 116C152.638 112.571 154.612 110.102 158 112L159 112C153.74 89.6066 130.802 73.4035 126 51L117.865 64.0895L100.169 97.9144L91 116C85.7452 117.681 82.4381 123.625 83 129L62 152L63 159L44 173C45.575 157.722 58.7377 141.506 66.8989 129C80.9274 107.503 93.6058 83.9245 105.17 61C109.142 53.125 115.564 46.5128 118 38L116 41L115 41L114 39L111 47L110 46L112 42L108 42L107 49L110 48L109 51L105 50C101.19 53.6586 95.5485 52.6269 92 49L96 49L96 48L84 43L85 32L73 39L74 42L61 37L61 36L64 36L64 35L62 34L67 32C62.3229 30.5336 58.0369 35.2206 54.5795 38.0247C44.4407 46.2475 37.038 55.948 30.159 67C5.53692 106.558 8.36911 162.422 38.76 198.285C47.6732 208.803 58.6646 219.26 71 225.673C74.6576 227.574 82.7375 230.181 86 227z"/>
<path style="fill:#a4a4a4; stroke:none;" d="M201 31L202 32L201 31z"/>
<path style="fill:#919191; stroke:none;" d="M47 32L48 33L47 32z"/>
<path style="fill:#909090; stroke:none;" d="M202 32L203 33L202 32z"/>
<path style="fill:#818181; stroke:none;" d="M203 33L204 34L203 33z"/>
<path style="fill:#9d9d9d; stroke:none;" d="M45 34L46 35L45 34z"/>
<path style="fill:#767676; stroke:none;" d="M204 34L205 35L204 34z"/>
<path style="fill:#a2a2a2; stroke:none;" d="M44 35L45 36L44 35z"/>
<path style="fill:#a4a4a4; stroke:none;" d="M43 36L44 37L43 36z"/>
<path style="fill:#636363; stroke:none;" d="M42 37L43 38L42 37z"/>
<path style="fill:#7a7a7a; stroke:none;" d="M208 37L208 38L211 38L208 37z"/>
<path style="fill:#8d8d8e; stroke:none;" d="M41 38L42 39L41 38z"/>
<path style="fill:#4d5526; stroke:none;" d="M121.667 38.3333L122.333 38.6667L121.667 38.3333z"/>
<path style="fill:#8b8b8b; stroke:none;" d="M211 38L212 39L211 38z"/>
<path style="fill:#878788; stroke:none;" d="M40 39L41 40L40 39z"/>
<path style="fill:#000100; stroke:none;" d="M44 173L63 159L61 157L61 156L62 152C66.2214 150.819 67.7762 148.07 69 144L71 146L83 129C83.4085 120.608 91.1332 112.175 95.7446 105.439C103.054 94.7627 108.354 82.3915 114.532 71C118.026 64.556 122.522 58.5049 123 51C130.22 55.1739 136.584 72.4401 141.012 80C152.037 98.8275 164.53 117.458 174.194 137C180.474 149.697 188.988 169.97 201 178C201.838 170.906 200.988 153.708 192 152L188 142C191.904 135.326 182.618 127.496 181 121C176.321 118.47 174.622 113.068 174 108C168.373 104.649 166.988 96.5143 164.045 91C157.121 78.0278 147.959 61.6836 138.355 50.6211C135.928 47.826 133.921 42.2074 130.585 40.5957C114.961 33.0485 108.128 55.7716 102.409 66C91.0137 86.3817 79.7915 107.133 67.5332 127C58.7443 141.244 47.3256 156.232 44 173z"/>
<path style="fill:#444f03; stroke:none;" d="M124 39L124 40L130 40L124 39z"/>
<path style="fill:#7c7c7d; stroke:none;" d="M39 40L40 41L39 40z"/>
<path style="fill:#5d5d5d; stroke:none;" d="M213.333 40.6667L213.667 41.3333L213.333 40.6667z"/>
<path style="fill:#8b993a; stroke:none;" d="M198 51L198 53C191.899 56.7374 200.409 66.4102 199 74L203 78L200 77L197 97L205 106L203 120L206 117L211 136L208 139L210 143L218 139L219 144L214 143L214 153L210 153L210 157C206.081 158.144 206.341 160.712 208 164C205.165 164.503 207.195 167.817 208 170L205 170L210 176L210 177L208 180L207 180L208 177C204.315 178.485 204.214 180.274 205 184L206 184L208 181L207 184L216 186L216 190L207 187L209 200L212 200L213 200C218.56 186.848 228.127 175.802 233.06 162C242.163 136.534 240.112 104.388 229.08 80C224.499 69.8723 218.528 60.2773 211.051 52.0147C208.331 49.0097 205.311 43.9586 201 46C196.567 38.0775 190.2 46.4322 198 51z"/>
<path style="fill:#909090; stroke:none;" d="M37 42L38 43L37 42z"/>
<path style="fill:#444631; stroke:none;" d="M133.333 43.6667L133.667 44.3333L133.333 43.6667z"/>
<path style="fill:#575757; stroke:none;" d="M36 44L37 45L36 44z"/>
<path style="fill:#6b6b6b; stroke:none;" d="M34 46L35 47L34 46z"/>
<path style="fill:#7a7a7a; stroke:none;" d="M217 46L218 47L217 46z"/>
<path style="fill:#959595; stroke:none;" d="M33 47L34 48L33 47z"/>
<path style="fill:#6b6b6b; stroke:none;" d="M32 48L33 49L32 48z"/>
<path style="fill:#434e0a; stroke:none;" d="M136.333 48.6667L136.667 49.3333L136.333 48.6667z"/>
<path style="fill:#8a8a8a; stroke:none;" d="M31 49L32 50L31 49z"/>
<path style="fill:#8f8f8f; stroke:none;" d="M30 50L31 51L30 50z"/>
<path style="fill:#a1a1a1; stroke:none;" d="M29 51L30 52L29 51z"/>
<path style="fill:#50543d; stroke:none;" d="M123 51L123 54L124 54L123 51z"/>
<path style="fill:#707070; stroke:none;" d="M222 52L223 53L222 52z"/>
<path style="fill:#5f6738; stroke:none;" d="M126.333 53.6667L126.667 54.3333L126.333 53.6667z"/>
<path style="fill:#999999; stroke:none;" d="M223 53L224 54L223 53z"/>
<path style="fill:#828282; stroke:none;" d="M27 54L28 55L27 54z"/>
<path style="fill:#707f22; stroke:none;" d="M38.3333 54.6667L38.6667 55.3333L38.3333 54.6667z"/>
<path style="fill:#888888; stroke:none;" d="M25 57L26 58L25 57z"/>
<path style="fill:#a0a0a0; stroke:none;" d="M226 57L227 58L226 57z"/>
<path style="fill:#969696; stroke:none;" d="M24 58L25 59L24 58z"/>
<path style="fill:#828282; stroke:none;" d="M227 59L228 60L227 59z"/>
<path style="fill:#aaaaaa; stroke:none;" d="M23 60L24 61L23 60z"/>
<path style="fill:#444247; stroke:none;" d="M104.333 61.6667L104.667 62.3333L104.333 61.6667z"/>
<path style="fill:#7c7c7c; stroke:none;" d="M22 62L23 63L22 62z"/>
<path style="fill:#a4a4a4; stroke:none;" d="M21 63L22 64L21 63z"/>
<path style="fill:#353535; stroke:none;" d="M230.333 64.6667L230.667 65.3333L230.333 64.6667z"/>
<path style="fill:#6a6a6a; stroke:none;" d="M231 66L232 67L231 66z"/>
<path style="fill:#747474; stroke:none;" d="M19 67L20 68L19 67z"/>
<path style="fill:#919191; stroke:none;" d="M234 71L235 72L234 71z"/>
<path style="fill:#8d8d8e; stroke:none;" d="M16 73L17 74L16 73z"/>
<path style="fill:#878787; stroke:none;" d="M235 73L236 74L235 73z"/>
<path style="fill:#8d8d8d; stroke:none;" d="M14 77L15 78L14 77z"/>
<path style="fill:#7c7c7c; stroke:none;" d="M237 77L238 78L237 77z"/>
<path style="fill:#7b7b7b; stroke:none;" d="M13.3333 79.6667L13.6667 80.3333L13.3333 79.6667z"/>
<path style="fill:#535c27; stroke:none;" d="M23.3333 79.6667L23.6667 80.3333L23.3333 79.6667z"/>
<path style="fill:#41481c; stroke:none;" d="M156.333 79.6667L156.667 80.3333L156.333 79.6667z"/>
<path style="fill:#6b6b6b; stroke:none;" d="M238 79L239 80L238 79z"/>
<path style="fill:#5d614a; stroke:none;" d="M108.667 81.3333L109.333 81.6667L108.667 81.3333z"/>
<path style="fill:#5d5d5d; stroke:none;" d="M239.333 81.6667L239.667 82.3333L239.333 81.6667z"/>
<path style="fill:#626262; stroke:none;" d="M12.3333 82.6667L12.6667 83.3333L12.3333 82.6667z"/>
<path style="fill:#656565; stroke:none;" d="M240 84L241 85L240 84z"/>
<path style="fill:#737373; stroke:none;" d="M11 85L12 86L11 85z"/>
<path style="fill:#c8c8c8; stroke:none;" d="M241 85L241 88L242 88L241 85z"/>
<path style="fill:#434d0e; stroke:none;" d="M20 86L20 89L21 89L20 86z"/>
<path style="fill:#707070; stroke:none;" d="M10.3333 87.6667L10.6667 88.3333L10.3333 87.6667z"/>
<path style="fill:#3e4904; stroke:none;" d="M104.333 88.6667L104.667 89.3333L104.333 88.6667z"/>
<path style="fill:#404040; stroke:none;" d="M9.33333 90.6667L9.66667 91.3333L9.33333 90.6667z"/>
<path style="fill:#5f5f5f; stroke:none;" d="M242.333 90.6667L242.667 91.3333L242.333 90.6667z"/>
<path style="fill:#d9d9d9; stroke:none;" d="M8 92L8 96L9 96L8 92z"/>
<path style="fill:#6d753a; stroke:none;" d="M101.333 95.6667L101.667 96.3333L101.333 95.6667z"/>
<path style="fill:#d9d9d9; stroke:none;" d="M244 96L244 100L245 100L244 96z"/>
<path style="fill:#63701e; stroke:none;" d="M83 97L83 100L84 100L83 97z"/>
<path style="fill:#484a3c; stroke:none;" d="M167 97L167 100L168 100L167 97z"/>
<path style="fill:#949494; stroke:none;" d="M6.33333 100.667L6.66667 101.333L6.33333 100.667z"/>
<path style="fill:#424242; stroke:none;" d="M244.333 100.667L244.667 101.333L244.333 100.667z"/>
<path style="fill:#33352a; stroke:none;" d="M15 101L15 105L16 105L15 101z"/>
<path style="fill:#404429; stroke:none;" d="M169.333 102.667L169.667 103.333L169.333 102.667z"/>
<path style="fill:#d2d2d1; stroke:none;" d="M5 103L5 109L6 109L5 103z"/>
<path style="fill:#424532; stroke:none;" d="M236 103L236 106L237 106L236 103z"/>
<path style="fill:#a2a2a2; stroke:none;" d="M245.333 103.667L245.667 104.333L245.333 103.667z"/>
<path style="fill:#696969; stroke:none;" d="M245 105L245 108L246 108L245 105z"/>
<path style="fill:#425000; stroke:none;" d="M14 107L14 110L15 110L14 107z"/>
<path style="fill:#939393; stroke:none;" d="M246 108L246 113L247 113L246 108z"/>
<path style="fill:#838383; stroke:none;" d="M5 109L5 115L6 115L5 109z"/>
<path style="fill:#616358; stroke:none;" d="M91.3333 110.667L91.6667 111.333L91.3333 110.667z"/>
<path style="fill:#777d5b; stroke:none;" d="M13 112L13 128L14 128L13 112z"/>
<path style="fill:#696d54; stroke:none;" d="M238 113L238 139L239 139L238 113z"/>
<path style="fill:#323232; stroke:none;" d="M246 113L246 121L247 121L246 113z"/>
<path style="fill:#525b24; stroke:none;" d="M90.3333 114.667L90.6667 115.333L90.3333 114.667z"/>
<path style="fill:#575759; stroke:none;" d="M5 115L5 124L6 124L5 115z"/>
<path style="fill:#4d5718; stroke:none;" d="M176 115L176 118L177 118L176 115z"/>
<path style="fill:#6c7929; stroke:none;" d="M86.3333 118.667L86.6667 119.333L86.3333 118.667z"/>
<path style="fill:#444736; stroke:none;" d="M181 121L181 125L182 125L181 121z"/>
<path style="fill:#4f523d; stroke:none;" d="M13 128L13 138L14 138L13 128z"/>
<path style="fill:#414d00; stroke:none;" d="M80.3333 129.667L80.6667 130.333L80.3333 129.667z"/>
<path style="fill:#4e4e4e; stroke:none;" d="M246 129L246 140L247 140L246 129z"/>
<path style="fill:#475307; stroke:none;" d="M186 130L186 133L187 133L186 130z"/>
<path style="fill:#4a4a4a; stroke:none;" d="M5 132L5 140L6 140L5 132z"/>
<path style="fill:#434a21; stroke:none;" d="M77.3333 135.667L77.6667 136.333L77.3333 135.667z"/>
<path style="fill:#61700b; stroke:none;" d="M175.333 139.667L175.667 140.333L175.333 139.667z"/>
<path style="fill:#bebebe; stroke:none;" d="M5 140L5 144L6 144L5 140z"/>
<path style="fill:#54554d; stroke:none;" d="M188 142L191 140L188 142z"/>
<path style="fill:#aaaaaa; stroke:none;" d="M246 140L246 144L247 144L246 140z"/>
<path style="fill:#56640c; stroke:none;" d="M14 141L14 144L15 144L14 141z"/>
<path style="fill:#677134; stroke:none;" d="M69 144L67 150L68 150L71 147L71 146L69 144z"/>
<path style="fill:#d2d2d2; stroke:none;" d="M246 144L246 148L247 148L246 144z"/>
<path style="fill:#696969; stroke:none;" d="M6.33333 145.667L6.66667 146.333L6.33333 145.667z"/>
<path style="fill:#3a3b35; stroke:none;" d="M191 145L191 148L192 148L191 145z"/>
<path style="fill:#32332e; stroke:none;" d="M15 146L15 152L16 152L15 146z"/>
<path style="fill:#a5a5a5; stroke:none;" d="M6 147L6 150L7 150L6 147z"/>
<path style="fill:#6a6a6a; stroke:none;" d="M245 149L245 152L246 152L245 149z"/>
<path style="fill:#464648; stroke:none;" d="M52 150L52 155L53 155L52 150z"/>
<path style="fill:#4f5b13; stroke:none;" d="M181.333 150.667L181.667 151.333L181.333 150.667z"/>
<path style="fill:#454e0f; stroke:none;" d="M16.3333 153.667L16.6667 154.333L16.3333 153.667z"/>
<path style="fill:#333714; stroke:none;" d="M195 154L195 155L197 157L198 157L195 154z"/>
<path style="fill:#3e4325; stroke:none;" d="M61.3333 156.667L61.6667 157.333L61.3333 156.667z"/>
<path style="fill:#d8d8d8; stroke:none;" d="M243 156L243 161L244 161L243 156z"/>
<path style="fill:#c3c3c4; stroke:none;" d="M8.33333 158.667L8.66667 159.333L8.33333 158.667z"/>
<path style="fill:#637509; stroke:none;" d="M49.3333 158.667L49.6667 159.333L49.3333 158.667z"/>
<path style="fill:#434633; stroke:none;" d="M199 159L199 165L200 165L199 159z"/>
<path style="fill:#57650d; stroke:none;" d="M18.3333 160.667L18.6667 161.333L18.3333 160.667z"/>
<path style="fill:#979797; stroke:none;" d="M9.33333 161.667L9.66667 162.333L9.33333 161.667z"/>
<path style="fill:#949494; stroke:none;" d="M242 162L243 163L242 162z"/>
<path style="fill:#3b3d2f; stroke:none;" d="M46.3333 164.667L46.6667 165.333L46.3333 164.667z"/>
<path style="fill:#9d9d9d; stroke:none;" d="M10 165L10 168L11 168L10 165z"/>
<path style="fill:#505c14; stroke:none;" d="M20 165L20 168L21 168L20 165z"/>
<path style="fill:#787878; stroke:none;" d="M240 167L241 168L240 167z"/>
<path style="fill:#626554; stroke:none;" d="M44 168L44 171L45 171L44 168z"/>
<path style="fill:#b4b4b4; stroke:none;" d="M239.333 169.667L239.667 170.333L239.333 169.667z"/>
<path style="fill:#a7a7a7; stroke:none;" d="M12.3333 170.667L12.6667 171.333L12.3333 170.667z"/>
<path style="fill:#787a78; stroke:none;" d="M238 171L238 174L239 174L238 171z"/>
<path style="fill:#7f7f7f; stroke:none;" d="M13 173L14 174L13 173z"/>
<path style="fill:#878787; stroke:none;" d="M14 175L15 176L14 175z"/>
<path style="fill:#959595; stroke:none;" d="M237 175L238 176L237 175z"/>
<path style="fill:#5d5d5d; stroke:none;" d="M15 176L16 177L15 176z"/>
<path style="fill:#c6c6c7; stroke:none;" d="M18.3333 183.667L18.6667 184.333L18.3333 183.667z"/>
<path style="fill:#666766; stroke:none;" d="M233 183L234 184L233 183z"/>
<path style="fill:#737373; stroke:none;" d="M232 185L233 186L232 185z"/>
<path style="fill:#848484; stroke:none;" d="M20 186L21 187L20 186z"/>
<path style="fill:#5f5f5f; stroke:none;" d="M21 188L22 189L21 188z"/>
<path style="fill:#737373; stroke:none;" d="M230 188L231 189L230 188z"/>
<path style="fill:#777777; stroke:none;" d="M22 189L23 190L22 189z"/>
<path style="fill:#7f7f7f; stroke:none;" d="M229 190L230 191L229 190z"/>
<path style="fill:#8b8b8b; stroke:none;" d="M226 195L227 196L226 195z"/>
<path style="fill:#828282; stroke:none;" d="M224 198L225 199L224 198z"/>
<path style="fill:#7f7f7f; stroke:none;" d="M223 199L224 200L223 199z"/>
<path style="fill:#7e7e7e; stroke:none;" d="M29 200L30 201L29 200z"/>
<path style="fill:#5c5c5c; stroke:none;" d="M30 201L31 202L30 201z"/>
<path style="fill:#a2a2a1; stroke:none;" d="M222 201L223 202L222 201z"/>
<path style="fill:#575757; stroke:none;" d="M31 202L32 203L31 202z"/>
<path style="fill:#7d7d7d; stroke:none;" d="M219 204L220 205L219 204z"/>
<path style="fill:#a6a6a6; stroke:none;" d="M218 205L219 206L218 205z"/>
<path style="fill:#777776; stroke:none;" d="M34 206L35 207L34 206z"/>
<path style="fill:#6a6a6a; stroke:none;" d="M217 206L218 207L217 206z"/>
<path style="fill:#424242; stroke:none;" d="M35.3333 207.667L35.6667 208.333L35.3333 207.667z"/>
<path style="fill:#606060; stroke:none;" d="M216 207L217 208L216 207z"/>
<path style="fill:#9c9c9c; stroke:none;" d="M38.3333 211.667L38.6667 212.333L38.3333 211.667z"/>
<path style="fill:#8a8a8a; stroke:none;" d="M212 212L213 213L212 212z"/>
<path style="fill:#656565; stroke:none;" d="M39 213L40 214L39 213z"/>
<path style="fill:#979797; stroke:none;" d="M211 213L212 214L211 213z"/>
<path style="fill:#8c8c8c; stroke:none;" d="M40 214L41 215L40 214z"/>
<path style="fill:#939393; stroke:none;" d="M210 214L211 215L210 214z"/>
<path style="fill:#a6a6a6; stroke:none;" d="M41 215L41 216L44 216L41 215z"/>
<path style="fill:#9c9c9c; stroke:none;" d="M209 215L210 216L209 215z"/>
<path style="fill:#a4a4a4; stroke:none;" d="M208 216L209 217L208 216z"/>
<path style="fill:#626262; stroke:none;" d="M46 217L47 218L46 217z"/>
<path style="fill:#aaaaa9; stroke:none;" d="M207 217L208 218L207 217z"/>
<path style="fill:#868686; stroke:none;" d="M47 218L48 219L47 218z"/>
<path style="fill:#818181; stroke:none;" d="M48 219L49 220L48 219z"/>
<path style="fill:#6e6e6e; stroke:none;" d="M53 223L54 224L53 223z"/>
<path style="fill:#a2a2a2; stroke:none;" d="M54 224L55 225L54 224z"/>
<path style="fill:#9c9c9c; stroke:none;" d="M57 226L58 227L57 226z"/>
<path style="fill:#727272; stroke:none;" d="M196 226L197 227L196 226z"/>
<path style="fill:#8b8b8b; stroke:none;" d="M195 227L196 228L195 227z"/>
<path style="fill:#666666; stroke:none;" d="M193 228L194 229L193 228z"/>
<path style="fill:#989898; stroke:none;" d="M62 229L63 230L62 229z"/>
<path style="fill:#666666; stroke:none;" d="M190 230L191 231L190 230z"/>
<path style="fill:#8b8b8b; stroke:none;" d="M65 231L66 232L65 231M66 232L67 233L66 232z"/>
<path style="fill:#929292; stroke:none;" d="M187 232L188 233L187 232z"/>
<path style="fill:#5f5f5f; stroke:none;" d="M68 233L69 234L68 233z"/>
<path style="fill:#696969; stroke:none;" d="M185 233L186 234L185 233z"/>
<path style="fill:#868685; stroke:none;" d="M70 234L71 235L70 234z"/>
<path style="fill:#878787; stroke:none;" d="M183 234L184 235L183 234z"/>
<path style="fill:#737373; stroke:none;" d="M72 235L73 236L72 235z"/>
<path style="fill:#6e7c1d; stroke:none;" d="M95.6667 235.333L96.3333 235.667L95.6667 235.333z"/>
<path style="fill:#6d6d6d; stroke:none;" d="M74.6667 236.333L75.3333 236.667L74.6667 236.333z"/>
<path style="fill:#48493b; stroke:none;" d="M98 236L98 237L101 237L98 236z"/>
<path style="fill:#3b3a35; stroke:none;" d="M150 236L150 237L154 237L150 236z"/>
<path style="fill:#666666; stroke:none;" d="M77 237L78 238L77 237z"/>
<path style="fill:#3e460a; stroke:none;" d="M102.667 237.333L103.333 237.667L102.667 237.333z"/>
<path style="fill:#4c5512; stroke:none;" d="M147.667 237.333L148.333 237.667L147.667 237.333z"/>
<path style="fill:#545454; stroke:none;" d="M79.6667 238.333L80.3333 238.667L79.6667 238.333z"/>
<path style="fill:#959597; stroke:none;" d="M173.667 238.333L174.333 238.667L173.667 238.333z"/>
<path style="fill:#636363; stroke:none;" d="M82 239L83 240L82 239z"/>
<path style="fill:#7d8c27; stroke:none;" d="M114 239L114 240L132 240L114 239z"/>
<path style="fill:#4a540b; stroke:none;" d="M132 239L132 240L136 240L132 239z"/>
<path style="fill:#626262; stroke:none;" d="M85 240L86 241L85 240z"/>
<path style="fill:#989898; stroke:none;" d="M86.6667 241.333L87.3333 241.667L86.6667 241.333z"/>
<path style="fill:#bababa; stroke:none;" d="M166.667 241.333L167.333 241.667L166.667 241.333z"/>
<path style="fill:#545454; stroke:none;" d="M89 242L89 243L92 243L89 242z"/>
<path style="fill:#828282; stroke:none;" d="M164 242L165 243L164 242z"/>
<path style="fill:#767676; stroke:none;" d="M93 243L94 244L93 243z"/>
<path style="fill:#a1a1a1; stroke:none;" d="M155.667 244.333L156.333 244.667L155.667 244.333z"/>
<path style="fill:#bcbcbc; stroke:none;" d="M96.6667 245.333L97.3333 245.667L96.6667 245.333z"/>
<path style="fill:#c9c9c9; stroke:none;" d="M152.667 245.333L153.333 245.667L152.667 245.333z"/>
<path style="fill:#747474; stroke:none;" d="M100 246L100 247L104 247L100 246z"/>
<path style="fill:#757575; stroke:none;" d="M107 246L107 247L111 247L107 246z"/>
<path style="fill:#5d5d5d; stroke:none;" d="M144 246L144 247L151 247L144 246z"/>
<path style="fill:#b9b9b9; stroke:none;" d="M104 247L104 248L107 248L104 247z"/>
<path style="fill:#8a8a8a; stroke:none;" d="M113 247L113 248L117 248L113 247z"/>
<path style="fill:#3d3d3d; stroke:none;" d="M119.667 247.333L120.333 247.667L119.667 247.333z"/>
<path style="fill:#626262; stroke:none;" d="M122 247L122 248L130 248L122 247M131 247L131 248L139 248L131 247z"/>
<path style="fill:#b4b4b4; stroke:none;" d="M139.667 247.333L140.333 247.667L139.667 247.333z"/>
</svg>
