<?xml version="1.0" standalone="yes"?>
<svg width="252" height="252">
<path style="fill:#a4a3a2; stroke:none;" d="M108 5L108 6L113 6L108 5z"/>
<path style="fill:#5f5f5f; stroke:none;" d="M113 5L113 6L121 6L113 5z"/>
<path style="fill:#010100; stroke:none;" d="M121 5.70988C66.2095 6.5237 15.533 47.7342 6.32562 103C-5.04018 171.221 45.7303 249.514 120 247.59C149.201 246.833 176.041 242.327 200 224.101C255.401 181.955 264.417 89.6228 212.981 40.2446C187.774 16.0449 155.066 5.2039 121 5.70988z"/>
<path style="fill:#626262; stroke:none;" d="M122 5L122 6L130 6L122 5z"/>
<path style="fill:#5c5c5c; stroke:none;" d="M131.667 5.33333L132.333 5.66667L131.667 5.33333z"/>
<path style="fill:#898989; stroke:none;" d="M134 5L134 6L139 6L134 5z"/>
<path style="fill:#a4a4a4; stroke:none;" d="M145 5L145 6L148 6L145 5z"/>
<path style="fill:#adadad; stroke:none;" d="M100.667 6.33333L101.333 6.66667L100.667 6.33333z"/>
<path style="fill:#696969; stroke:none;" d="M102.667 6.33333L103.333 6.66667L102.667 6.33333z"/>
<path style="fill:#545454; stroke:none;" d="M142 6L142 7L145 7L142 6z"/>
<path style="fill:#959595; stroke:none;" d="M150.667 6.33333L151.333 6.66667L150.667 6.33333z"/>
<path style="fill:#979797; stroke:none;" d="M98.6667 7.33333L99.3333 7.66667L98.6667 7.33333z"/>
<path style="fill:#737373; stroke:none;" d="M94 8L94 9L97 9L94 8z"/>
<path style="fill:#848484; stroke:none;" d="M156 8L157 9L156 8z"/>
<path style="fill:#464646; stroke:none;" d="M89.6667 9.33333L90.3333 9.66667L89.6667 9.33333z"/>
<path style="fill:#7c7c7c; stroke:none;" d="M87 10L88 11L87 10z"/>
<path style="fill:#545454; stroke:none;" d="M160 10L160 11L163 11L160 10z"/>
<path style="fill:#7b7b7b; stroke:none;" d="M84 11L85 12L84 11z"/>
<path style="fill:#8e8e8e; stroke:none;" d="M165 11L166 12L165 11z"/>
<path style="fill:#838383; stroke:none;" d="M82 12L83 13L82 12z"/>
<path style="fill:#606060; stroke:none;" d="M166 12L167 13L166 12z"/>
<path style="fill:#858585; stroke:none;" d="M79.6667 13.3333L80.3333 13.6667L79.6667 13.3333z"/>
<path style="fill:#8b624e; stroke:none;" d="M110 13L110 14L140 14L110 13z"/>
<path style="fill:#8e8e8e; stroke:none;" d="M77 14L78 15L77 14z"/>
<path style="fill:#d36e28; stroke:none;" d="M24 123L22 121L22 120L26 123L30 118L34 118L34 115L40 115L40 112L52 110L52 115L56 114L54 107L48 108L50 106C42.6574 84.6097 78.0693 97.1102 87.6096 90.973C91.7478 88.3109 94.7489 80.2214 97.1427 75.9498C103.728 64.1998 114.419 50.8913 118 38C126.073 38 132.802 36.8384 138 44L139 44L140 44C145.537 38.1913 154.582 40 162 40L163 54L171 59L177 58L180 56L179 51L193 64L192 60C197.221 63.2381 197.655 68.1619 205 67L205 72L200 75L209 73L204 83C208.523 81.3745 210.032 76.4029 211 72L208 71L208 69L212 68C212.934 75.0125 216.913 79.2681 224 80L224 84L228 84L228 88L231 88C230.149 71.6013 213.907 53.7722 202.421 43.2106C159.29 3.55481 83.4155 2.35217 43.2894 48.0039C30.1356 62.969 20.3903 82.6601 15.8426 102C13.62 111.452 11.8427 122.957 24 123z"/>
<path style="fill:#6d6d6d; stroke:none;" d="M172 14L173 15L172 14z"/>
<path style="fill:#68482f; stroke:none;" d="M146 15L146 16L149 16L146 15z"/>
<path style="fill:#666666; stroke:none;" d="M174 15L175 16L174 15z"/>
<path style="fill:#6a6b6a; stroke:none;" d="M73 16L74 17L73 16z"/>
<path style="fill:#7a7a7a; stroke:none;" d="M176.667 16.3333L177.333 16.6667L176.667 16.3333z"/>
<path style="fill:#898989; stroke:none;" d="M70 17L71 18L70 17z"/>
<path style="fill:#737373; stroke:none;" d="M179 17L180 18L179 17z"/>
<path style="fill:#7a7a7a; stroke:none;" d="M68 18L69 19L68 18z"/>
<path style="fill:#4a1200; stroke:none;" d="M158 18L158 19L162 19L158 18z"/>
<path style="fill:#bebdbe; stroke:none;" d="M181.667 18.3333L182.333 18.6667L181.667 18.3333z"/>
<path style="fill:#929293; stroke:none;" d="M64 20L65 21L64 20z"/>
<path style="fill:#8b8b8b; stroke:none;" d="M185 20L186 21L185 20z"/>
<path style="fill:#909090; stroke:none;" d="M62 21L63 22L62 21z"/>
<path style="fill:#919191; stroke:none;" d="M191 24L192 25L191 24z"/>
<path style="fill:#8b8b8b; stroke:none;" d="M56 25L57 26L56 25z"/>
<path style="fill:#626262; stroke:none;" d="M55 26L56 27L55 26z"/>
<path style="fill:#a7a7a7; stroke:none;" d="M53 27L54 28L53 27M196 27L197 28L196 27z"/>
<path style="fill:#989898; stroke:none;" d="M52 28L53 29L52 28z"/>
<path style="fill:#656565; stroke:none;" d="M51 29L52 30L51 29z"/>
<path style="fill:#a4a4a4; stroke:none;" d="M201 31L202 32L201 31z"/>
<path style="fill:#919191; stroke:none;" d="M47 32L48 33L47 32z"/>
<path style="fill:#90908f; stroke:none;" d="M202 32L203 33L202 32z"/>
<path style="fill:#818181; stroke:none;" d="M203 33L204 34L203 33z"/>
<path style="fill:#9d9d9d; stroke:none;" d="M45 34L46 35L45 34z"/>
<path style="fill:#767676; stroke:none;" d="M204 34L205 35L204 34z"/>
<path style="fill:#a2a2a2; stroke:none;" d="M44 35L45 36L44 35z"/>
<path style="fill:#a4a4a4; stroke:none;" d="M43 36L44 37L43 36z"/>
<path style="fill:#636363; stroke:none;" d="M42 37L43 38L42 37z"/>
<path style="fill:#7a7a7a; stroke:none;" d="M208 37L208 38L211 38L208 37z"/>
<path style="fill:#8e8d8d; stroke:none;" d="M41 38L42 39L41 38z"/>
<path style="fill:#010000; stroke:none;" d="M118 38C112.454 50.1281 104.908 61.7235 98.1165 73.2816C94.9699 78.6369 92.1233 86.4221 87.6096 90.6782C79.1805 98.6262 61.1799 91.2203 51.1481 95.6034C46.7876 97.5086 47.7801 103.485 52.0586 104.683C60.7355 107.112 71.0805 106 80 106L71 121C69.8456 128.019 64.3229 132.369 60.8827 138.271C56.0307 146.595 45.3609 162.407 45.5725 172.17C45.6469 175.602 48.0898 179.626 49 183L122.985 183.812L146 183C148.872 180.835 151.128 180.835 154 183L155 183C158.784 180.364 162.66 182.622 167 182.544C175.878 182.384 195.033 183.785 202.544 178.98C210.136 174.123 208.102 166.728 204.437 160.039C194.644 142.172 183.301 125.201 174 107L204 104C200.677 97.6323 183.235 91.5267 178 98L177 98L176 98L167.376 94.9406L158 88C157.43 74.9645 147.68 64.7682 141.095 54.2461C138.444 50.0112 135.899 43.7182 131.482 41.0123C128.101 38.9408 121.917 38.249 118 38z"/>
<path style="fill:#a67453; stroke:none;" d="M123 38L123 39L132 40L123 38z"/>
<path style="fill:#e3772c; stroke:none;" d="M132 38C133.973 52.7115 152.078 62.3287 154 77L162 87L162 92L177 97L181 96C186.808 91.624 200.092 98.8593 204 104L176 108L191 140L192 140L192 132L200 140L201 140L202 140L204 138L200 134C199.144 128.179 195.162 127.488 190 129C191.11 124.398 192.543 121.849 197 120L193 113L204 112L204 113L202 116L207 113L208 113L212 116L210 113L210 112C212.716 113.069 216.911 117.155 213 119L213 120L217 121L217 117L227 117L226 110L230 110C229.779 114.909 233.323 119.545 238 121L232 87L228 88L228 84L224 84L224 80C217.204 78.7702 213.505 74.6345 212 68L208 69L208 71L211 72L204 83L209 73L200 75L205 72L205 67L192 60L193 64L179 51L180 56L177 58L171 59L163 54C165.895 48.4478 163.345 45.4922 162 40C155.352 40 144.027 37.6185 140 44L139 44L138 44L132 38z"/>
<path style="fill:#8b8b8b; stroke:none;" d="M211 38L212 39L211 38z"/>
<path style="fill:#878786; stroke:none;" d="M40 39L41 40L40 39z"/>
<path style="fill:#491700; stroke:none;" d="M124 39L124 40L131 40L124 39z"/>
<path style="fill:#7c7c7c; stroke:none;" d="M39 40L40 41L39 40z"/>
<path style="fill:#5d5d5d; stroke:none;" d="M213.333 40.6667L213.667 41.3333L213.333 40.6667z"/>
<path style="fill:#909090; stroke:none;" d="M37 42L38 43L37 42z"/>
<path style="fill:#575757; stroke:none;" d="M36 44L37 45L36 44z"/>
<path style="fill:#6b6b6b; stroke:none;" d="M34 46L35 47L34 46z"/>
<path style="fill:#7a7a7a; stroke:none;" d="M217 46L218 47L217 46z"/>
<path style="fill:#969595; stroke:none;" d="M33 47L34 48L33 47z"/>
<path style="fill:#6b6b6b; stroke:none;" d="M32 48L33 49L32 48z"/>
<path style="fill:#8a8a8a; stroke:none;" d="M31 49L32 50L31 49z"/>
<path style="fill:#8f8f8f; stroke:none;" d="M30 50L31 51L30 50z"/>
<path style="fill:#a1a1a1; stroke:none;" d="M29 51L30 52L29 51z"/>
<path style="fill:#403b37; stroke:none;" d="M110 51L110 54L111 54L110 51z"/>
<path style="fill:#707070; stroke:none;" d="M222 52L223 53L222 52z"/>
<path style="fill:#eb7d32; stroke:none;" d="M124 53L107 87L102 92L144 94L147 91C141.341 78.335 134.532 62.3195 124 53z"/>
<path style="fill:#999999; stroke:none;" d="M223 53L224 54L223 53z"/>
<path style="fill:#828282; stroke:none;" d="M27 54L28 55L27 54z"/>
<path style="fill:#816655; stroke:none;" d="M123.333 54.6667L123.667 55.3333L123.333 54.6667z"/>
<path style="fill:#7f3000; stroke:none;" d="M142.333 56.6667L142.667 57.3333L142.333 56.6667z"/>
<path style="fill:#888888; stroke:none;" d="M25 57L26 58L25 57z"/>
<path style="fill:#a0a0a0; stroke:none;" d="M226 57L227 58L226 57z"/>
<path style="fill:#969696; stroke:none;" d="M24 58L25 59L24 58z"/>
<path style="fill:#828282; stroke:none;" d="M227 59L228 60L227 59z"/>
<path style="fill:#aaaaaa; stroke:none;" d="M23 60L24 61L23 60z"/>
<path style="fill:#7c7c7c; stroke:none;" d="M22 62L23 63L22 62z"/>
<path style="fill:#65412b; stroke:none;" d="M104.333 62.6667L104.667 63.3333L104.333 62.6667z"/>
<path style="fill:#a14e18; stroke:none;" d="M118 62L118 66L119 66L120 62L118 62z"/>
<path style="fill:#a4a4a4; stroke:none;" d="M21 63L22 64L21 63z"/>
<path style="fill:#353535; stroke:none;" d="M230.333 64.6667L230.667 65.3333L230.333 64.6667z"/>
<path style="fill:#6a6a6a; stroke:none;" d="M231 66L232 67L231 66z"/>
<path style="fill:#747474; stroke:none;" d="M19 67L20 68L19 67z"/>
<path style="fill:#612c0a; stroke:none;" d="M223.333 68.6667L223.667 69.3333L223.333 68.6667z"/>
<path style="fill:#7d4829; stroke:none;" d="M115 69L115 72L116 72L115 69z"/>
<path style="fill:#919191; stroke:none;" d="M234 71L235 72L234 71z"/>
<path style="fill:#976544; stroke:none;" d="M153.333 72.6667L153.667 73.3333L153.333 72.6667z"/>
<path style="fill:#8e8d8e; stroke:none;" d="M16 73L17 74L16 73z"/>
<path style="fill:#564535; stroke:none;" d="M113 73L113 76L114 76L113 73z"/>
<path style="fill:#878787; stroke:none;" d="M235 73L236 74L235 73z"/>
<path style="fill:#622800; stroke:none;" d="M139.333 74.6667L139.667 75.3333L139.333 74.6667z"/>
<path style="fill:#bf7544; stroke:none;" d="M155 76L157 83L158 83L155 76z"/>
<path style="fill:#8d8d8d; stroke:none;" d="M14 77L15 78L14 77z"/>
<path style="fill:#523f30; stroke:none;" d="M140 77L140 80L141 80L140 77z"/>
<path style="fill:#7c7c7c; stroke:none;" d="M237 77L238 78L237 77z"/>
<path style="fill:#703400; stroke:none;" d="M110.333 78.6667L110.667 79.3333L110.333 78.6667z"/>
<path style="fill:#7b7b7b; stroke:none;" d="M13.3333 79.6667L13.6667 80.3333L13.3333 79.6667z"/>
<path style="fill:#5e3821; stroke:none;" d="M23.3333 79.6667L23.6667 80.3333L23.3333 79.6667z"/>
<path style="fill:#6b6b6b; stroke:none;" d="M238 79L239 80L238 79z"/>
<path style="fill:#5d5d5d; stroke:none;" d="M239.333 81.6667L239.667 82.3333L239.333 81.6667z"/>
<path style="fill:#626262; stroke:none;" d="M12.3333 82.6667L12.6667 83.3333L12.3333 82.6667z"/>
<path style="fill:#695c53; stroke:none;" d="M144 84L144 87L145 87L144 84z"/>
<path style="fill:#656565; stroke:none;" d="M240 84L241 85L240 84z"/>
<path style="fill:#737373; stroke:none;" d="M11 85L12 86L11 85z"/>
<path style="fill:#48260a; stroke:none;" d="M158 85L161 90L162 90L158 85z"/>
<path style="fill:#c8c8c8; stroke:none;" d="M241 85L241 88L242 88L241 85z"/>
<path style="fill:#5b2906; stroke:none;" d="M20.3333 86.6667L20.6667 87.3333L20.3333 86.6667z"/>
<path style="fill:#707070; stroke:none;" d="M10.3333 87.6667L10.6667 88.3333L10.3333 87.6667z"/>
<path style="fill:#404040; stroke:none;" d="M9.33333 90.6667L9.66667 91.3333L9.33333 90.6667z"/>
<path style="fill:#833c06; stroke:none;" d="M233.333 90.6667L233.667 91.3333L233.333 90.6667z"/>
<path style="fill:#5f5f5f; stroke:none;" d="M242.333 90.6667L242.667 91.3333L242.333 90.6667z"/>
<path style="fill:#352b22; stroke:none;" d="M101 91L108 93L108 92L101 91z"/>
<path style="fill:#916548; stroke:none;" d="M145 91L145 92L149 93L149 92L145 91z"/>
<path style="fill:#d9d9d9; stroke:none;" d="M8 92L8 96L9 96L8 92z"/>
<path style="fill:#ce834c; stroke:none;" d="M62 92L62 94L79 94L62 92z"/>
<path style="fill:#a87556; stroke:none;" d="M81 92L81 93L87 93L81 92z"/>
<path style="fill:#483526; stroke:none;" d="M119 92L119 93L123 93L119 92z"/>
<path style="fill:#a88368; stroke:none;" d="M123 92L123 93L130 93L123 92z"/>
<path style="fill:#5b3e2c; stroke:none;" d="M144.333 92.6667L144.667 93.3333L144.333 92.6667z"/>
<path style="fill:#762b00; stroke:none;" d="M66 93L66 94L76 94L66 93z"/>
<path style="fill:#632b06; stroke:none;" d="M128.667 93.3333L129.333 93.6667L128.667 93.3333z"/>
<path style="fill:#a25625; stroke:none;" d="M134.667 93.3333L135.333 93.6667L134.667 93.3333z"/>
<path style="fill:#5f1d00; stroke:none;" d="M136 93L136 94L139 94L136 93z"/>
<path style="fill:#ba632d; stroke:none;" d="M139 93L139 94L143 94L139 93z"/>
<path style="fill:#6a4f31; stroke:none;" d="M165 93L166 96L172 95L165 93z"/>
<path style="fill:#63473b; stroke:none;" d="M50 94L50 95L62 95L50 94z"/>
<path style="fill:#423636; stroke:none;" d="M142.667 94.3333L143.333 94.6667L142.667 94.3333z"/>
<path style="fill:#644936; stroke:none;" d="M181 96L184 95L181 96z"/>
<path style="fill:#9f6f4b; stroke:none;" d="M184 94L184 95L189 95L184 94z"/>
<path style="fill:#401c06; stroke:none;" d="M167 95L167 96L171 96L167 95z"/>
<path style="fill:#b45610; stroke:none;" d="M177 97L180 96L177 97z"/>
<path style="fill:#6c4b3a; stroke:none;" d="M17.3333 96.6667L17.6667 97.3333L17.3333 96.6667z"/>
<path style="fill:#d9d9d9; stroke:none;" d="M244 96L244 100L245 100L244 96z"/>
<path style="fill:#5f310f; stroke:none;" d="M176.667 97.3333L177.333 97.6667L176.667 97.3333z"/>
<path style="fill:#732a00; stroke:none;" d="M191 97L191 98L195 98L191 97z"/>
<path style="fill:#752e00; stroke:none;" d="M235 97L235 100L236 100L235 97z"/>
<path style="fill:#822900; stroke:none;" d="M47 98L47 101L48 101L47 98z"/>
<path style="fill:#954210; stroke:none;" d="M198.667 99.3333L199.333 99.6667L198.667 99.3333z"/>
<path style="fill:#949494; stroke:none;" d="M6.33333 100.667L6.66667 101.333L6.33333 100.667z"/>
<path style="fill:#424242; stroke:none;" d="M244.333 100.667L244.667 101.333L244.333 100.667z"/>
<path style="fill:#d2d2d2; stroke:none;" d="M5 103L5 109L6 109L5 103z"/>
<path style="fill:#a2a2a2; stroke:none;" d="M245.333 103.667L245.667 104.333L245.333 103.667z"/>
<path style="fill:#915113; stroke:none;" d="M200.667 104.333L201.333 104.667L200.667 104.333z"/>
<path style="fill:#2d313c; stroke:none;" d="M50 105L50 106L54 106L50 105z"/>
<path style="fill:#8e6549; stroke:none;" d="M54 105L54 106L60 106L54 105z"/>
<path style="fill:#8e6a54; stroke:none;" d="M95 105L95 106L115 106L95 105z"/>
<path style="fill:#675446; stroke:none;" d="M120 105L120 106L130 106L120 105z"/>
<path style="fill:#433630; stroke:none;" d="M137 105L137 106L144 106L137 105z"/>
<path style="fill:#7b6456; stroke:none;" d="M144 105L144 106L156 106L144 105z"/>
<path style="fill:#89674b; stroke:none;" d="M183 105L183 106L189 106L183 105z"/>
<path style="fill:#bf8d68; stroke:none;" d="M189 105L189 106L194 106L189 105z"/>
<path style="fill:#664728; stroke:none;" d="M194.667 105.333L195.333 105.667L194.667 105.333z"/>
<path style="fill:#9d6e44; stroke:none;" d="M196 105L196 106L200 106L196 105z"/>
<path style="fill:#696969; stroke:none;" d="M245 105L245 108L246 108L245 105z"/>
<path style="fill:#83390c; stroke:none;" d="M14 106L14 110L15 110L14 106z"/>
<path style="fill:#e97b2e; stroke:none;" d="M48 106C49.8993 108.598 51.1562 108.254 54 107L56 114L52 115L52 110L40 112L40 115L34 115L34 118L30 118L26 123L22 120L22 121L24 123C17.1666 122.919 15.0808 120.833 15 114L14 114C14 127.638 13.3843 141.655 16.76 155C26.3104 192.755 63.2107 235.995 105 236L104 234L108 234L108 233L96 228L96 224C88.0972 223.972 81.2929 218.13 80 210C68.9079 207.144 63.0619 190.336 52 190L56 183L49 183L45.0988 171.196L66 128C70.144 126.652 71.7702 124.102 70 120C74.8773 117.446 77.3835 112.112 79 107L48 106z"/>
<path style="fill:#b1500c; stroke:none;" d="M62 106L62 107L80 108C76.5871 104.094 66.9301 106 62 106z"/>
<path style="fill:#f18334; stroke:none;" d="M94 106L83.5139 126L60 170C70.2789 170 80.7945 167.783 90.9992 169.247C95.1325 169.84 102.02 171.411 105 168L106 168L107 168C111.116 172.638 123.386 168.154 129 168.015C150.313 167.484 171.692 168 193 168L176 136L173 136L172 128L168 129L156 106L94 106z"/>
<path style="fill:#6a514c; stroke:none;" d="M156 106L156 109L157 109L156 106z"/>
<path style="fill:#732a00; stroke:none;" d="M178 106L178 107L183 107L178 106z"/>
<path style="fill:#b2805d; stroke:none;" d="M174 107L175 110L182 108L174 107z"/>
<path style="fill:#af5b1d; stroke:none;" d="M237 108L237 112L238 112L237 108z"/>
<path style="fill:#939393; stroke:none;" d="M246 108L246 113L247 113L246 108z"/>
<path style="fill:#838383; stroke:none;" d="M5 109L5 115L6 115L5 109z"/>
<path style="fill:#f68a41; stroke:none;" d="M193 113L197 120C192.055 121.365 190.742 124.088 190 129C195.109 127.837 198.581 128.574 200 134L204 138L202 140L201 140L200 140L192 132C192.002 145.873 215.793 166.476 203.541 177.721C195.968 184.672 181.288 181.633 172 182.039C144.348 183.248 116.73 183.508 89 183.139C80.5721 183.027 53.5706 179.316 52 190C62.9383 190.75 68.4205 208.313 80 210C80.6967 218.859 87.8168 223.994 96 224L96 228L108 233L108 234L104 234L105 236L101 236L101 237C153.4 246.873 208.013 222.927 228.886 172C235.847 155.014 238 139.185 238 121C233.937 118.934 230.093 114.75 230 110L226 110L228 112L227 117L217 117L217 121L213 120L213 119L216 119L210 112L210 113L212 116L208 113L207 113L202 116L204 113C199.716 110.297 197.218 110.159 193 113z"/>
<path style="fill:#725744; stroke:none;" d="M13 112L13 138L14 138L13 112z"/>
<path style="fill:#6d4838; stroke:none;" d="M160.667 113.333L161.333 113.667L160.667 113.333z"/>
<path style="fill:#4d3f34; stroke:none;" d="M177.333 113.667L177.667 114.333L177.333 113.667z"/>
<path style="fill:#8a6754; stroke:none;" d="M238 113L238 139L239 139L238 113z"/>
<path style="fill:#323232; stroke:none;" d="M246 113L246 121L247 121L246 113z"/>
<path style="fill:#575757; stroke:none;" d="M5 115L5 124L6 124L5 115z"/>
<path style="fill:#8b4006; stroke:none;" d="M178.333 116.667L178.667 117.333L178.333 116.667z"/>
<path style="fill:#6e4f3b; stroke:none;" d="M164 117L164 120L165 120L164 117z"/>
<path style="fill:#975a21; stroke:none;" d="M72 119L70 122L72 119z"/>
<path style="fill:#954105; stroke:none;" d="M165 120L165 123L166 123L165 120z"/>
<path style="fill:#66422c; stroke:none;" d="M166.667 123.333L167.333 123.667L166.667 123.333z"/>
<path style="fill:#843e0d; stroke:none;" d="M168.333 127.667L168.667 128.333L168.333 127.667z"/>
<path style="fill:#74543f; stroke:none;" d="M66 131L67 131L69 129C66.8603 127.882 66.4732 128.749 66 131z"/>
<path style="fill:#4e4e4e; stroke:none;" d="M246 129L246 140L247 140L246 129z"/>
<path style="fill:#6e4b35; stroke:none;" d="M172.333 130.667L172.667 131.333L172.333 130.667z"/>
<path style="fill:#4a4a4a; stroke:none;" d="M5 132L5 140L6 140L5 132z"/>
<path style="fill:#8d4c24; stroke:none;" d="M173 132L173 136L174 136L173 132z"/>
<path style="fill:#6b5a4a; stroke:none;" d="M62.3333 135.667L62.6667 136.333L62.3333 135.667z"/>
<path style="fill:#534a41; stroke:none;" d="M176 138L176 141L177 141L176 138z"/>
<path style="fill:#bebebe; stroke:none;" d="M5 140L5 144L6 144L5 140z"/>
<path style="fill:#7f2f00; stroke:none;" d="M14 140L14 144L15 144L14 140z"/>
<path style="fill:#a55518; stroke:none;" d="M59 140L59 143L60 143L59 140z"/>
<path style="fill:#6e5045; stroke:none;" d="M75 140L75 143L76 143L75 140z"/>
<path style="fill:#aaaaaa; stroke:none;" d="M246 140L246 144L247 144L246 140z"/>
<path style="fill:#a94c06; stroke:none;" d="M177.333 141.667L177.667 142.333L177.333 141.667z"/>
<path style="fill:#542100; stroke:none;" d="M237 142L237 146L238 146L237 142z"/>
<path style="fill:#5d4539; stroke:none;" d="M178 143L178 146L179 146L178 143z"/>
<path style="fill:#d2d2d2; stroke:none;" d="M246 144L246 148L247 148L246 144z"/>
<path style="fill:#696969; stroke:none;" d="M6.33333 145.667L6.66667 146.333L6.33333 145.667z"/>
<path style="fill:#493628; stroke:none;" d="M15 146L15 150L16 150L15 146z"/>
<path style="fill:#a5a5a5; stroke:none;" d="M6 147L6 150L7 150L6 147z"/>
<path style="fill:#694e45; stroke:none;" d="M236 147L236 150L237 150L236 147z"/>
<path style="fill:#6a6a6a; stroke:none;" d="M245 149L245 152L246 152L245 149z"/>
<path style="fill:#954e20; stroke:none;" d="M185.333 154.667L185.667 155.333L185.333 154.667z"/>
<path style="fill:#905529; stroke:none;" d="M200.667 155.333L201.333 155.667L200.667 155.333z"/>
<path style="fill:#48372d; stroke:none;" d="M234.333 155.667L234.667 156.333L234.333 155.667z"/>
<path style="fill:#d8d8d8; stroke:none;" d="M243 156L243 161L244 161L243 156z"/>
<path style="fill:#825735; stroke:none;" d="M186.667 157.333L187.333 157.667L186.667 157.333z"/>
<path style="fill:#c2c3c4; stroke:none;" d="M8.33333 158.667L8.66667 159.333L8.33333 158.667z"/>
<path style="fill:#574f42; stroke:none;" d="M188.333 158.667L188.667 159.333L188.333 158.667z"/>
<path style="fill:#ae5918; stroke:none;" d="M233.333 158.667L233.667 159.333L233.333 158.667z"/>
<path style="fill:#853a03; stroke:none;" d="M18.3333 160.667L18.6667 161.333L18.3333 160.667z"/>
<path style="fill:#723000; stroke:none;" d="M189.333 160.667L189.667 161.333L189.333 160.667z"/>
<path style="fill:#979797; stroke:none;" d="M9.33333 161.667L9.66667 162.333L9.33333 161.667z"/>
<path style="fill:#7c421c; stroke:none;" d="M191 162L191 165L192 165L191 162z"/>
<path style="fill:#949494; stroke:none;" d="M242 162L243 163L242 162z"/>
<path style="fill:#4a1e00; stroke:none;" d="M206 163L206 167L207 167L206 163z"/>
<path style="fill:#602300; stroke:none;" d="M47 164L47 168L48 168L47 164z"/>
<path style="fill:#6f1d00; stroke:none;" d="M231.333 164.667L231.667 165.333L231.333 164.667z"/>
<path style="fill:#9d9d9d; stroke:none;" d="M10 165L10 168L11 168L10 165z"/>
<path style="fill:#88644e; stroke:none;" d="M230.333 166.667L230.667 167.333L230.333 166.667z"/>
<path style="fill:#2d241f; stroke:none;" d="M193 167L186 168L186 169L193 167z"/>
<path style="fill:#787878; stroke:none;" d="M240 167L241 168L240 167z"/>
<path style="fill:#5b3c27; stroke:none;" d="M46.3333 168.667L46.6667 169.333L46.3333 168.667z"/>
<path style="fill:#735442; stroke:none;" d="M105 168L99 170L99 171C101.535 170.99 106.356 171.598 105 168z"/>
<path style="fill:#6e2100; stroke:none;" d="M123 168L119 169L119 170L123 168z"/>
<path style="fill:#242422; stroke:none;" d="M130 168L130 169L138 169L130 168z"/>
<path style="fill:#d68f61; stroke:none;" d="M138 168L138 169L146 169L138 168z"/>
<path style="fill:#82624d; stroke:none;" d="M146 168L146 169L150 169L146 168z"/>
<path style="fill:#503c31; stroke:none;" d="M150 168L150 169L155 169L150 168z"/>
<path style="fill:#896a4d; stroke:none;" d="M174 168L174 169L186 169L174 168z"/>
<path style="fill:#7d4828; stroke:none;" d="M73 169L73 170L83 170L73 169z"/>
<path style="fill:#ae5c22; stroke:none;" d="M91.6667 169.333L92.3333 169.667L91.6667 169.333z"/>
<path style="fill:#683311; stroke:none;" d="M112 169L112 170L117 170L112 169z"/>
<path style="fill:#631c00; stroke:none;" d="M140 169L140 170L146 170L140 169z"/>
<path style="fill:#521400; stroke:none;" d="M155 169L155 170L160 170L155 169z"/>
<path style="fill:#7d3b01; stroke:none;" d="M164 169L164 170L174 170L164 169z"/>
<path style="fill:#b5b4b4; stroke:none;" d="M239.333 169.667L239.667 170.333L239.333 169.667z"/>
<path style="fill:#a7a7a7; stroke:none;" d="M12.3333 170.667L12.6667 171.333L12.3333 170.667z"/>
<path style="fill:#aa6c43; stroke:none;" d="M44 170L44 174L45 174L44 170z"/>
<path style="fill:#694a36; stroke:none;" d="M60 170L60 171L66 171L60 170z"/>
<path style="fill:#3f3b38; stroke:none;" d="M93.6667 170.333L94.3333 170.667L93.6667 170.333z"/>
<path style="fill:#787a78; stroke:none;" d="M238 171L238 174L239 174L238 171z"/>
<path style="fill:#7f7f7f; stroke:none;" d="M13 173L14 174L13 173z"/>
<path style="fill:#878787; stroke:none;" d="M14 175L15 176L14 175z"/>
<path style="fill:#969595; stroke:none;" d="M237 175L238 176L237 175z"/>
<path style="fill:#5d5d5d; stroke:none;" d="M15 176L16 177L15 176z"/>
<path style="fill:#7d3e09; stroke:none;" d="M47 176L47 179L48 179L47 176z"/>
<path style="fill:#a75a22; stroke:none;" d="M204.333 176.667L204.667 177.333L204.333 176.667z"/>
<path style="fill:#9e9e9e; stroke:none;" d="M235 179L236 180L235 179z"/>
<path style="fill:#3c3432; stroke:none;" d="M133.667 181.333L134.333 181.667L133.667 181.333z"/>
<path style="fill:#7c5842; stroke:none;" d="M146 181L146 182L154 183L146 181z"/>
<path style="fill:#3f362f; stroke:none;" d="M155 181L155 182L160 182L155 181z"/>
<path style="fill:#5d4837; stroke:none;" d="M179 181L179 182L196 182L179 181z"/>
<path style="fill:#554538; stroke:none;" d="M56 183L56 184L68 183L56 183z"/>
<path style="fill:#561600; stroke:none;" d="M68 182L68 183L80 183L68 182z"/>
<path style="fill:#c56b2d; stroke:none;" d="M80 182L80 183L88 183L80 182z"/>
<path style="fill:#86471c; stroke:none;" d="M91 182L91 183L97 183L91 182z"/>
<path style="fill:#8a4617; stroke:none;" d="M104 182L104 183L112 183L104 182z"/>
<path style="fill:#c36b2c; stroke:none;" d="M128 184L133 183L128 184z"/>
<path style="fill:#914008; stroke:none;" d="M138.667 182.333L139.333 182.667L138.667 182.333z"/>
<path style="fill:#7d4721; stroke:none;" d="M161 182L161 183L165 183L161 182z"/>
<path style="fill:#c6c6c7; stroke:none;" d="M18.3333 183.667L18.6667 184.333L18.3333 183.667z"/>
<path style="fill:#96613f; stroke:none;" d="M89.6667 183.333L90.3333 183.667L89.6667 183.333z"/>
<path style="fill:#8a6b57; stroke:none;" d="M114 183L114 184L121 184L114 183z"/>
<path style="fill:#666666; stroke:none;" d="M233 183L234 184L233 183z"/>
<path style="fill:#737373; stroke:none;" d="M232 185L233 186L232 185z"/>
<path style="fill:#848484; stroke:none;" d="M20 186L21 187L20 186z"/>
<path style="fill:#5f5f5f; stroke:none;" d="M21 188L22 189L21 188z"/>
<path style="fill:#737373; stroke:none;" d="M230 188L231 189L230 188z"/>
<path style="fill:#777777; stroke:none;" d="M22 189L23 190L22 189z"/>
<path style="fill:#7f7f7f; stroke:none;" d="M229 190L230 191L229 190z"/>
<path style="fill:#8b8b8b; stroke:none;" d="M226 195L227 196L226 195z"/>
<path style="fill:#8c6045; stroke:none;" d="M213 197L212 200L213 197z"/>
<path style="fill:#828282; stroke:none;" d="M224 198L225 199L224 198z"/>
<path style="fill:#7f7f7f; stroke:none;" d="M223 199L224 200L223 199z"/>
<path style="fill:#7e7e7e; stroke:none;" d="M29 200L30 201L29 200z"/>
<path style="fill:#5c5c5c; stroke:none;" d="M30 201L31 202L30 201z"/>
<path style="fill:#a3a2a2; stroke:none;" d="M222 201L223 202L222 201z"/>
<path style="fill:#575757; stroke:none;" d="M31 202L32 203L31 202z"/>
<path style="fill:#7e7d7d; stroke:none;" d="M219 204L220 205L219 204z"/>
<path style="fill:#a6a6a6; stroke:none;" d="M218 205L219 206L218 205z"/>
<path style="fill:#787776; stroke:none;" d="M34 206L35 207L34 206z"/>
<path style="fill:#6a6a6a; stroke:none;" d="M217 206L218 207L217 206z"/>
<path style="fill:#424242; stroke:none;" d="M35.3333 207.667L35.6667 208.333L35.3333 207.667z"/>
<path style="fill:#606060; stroke:none;" d="M216 207L217 208L216 207z"/>
<path style="fill:#9c9c9c; stroke:none;" d="M38.3333 211.667L38.6667 212.333L38.3333 211.667z"/>
<path style="fill:#8a8a8a; stroke:none;" d="M212 212L213 213L212 212z"/>
<path style="fill:#656565; stroke:none;" d="M39 213L40 214L39 213z"/>
<path style="fill:#979797; stroke:none;" d="M211 213L212 214L211 213z"/>
<path style="fill:#8c8c8c; stroke:none;" d="M40 214L41 215L40 214z"/>
<path style="fill:#939393; stroke:none;" d="M210 214L211 215L210 214z"/>
<path style="fill:#a6a6a6; stroke:none;" d="M41 215L41 216L44 216L41 215z"/>
<path style="fill:#9c9c9c; stroke:none;" d="M209 215L210 216L209 215z"/>
<path style="fill:#a4a4a4; stroke:none;" d="M208 216L209 217L208 216z"/>
<path style="fill:#626262; stroke:none;" d="M46 217L47 218L46 217z"/>
<path style="fill:#aaaaaa; stroke:none;" d="M207 217L208 218L207 217z"/>
<path style="fill:#868686; stroke:none;" d="M47 218L48 219L47 218z"/>
<path style="fill:#818181; stroke:none;" d="M48 219L49 220L48 219z"/>
<path style="fill:#6e6e6e; stroke:none;" d="M53 223L54 224L53 223z"/>
<path style="fill:#692300; stroke:none;" d="M184.667 223.333L185.333 223.667L184.667 223.333z"/>
<path style="fill:#a2a2a2; stroke:none;" d="M54 224L55 225L54 224z"/>
<path style="fill:#9c9c9c; stroke:none;" d="M57 226L58 227L57 226z"/>
<path style="fill:#727272; stroke:none;" d="M196 226L197 227L196 226z"/>
<path style="fill:#8b8b8b; stroke:none;" d="M195 227L196 228L195 227z"/>
<path style="fill:#aa7448; stroke:none;" d="M77 228L77 229L80 230L77 228z"/>
<path style="fill:#666666; stroke:none;" d="M193 228L194 229L193 228z"/>
<path style="fill:#989898; stroke:none;" d="M62 229L63 230L62 229z"/>
<path style="fill:#666666; stroke:none;" d="M190 230L191 231L190 230z"/>
<path style="fill:#8b8b8b; stroke:none;" d="M65 231L66 232L65 231M66 232L67 233L66 232z"/>
<path style="fill:#929292; stroke:none;" d="M187 232L188 233L187 232z"/>
<path style="fill:#5f5f5f; stroke:none;" d="M68 233L69 234L68 233z"/>
<path style="fill:#696969; stroke:none;" d="M185 233L186 234L185 233z"/>
<path style="fill:#868585; stroke:none;" d="M70 234L71 235L70 234z"/>
<path style="fill:#878787; stroke:none;" d="M183 234L184 235L183 234z"/>
<path style="fill:#737373; stroke:none;" d="M72 235L73 236L72 235z"/>
<path style="fill:#6d6d6d; stroke:none;" d="M74.6667 236.333L75.3333 236.667L74.6667 236.333z"/>
<path style="fill:#50433a; stroke:none;" d="M98 236L98 237L101 237L98 236z"/>
<path style="fill:#463931; stroke:none;" d="M150 236L150 237L154 237L150 236z"/>
<path style="fill:#666666; stroke:none;" d="M77 237L78 238L77 237z"/>
<path style="fill:#762f03; stroke:none;" d="M102.667 237.333L103.333 237.667L102.667 237.333z"/>
<path style="fill:#7e3b0e; stroke:none;" d="M147 237L147 238L150 238L147 237z"/>
<path style="fill:#545454; stroke:none;" d="M79.6667 238.333L80.3333 238.667L79.6667 238.333z"/>
<path style="fill:#959696; stroke:none;" d="M173.667 238.333L174.333 238.667L173.667 238.333z"/>
<path style="fill:#636363; stroke:none;" d="M82 239L83 240L82 239z"/>
<path style="fill:#ca6d28; stroke:none;" d="M112 239L112 240L133 240L112 239z"/>
<path style="fill:#626262; stroke:none;" d="M85 240L86 241L85 240z"/>
<path style="fill:#989898; stroke:none;" d="M86.6667 241.333L87.3333 241.667L86.6667 241.333z"/>
<path style="fill:#bababa; stroke:none;" d="M166.667 241.333L167.333 241.667L166.667 241.333z"/>
<path style="fill:#545454; stroke:none;" d="M89 242L89 243L92 243L89 242z"/>
<path style="fill:#828282; stroke:none;" d="M164 242L165 243L164 242z"/>
<path style="fill:#767676; stroke:none;" d="M93 243L94 244L93 243z"/>
<path style="fill:#a1a1a1; stroke:none;" d="M155.667 244.333L156.333 244.667L155.667 244.333z"/>
<path style="fill:#bcbcbc; stroke:none;" d="M96.6667 245.333L97.3333 245.667L96.6667 245.333z"/>
<path style="fill:#c9c9c9; stroke:none;" d="M152.667 245.333L153.333 245.667L152.667 245.333z"/>
<path style="fill:#747474; stroke:none;" d="M100 246L100 247L104 247L100 246z"/>
<path style="fill:#757575; stroke:none;" d="M107 246L107 247L111 247L107 246z"/>
<path style="fill:#5d5d5d; stroke:none;" d="M144 246L144 247L151 247L144 246z"/>
<path style="fill:#b9b9b9; stroke:none;" d="M104 247L104 248L107 248L104 247z"/>
<path style="fill:#8a8a8a; stroke:none;" d="M113 247L113 248L117 248L113 247z"/>
<path style="fill:#3d3d3d; stroke:none;" d="M119.667 247.333L120.333 247.667L119.667 247.333z"/>
<path style="fill:#626262; stroke:none;" d="M122 247L122 248L130 248L122 247M131 247L131 248L139 248L131 247z"/>
<path style="fill:#b4b4b4; stroke:none;" d="M139.667 247.333L140.333 247.667L139.667 247.333z"/>
</svg>
