<?xml version="1.0" encoding="UTF-8" standalone="no"?>
<svg
   xmlns:dc="http://purl.org/dc/elements/1.1/"
   xmlns:cc="http://creativecommons.org/ns#"
   xmlns:rdf="http://www.w3.org/1999/02/22-rdf-syntax-ns#"
   xmlns:svg="http://www.w3.org/2000/svg"
   xmlns="http://www.w3.org/2000/svg"
   xmlns:sodipodi="http://sodipodi.sourceforge.net/DTD/sodipodi-0.dtd"
   xmlns:inkscape="http://www.inkscape.org/namespaces/inkscape"
   width="252"
   height="252"
   version="1.1"
   id="svg618"
   sodipodi:docname="Teo.svg"
   inkscape:version="0.92.1 r15371">
  <metadata
     id="metadata624">
    <rdf:RDF>
      <cc:Work
         rdf:about="">
        <dc:format>image/svg+xml</dc:format>
        <dc:type
           rdf:resource="http://purl.org/dc/dcmitype/StillImage" />
        <dc:title></dc:title>
      </cc:Work>
    </rdf:RDF>
  </metadata>
  <defs
     id="defs622" />
  <sodipodi:namedview
     pagecolor="#ffffff"
     bordercolor="#666666"
     borderopacity="1"
     objecttolerance="10"
     gridtolerance="10"
     guidetolerance="10"
     inkscape:pageopacity="0"
     inkscape:pageshadow="2"
     inkscape:window-width="769"
     inkscape:window-height="480"
     id="namedview620"
     showgrid="false"
     inkscape:zoom="0.93650794"
     inkscape:cx="-1.0677966"
     inkscape:cy="126"
     inkscape:window-x="0"
     inkscape:window-y="0"
     inkscape:window-maximized="0"
     inkscape:current-layer="svg618" />
  <path
     style="fill:#a3a3a2; stroke:none;"
     d="M108 5L108 6L113 6L108 5z"
     id="path4" />
  <path
     style="fill:#5f5f5f; stroke:none;"
     d="M113 5L113 6L121 6L113 5z"
     id="path6" />
  <path
     style="fill:#000000; stroke:none;"
     d="M121 5.70988C105.757 5.93629 92.0801 8.41336 78 14.4213C2.00611 46.8476 -20.2317 152.528 38.7045 212.156C49.5031 223.081 64.8015 232.32 79 238C92.4731 243.389 105.261 247.971 120 247.59C149.201 246.833 176.041 242.327 200 224.101C255.401 181.955 264.417 89.6228 212.981 40.2446C187.774 16.0449 155.066 5.2039 121 5.70988z"
     id="path8" />
  <path
     style="fill:#626262; stroke:none;"
     d="M122 5L122 6L130 6L122 5z"
     id="path10" />
  <path
     style="fill:#5c5c5c; stroke:none;"
     d="M131.667 5.33333L132.333 5.66667L131.667 5.33333z"
     id="path12" />
  <path
     style="fill:#898989; stroke:none;"
     d="M134 5L134 6L139 6L134 5z"
     id="path14" />
  <path
     style="fill:#a4a4a4; stroke:none;"
     d="M145 5L145 6L148 6L145 5z"
     id="path16" />
  <path
     style="fill:#adadac; stroke:none;"
     d="M100.667 6.33333L101.333 6.66667L100.667 6.33333z"
     id="path18" />
  <path
     style="fill:#696969; stroke:none;"
     d="M102.667 6.33333L103.333 6.66667L102.667 6.33333z"
     id="path20" />
  <path
     style="fill:#545454; stroke:none;"
     d="M142 6L142 7L145 7L142 6z"
     id="path22" />
  <path
     style="fill:#959595; stroke:none;"
     d="M150.667 6.33333L151.333 6.66667L150.667 6.33333z"
     id="path24" />
  <path
     style="fill:#979797; stroke:none;"
     d="M98.6667 7.33333L99.3333 7.66667L98.6667 7.33333z"
     id="path26" />
  <path
     style="fill:#737373; stroke:none;"
     d="M94 8L94 9L97 9L94 8z"
     id="path28" />
  <path
     style="fill:#848484; stroke:none;"
     d="M156 8L157 9L156 8z"
     id="path30" />
  <path
     style="fill:#464646; stroke:none;"
     d="M89.6667 9.33333L90.3333 9.66667L89.6667 9.33333z"
     id="path32" />
  <path
     style="fill:#7c7c7c; stroke:none;"
     d="M87 10L88 11L87 10z"
     id="path34" />
  <path
     style="fill:#545454; stroke:none;"
     d="M160 10L160 11L163 11L160 10z"
     id="path36" />
  <path
     style="fill:#7b7b7b; stroke:none;"
     d="M84 11L85 12L84 11z"
     id="path38" />
  <path
     style="fill:#8e8e8e; stroke:none;"
     d="M165 11L166 12L165 11z"
     id="path40" />
  <path
     style="fill:#838383; stroke:none;"
     d="M82 12L83 13L82 12z"
     id="path42" />
  <path
     style="fill:#606060; stroke:none;"
     d="M166 12L167 13L166 12z"
     id="path44" />
  <path
     style="fill:#858585; stroke:none;"
     d="M79.6667 13.3333L80.3333 13.6667L79.6667 13.3333z"
     id="path46" />
  <path
     style="fill:#3e4a3e; stroke:none;"
     d="M110 13L110 14L115 14L110 13z"
     id="path48" />
  <path
     style="fill:#7c887c; stroke:none;"
     d="M115 13L115 14L134 14L115 13z"
     id="path50" />
  <path
     style="fill:#5a5f59; stroke:none;"
     d="M134 13L134 14L139 14L134 13z"
     id="path52" />
  <path
     style="fill:#8e8e8e; stroke:none;"
     d="M77 14L78 15L77 14z"
     id="path54" />
  <path
     style="fill:#415941; stroke:none;"
     d="M106.667 14.3333L107.333 14.6667L106.667 14.3333z"
     id="path56" />
  <path
     style="fill:#a0c29d; stroke:none;"
     d="M41 53C46.4725 52.515 46.8053 56.8708 49 61L44 59L44 64L47 65C48.8937 63.2671 49.418 62.9084 51 65L57 64L57 65L54 68L57 66L64 68C64.7087 63.5559 66.6057 62.3352 71 62L71 61C66.083 60.3558 62.9255 57.932 60 54C93.4306 49.775 128.174 52 162 52C171.273 52 192.096 47.5966 193.438 61C193.863 65.2376 189.348 69.4548 186.925 72.5748C181.521 79.5331 175.166 86.4082 169.12 92.8302C165.72 96.4424 161.85 97.7338 161 103L153 106L154 109C142.793 112.382 127.43 132.146 122 142L128 138L133 140L132 144L140 144L140 147C147.941 148.006 151.925 149.734 153 158L158 156L159 160L160 160C165.475 156.085 167.115 162.522 168 167L171 166L170 172L177 173L175 160L176 160L180 162L184 166L183 162L192 162L192 168C197.282 165.456 198.306 161.488 199 156L205 157L208 141L218 141L216 136C220.097 135.126 223.074 121.832 220 120L224 103L219 102L222 99C220.487 94.4601 221.864 84.966 226 86C225.098 81.6133 226.428 75.8157 225.012 71.9606C221.296 61.8495 211.336 51.7564 203.675 44.4869C173.24 15.6064 130.705 7.41768 91 18.9244C73.7572 23.9214 48.7854 35.6766 41 53z"
     id="path58" />
  <path
     style="fill:#6d6d6d; stroke:none;"
     d="M172 14L173 15L172 14z"
     id="path60" />
  <path
     style="fill:#313d31; stroke:none;"
     d="M101 15L101 16L104 16L101 15z"
     id="path62" />
  <path
     style="fill:#646867; stroke:none;"
     d="M146.667 15.3333L147.333 15.6667L146.667 15.3333z"
     id="path64" />
  <path
     style="fill:#666666; stroke:none;"
     d="M174 15L175 16L174 15z"
     id="path66" />
  <path
     style="fill:#6b6a6a; stroke:none;"
     d="M73 16L74 17L73 16z"
     id="path68" />
  <path
     style="fill:#415e3f; stroke:none;"
     d="M97.6667 16.3333L98.3333 16.6667L97.6667 16.3333z"
     id="path70" />
  <path
     style="fill:#586e57; stroke:none;"
     d="M151.667 16.3333L152.333 16.6667L151.667 16.3333z"
     id="path72" />
  <path
     style="fill:#7a7a78; stroke:none;"
     d="M176.667 16.3333L177.333 16.6667L176.667 16.3333z"
     id="path74" />
  <path
     style="fill:#898989; stroke:none;"
     d="M70 17L71 18L70 17z"
     id="path76" />
  <path
     style="fill:#c7c7c7; stroke:none;"
     d="M179.667 17.3333L180.333 17.6667L179.667 17.3333z"
     id="path78" />
  <path
     style="fill:#7a7a7a; stroke:none;"
     d="M68 18L69 19L68 18z"
     id="path80" />
  <path
     style="fill:#4c6349; stroke:none;"
     d="M91 18L91 19L94 19L91 18z"
     id="path82" />
  <path
     style="fill:#566d53; stroke:none;"
     d="M158.667 18.3333L159.333 18.6667L158.667 18.3333z"
     id="path84" />
  <path
     style="fill:#bdbebd; stroke:none;"
     d="M181.667 18.3333L182.333 18.6667L181.667 18.3333z"
     id="path86" />
  <path
     style="fill:#929292; stroke:none;"
     d="M64 20L65 21L64 20z"
     id="path88" />
  <path
     style="fill:#8b8b8b; stroke:none;"
     d="M185 20L186 21L185 20z"
     id="path90" />
  <path
     style="fill:#909090; stroke:none;"
     d="M62 21L63 22L62 21z"
     id="path92" />
  <path
     style="fill:#919191; stroke:none;"
     d="M191 24L192 25L191 24z"
     id="path94" />
  <path
     style="fill:#8b8b8b; stroke:none;"
     d="M56 25L57 26L56 25z"
     id="path96" />
  <path
     style="fill:#626262; stroke:none;"
     d="M55 26L56 27L55 26z"
     id="path98" />
  <path
     style="fill:#a7a7a7; stroke:none;"
     d="M53 27L54 28L53 27z"
     id="path100" />
  <path
     style="fill:#576a57; stroke:none;"
     d="M70 27L71 28L70 27z"
     id="path102" />
  <path
     style="fill:#a7a7a7; stroke:none;"
     d="M196 27L197 28L196 27z"
     id="path104" />
  <path
     style="fill:#989898; stroke:none;"
     d="M52 28L53 29L52 28z"
     id="path106" />
  <path
     style="fill:#656565; stroke:none;"
     d="M51 29L52 30L51 29z"
     id="path108" />
  <path
     style="fill:#a4a4a4; stroke:none;"
     d="M201 31L202 32L201 31z"
     id="path110" />
  <path
     style="fill:#919190; stroke:none;"
     d="M47 32L48 33L47 32z"
     id="path112" />
  <path
     style="fill:#908f90; stroke:none;"
     d="M202 32L203 33L202 32z"
     id="path114" />
  <path
     style="fill:#818181; stroke:none;"
     d="M203 33L204 34L203 33z"
     id="path116" />
  <path
     style="fill:#9d9d9d; stroke:none;"
     d="M45 34L46 35L45 34z"
     id="path118" />
  <path
     style="fill:#767676; stroke:none;"
     d="M204 34L205 35L204 34z"
     id="path120" />
  <path
     style="fill:#a2a2a2; stroke:none;"
     d="M44 35L45 36L44 35z"
     id="path122" />
  <path
     style="fill:#a4a4a4; stroke:none;"
     d="M43 36L44 37L43 36z"
     id="path124" />
  <path
     style="fill:#636363; stroke:none;"
     d="M42 37L43 38L42 37z"
     id="path126" />
  <path
     style="fill:#5c665e; stroke:none;"
     d="M55 37L56 38L55 37z"
     id="path128" />
  <path
     style="fill:#7a7a7a; stroke:none;"
     d="M208 37L208 38L211 38L208 37z"
     id="path130" />
  <path
     style="fill:#8e8d8d; stroke:none;"
     d="M41 38L42 39L41 38z"
     id="path132" />
  <path
     style="fill:#8b8b8b; stroke:none;"
     d="M211 38L212 39L211 38z"
     id="path134" />
  <path
     style="fill:#878787; stroke:none;"
     d="M40 39L41 40L40 39z"
     id="path136" />
  <path
     style="fill:#7c7c7c; stroke:none;"
     d="M39 40L40 41L39 40z"
     id="path138" />
  <path
     style="fill:#5d5d5d; stroke:none;"
     d="M213.333 40.6667L213.667 41.3333L213.333 40.6667z"
     id="path140" />
  <path
     style="fill:#909090; stroke:none;"
     d="M37 42L38 43L37 42z"
     id="path142" />
  <path
     style="fill:#575757; stroke:none;"
     d="M36 44L37 45L36 44z"
     id="path144" />
  <path
     style="fill:#5c6a59; stroke:none;"
     d="M46 45L47 46L46 45z"
     id="path146" />
  <path
     style="fill:#6b6b6b; stroke:none;"
     d="M34 46L35 47L34 46z"
     id="path148" />
  <path
     style="fill:#7a7a7a; stroke:none;"
     d="M217 46L218 47L217 46z"
     id="path150" />
  <path
     style="fill:#959595; stroke:none;"
     d="M33 47L34 48L33 47z"
     id="path152" />
  <path
     style="fill:#6b6b6b; stroke:none;"
     d="M32 48L33 49L32 48z"
     id="path154" />
  <path
     style="fill:#8a8a8a; stroke:none;"
     d="M31 49L32 50L31 49z"
     id="path156" />
  <path
     style="fill:#8f8f8f; stroke:none;"
     d="M30 50L31 51L30 50z"
     id="path158" />
  <path
     style="fill:#a1a1a1; stroke:none;"
     d="M29 51L30 52L29 51z"
     id="path160" />
  <path
     style="fill:#455d45; stroke:none;"
     d="M78 51L78 52L87 52L78 51z"
     id="path162" />
  <path
     style="fill:#91b08e; stroke:none;"
     d="M40 52C32.4074 65.1835 20.3796 78.1985 19 94L20 94L22 87L23 87L23 92C26.5596 92 25.74 100.707 26 104L31 104C31.7241 108.342 34.0025 108.906 38 110L36 114L40 120L44 118L40 122L40 125L46 126L37 131L40 132L38 136L45 133L41 136L41 137L42 144L46 150L50 148L40 161C48.996 161.494 46.7233 168.841 53 173L52 176L58 177L56 179L60 179L60 180L54 180C54.9732 183.032 57.9406 186.518 61.5301 184.306C67.1098 180.869 72.4453 172.326 76.696 167.271C84.5962 157.876 93.8216 148.87 104 142L104 141L104 140L102 138L120 128C119.653 118.121 134.927 107.741 141.528 101.704C143.425 99.9681 148.629 94.6861 144 94L145 91L136 81L138 77L119 72L122 69L116 67L116 66L119 66L119 65L110 64L110 67L83 61C76.3837 65.0524 64.743 58.4642 64 68L57 66L54 68L57 65L57 64L51 65C50.0554 60.6145 47.2335 63.7267 44 64L46 62L46 61L44 61L44 59L49 61C46.8758 55.5075 46.2472 52.5331 40 52z"
     id="path164" />
  <path
     style="fill:#000100; stroke:none;"
     d="M60 55C65.8494 62.349 73.5203 62.0519 82 63L82 61L92 63L91 65L110 67C113.179 62.9579 123.215 65.3749 128 65.7531C143.884 67.0083 160.059 64.9666 176 65C161.971 81.0584 146.592 95.4368 131.099 110.004C126.607 114.227 118.389 122.672 121 129L117 132L108 134L103 139L104 142C89.3543 149.104 73.8778 167.727 64.1844 180.579C60.6206 185.304 54.5357 194.319 62.3025 198.934C71.5121 204.406 93.656 200.153 104 199.17C133.088 196.404 163.485 205.299 192 198C188.908 194.161 177.508 186.611 173 191L170 190L170 192L165 189L142 186C139.406 189.886 134.319 188.553 131 186L130 186L129 186L114 186.209L86 187L86 189L76 188C89.9272 170.362 107.436 155.532 123.424 139.866C128.954 134.448 139.605 125.026 140 117L141 116L154 109L153 105C166.6 101.068 181.286 80.7954 189.59 69.9097C192.679 65.8602 196.261 56.957 189.567 53.6034C180.536 49.0792 165.657 52.9963 156 53C135.339 53.008 114.66 53.2419 94 52.9961C82.7128 52.8619 70.8776 51.1162 60 55z"
     id="path166" />
  <path
     style="fill:#242c21; stroke:none;"
     d="M87 52L87 53L98 53L87 52z"
     id="path168" />
  <path
     style="fill:#777c76; stroke:none;"
     d="M98 52L98 53L112 53L98 52z"
     id="path170" />
  <path
     style="fill:#373c36; stroke:none;"
     d="M112 52L112 53L122 53L112 52z"
     id="path172" />
  <path
     style="fill:#717670; stroke:none;"
     d="M122 52L122 53L130 53L122 52z"
     id="path174" />
  <path
     style="fill:#2f3b2f; stroke:none;"
     d="M130 52L130 53L134 53L130 52z"
     id="path176" />
  <path
     style="fill:#565d56; stroke:none;"
     d="M145 52L145 53L166 53L145 52z"
     id="path178" />
  <path
     style="fill:#4c564b; stroke:none;"
     d="M179 52L179 53L190 53L179 52z"
     id="path180" />
  <path
     style="fill:#707070; stroke:none;"
     d="M222 52L223 53L222 52z"
     id="path182" />
  <path
     style="fill:#2b4329; stroke:none;"
     d="M38 53L38 56L39 56L38 53z"
     id="path184" />
  <path
     style="fill:#566858; stroke:none;"
     d="M69.6667 53.3333L70.3333 53.6667L69.6667 53.3333z"
     id="path186" />
  <path
     style="fill:#999999; stroke:none;"
     d="M223 53L224 54L223 53z"
     id="path188" />
  <path
     style="fill:#828282; stroke:none;"
     d="M27 54L28 55L27 54z"
     id="path190" />
  <path
     style="fill:#374337; stroke:none;"
     d="M60 54L60 55L63 55L60 54z"
     id="path192" />
  <path
     style="fill:#888888; stroke:none;"
     d="M25 57L26 58L25 57z"
     id="path194" />
  <path
     style="fill:#475a46; stroke:none;"
     d="M192 57L192 60L193 60L192 57z"
     id="path196" />
  <path
     style="fill:#a0a0a0; stroke:none;"
     d="M226 57L227 58L226 57z"
     id="path198" />
  <path
     style="fill:#969696; stroke:none;"
     d="M24 58L25 59L24 58z"
     id="path200" />
  <path
     style="fill:#828282; stroke:none;"
     d="M227 59L228 60L227 59z"
     id="path202" />
  <path
     style="fill:#aaaaaa; stroke:none;"
     d="M23 60L24 61L23 60z"
     id="path204" />
  <path
     style="fill:#7c7c7c; stroke:none;"
     d="M22 62L23 63L22 62z"
     id="path206" />
  <path
     style="fill:#68746a; stroke:none;"
     d="M72 63L72 64L81 63L72 63z"
     id="path208" />
  <path
     style="fill:#677f65; stroke:none;"
     d="M84.6667 62.3333L85.3333 62.6667L84.6667 62.3333z"
     id="path210" />
  <path
     style="fill:#667560; stroke:none;"
     d="M194.333 62.6667L194.667 63.3333L194.333 62.6667z"
     id="path212" />
  <path
     style="fill:#a4a4a4; stroke:none;"
     d="M21 63L22 64L21 63z"
     id="path214" />
  <path
     style="fill:#5c635c; stroke:none;"
     d="M87 63L87 64L92 64L87 63z"
     id="path216" />
  <path
     style="fill:#324a30; stroke:none;"
     d="M166.667 64.3333L167.333 64.6667L166.667 64.3333z"
     id="path218" />
  <path
     style="fill:#353535; stroke:none;"
     d="M230.333 64.6667L230.667 65.3333L230.333 64.6667z"
     id="path220" />
  <path
     style="fill:#2b312d; stroke:none;"
     d="M101 65L101 66L108 66L101 65z"
     id="path222" />
  <path
     style="fill:#49534a; stroke:none;"
     d="M119.667 65.3333L120.333 65.6667L119.667 65.3333z"
     id="path224" />
  <path
     style="fill:#393e38; stroke:none;"
     d="M123.667 65.3333L124.333 65.6667L123.667 65.3333z"
     id="path226" />
  <path
     style="fill:#9ec09d; stroke:none;"
     d="M116 66L116 67L122 69L119 72L138 77L136 81L145 91L144 94L146 95C156.412 89.9409 169.247 75.9523 175 66L116 66z"
     id="path228" />
  <path
     style="fill:#292927; stroke:none;"
     d="M147 65L147 66L155 66L147 65z"
     id="path230" />
  <path
     style="fill:#4a4c4b; stroke:none;"
     d="M160.667 65.3333L161.333 65.6667L160.667 65.3333z"
     id="path232" />
  <path
     style="fill:#616f5e; stroke:none;"
     d="M164.667 65.3333L165.333 65.6667L164.667 65.3333z"
     id="path234" />
  <path
     style="fill:#868b87; stroke:none;"
     d="M168 65L168 66L176 66L168 65z"
     id="path236" />
  <path
     style="fill:#385536; stroke:none;"
     d="M121.667 66.3333L122.333 66.6667L121.667 66.3333z"
     id="path238" />
  <path
     style="fill:#1e3b1d; stroke:none;"
     d="M136 66L136 67L140 67L136 66z"
     id="path240" />
  <path
     style="fill:#6a6a6a; stroke:none;"
     d="M231 66L232 67L231 66z"
     id="path242" />
  <path
     style="fill:#747474; stroke:none;"
     d="M19 67L20 68L19 67z"
     id="path244" />
  <path
     style="fill:#919191; stroke:none;"
     d="M234 71L235 72L234 71z"
     id="path246" />
  <path
     style="fill:#8e8d8d; stroke:none;"
     d="M16 73L17 74L16 73z"
     id="path248" />
  <path
     style="fill:#878787; stroke:none;"
     d="M235 73L236 74L235 73z"
     id="path250" />
  <path
     style="fill:#91b090; stroke:none;"
     d="M226 75L226 86C220.667 86.6628 220.959 94.8787 222 99L219 102L224 103L220 120C221.998 124.287 220.104 133.414 216 136L218 141L208 141L205 157L199 156C197.864 161.389 196.615 164.645 192 168L192 162L183 162L184 166L180 162L176 160L175 160L177 173L170 172L171 166L168 167C167.482 163.013 164.983 154.325 160 160L159 160L158 156L153 158C152.303 149.257 148.391 147.533 140 147L140 144L132 144L133 140L128 138L99.9606 161.925L76 188L131 186C133.538 188.904 139.462 188.904 142 186C150.529 188.026 161.054 185.41 168 192L169 192L170 192L170 190L173 191C178.917 186.598 187.793 195.438 194 197L194 190C198.476 189.251 200.878 185.02 204 190C206.085 188.533 207.557 186.564 208 190L209 190L209 186L212 186L212 182L218 182L219 182L221 180C219.521 173.096 220.994 172.021 224 166L221 165L221 164C225.525 160.737 224.335 152.258 225 147L229 149L227 144L233 140L234 140L234 148C239.325 142.931 238 134.807 238 128C238 110.824 237.035 89.1959 226 75z"
     id="path252" />
  <path
     style="fill:#59725c; stroke:none;"
     d="M182 76L182 79L183 79L184 76L182 76z"
     id="path254" />
  <path
     style="fill:#8d8d8d; stroke:none;"
     d="M14 77L15 78L14 77z"
     id="path256" />
  <path
     style="fill:#7c7c7c; stroke:none;"
     d="M237 77L238 78L237 77z"
     id="path258" />
  <path
     style="fill:#7b7b7b; stroke:none;"
     d="M13.3333 79.6667L13.6667 80.3333L13.3333 79.6667z"
     id="path260" />
  <path
     style="fill:#475e44; stroke:none;"
     d="M23.3333 79.6667L23.6667 80.3333L23.3333 79.6667z"
     id="path262" />
  <path
     style="fill:#6b6b6b; stroke:none;"
     d="M238 79L239 80L238 79z"
     id="path264" />
  <path
     style="fill:#5d5d5d; stroke:none;"
     d="M239.333 81.6667L239.667 82.3333L239.333 81.6667z"
     id="path266" />
  <path
     style="fill:#626262; stroke:none;"
     d="M12.3333 82.6667L12.6667 83.3333L12.3333 82.6667z"
     id="path268" />
  <path
     style="fill:#656565; stroke:none;"
     d="M240 84L241 85L240 84z"
     id="path270" />
  <path
     style="fill:#737373; stroke:none;"
     d="M11 85L12 86L11 85z"
     id="path272" />
  <path
     style="fill:#c8c8c8; stroke:none;"
     d="M241 85L241 88L242 88L241 85z"
     id="path274" />
  <path
     style="fill:#707070; stroke:none;"
     d="M10.3333 87.6667L10.6667 88.3333L10.3333 87.6667z"
     id="path276" />
  <path
     style="fill:#829f80; stroke:none;"
     d="M22 87C19.4507 95.6829 15.103 102.674 14.1705 112C8.7966 165.746 39.9312 219.199 93 234.958C141.247 249.284 193.314 229.998 220.308 188C227.587 176.676 235.708 160.698 236 147L234 148L234 140L233 140L227 144L229 149L225 147L221 164L221 165L224 166C219.686 171.743 218.546 173.019 221 180L219 182L218 182L217 180L212 182L212 186L209 186L209 190L208 190L208 187L204 190C201.582 183.96 198.286 188.72 194 190L196 192L196 193L193 195L194 197C166.986 208.035 133.6 197.448 105 200.17C94.2285 201.195 72.8905 204.67 63.1443 198.972C58.7151 196.383 56.4069 184.651 54 180L60 180L60 179L56 179L58 178L58 177L52 176L53 173C47.5002 167.648 48.9154 161.216 40 161L50 148L46 150C46.1369 146.44 45.4269 145.089 42 144L41 137L41 136L45 133L38 136L40 132L37 132L37 131L46 126L40 125L40 122L44 118L40 120L36 114L38 110L31 104L26 104C25.7738 100.453 26.9898 92.5544 23 92L22 87z"
     id="path278" />
  <path
     style="fill:#677a67; stroke:none;"
     d="M171.667 89.3333L172.333 89.6667L171.667 89.3333z"
     id="path280" />
  <path
     style="fill:#404040; stroke:none;"
     d="M9.33333 90.6667L9.66667 91.3333L9.33333 90.6667z"
     id="path282" />
  <path
     style="fill:#5f5f5f; stroke:none;"
     d="M242.333 90.6667L242.667 91.3333L242.333 90.6667z"
     id="path284" />
  <path
     style="fill:#d9d9d9; stroke:none;"
     d="M8 92L8 96L9 96L8 92z"
     id="path286" />
  <path
     style="fill:#546a53; stroke:none;"
     d="M18 92L18 95L19 95L18 92z"
     id="path288" />
  <path
     style="fill:#4b5e4b; stroke:none;"
     d="M166 94L166 95L169 95L166 94z"
     id="path290" />
  <path
     style="fill:#587257; stroke:none;"
     d="M17.3333 96.6667L17.6667 97.3333L17.3333 96.6667z"
     id="path292" />
  <path
     style="fill:#d9d9d9; stroke:none;"
     d="M244 96L244 100L245 100L244 96z"
     id="path294" />
  <path
     style="fill:#949494; stroke:none;"
     d="M6.33333 100.667L6.66667 101.333L6.33333 100.667z"
     id="path296" />
  <path
     style="fill:#6b836d; stroke:none;"
     d="M160 100L157 102L157 103C159.348 102.706 160.951 102.507 160 100z"
     id="path298" />
  <path
     style="fill:#424242; stroke:none;"
     d="M244.333 100.667L244.667 101.333L244.333 100.667z"
     id="path300" />
  <path
     style="fill:#2f342d; stroke:none;"
     d="M15 101L15 105L16 105L15 101z"
     id="path302" />
  <path
     style="fill:#4b5749; stroke:none;"
     d="M236 101L236 106L237 106L236 101z"
     id="path304" />
  <path
     style="fill:#353535; stroke:none;"
     d="M6 102L6 105L7 105L6 102z"
     id="path306" />
  <path
     style="fill:#d2d2d1; stroke:none;"
     d="M5 103L5 109L6 109L5 103z"
     id="path308" />
  <path
     style="fill:#a2a2a2; stroke:none;"
     d="M245.333 103.667L245.667 104.333L245.333 103.667z"
     id="path310" />
  <path
     style="fill:#61695c; stroke:none;"
     d="M153.667 105.333L154.333 105.667L153.667 105.333z"
     id="path312" />
  <path
     style="fill:#696969; stroke:none;"
     d="M245 105L245 108L246 108L245 105z"
     id="path314" />
  <path
     style="fill:#33452f; stroke:none;"
     d="M14 107L14 110L15 110L14 107z"
     id="path316" />
  <path
     style="fill:#657862; stroke:none;"
     d="M237 108L237 112L238 112L237 108z"
     id="path318" />
  <path
     style="fill:#939393; stroke:none;"
     d="M246 108L246 113L247 113L246 108z"
     id="path320" />
  <path
     style="fill:#838383; stroke:none;"
     d="M5 109L5 115L6 115L5 109z"
     id="path322" />
  <path
     style="fill:#6f776c; stroke:none;"
     d="M13 112L13 137L14 137L13 112z"
     id="path324" />
  <path
     style="fill:#323232; stroke:none;"
     d="M246 113L246 121L247 121L246 113z"
     id="path326" />
  <path
     style="fill:#70756e; stroke:none;"
     d="M238 114L238 139L239 139L238 114z"
     id="path328" />
  <path
     style="fill:#575757; stroke:none;"
     d="M5 115L5 124L6 124L5 115z"
     id="path330" />
  <path
     style="fill:#7a8479; stroke:none;"
     d="M141 116L140 117L140 118L141 119L142 119L143 118L143 117L141 116z"
     id="path332" />
  <path
     style="fill:#3f493e; stroke:none;"
     d="M139.333 120.667L139.667 121.333L139.333 120.667z"
     id="path334" />
  <path
     style="fill:#3e3f41; stroke:none;"
     d="M120 127L118 128L118 129L120 127z"
     id="path336" />
  <path
     style="fill:#717a75; stroke:none;"
     d="M117 128L116 131L117 128z"
     id="path338" />
  <path
     style="fill:#323932; stroke:none;"
     d="M115 129L117 132L115 129z"
     id="path340" />
  <path
     style="fill:#5c685c; stroke:none;"
     d="M131 129L131 132L132 132L131 129z"
     id="path342" />
  <path
     style="fill:#4e4e4e; stroke:none;"
     d="M246 129L246 140L247 140L246 129z"
     id="path344" />
  <path
     style="fill:#4a4a4a; stroke:none;"
     d="M5 132L5 140L6 140L5 132z"
     id="path346" />
  <path
     style="fill:#384635; stroke:none;"
     d="M109.667 133.333L110.333 133.667L109.667 133.333z"
     id="path348" />
  <path
     style="fill:#495748; stroke:none;"
     d="M107 136L105 139L107 136z"
     id="path350" />
  <path
     style="fill:#657c62; stroke:none;"
     d="M126.667 136.333L127.333 136.667L126.667 136.333z"
     id="path352" />
  <path
     style="fill:#7d957b; stroke:none;"
     d="M102 140L105 139L102 140z"
     id="path354" />
  <path
     style="fill:#bebebe; stroke:none;"
     d="M5 140L5 144L6 144L5 140z"
     id="path356" />
  <path
     style="fill:#2c492a; stroke:none;"
     d="M14 140L14 144L15 144L14 140z"
     id="path358" />
  <path
     style="fill:#aaaaaa; stroke:none;"
     d="M246 140L246 144L247 144L246 140z"
     id="path360" />
  <path
     style="fill:#52694f; stroke:none;"
     d="M120 142L121 143L120 142z"
     id="path362" />
  <path
     style="fill:#d2d2d2; stroke:none;"
     d="M246 144L246 148L247 148L246 144z"
     id="path364" />
  <path
     style="fill:#696969; stroke:none;"
     d="M6.33333 145.667L6.66667 146.333L6.33333 145.667z"
     id="path366" />
  <path
     style="fill:#373d3b; stroke:none;"
     d="M15 146L15 150L16 150L15 146z"
     id="path368" />
  <path
     style="fill:#2f2f31; stroke:none;"
     d="M96 149L97 149L99 147C96.8603 145.882 96.4732 146.749 96 149z"
     id="path370" />
  <path
     style="fill:#364433; stroke:none;"
     d="M236 146L236 150L237 150L236 146z"
     id="path372" />
  <path
     style="fill:#a5a5a5; stroke:none;"
     d="M6 147L6 150L7 150L6 147z"
     id="path374" />
  <path
     style="fill:#6a6a6a; stroke:none;"
     d="M245 149L245 152L246 152L245 149z"
     id="path376" />
  <path
     style="fill:#536a50; stroke:none;"
     d="M16.3333 152.667L16.6667 153.333L16.3333 152.667z"
     id="path378" />
  <path
     style="fill:#d8d8d8; stroke:none;"
     d="M243 156L243 161L244 161L243 156z"
     id="path380" />
  <path
     style="fill:#c3c3c3; stroke:none;"
     d="M8.33333 158.667L8.66667 159.333L8.33333 158.667z"
     id="path382" />
  <path
     style="fill:#587354; stroke:none;"
     d="M233 158L233 161L234 161L233 158z"
     id="path384" />
  <path
     style="fill:#415240; stroke:none;"
     d="M18.3333 160.667L18.6667 161.333L18.3333 160.667z"
     id="path386" />
  <path
     style="fill:#354135; stroke:none;"
     d="M82.6667 160.333L83.3333 160.667L82.6667 160.333z"
     id="path388" />
  <path
     style="fill:#979797; stroke:none;"
     d="M9.33333 161.667L9.66667 162.333L9.33333 161.667z"
     id="path390" />
  <path
     style="fill:#949494; stroke:none;"
     d="M242 162L243 163L242 162z"
     id="path392" />
  <path
     style="fill:#9d9d9d; stroke:none;"
     d="M10 165L10 168L11 168L10 165z"
     id="path394" />
  <path
     style="fill:#303e31; stroke:none;"
     d="M76 166L76 169L77 169L78 166L76 166z"
     id="path396" />
  <path
     style="fill:#5b6c5c; stroke:none;"
     d="M230.333 166.667L230.667 167.333L230.333 166.667z"
     id="path398" />
  <path
     style="fill:#787878; stroke:none;"
     d="M240 167L241 168L240 167z"
     id="path400" />
  <path
     style="fill:#b4b4b4; stroke:none;"
     d="M239.333 169.667L239.667 170.333L239.333 169.667z"
     id="path402" />
  <path
     style="fill:#a7a7a7; stroke:none;"
     d="M12.3333 170.667L12.6667 171.333L12.3333 170.667z"
     id="path404" />
  <path
     style="fill:#787a78; stroke:none;"
     d="M238 171L238 174L239 174L238 171z"
     id="path406" />
  <path
     style="fill:#40453e; stroke:none;"
     d="M71.6667 172.333L72.3333 172.667L71.6667 172.333z"
     id="path408" />
  <path
     style="fill:#7f7f7f; stroke:none;"
     d="M13 173L14 174L13 173z"
     id="path410" />
  <path
     style="fill:#878787; stroke:none;"
     d="M14 175L15 176L14 175z"
     id="path412" />
  <path
     style="fill:#959595; stroke:none;"
     d="M237 175L238 176L237 175z"
     id="path414" />
  <path
     style="fill:#5d5d5d; stroke:none;"
     d="M15 176L16 177L15 176z"
     id="path416" />
  <path
     style="fill:#c6c6c5; stroke:none;"
     d="M18.3333 183.667L18.6667 184.333L18.3333 183.667z"
     id="path418" />
  <path
     style="fill:#676667; stroke:none;"
     d="M233 183L234 184L233 183z"
     id="path420" />
  <path
     style="fill:#737373; stroke:none;"
     d="M232 185L233 186L232 185z"
     id="path422" />
  <path
     style="fill:#848484; stroke:none;"
     d="M20 186L21 187L20 186z"
     id="path424" />
  <path
     style="fill:#373e36; stroke:none;"
     d="M59.6667 186.333L60.3333 186.667L59.6667 186.333z"
     id="path426" />
  <path
     style="fill:#657163; stroke:none;"
     d="M116 186L116 187L123 187L116 186z"
     id="path428" />
  <path
     style="fill:#516951; stroke:none;"
     d="M151.667 186.333L152.333 186.667L151.667 186.333z"
     id="path430" />
  <path
     style="fill:#658367; stroke:none;"
     d="M78 187L78 188L83 188L78 187z"
     id="path432" />
  <path
     style="fill:#375438; stroke:none;"
     d="M89 187L89 188L92 188L89 187z"
     id="path434" />
  <path
     style="fill:#576a56; stroke:none;"
     d="M124 187L124 188L129 188L124 187z"
     id="path436" />
  <path
     style="fill:#667e66; stroke:none;"
     d="M154 187L154 188L158 188L154 187z"
     id="path438" />
  <path
     style="fill:#5f5f5f; stroke:none;"
     d="M21 188L22 189L21 188z"
     id="path440" />
  <path
     style="fill:#373735; stroke:none;"
     d="M84.6667 188.333L85.3333 188.667L84.6667 188.333z"
     id="path442" />
  <path
     style="fill:#535a53; stroke:none;"
     d="M137 188L137 189L142 189L137 188z"
     id="path444" />
  <path
     style="fill:#3d493b; stroke:none;"
     d="M159 188L159 189L164 190L159 188z"
     id="path446" />
  <path
     style="fill:#737373; stroke:none;"
     d="M230 188L231 189L230 188z"
     id="path448" />
  <path
     style="fill:#777777; stroke:none;"
     d="M22 189L23 190L22 189z"
     id="path450" />
  <path
     style="fill:#485448; stroke:none;"
     d="M165 189L168 191L168 190L165 189z"
     id="path452" />
  <path
     style="fill:#40513e; stroke:none;"
     d="M175 189L175 190L180 190L175 189z"
     id="path454" />
  <path
     style="fill:#7f7f7f; stroke:none;"
     d="M229 190L230 191L229 190z"
     id="path456" />
  <path
     style="fill:#8b8b8b; stroke:none;"
     d="M226 195L227 196L226 195z"
     id="path458" />
  <path
     style="fill:#455241; stroke:none;"
     d="M190.667 198.333L191.333 198.667L190.667 198.333z"
     id="path460" />
  <path
     style="fill:#828282; stroke:none;"
     d="M224 198L225 199L224 198z"
     id="path462" />
  <path
     style="fill:#2f342d; stroke:none;"
     d="M66 199L66 200L70 200L66 199z"
     id="path464" />
  <path
     style="fill:#39373a; stroke:none;"
     d="M101 199L101 200L115 200L101 199z"
     id="path466" />
  <path
     style="fill:#262d26; stroke:none;"
     d="M140 199L140 200L152 200L140 199z"
     id="path468" />
  <path
     style="fill:#2b392c; stroke:none;"
     d="M173 201L181 200L173 201z"
     id="path470" />
  <path
     style="fill:#636a63; stroke:none;"
     d="M181 199L181 200L184 200L181 199z"
     id="path472" />
  <path
     style="fill:#3b4739; stroke:none;"
     d="M185 199L185 200L189 200L185 199z"
     id="path474" />
  <path
     style="fill:#7f7f7f; stroke:none;"
     d="M223 199L224 200L223 199z"
     id="path476" />
  <path
     style="fill:#7e7e7e; stroke:none;"
     d="M29 200L30 201L29 200z"
     id="path478" />
  <path
     style="fill:#243e23; stroke:none;"
     d="M76 200L76 201L87 201L76 200z"
     id="path480" />
  <path
     style="fill:#5c7c57; stroke:none;"
     d="M88 200L88 201L103 201L88 200z"
     id="path482" />
  <path
     style="fill:#274624; stroke:none;"
     d="M117 200L117 201L121 201L117 200z"
     id="path484" />
  <path
     style="fill:#344e31; stroke:none;"
     d="M130 200L130 201L139 201L130 200z"
     id="path486" />
  <path
     style="fill:#374a37; stroke:none;"
     d="M158 200L158 201L164 201L158 200z"
     id="path488" />
  <path
     style="fill:#5c5c5c; stroke:none;"
     d="M30 201L31 202L30 201z"
     id="path490" />
  <path
     style="fill:#626d5f; stroke:none;"
     d="M165 201L165 202L174 202L165 201z"
     id="path492" />
  <path
     style="fill:#a3a2a3; stroke:none;"
     d="M222 201L223 202L222 201z"
     id="path494" />
  <path
     style="fill:#575757; stroke:none;"
     d="M31 202L32 203L31 202z"
     id="path496" />
  <path
     style="fill:#7d7d7d; stroke:none;"
     d="M219 204L220 205L219 204z"
     id="path498" />
  <path
     style="fill:#a6a6a6; stroke:none;"
     d="M218 205L219 206L218 205z"
     id="path500" />
  <path
     style="fill:#777777; stroke:none;"
     d="M34 206L35 207L34 206z"
     id="path502" />
  <path
     style="fill:#6a6a6a; stroke:none;"
     d="M217 206L218 207L217 206z"
     id="path504" />
  <path
     style="fill:#424242; stroke:none;"
     d="M35.3333 207.667L35.6667 208.333L35.3333 207.667z"
     id="path506" />
  <path
     style="fill:#606060; stroke:none;"
     d="M216 207L217 208L216 207z"
     id="path508" />
  <path
     style="fill:#9c9c9c; stroke:none;"
     d="M38.3333 211.667L38.6667 212.333L38.3333 211.667z"
     id="path510" />
  <path
     style="fill:#8a8a8a; stroke:none;"
     d="M212 212L213 213L212 212z"
     id="path512" />
  <path
     style="fill:#656565; stroke:none;"
     d="M39 213L40 214L39 213z"
     id="path514" />
  <path
     style="fill:#979797; stroke:none;"
     d="M211 213L212 214L211 213z"
     id="path516" />
  <path
     style="fill:#8c8c8c; stroke:none;"
     d="M40 214L41 215L40 214z"
     id="path518" />
  <path
     style="fill:#939393; stroke:none;"
     d="M210 214L211 215L210 214z"
     id="path520" />
  <path
     style="fill:#a6a6a6; stroke:none;"
     d="M41 215L41 216L44 216L41 215z"
     id="path522" />
  <path
     style="fill:#9c9c9c; stroke:none;"
     d="M209 215L210 216L209 215z"
     id="path524" />
  <path
     style="fill:#a4a4a4; stroke:none;"
     d="M208 216L209 217L208 216z"
     id="path526" />
  <path
     style="fill:#626262; stroke:none;"
     d="M46 217L47 218L46 217z"
     id="path528" />
  <path
     style="fill:#aaaaa9; stroke:none;"
     d="M207 217L208 218L207 217z"
     id="path530" />
  <path
     style="fill:#868686; stroke:none;"
     d="M47 218L48 219L47 218z"
     id="path532" />
  <path
     style="fill:#818181; stroke:none;"
     d="M48 219L49 220L48 219z"
     id="path534" />
  <path
     style="fill:#6e6e6e; stroke:none;"
     d="M53 223L54 224L53 223z"
     id="path536" />
  <path
     style="fill:#a2a2a2; stroke:none;"
     d="M54 224L55 225L54 224z"
     id="path538" />
  <path
     style="fill:#9c9c9c; stroke:none;"
     d="M57 226L58 227L57 226z"
     id="path540" />
  <path
     style="fill:#727272; stroke:none;"
     d="M196 226L197 227L196 226z"
     id="path542" />
  <path
     style="fill:#8b8b8b; stroke:none;"
     d="M195 227L196 228L195 227z"
     id="path544" />
  <path
     style="fill:#666666; stroke:none;"
     d="M193 228L194 229L193 228z"
     id="path546" />
  <path
     style="fill:#989898; stroke:none;"
     d="M62 229L63 230L62 229z"
     id="path548" />
  <path
     style="fill:#666666; stroke:none;"
     d="M190 230L191 231L190 230z"
     id="path550" />
  <path
     style="fill:#8b8b8b; stroke:none;"
     d="M65 231L66 232L65 231M66 232L67 233L66 232z"
     id="path552" />
  <path
     style="fill:#929292; stroke:none;"
     d="M187 232L188 233L187 232z"
     id="path554" />
  <path
     style="fill:#5f5f5f; stroke:none;"
     d="M68 233L69 234L68 233z"
     id="path556" />
  <path
     style="fill:#696969; stroke:none;"
     d="M185 233L186 234L185 233z"
     id="path558" />
  <path
     style="fill:#858685; stroke:none;"
     d="M70 234L71 235L70 234z"
     id="path560" />
  <path
     style="fill:#878787; stroke:none;"
     d="M183 234L184 235L183 234z"
     id="path562" />
  <path
     style="fill:#737373; stroke:none;"
     d="M72 235L73 236L72 235z"
     id="path564" />
  <path
     style="fill:#6d6d6d; stroke:none;"
     d="M74.6667 236.333L75.3333 236.667L74.6667 236.333z"
     id="path566" />
  <path
     style="fill:#354135; stroke:none;"
     d="M98 236L98 237L101 237L98 236z"
     id="path568" />
  <path
     style="fill:#484f47; stroke:none;"
     d="M151 236L151 237L154 237L151 236z"
     id="path570" />
  <path
     style="fill:#666666; stroke:none;"
     d="M77 237L78 238L77 237z"
     id="path572" />
  <path
     style="fill:#384d3a; stroke:none;"
     d="M147.667 237.333L148.333 237.667L147.667 237.333z"
     id="path574" />
  <path
     style="fill:#545454; stroke:none;"
     d="M79.6667 238.333L80.3333 238.667L79.6667 238.333z"
     id="path576" />
  <path
     style="fill:#969595; stroke:none;"
     d="M173.667 238.333L174.333 238.667L173.667 238.333z"
     id="path578" />
  <path
     style="fill:#636363; stroke:none;"
     d="M82 239L83 240L82 239z"
     id="path580" />
  <path
     style="fill:#5e765c; stroke:none;"
     d="M114 239L114 240L133 240L114 239z"
     id="path582" />
  <path
     style="fill:#626262; stroke:none;"
     d="M85 240L86 241L85 240z"
     id="path584" />
  <path
     style="fill:#989898; stroke:none;"
     d="M86.6667 241.333L87.3333 241.667L86.6667 241.333z"
     id="path586" />
  <path
     style="fill:#bababa; stroke:none;"
     d="M166.667 241.333L167.333 241.667L166.667 241.333z"
     id="path588" />
  <path
     style="fill:#545454; stroke:none;"
     d="M89 242L89 243L92 243L89 242z"
     id="path590" />
  <path
     style="fill:#828282; stroke:none;"
     d="M164 242L165 243L164 242z"
     id="path592" />
  <path
     style="fill:#767676; stroke:none;"
     d="M93 243L94 244L93 243z"
     id="path594" />
  <path
     style="fill:#a1a1a1; stroke:none;"
     d="M155.667 244.333L156.333 244.667L155.667 244.333z"
     id="path596" />
  <path
     style="fill:#bcbcbc; stroke:none;"
     d="M96.6667 245.333L97.3333 245.667L96.6667 245.333z"
     id="path598" />
  <path
     style="fill:#c9c9c9; stroke:none;"
     d="M152.667 245.333L153.333 245.667L152.667 245.333z"
     id="path600" />
  <path
     style="fill:#747474; stroke:none;"
     d="M100 246L100 247L104 247L100 246z"
     id="path602" />
  <path
     style="fill:#757575; stroke:none;"
     d="M107 246L107 247L111 247L107 246z"
     id="path604" />
  <path
     style="fill:#5d5d5d; stroke:none;"
     d="M144 246L144 247L151 247L144 246z"
     id="path606" />
  <path
     style="fill:#b9b9b9; stroke:none;"
     d="M104 247L104 248L107 248L104 247z"
     id="path608" />
  <path
     style="fill:#8a8a8a; stroke:none;"
     d="M113 247L113 248L117 248L113 247z"
     id="path610" />
  <path
     style="fill:#3d3d3d; stroke:none;"
     d="M119.667 247.333L120.333 247.667L119.667 247.333z"
     id="path612" />
  <path
     style="fill:#626262; stroke:none;"
     d="M122 247L122 248L130 248L122 247M131 247L131 248L139 248L131 247z"
     id="path614" />
  <path
     style="fill:#b4b4b4; stroke:none;"
     d="M139.667 247.333L140.333 247.667L139.667 247.333z"
     id="path616" />
</svg>
