<?xml version="1.0" encoding="UTF-8" standalone="no"?>
<svg
   xmlns:dc="http://purl.org/dc/elements/1.1/"
   xmlns:cc="http://creativecommons.org/ns#"
   xmlns:rdf="http://www.w3.org/1999/02/22-rdf-syntax-ns#"
   xmlns:svg="http://www.w3.org/2000/svg"
   xmlns="http://www.w3.org/2000/svg"
   xmlns:sodipodi="http://sodipodi.sourceforge.net/DTD/sodipodi-0.dtd"
   xmlns:inkscape="http://www.inkscape.org/namespaces/inkscape"
   width="252"
   height="252"
   version="1.1"
   id="svg572"
   sodipodi:docname="Termo.svg"
   inkscape:version="0.92.1 r15371">
  <metadata
     id="metadata578">
    <rdf:RDF>
      <cc:Work
         rdf:about="">
        <dc:format>image/svg+xml</dc:format>
        <dc:type
           rdf:resource="http://purl.org/dc/dcmitype/StillImage" />
        <dc:title></dc:title>
      </cc:Work>
    </rdf:RDF>
  </metadata>
  <defs
     id="defs576" />
  <sodipodi:namedview
     pagecolor="#ffffff"
     bordercolor="#666666"
     borderopacity="1"
     objecttolerance="10"
     gridtolerance="10"
     guidetolerance="10"
     inkscape:pageopacity="0"
     inkscape:pageshadow="2"
     inkscape:window-width="769"
     inkscape:window-height="480"
     id="namedview574"
     showgrid="false"
     inkscape:zoom="0.93650794"
     inkscape:cx="-1.0677966"
     inkscape:cy="126"
     inkscape:window-x="0"
     inkscape:window-y="0"
     inkscape:window-maximized="0"
     inkscape:current-layer="svg572" />
  <path
     style="fill:#a2a3a3; stroke:none;"
     d="M108 5L108 6L113 6L108 5z"
     id="path4" />
  <path
     style="fill:#5f5f5f; stroke:none;"
     d="M113 5L113 6L121 6L113 5z"
     id="path6" />
  <path
     style="fill:#010101; stroke:none;"
     d="M121 5.70988C66.2095 6.5237 15.533 47.7342 6.32562 103C-5.04018 171.221 45.7303 249.514 120 247.59C149.201 246.833 176.041 242.327 200 224.101C255.402 181.955 264.415 89.6209 212.981 40.2446C187.774 16.0449 155.066 5.2039 121 5.70988z"
     id="path8" />
  <path
     style="fill:#626262; stroke:none;"
     d="M122 5L122 6L130 6L122 5z"
     id="path10" />
  <path
     style="fill:#5c5c5c; stroke:none;"
     d="M131.667 5.33333L132.333 5.66667L131.667 5.33333z"
     id="path12" />
  <path
     style="fill:#898989; stroke:none;"
     d="M134 5L134 6L139 6L134 5z"
     id="path14" />
  <path
     style="fill:#a4a4a4; stroke:none;"
     d="M145 5L145 6L148 6L145 5z"
     id="path16" />
  <path
     style="fill:#adadad; stroke:none;"
     d="M100.667 6.33333L101.333 6.66667L100.667 6.33333z"
     id="path18" />
  <path
     style="fill:#696969; stroke:none;"
     d="M102.667 6.33333L103.333 6.66667L102.667 6.33333z"
     id="path20" />
  <path
     style="fill:#545454; stroke:none;"
     d="M142 6L142 7L145 7L142 6z"
     id="path22" />
  <path
     style="fill:#959595; stroke:none;"
     d="M150.667 6.33333L151.333 6.66667L150.667 6.33333z"
     id="path24" />
  <path
     style="fill:#979797; stroke:none;"
     d="M98.6667 7.33333L99.3333 7.66667L98.6667 7.33333z"
     id="path26" />
  <path
     style="fill:#737373; stroke:none;"
     d="M94 8L94 9L97 9L94 8z"
     id="path28" />
  <path
     style="fill:#848484; stroke:none;"
     d="M156 8L157 9L156 8z"
     id="path30" />
  <path
     style="fill:#464646; stroke:none;"
     d="M89.6667 9.33333L90.3333 9.66667L89.6667 9.33333z"
     id="path32" />
  <path
     style="fill:#7c7c7c; stroke:none;"
     d="M87 10L88 11L87 10z"
     id="path34" />
  <path
     style="fill:#545454; stroke:none;"
     d="M160 10L160 11L163 11L160 10z"
     id="path36" />
  <path
     style="fill:#7b7b7b; stroke:none;"
     d="M84 11L85 12L84 11z"
     id="path38" />
  <path
     style="fill:#8e8e8e; stroke:none;"
     d="M165 11L166 12L165 11z"
     id="path40" />
  <path
     style="fill:#838383; stroke:none;"
     d="M82 12L83 13L82 12z"
     id="path42" />
  <path
     style="fill:#606060; stroke:none;"
     d="M166 12L167 13L166 12z"
     id="path44" />
  <path
     style="fill:#858585; stroke:none;"
     d="M79.6667 13.3333L80.3333 13.6667L79.6667 13.3333z"
     id="path46" />
  <path
     style="fill:#914e57; stroke:none;"
     d="M110 13L110 14L139 14L110 13z"
     id="path48" />
  <path
     style="fill:#8e8e8e; stroke:none;"
     d="M77 14L78 15L77 14z"
     id="path50" />
  <path
     style="fill:#d8364e; stroke:none;"
     d="M48 43L50 46L51 46L52 46L54 44L55 47C51.0533 49.8463 52 54.5145 52 59L55 56L56 56L52 69L59 91L53 90L56 96L54 105L48 104L50 108L42 106L48 113L51 116L47 120C49.0412 119.358 52.6582 117.251 54.7708 118.288C58.7484 120.24 58.3394 133.107 55 135L56 141C39.039 140.377 60.0288 154.735 63 157L57 159L57 160L64 159L64 160L54 163L54 167L48 170L55 171L46 182L52 181L52 184L48 184L48 185L53 186L51 192L58 192L56 202C59.3957 206.338 59.1648 210.904 66 210L62 218L70 221L74 222L74 223L74 224L72 224C74.4502 228.449 82.2658 231.224 87.0008 233.088C102.868 239.335 119.191 240 136 240L136 239L134 239L134 238C154.524 238 175.229 230.986 192 219L186 216L175 206L170 209L162 202L168 200L168 205L171 201L181 200C182.312 204.153 184.858 204.772 189 205L184 194L184 192L186 192L186 191L178 184L177 184L176 190L171 188L164 189L165 182L168 182L168 188C172.165 184.996 171.332 179.507 170 175L180 171L184 176L192 171L197 172L199 166L196 163C203.172 163 211.692 163.982 213 155L199 154L195 144L186 139L187 136L175 135C173.636 129.855 170.798 127.924 166 126C168.792 137.006 156.913 155.525 150.781 164.579C147.247 169.797 141.304 175.361 142 182C131.486 188.406 127.957 205.045 114 206C119.158 178.939 146.365 159.908 152 133L139 132L138 132L137 132L137 134L87 134L85.2593 122L93.1713 103.576L94 86L88 81L83 82L80 76L86 76L86 70L83 70L88 54L95 55L96 45L97 45L102 49L102 48L100 46C102.993 45.9358 104.346 46.0539 105 43L109 46L111 46C112.072 42.3397 110.366 36.4998 112.782 33.5494C120.175 24.5208 132.865 32.1885 141.2 33.4113C147.7 34.3649 157.029 32 164 32L162 28L168 26L168 25L174 30L177 27L180 32L184 32C180.621 21.7741 157.487 17.2479 148 15.9352C108.756 10.5048 79.6623 19.489 48 43z"
     id="path52" />
  <path
     style="fill:#6d6d6d; stroke:none;"
     d="M172 14L173 15L172 14z"
     id="path54" />
  <path
     style="fill:#6e3b44; stroke:none;"
     d="M144 15L144 16L148 16L144 15z"
     id="path56" />
  <path
     style="fill:#666666; stroke:none;"
     d="M174 15L175 16L174 15z"
     id="path58" />
  <path
     style="fill:#6a6b6b; stroke:none;"
     d="M73 16L74 17L73 16z"
     id="path60" />
  <path
     style="fill:#810e1f; stroke:none;"
     d="M152.667 16.3333L153.333 16.6667L152.667 16.3333z"
     id="path62" />
  <path
     style="fill:#7a7a7a; stroke:none;"
     d="M176.667 16.3333L177.333 16.6667L176.667 16.3333z"
     id="path64" />
  <path
     style="fill:#898989; stroke:none;"
     d="M70 17L71 18L70 17z"
     id="path66" />
  <path
     style="fill:#c7c7c7; stroke:none;"
     d="M179.667 17.3333L180.333 17.6667L179.667 17.3333z"
     id="path68" />
  <path
     style="fill:#7a7a7a; stroke:none;"
     d="M68 18L69 19L68 18z"
     id="path70" />
  <path
     style="fill:#5d111b; stroke:none;"
     d="M90.6667 18.3333L91.3333 18.6667L90.6667 18.3333z"
     id="path72" />
  <path
     style="fill:#bebdbe; stroke:none;"
     d="M181.667 18.3333L182.333 18.6667L181.667 18.3333z"
     id="path74" />
  <path
     style="fill:#929292; stroke:none;"
     d="M64 20L65 21L64 20z"
     id="path76" />
  <path
     style="fill:#8b8b8b; stroke:none;"
     d="M185 20L186 21L185 20z"
     id="path78" />
  <path
     style="fill:#909090; stroke:none;"
     d="M62 21L63 22L62 21z"
     id="path80" />
  <path
     style="fill:#94162c; stroke:none;"
     d="M174.667 24.3333L175.333 24.6667L174.667 24.3333z"
     id="path82" />
  <path
     style="fill:#919191; stroke:none;"
     d="M191 24L192 25L191 24z"
     id="path84" />
  <path
     style="fill:#8b8b8b; stroke:none;"
     d="M56 25L57 26L56 25z"
     id="path86" />
  <path
     style="fill:#e64f5e; stroke:none;"
     d="M168 25L168 26L170 27L162 28L164 32C156.981 32 147.863 34.0268 141.2 33.0123C132.638 31.7089 120.62 24.8819 112.746 32.8981C109.995 35.6988 111.859 42.2617 111 46L109 46L105 43L100 46L102 48L102 49L97 45L96 45L95 55L88 54L83 70L86 70L86 76L80 76L83 82L88 81L94 86L93 100C97.4499 97.2495 105.372 84.1661 105 79C109.734 77.4277 123.374 57.5741 123 53L138 47C131.892 73.7096 105.596 93.2013 100 120L166 120L175 135L187 136L186 139L195 144L199 154L213 155C210.827 163.394 203.227 163 196 163L199 166C196.3 168.005 195.857 168.832 197 172L192 171L184 176L180 171L178 174L170 175C171.183 179.969 171.669 184.114 168 188L168 182L165 182L164 189C167.242 189.531 170.101 192.274 171 188L176 190L177 184L178 184C178.775 188.469 182.064 189.447 186 191L186 192L184 194L189 205C185.032 204.557 182.877 203.578 181 200L171 201L168 205L168 200L162 202C163.261 206.36 165.705 207.875 170 209L175 206L186 216C206.654 220.59 224.227 184.134 230.366 168C244.284 131.418 240.008 89.5797 216.102 58C207.45 46.5708 196.142 39.6084 186 30L185 30L184 30L180 32L177 27L174 30L168 25z"
     id="path88" />
  <path
     style="fill:#626262; stroke:none;"
     d="M55 26L56 27L55 26z"
     id="path90" />
  <path
     style="fill:#a7a7a7; stroke:none;"
     d="M53 27L54 28L53 27M196 27L197 28L196 27z"
     id="path92" />
  <path
     style="fill:#989898; stroke:none;"
     d="M52 28L53 29L52 28z"
     id="path94" />
  <path
     style="fill:#656565; stroke:none;"
     d="M51 29L52 30L51 29z"
     id="path96" />
  <path
     style="fill:#673534; stroke:none;"
     d="M186.667 31.3333L187.333 31.6667L186.667 31.3333z"
     id="path98" />
  <path
     style="fill:#a4a4a4; stroke:none;"
     d="M201 31L202 32L201 31z"
     id="path100" />
  <path
     style="fill:#909190; stroke:none;"
     d="M47 32L48 33L47 32z"
     id="path102" />
  <path
     style="fill:#8f908f; stroke:none;"
     d="M202 32L203 33L202 32z"
     id="path104" />
  <path
     style="fill:#818181; stroke:none;"
     d="M203 33L204 34L203 33z"
     id="path106" />
  <path
     style="fill:#9d9d9d; stroke:none;"
     d="M45 34L46 35L45 34z"
     id="path108" />
  <path
     style="fill:#822a38; stroke:none;"
     d="M58 34L58 36L60 34L58 34z"
     id="path110" />
  <path
     style="fill:#767676; stroke:none;"
     d="M204 34L205 35L204 34z"
     id="path112" />
  <path
     style="fill:#a2a2a2; stroke:none;"
     d="M44 35L45 36L44 35z"
     id="path114" />
  <path
     style="fill:#a4a4a4; stroke:none;"
     d="M43 36L44 37L43 36z"
     id="path116" />
  <path
     style="fill:#636363; stroke:none;"
     d="M42 37L43 38L42 37z"
     id="path118" />
  <path
     style="fill:#7a7a7a; stroke:none;"
     d="M208 37L208 38L211 38L208 37z"
     id="path120" />
  <path
     style="fill:#8d8e8d; stroke:none;"
     d="M41 38L42 39L41 38z"
     id="path122" />
  <path
     style="fill:#8b8b8b; stroke:none;"
     d="M211 38L212 39L211 38z"
     id="path124" />
  <path
     style="fill:#878787; stroke:none;"
     d="M40 39L41 40L40 39z"
     id="path126" />
  <path
     style="fill:#7c7c7c; stroke:none;"
     d="M39 40L40 41L39 40z"
     id="path128" />
  <path
     style="fill:#5d5d5d; stroke:none;"
     d="M213.333 40.6667L213.667 41.3333L213.333 40.6667z"
     id="path130" />
  <path
     style="fill:#909090; stroke:none;"
     d="M37 42L38 43L37 42z"
     id="path132" />
  <path
     style="fill:#595757; stroke:none;"
     d="M36 44L37 45L36 44z"
     id="path134" />
  <path
     style="fill:#c82044; stroke:none;"
     d="M70 226L71 226L72 226L74 224L74 223L74 222L70 221C69.1456 217.013 65.5105 218 62 218L66 210C59.1695 209.945 60.1119 205.499 56 202L58 192L51 192L53 186L48 185L48 184L52 184L52 181L46 182L55 171L48 170L54 167L54 163L64 160L64 159L57 160L57 159L63 157C60.9772 154.811 39.6929 141.324 56 141L55 135C59.2686 133.579 59.0033 120.709 55.436 118.082C53.171 116.414 49.121 119.075 47 120L51 116L48 113L50 111L42 106L50 108L48 104L54 105L56 96L53 90L59 91L52 69L56 56L55 56L52 59L55 47L54 44L52 46L51 46C44.5475 42.119 38.908 53.1965 35.9892 57.8341C26.3328 73.1772 15.8313 90.424 14.1042 109C11.214 140.085 17.3953 173.668 38.4275 197.816C47.9209 208.715 60.1187 215.973 70 226z"
     id="path136" />
  <path
     style="fill:#6b6b6b; stroke:none;"
     d="M34 46L35 47L34 46z"
     id="path138" />
  <path
     style="fill:#7a7a7a; stroke:none;"
     d="M217 46L218 47L217 46z"
     id="path140" />
  <path
     style="fill:#959595; stroke:none;"
     d="M33 47L34 48L33 47z"
     id="path142" />
  <path
     style="fill:#731d20; stroke:none;"
     d="M132 47L132 48L137 51L138 51L138 47L132 47z"
     id="path144" />
  <path
     style="fill:#6b6b6b; stroke:none;"
     d="M32 48L33 49L32 48z"
     id="path146" />
  <path
     style="fill:#020100; stroke:none;"
     d="M110 71L112 74L105 79C103.609 93.8643 85.6405 106.512 84.794 122C84.124 134.258 93.7013 132.93 102 133.053C116.503 133.269 133.105 130.324 147 134L153 132C146.253 147.091 137.293 161.345 128.957 175.576C123.164 185.466 116.738 193.239 115 205C125.276 204.445 124.952 198.814 130.724 192.704C135.255 187.909 140.353 185.454 140 178C150.781 172.425 155.441 154.446 161.155 144.424C163.291 140.679 166.951 135.118 167.207 130.715C167.407 127.27 165.115 123.644 165 120L99 121C105.829 105.715 114.339 91.1606 123.242 77C128.852 68.0779 135.812 58.7935 137 48C124.284 48.3068 118.544 63.2218 110 71z"
     id="path148" />
  <path
     style="fill:#8a8a8a; stroke:none;"
     d="M31 49L32 50L31 49z"
     id="path150" />
  <path
     style="fill:#8f8f8f; stroke:none;"
     d="M30 50L31 51L30 50z"
     id="path152" />
  <path
     style="fill:#714542; stroke:none;"
     d="M126 50L126 51L129 51L126 50z"
     id="path154" />
  <path
     style="fill:#a1a1a1; stroke:none;"
     d="M29 51L30 52L29 51z"
     id="path156" />
  <path
     style="fill:#707070; stroke:none;"
     d="M222 52L223 53L222 52z"
     id="path158" />
  <path
     style="fill:#8b1724; stroke:none;"
     d="M123.333 53.6667L123.667 54.3333L123.333 53.6667z"
     id="path160" />
  <path
     style="fill:#999999; stroke:none;"
     d="M223 53L224 54L223 53z"
     id="path162" />
  <path
     style="fill:#828282; stroke:none;"
     d="M27 54L28 55L27 54z"
     id="path164" />
  <path
     style="fill:#64151b; stroke:none;"
     d="M134.333 54.6667L134.667 55.3333L134.333 54.6667z"
     id="path166" />
  <path
     style="fill:#842e37; stroke:none;"
     d="M123.333 56.6667L123.667 57.3333L123.333 56.6667z"
     id="path168" />
  <path
     style="fill:#888888; stroke:none;"
     d="M25 57L26 58L25 57z"
     id="path170" />
  <path
     style="fill:#a0a0a0; stroke:none;"
     d="M226 57L227 58L226 57z"
     id="path172" />
  <path
     style="fill:#969696; stroke:none;"
     d="M24 58L25 59L24 58z"
     id="path174" />
  <path
     style="fill:#755651; stroke:none;"
     d="M133 58L133 62L134 62L133 58z"
     id="path176" />
  <path
     style="fill:#912934; stroke:none;"
     d="M120.667 59.3333L121.333 59.6667L120.667 59.3333z"
     id="path178" />
  <path
     style="fill:#828282; stroke:none;"
     d="M227 59L228 60L227 59z"
     id="path180" />
  <path
     style="fill:#aaaaaa; stroke:none;"
     d="M23 60L24 61L23 60z"
     id="path182" />
  <path
     style="fill:#93434c; stroke:none;"
     d="M118 60L118 62L120 62L120 60L118 60z"
     id="path184" />
  <path
     style="fill:#7c7c7c; stroke:none;"
     d="M22 62L23 63L22 62z"
     id="path186" />
  <path
     style="fill:#a4a4a4; stroke:none;"
     d="M21 63L22 64L21 63z"
     id="path188" />
  <path
     style="fill:#353535; stroke:none;"
     d="M230.333 64.6667L230.667 65.3333L230.333 64.6667z"
     id="path190" />
  <path
     style="fill:#6a6a6a; stroke:none;"
     d="M231 66L232 67L231 66z"
     id="path192" />
  <path
     style="fill:#747474; stroke:none;"
     d="M19 67L20 68L19 67z"
     id="path194" />
  <path
     style="fill:#919191; stroke:none;"
     d="M234 71L235 72L234 71z"
     id="path196" />
  <path
     style="fill:#8e8e8d; stroke:none;"
     d="M16 73L17 74L16 73z"
     id="path198" />
  <path
     style="fill:#754e53; stroke:none;"
     d="M110 73L110 75L112 73L110 73z"
     id="path200" />
  <path
     style="fill:#878787; stroke:none;"
     d="M235 73L236 74L235 73z"
     id="path202" />
  <path
     style="fill:#7b3a40; stroke:none;"
     d="M108.333 76.6667L108.667 77.3333L108.333 76.6667z"
     id="path204" />
  <path
     style="fill:#8d8d8d; stroke:none;"
     d="M14 77L15 78L14 77z"
     id="path206" />
  <path
     style="fill:#7c7c7c; stroke:none;"
     d="M237 77L238 78L237 77z"
     id="path208" />
  <path
     style="fill:#7b7b7b; stroke:none;"
     d="M13.3333 79.6667L13.6667 80.3333L13.3333 79.6667z"
     id="path210" />
  <path
     style="fill:#6b6b6b; stroke:none;"
     d="M238 79L239 80L238 79z"
     id="path212" />
  <path
     style="fill:#90222d; stroke:none;"
     d="M229.333 80.6667L229.667 81.3333L229.333 80.6667z"
     id="path214" />
  <path
     style="fill:#5d5d5d; stroke:none;"
     d="M239.333 81.6667L239.667 82.3333L239.333 81.6667z"
     id="path216" />
  <path
     style="fill:#626262; stroke:none;"
     d="M12.3333 82.6667L12.6667 83.3333L12.3333 82.6667z"
     id="path218" />
  <path
     style="fill:#824449; stroke:none;"
     d="M104.333 82.6667L104.667 83.3333L104.333 82.6667z"
     id="path220" />
  <path
     style="fill:#894246; stroke:none;"
     d="M102 84L102 86L104 84L102 84z"
     id="path222" />
  <path
     style="fill:#656565; stroke:none;"
     d="M240 84L241 85L240 84z"
     id="path224" />
  <path
     style="fill:#737373; stroke:none;"
     d="M11 85L12 86L11 85z"
     id="path226" />
  <path
     style="fill:#c8c8c8; stroke:none;"
     d="M241 85L241 88L242 88L241 85z"
     id="path228" />
  <path
     style="fill:#707070; stroke:none;"
     d="M10.3333 87.6667L10.6667 88.3333L10.3333 87.6667z"
     id="path230" />
  <path
     style="fill:#742226; stroke:none;"
     d="M99 89L99 92L100 92L99 89z"
     id="path232" />
  <path
     style="fill:#404040; stroke:none;"
     d="M9.33333 90.6667L9.66667 91.3333L9.33333 90.6667z"
     id="path234" />
  <path
     style="fill:#842835; stroke:none;"
     d="M233.333 90.6667L233.667 91.3333L233.333 90.6667z"
     id="path236" />
  <path
     style="fill:#5f5f5f; stroke:none;"
     d="M242.333 90.6667L242.667 91.3333L242.333 90.6667z"
     id="path238" />
  <path
     style="fill:#d9d9d9; stroke:none;"
     d="M8 92L8 96L9 96L8 92M244 96L244 100L245 100L244 96z"
     id="path240" />
  <path
     style="fill:#949494; stroke:none;"
     d="M6.33333 100.667L6.66667 101.333L6.33333 100.667z"
     id="path242" />
  <path
     style="fill:#6c2128; stroke:none;"
     d="M108.333 100.667L108.667 101.333L108.333 100.667z"
     id="path244" />
  <path
     style="fill:#424242; stroke:none;"
     d="M244.333 100.667L244.667 101.333L244.333 100.667z"
     id="path246" />
  <path
     style="fill:#6c504c; stroke:none;"
     d="M236 101L236 106L237 106L236 101z"
     id="path248" />
  <path
     style="fill:#753e41; stroke:none;"
     d="M107 103L107 106L108 106L107 103z"
     id="path250" />
  <path
     style="fill:#a2a2a2; stroke:none;"
     d="M245.333 103.667L245.667 104.333L245.333 103.667z"
     id="path252" />
  <path
     style="fill:#c8c8c7; stroke:none;"
     d="M5 104L5 109L6 109L5 104z"
     id="path254" />
  <path
     style="fill:#696969; stroke:none;"
     d="M245 105L245 108L246 108L245 105z"
     id="path256" />
  <path
     style="fill:#8c162c; stroke:none;"
     d="M91.3333 106.667L91.6667 107.333L91.3333 106.667z"
     id="path258" />
  <path
     style="fill:#832932; stroke:none;"
     d="M104.333 108.667L104.667 109.333L104.333 108.667z"
     id="path260" />
  <path
     style="fill:#939393; stroke:none;"
     d="M246 108L246 113L247 113L246 108z"
     id="path262" />
  <path
     style="fill:#838383; stroke:none;"
     d="M5 109L5 115L6 115L5 109z"
     id="path264" />
  <path
     style="fill:#61363d; stroke:none;"
     d="M13 112L13 138L14 138L13 112z"
     id="path266" />
  <path
     style="fill:#323232; stroke:none;"
     d="M246 113L246 121L247 121L246 113z"
     id="path268" />
  <path
     style="fill:#805358; stroke:none;"
     d="M238 114L238 139L239 139L238 114z"
     id="path270" />
  <path
     style="fill:#575757; stroke:none;"
     d="M5 115L5 124L6 124L5 115z"
     id="path272" />
  <path
     style="fill:#523c2f; stroke:none;"
     d="M124 120L128 119L124 120z"
     id="path274" />
  <path
     style="fill:#9c5054; stroke:none;"
     d="M128 118L128 119L132 119L128 118z"
     id="path276" />
  <path
     style="fill:#6e4941; stroke:none;"
     d="M156 118L156 119L160 119L156 118z"
     id="path278" />
  <path
     style="fill:#4d2d30; stroke:none;"
     d="M99 119L105 121L105 120L99 119z"
     id="path280" />
  <path
     style="fill:#8e0e1d; stroke:none;"
     d="M105.667 119.333L106.333 119.667L105.667 119.333z"
     id="path282" />
  <path
     style="fill:#6d0311; stroke:none;"
     d="M136 119L136 120L140 120L136 119z"
     id="path284" />
  <path
     style="fill:#7b0c15; stroke:none;"
     d="M143.667 119.333L144.333 119.667L143.667 119.333z"
     id="path286" />
  <path
     style="fill:#982333; stroke:none;"
     d="M150 119L150 120L156 120L150 119z"
     id="path288" />
  <path
     style="fill:#3f1918; stroke:none;"
     d="M109 120L109 121L116 122L109 120z"
     id="path290" />
  <path
     style="fill:#543c3a; stroke:none;"
     d="M116 120L116 121L119 121L116 120z"
     id="path292" />
  <path
     style="fill:#975561; stroke:none;"
     d="M165 120L165 127L166 127L165 120z"
     id="path294" />
  <path
     style="fill:#844f4b; stroke:none;"
     d="M86 126L86 130L87 130L86 126z"
     id="path296" />
  <path
     style="fill:#4e4e4e; stroke:none;"
     d="M246 129L246 140L247 140L246 129z"
     id="path298" />
  <path
     style="fill:#4a4a4a; stroke:none;"
     d="M5 132L5 140L6 140L5 132z"
     id="path300" />
  <path
     style="fill:#845658; stroke:none;"
     d="M87 132L91 134L91 133L87 132z"
     id="path302" />
  <path
     style="fill:#8d303b; stroke:none;"
     d="M127 132L127 133L131 133L127 132z"
     id="path304" />
  <path
     style="fill:#8d3c43; stroke:none;"
     d="M133 132L133 133L137 134L133 132z"
     id="path306" />
  <path
     style="fill:#8e2937; stroke:none;"
     d="M139 134L143 133L139 134z"
     id="path308" />
  <path
     style="fill:#80142b; stroke:none;"
     d="M147 132L147 133L153 134L147 132z"
     id="path310" />
  <path
     style="fill:#543b36; stroke:none;"
     d="M96 133L96 134L102 134L96 133z"
     id="path312" />
  <path
     style="fill:#a25a65; stroke:none;"
     d="M102 133L102 134L107 134L102 133z"
     id="path314" />
  <path
     style="fill:#845c5c; stroke:none;"
     d="M109 133L109 134L112 134L109 133z"
     id="path316" />
  <path
     style="fill:#915765; stroke:none;"
     d="M114 133L114 134L120 134L114 133z"
     id="path318" />
  <path
     style="fill:#8c5656; stroke:none;"
     d="M165 134L165 138L166 138L165 134z"
     id="path320" />
  <path
     style="fill:#bebebe; stroke:none;"
     d="M5 140L5 144L6 144L5 140z"
     id="path322" />
  <path
     style="fill:#aaaaaa; stroke:none;"
     d="M246 140L246 144L247 144L246 140z"
     id="path324" />
  <path
     style="fill:#96162d; stroke:none;"
     d="M147.333 142.667L147.667 143.333L147.333 142.667z"
     id="path326" />
  <path
     style="fill:#5e0b13; stroke:none;"
     d="M237 142L237 146L238 146L237 142z"
     id="path328" />
  <path
     style="fill:#672a3a; stroke:none;"
     d="M15 144L15 150L16 150L15 144z"
     id="path330" />
  <path
     style="fill:#932629; stroke:none;"
     d="M160 144L160 147L161 147L160 144z"
     id="path332" />
  <path
     style="fill:#d2d2d2; stroke:none;"
     d="M246 144L246 148L247 148L246 144z"
     id="path334" />
  <path
     style="fill:#696969; stroke:none;"
     d="M6.33333 145.667L6.66667 146.333L6.33333 145.667z"
     id="path336" />
  <path
     style="fill:#4f322e; stroke:none;"
     d="M236 146L236 150L237 150L236 146z"
     id="path338" />
  <path
     style="fill:#a5a5a5; stroke:none;"
     d="M6 147L6 150L7 150L6 147z"
     id="path340" />
  <path
     style="fill:#6a6a6a; stroke:none;"
     d="M245 149L245 152L246 152L245 149z"
     id="path342" />
  <path
     style="fill:#4e1214; stroke:none;"
     d="M157 150L156 154L157 154L157 150z"
     id="path344" />
  <path
     style="fill:#84454d; stroke:none;"
     d="M234.333 154.667L234.667 155.333L234.333 154.667z"
     id="path346" />
  <path
     style="fill:#67141e; stroke:none;"
     d="M154 156L154 159L155 159L154 156z"
     id="path348" />
  <path
     style="fill:#d8d8d8; stroke:none;"
     d="M243 156L243 161L244 161L243 156z"
     id="path350" />
  <path
     style="fill:#c3c3c3; stroke:none;"
     d="M8.33333 158.667L8.66667 159.333L8.33333 158.667z"
     id="path352" />
  <path
     style="fill:#979797; stroke:none;"
     d="M9.33333 161.667L9.66667 162.333L9.33333 161.667z"
     id="path354" />
  <path
     style="fill:#949494; stroke:none;"
     d="M242 162L243 163L242 162z"
     id="path356" />
  <path
     style="fill:#731821; stroke:none;"
     d="M150.667 164.333L151.333 164.667L150.667 164.333z"
     id="path358" />
  <path
     style="fill:#9d9d9d; stroke:none;"
     d="M10 165L10 168L11 168L10 165z"
     id="path360" />
  <path
     style="fill:#774d4e; stroke:none;"
     d="M230 166L230 169L231 169L230 166z"
     id="path362" />
  <path
     style="fill:#787878; stroke:none;"
     d="M240 167L241 168L240 167z"
     id="path364" />
  <path
     style="fill:#b4b4b4; stroke:none;"
     d="M239.333 169.667L239.667 170.333L239.333 169.667z"
     id="path366" />
  <path
     style="fill:#a7a7a7; stroke:none;"
     d="M12.3333 170.667L12.6667 171.333L12.3333 170.667z"
     id="path368" />
  <path
     style="fill:#787a78; stroke:none;"
     d="M238 171L238 174L239 174L238 171z"
     id="path370" />
  <path
     style="fill:#7f7f7f; stroke:none;"
     d="M13 173L14 174L13 173z"
     id="path372" />
  <path
     style="fill:#878787; stroke:none;"
     d="M14 175L15 176L14 175z"
     id="path374" />
  <path
     style="fill:#969596; stroke:none;"
     d="M237 175L238 176L237 175z"
     id="path376" />
  <path
     style="fill:#5d5d5d; stroke:none;"
     d="M15 176L16 177L15 176z"
     id="path378" />
  <path
     style="fill:#602b31; stroke:none;"
     d="M25.3333 176.667L25.6667 177.333L25.3333 176.667z"
     id="path380" />
  <path
     style="fill:#894341; stroke:none;"
     d="M126 178L126 180L128 178L126 178z"
     id="path382" />
  <path
     style="fill:#6d0e24; stroke:none;"
     d="M140.333 178.667L140.667 179.333L140.333 178.667z"
     id="path384" />
  <path
     style="fill:#4a3429; stroke:none;"
     d="M141 180L140 182L142 182L141 180z"
     id="path386" />
  <path
     style="fill:#c5c7c5; stroke:none;"
     d="M18.3333 183.667L18.6667 184.333L18.3333 183.667z"
     id="path388" />
  <path
     style="fill:#666766; stroke:none;"
     d="M233 183L234 184L233 183z"
     id="path390" />
  <path
     style="fill:#6b2326; stroke:none;"
     d="M138 184L138 187L139 187L138 184z"
     id="path392" />
  <path
     style="fill:#737373; stroke:none;"
     d="M232 185L233 186L232 185z"
     id="path394" />
  <path
     style="fill:#848484; stroke:none;"
     d="M20 186L21 187L20 186z"
     id="path396" />
  <path
     style="fill:#5e3231; stroke:none;"
     d="M220.333 186.667L220.667 187.333L220.333 186.667z"
     id="path398" />
  <path
     style="fill:#5f5f5f; stroke:none;"
     d="M21 188L22 189L21 188z"
     id="path400" />
  <path
     style="fill:#737373; stroke:none;"
     d="M230 188L231 189L230 188z"
     id="path402" />
  <path
     style="fill:#777777; stroke:none;"
     d="M22 189L23 190L22 189z"
     id="path404" />
  <path
     style="fill:#864b4f; stroke:none;"
     d="M118.333 190.667L118.667 191.333L118.333 190.667z"
     id="path406" />
  <path
     style="fill:#632635; stroke:none;"
     d="M132 190L129 193L129 194L134 190L132 190z"
     id="path408" />
  <path
     style="fill:#7f7f7f; stroke:none;"
     d="M229 190L230 191L229 190z"
     id="path410" />
  <path
     style="fill:#6d5450; stroke:none;"
     d="M118.333 193.667L118.667 194.333L118.333 193.667z"
     id="path412" />
  <path
     style="fill:#7f182b; stroke:none;"
     d="M128 194L128 197L129 197L128 194z"
     id="path414" />
  <path
     style="fill:#8b8b8b; stroke:none;"
     d="M226 195L227 196L226 195z"
     id="path416" />
  <path
     style="fill:#828282; stroke:none;"
     d="M224 198L225 199L224 198z"
     id="path418" />
  <path
     style="fill:#7f7f7f; stroke:none;"
     d="M223 199L224 200L223 199z"
     id="path420" />
  <path
     style="fill:#7e7e7e; stroke:none;"
     d="M29 200L30 201L29 200z"
     id="path422" />
  <path
     style="fill:#5f050e; stroke:none;"
     d="M115.333 200.667L115.667 201.333L115.333 200.667z"
     id="path424" />
  <path
     style="fill:#5c5c5c; stroke:none;"
     d="M30 201L31 202L30 201z"
     id="path426" />
  <path
     style="fill:#a3a2a2; stroke:none;"
     d="M222 201L223 202L222 201z"
     id="path428" />
  <path
     style="fill:#575757; stroke:none;"
     d="M31 202L32 203L31 202z"
     id="path430" />
  <path
     style="fill:#423026; stroke:none;"
     d="M114 202L116 206L114 202z"
     id="path432" />
  <path
     style="fill:#5d1f2a; stroke:none;"
     d="M45.3333 204.667L45.6667 205.333L45.3333 204.667z"
     id="path434" />
  <path
     style="fill:#7d7d7d; stroke:none;"
     d="M219 204L220 205L219 204z"
     id="path436" />
  <path
     style="fill:#7e4b4a; stroke:none;"
     d="M116 205L116 206L120 206L116 205z"
     id="path438" />
  <path
     style="fill:#a6a6a6; stroke:none;"
     d="M218 205L219 206L218 205z"
     id="path440" />
  <path
     style="fill:#777777; stroke:none;"
     d="M34 206L35 207L34 206z"
     id="path442" />
  <path
     style="fill:#6a6a6a; stroke:none;"
     d="M217 206L218 207L217 206z"
     id="path444" />
  <path
     style="fill:#424242; stroke:none;"
     d="M35.3333 207.667L35.6667 208.333L35.3333 207.667z"
     id="path446" />
  <path
     style="fill:#606060; stroke:none;"
     d="M216 207L217 208L216 207z"
     id="path448" />
  <path
     style="fill:#555555; stroke:none;"
     d="M215 208L216 209L215 208z"
     id="path450" />
  <path
     style="fill:#9c9c9c; stroke:none;"
     d="M38.3333 211.667L38.6667 212.333L38.3333 211.667z"
     id="path452" />
  <path
     style="fill:#8a8a8a; stroke:none;"
     d="M212 212L213 213L212 212z"
     id="path454" />
  <path
     style="fill:#656565; stroke:none;"
     d="M39 213L40 214L39 213z"
     id="path456" />
  <path
     style="fill:#979797; stroke:none;"
     d="M211 213L212 214L211 213z"
     id="path458" />
  <path
     style="fill:#8c8c8c; stroke:none;"
     d="M40 214L41 215L40 214z"
     id="path460" />
  <path
     style="fill:#939393; stroke:none;"
     d="M210 214L211 215L210 214z"
     id="path462" />
  <path
     style="fill:#a6a6a6; stroke:none;"
     d="M41 215L41 216L44 216L41 215z"
     id="path464" />
  <path
     style="fill:#9c9c9c; stroke:none;"
     d="M209 215L210 216L209 215z"
     id="path466" />
  <path
     style="fill:#a4a4a4; stroke:none;"
     d="M208 216L209 217L208 216z"
     id="path468" />
  <path
     style="fill:#626262; stroke:none;"
     d="M46 217L47 218L46 217z"
     id="path470" />
  <path
     style="fill:#aaaaaa; stroke:none;"
     d="M207 217L208 218L207 217z"
     id="path472" />
  <path
     style="fill:#868686; stroke:none;"
     d="M47 218L48 219L47 218z"
     id="path474" />
  <path
     style="fill:#818181; stroke:none;"
     d="M48 219L49 220L48 219z"
     id="path476" />
  <path
     style="fill:#6e6e6e; stroke:none;"
     d="M53 223L54 224L53 223z"
     id="path478" />
  <path
     style="fill:#6a1826; stroke:none;"
     d="M66.6667 223.333L67.3333 223.667L66.6667 223.333z"
     id="path480" />
  <path
     style="fill:#7c0e1b; stroke:none;"
     d="M184.667 223.333L185.333 223.667L184.667 223.333z"
     id="path482" />
  <path
     style="fill:#a2a2a2; stroke:none;"
     d="M54 224L55 225L54 224z"
     id="path484" />
  <path
     style="fill:#9c9c9c; stroke:none;"
     d="M57 226L58 227L57 226z"
     id="path486" />
  <path
     style="fill:#622b2e; stroke:none;"
     d="M178.667 226.333L179.333 226.667L178.667 226.333z"
     id="path488" />
  <path
     style="fill:#727272; stroke:none;"
     d="M196 226L197 227L196 226z"
     id="path490" />
  <path
     style="fill:#8b8b8b; stroke:none;"
     d="M195 227L196 228L195 227z"
     id="path492" />
  <path
     style="fill:#8a223b; stroke:none;"
     d="M77 228L80 230L77 228z"
     id="path494" />
  <path
     style="fill:#603235; stroke:none;"
     d="M174.667 228.333L175.333 228.667L174.667 228.333z"
     id="path496" />
  <path
     style="fill:#666666; stroke:none;"
     d="M193 228L194 229L193 228z"
     id="path498" />
  <path
     style="fill:#989898; stroke:none;"
     d="M62 229L63 230L62 229z"
     id="path500" />
  <path
     style="fill:#666666; stroke:none;"
     d="M190 230L191 231L190 230z"
     id="path502" />
  <path
     style="fill:#8b8b8b; stroke:none;"
     d="M65 231L66 232L65 231z"
     id="path504" />
  <path
     style="fill:#580716; stroke:none;"
     d="M82.6667 231.333L83.3333 231.667L82.6667 231.333z"
     id="path506" />
  <path
     style="fill:#8b8b8b; stroke:none;"
     d="M66 232L67 233L66 232z"
     id="path508" />
  <path
     style="fill:#919292; stroke:none;"
     d="M187 232L188 233L187 232z"
     id="path510" />
  <path
     style="fill:#5f5f5f; stroke:none;"
     d="M68 233L69 234L68 233z"
     id="path512" />
  <path
     style="fill:#696969; stroke:none;"
     d="M185 233L186 234L185 233z"
     id="path514" />
  <path
     style="fill:#868586; stroke:none;"
     d="M70 234L71 235L70 234z"
     id="path516" />
  <path
     style="fill:#878787; stroke:none;"
     d="M183 234L184 235L183 234z"
     id="path518" />
  <path
     style="fill:#737473; stroke:none;"
     d="M72 235L73 236L72 235z"
     id="path520" />
  <path
     style="fill:#6d6d6d; stroke:none;"
     d="M74.6667 236.333L75.3333 236.667L74.6667 236.333z"
     id="path522" />
  <path
     style="fill:#6c3f44; stroke:none;"
     d="M98 236L98 237L102 237L98 236z"
     id="path524" />
  <path
     style="fill:#472929; stroke:none;"
     d="M150 236L150 237L154 237L150 236z"
     id="path526" />
  <path
     style="fill:#666666; stroke:none;"
     d="M77 237L78 238L77 237z"
     id="path528" />
  <path
     style="fill:#545454; stroke:none;"
     d="M79.6667 238.333L80.3333 238.667L79.6667 238.333z"
     id="path530" />
  <path
     style="fill:#8c454d; stroke:none;"
     d="M134 238L134 239L144 239L134 238z"
     id="path532" />
  <path
     style="fill:#969597; stroke:none;"
     d="M173.667 238.333L174.333 238.667L173.667 238.333z"
     id="path534" />
  <path
     style="fill:#636363; stroke:none;"
     d="M82 239L83 240L82 239z"
     id="path536" />
  <path
     style="fill:#626262; stroke:none;"
     d="M85 240L86 241L85 240z"
     id="path538" />
  <path
     style="fill:#989898; stroke:none;"
     d="M86.6667 241.333L87.3333 241.667L86.6667 241.333z"
     id="path540" />
  <path
     style="fill:#bababa; stroke:none;"
     d="M166.667 241.333L167.333 241.667L166.667 241.333z"
     id="path542" />
  <path
     style="fill:#545454; stroke:none;"
     d="M89 242L89 243L92 243L89 242z"
     id="path544" />
  <path
     style="fill:#828282; stroke:none;"
     d="M164 242L165 243L164 242z"
     id="path546" />
  <path
     style="fill:#767676; stroke:none;"
     d="M93 243L94 244L93 243z"
     id="path548" />
  <path
     style="fill:#a1a1a1; stroke:none;"
     d="M155.667 244.333L156.333 244.667L155.667 244.333z"
     id="path550" />
  <path
     style="fill:#bcbcbc; stroke:none;"
     d="M96.6667 245.333L97.3333 245.667L96.6667 245.333z"
     id="path552" />
  <path
     style="fill:#c9c9c9; stroke:none;"
     d="M152.667 245.333L153.333 245.667L152.667 245.333z"
     id="path554" />
  <path
     style="fill:#747474; stroke:none;"
     d="M100 246L100 247L104 247L100 246z"
     id="path556" />
  <path
     style="fill:#757575; stroke:none;"
     d="M107 246L107 247L111 247L107 246z"
     id="path558" />
  <path
     style="fill:#5d5d5d; stroke:none;"
     d="M144 246L144 247L151 247L144 246z"
     id="path560" />
  <path
     style="fill:#b9b9b9; stroke:none;"
     d="M104 247L104 248L107 248L104 247z"
     id="path562" />
  <path
     style="fill:#8a8a8a; stroke:none;"
     d="M113 247L113 248L117 248L113 247z"
     id="path564" />
  <path
     style="fill:#3d3d3d; stroke:none;"
     d="M119.667 247.333L120.333 247.667L119.667 247.333z"
     id="path566" />
  <path
     style="fill:#626262; stroke:none;"
     d="M122 247L122 248L130 248L122 247M131 247L131 248L139 248L131 247z"
     id="path568" />
  <path
     style="fill:#b4b4b4; stroke:none;"
     d="M139.667 247.333L140.333 247.667L139.667 247.333z"
     id="path570" />
</svg>
