<?xml version="1.0" standalone="yes"?>
<svg width="252" height="252">

<path style="fill:#a4a2a3; stroke:none;" d="M108 5L108 6L113 6L108 5z"/>
<path style="fill:#5f5f5f; stroke:none;" d="M113 5L113 6L121 6L113 5z"/>
<path style="fill:#010101; stroke:none;" d="M121 5.70988C105.757 5.93629 92.0801 8.41336 78 14.4213C1.98332 46.8574 -20.2498 152.51 38.7045 212.156C49.5031 223.081 64.8015 232.32 79 238C92.4731 243.389 105.261 247.971 120 247.59C149.201 246.833 176.041 242.327 200 224.101C255.396 181.959 264.411 89.6176 212.981 40.2446C187.774 16.0449 155.066 5.2039 121 5.70988z"/>
<path style="fill:#626262; stroke:none;" d="M122 5L122 6L130 6L122 5z"/>
<path style="fill:#5c5c5c; stroke:none;" d="M131.667 5.33333L132.333 5.66667L131.667 5.33333z"/>
<path style="fill:#898989; stroke:none;" d="M134 5L134 6L139 6L134 5z"/>
<path style="fill:#a5a4a4; stroke:none;" d="M145 5L145 6L148 6L145 5z"/>
<path style="fill:#adadad; stroke:none;" d="M100.667 6.33333L101.333 6.66667L100.667 6.33333z"/>
<path style="fill:#696969; stroke:none;" d="M102.667 6.33333L103.333 6.66667L102.667 6.33333z"/>
<path style="fill:#545454; stroke:none;" d="M142 6L142 7L145 7L142 6z"/>
<path style="fill:#959595; stroke:none;" d="M150.667 6.33333L151.333 6.66667L150.667 6.33333z"/>
<path style="fill:#979797; stroke:none;" d="M98.6667 7.33333L99.3333 7.66667L98.6667 7.33333z"/>
<path style="fill:#737373; stroke:none;" d="M94 8L94 9L97 9L94 8z"/>
<path style="fill:#848484; stroke:none;" d="M156 8L157 9L156 8z"/>
<path style="fill:#464646; stroke:none;" d="M89.6667 9.33333L90.3333 9.66667L89.6667 9.33333z"/>
<path style="fill:#7c7c7c; stroke:none;" d="M87 10L88 11L87 10z"/>
<path style="fill:#545454; stroke:none;" d="M160 10L160 11L163 11L160 10z"/>
<path style="fill:#7b7b7b; stroke:none;" d="M84 11L85 12L84 11z"/>
<path style="fill:#8e8e8e; stroke:none;" d="M165 11L166 12L165 11z"/>
<path style="fill:#838383; stroke:none;" d="M82 12L83 13L82 12z"/>
<path style="fill:#606060; stroke:none;" d="M166 12L167 13L166 12z"/>
<path style="fill:#858585; stroke:none;" d="M79.6667 13.3333L80.3333 13.6667L79.6667 13.3333z"/>
<path style="fill:#4d3b55; stroke:none;" d="M110 13L110 14L139 14L110 13z"/>
<path style="fill:#8e8e8e; stroke:none;" d="M77 14L78 15L77 14z"/>
<path style="fill:#7a2a8b; stroke:none;" d="M96 17L96 18L102 18L102 19L94 26L106 24L106 25L104 27L105 30L126.028 22.1111L136 21L137 24L145 24L144 29L143 29L143 26L137 26L137 37L138 37L138 32L150 34L146 39L152 42L165.999 53.6188L185 80L187 80C188.621 74.9525 190.683 73.2921 196 73L196 72L188 70L188 68L192 68L190 61L191 61L195 62L195 61L194 58C191.784 54.7722 193.364 52.5174 196 50L195 47C202.703 40.2403 179.842 26.3954 174.985 24.1998C151.459 13.5649 121.113 9.35248 96 17z"/>
<path style="fill:#6d6d6d; stroke:none;" d="M172 14L173 15L172 14z"/>
<path style="fill:#48314e; stroke:none;" d="M144 15L144 16L150 16L144 15z"/>
<path style="fill:#666666; stroke:none;" d="M174 15L175 16L174 15z"/>
<path style="fill:#6a6b6b; stroke:none;" d="M73 16L74 17L73 16z"/>
<path style="fill:#787a78; stroke:none;" d="M176.667 16.3333L177.333 16.6667L176.667 16.3333z"/>
<path style="fill:#898989; stroke:none;" d="M70 17L71 18L70 17z"/>
<path style="fill:#342c3b; stroke:none;" d="M94.6667 17.3333L95.3333 17.6667L94.6667 17.3333z"/>
<path style="fill:#737373; stroke:none;" d="M179 17L180 18L179 17z"/>
<path style="fill:#7a7a7a; stroke:none;" d="M68 18L69 19L68 18z"/>
<path style="fill:#ab1e60; stroke:none;" d="M58 36L65 32L66 32C66.1781 37.8709 68.1291 39.8219 74 40L76 48L84 39L88 40L88 30L96 28L94 23L102 19C90.8056 14.3027 64.2196 26.3107 58 36z"/>
<path style="fill:#bdbebe; stroke:none;" d="M181.667 18.3333L182.333 18.6667L181.667 18.3333z"/>
<path style="fill:#929292; stroke:none;" d="M64 20L65 21L64 20z"/>
<path style="fill:#8b8b8b; stroke:none;" d="M185 20L186 21L185 20z"/>
<path style="fill:#909090; stroke:none;" d="M62 21L63 22L62 21z"/>
<path style="fill:#944199; stroke:none;" d="M135 21L134 24C123.717 18.5125 117.217 27.5511 108 29C109.33 32.7943 112.286 33.218 116 34L116 35L110 34L108 36L107 48L112 53L117 51L116 60L120 60L120 72L124 72L124 78L128 82L122 80L128 84L131 88L130 83L134 84L135 79L135 78L135 77L133 75C136.946 74.254 143.05 74.455 144 70L143 70L136 73L133 71L133 70L136 69L133 67L142 62L142 61L140 58L150 60C146.282 52.8806 136.13 52.0008 129 52C128.355 49.6043 126.153 46.6736 126.657 44.1497C128.36 35.6367 146.902 42.9483 152 44L146 39L150 34L138 32L138 37L137 37L137 26L143 29L144 29L145 24L135 21z"/>
<path style="fill:#a72585; stroke:none;" d="M96 25L96 28L88 30L88 40L94 38L91 41L91 42L95 40L96 40L102 50L104 35L104 32C104.589 35.3885 107.218 31.652 108 30L105 30L104 27L104 25L106 25L96 25z"/>
<path style="fill:#919191; stroke:none;" d="M191 24L192 25L191 24z"/>
<path style="fill:#8b8b8b; stroke:none;" d="M56 25L57 26L56 25z"/>
<path style="fill:#626262; stroke:none;" d="M55 26L56 27L55 26z"/>
<path style="fill:#a7a7a7; stroke:none;" d="M53 27L54 28L53 27M196 27L197 28L196 27z"/>
<path style="fill:#989898; stroke:none;" d="M52 28L53 29L52 28z"/>
<path style="fill:#656565; stroke:none;" d="M51 29L52 30L51 29z"/>
<path style="fill:#a4a4a4; stroke:none;" d="M201 31L202 32L201 31z"/>
<path style="fill:#909191; stroke:none;" d="M47 32L48 33L47 32z"/>
<path style="fill:#dd2026; stroke:none;" d="M65 32C61.8599 35.7704 57.8435 35.4764 54.054 38.2276C44.0751 45.4725 26.7129 64.0571 29 77L30 77C39.2275 67.6149 40.9936 86.5395 48 89L45 105L49 99L56 102L57 102C59.1093 99.4015 61.1739 100.881 64 102L63 97L73 96L74 102L80 100C85.6701 104.01 91.6994 105.343 94 97L88 88L70 82C69.8682 77.538 67.0358 74.0399 66.8349 69.8295C66.5388 63.6252 73.687 55.424 64 54L66 44L72 44L72 40C67.2779 38.7653 66.8775 36.0175 65 32z"/>
<path style="fill:#a93f97; stroke:none;" d="M102 32L104 35L102 50L96 40L95 40L96 44L96 46L94 46L94 47L97 48C95.341 50.8795 95.3984 54.2282 99 55C97.9983 58.7116 98.3201 60.5208 102 62L102 63L98 66L104 66C98.9806 74.9385 101.158 80.9477 105 90L112 94C120.093 91.8588 122.376 90.7883 128 85L122 80L128 82L124 78L124 72L120 72L120 60L116 60L117 51L112 53C111.423 49.5256 110.474 48.5765 107 48L108 36L110 34L116 35L116 34L104 32L102 32z"/>
<path style="fill:#8f9090; stroke:none;" d="M202 32L203 33L202 32z"/>
<path style="fill:#818181; stroke:none;" d="M203 33L204 34L203 33z"/>
<path style="fill:#9d9d9d; stroke:none;" d="M45 34L46 35L45 34z"/>
<path style="fill:#37328c; stroke:none;" d="M190 34C192.034 38.1675 198.122 42.377 195 47L196 50C192.983 51.743 190.638 55.5477 194 58L195 61L195 62L191 61L190 61L192 68L188 68L188 70L196 72L196 73C184.232 73.2854 186.821 83.3628 186.821 92C186.821 96.101 184.528 100.966 188 104L188 105L188 106L186 106L188 112L192 107L202 107L194 106C197.588 101.267 199.877 99.1471 206 100L206 96L207 96C209.876 102.162 215.774 107.385 222 110C222.837 104.608 219.575 101.097 224 97L220 94L221 90L208 89L215 79L204 84L208 80L207 72L210 68L217 70L221 66C216.053 54.2388 201.863 39.0155 190 34z"/>
<path style="fill:#767676; stroke:none;" d="M204 34L205 35L204 34z"/>
<path style="fill:#a2a2a2; stroke:none;" d="M44 35L45 36L44 35z"/>
<path style="fill:#a4a4a4; stroke:none;" d="M43 36L44 37L43 36z"/>
<path style="fill:#636363; stroke:none;" d="M42 37L43 38L42 37z"/>
<path style="fill:#7a7a7a; stroke:none;" d="M208 37L208 38L211 38L208 37z"/>
<path style="fill:#8d8e8d; stroke:none;" d="M41 38L42 39L41 38z"/>
<path style="fill:#c92588; stroke:none;" d="M84 39C80.6186 46.679 82.0157 46.2667 84 54L88 54C88.2495 58.8604 90.3242 68.303 96 69L96 79L102 82L104 66L98 66L102 63L102 62C98.8504 60.052 98.3914 58.6311 99 55L94 47L94 46L96 44L95 42L91 42L91 41L94 38L84 39z"/>
<path style="fill:#8b8b8b; stroke:none;" d="M211 38L212 39L211 38z"/>
<path style="fill:#878787; stroke:none;" d="M40 39L41 40L40 39z"/>
<path style="fill:#7c7c7c; stroke:none;" d="M39 40L40 41L39 40z"/>
<path style="fill:#d61b68; stroke:none;" d="M72 40L72 44L66 44L64 52L74 52L74 56C81.2188 57.8586 80.7935 61.8333 80 68L84 68C84.9284 74.9687 90.7609 82.9451 98 84L97 90L102 96L112 94L105 90C103.664 85.0618 100.934 80.7324 96 79L96 69C91.1608 69.1728 88.1052 57.9971 88 54L84 54L80 46L79 46L78 46L76 48L74 40L72 40z"/>
<path style="fill:#010000; stroke:none;" d="M127 149C132.653 155.809 151.645 157.102 155 147C169.814 145.775 173.883 132.91 183 124C182.201 118.26 183.99 110.274 188 106L188 105C183.889 97.6078 187.533 88.8928 185.525 81C181.705 65.9825 168.69 54.1129 156 46.4645C151.944 44.0199 126.766 35.0454 126.619 44.1883C126.513 50.7586 132.606 50.3408 137 51.9938C145.514 55.1967 154.609 59.348 160.87 66.0903C179.129 85.7533 178.042 115.709 157.91 133.741C148.32 142.331 138.844 145.304 127 149z"/>
<path style="fill:#472e4c; stroke:none;" d="M135 40L135 41L139 41L135 40z"/>
<path style="fill:#5d5d5d; stroke:none;" d="M213.333 40.6667L213.667 41.3333L213.333 40.6667z"/>
<path style="fill:#909090; stroke:none;" d="M37 42L38 43L37 42z"/>
<path style="fill:#804041; stroke:none;" d="M49 42L48 44L50 44L49 42z"/>
<path style="fill:#575757; stroke:none;" d="M36 44L37 45L36 44z"/>
<path style="fill:#4f3d53; stroke:none;" d="M126 45L126 48L127 48L126 45z"/>
<path style="fill:#6b6b6b; stroke:none;" d="M34 46L35 47L34 46z"/>
<path style="fill:#7a7a7a; stroke:none;" d="M217 46L218 47L217 46z"/>
<path style="fill:#959595; stroke:none;" d="M33 47L34 48L33 47z"/>
<path style="fill:#6b6b6b; stroke:none;" d="M32 48L33 49L32 48z"/>
<path style="fill:#6b1c1f; stroke:none;" d="M42 48L42 50L44 50L44 48L42 48z"/>
<path style="fill:#8a8a8a; stroke:none;" d="M31 49L32 50L31 49z"/>
<path style="fill:#8f8f8f; stroke:none;" d="M30 50L31 51L30 50z"/>
<path style="fill:#8a4245; stroke:none;" d="M41 50L40 52L42 52L41 50z"/>
<path style="fill:#2d1632; stroke:none;" d="M161 50L161 51L164 52L161 50z"/>
<path style="fill:#a1a1a1; stroke:none;" d="M29 51L30 52L29 51z"/>
<path style="fill:#684669; stroke:none;" d="M129 51L129 52L137 52L129 51z"/>
<path style="fill:#e41c4a; stroke:none;" d="M64 52L64 54C73.0259 56.3609 66.2525 63.5528 66.4691 69.8295C66.6137 74.0196 69.7152 77.6212 70 82L88 88L94 100C98.916 97.9352 105.484 92.397 97 90L98 84C91.0683 82.2153 85.5374 74.7797 84 68L80 68C81.3744 61.815 81.7424 57.1283 74 56L74 52L64 52z"/>
<path style="fill:#707070; stroke:none;" d="M222 52L223 53L222 52z"/>
<path style="fill:#999999; stroke:none;" d="M223 53L224 54L223 53z"/>
<path style="fill:#828282; stroke:none;" d="M27 54L28 55L27 54z"/>
<path style="fill:#873b3f; stroke:none;" d="M36 56L36 58L38 58L38 56L36 56z"/>
<path style="fill:#888888; stroke:none;" d="M25 57L26 58L25 57z"/>
<path style="fill:#3e293c; stroke:none;" d="M148.667 57.3333L149.333 57.6667L148.667 57.3333z"/>
<path style="fill:#a0a0a0; stroke:none;" d="M226 57L227 58L226 57z"/>
<path style="fill:#969696; stroke:none;" d="M24 58L25 59L24 58z"/>
<path style="fill:#7c3d98; stroke:none;" d="M140 58L142 61L142 62L133 67L136 69L133 70L133 71L136 73L143 70L144 70L133 75L135 77L135 78L135 79L134 84L130 83L131 88L125 86L122 93C125.449 97.2402 125.395 99.6084 121 103L120 113L120 114L125 122C130.146 124.688 131.589 126.762 137 123L137 125L143 124L140 122L140 121L150 116C151.122 111.643 153.643 109.122 158 108C159.311 98.6498 169.726 102.188 173.103 95.4282C179.513 82.594 160.687 61.7049 150 58L140 58z"/>
<path style="fill:#828282; stroke:none;" d="M227 59L228 60L227 59z"/>
<path style="fill:#aaaaaa; stroke:none;" d="M23 60L24 61L23 60z"/>
<path style="fill:#7c7c7c; stroke:none;" d="M22 62L23 63L22 62z"/>
<path style="fill:#8e3f44; stroke:none;" d="M33 62L32 64L34 64L33 62z"/>
<path style="fill:#a4a4a4; stroke:none;" d="M21 63L22 64L21 63z"/>
<path style="fill:#353535; stroke:none;" d="M230.333 64.6667L230.667 65.3333L230.333 64.6667z"/>
<path style="fill:#4f3b94; stroke:none;" d="M217 70L210 68L207 72L208 80L204 84L215 79L208 89L221 90L220 94L224 91L231 96L228 92L232 88C231.098 83.8105 220.809 58.4592 217 70z"/>
<path style="fill:#6a6a6a; stroke:none;" d="M231 66L232 67L231 66z"/>
<path style="fill:#747474; stroke:none;" d="M19 67L20 68L19 67z"/>
<path style="fill:#919191; stroke:none;" d="M234 71L235 72L234 71z"/>
<path style="fill:#db3c26; stroke:none;" d="M27 72C22.4868 81.6907 18.4092 89.3949 20 100L26 100L29 110L31 110C32.2609 104.642 31.0595 102.326 28 98L32 98L31 96L39 96C37.8647 101.478 42.5371 107.926 47 111L47 112L44 118L50 119L53 114L53 119L59 115C62.4421 117.388 64.2087 117.941 68 116L69 122L73 123L88 104L80 100L74 102L73 96L63 97L64 102C61.256 100.393 57.9485 97.6639 57 102L56 102L49 99L45 105L48 89C42.9945 86.3806 37.057 66.1164 30 77L29 77L27 72z"/>
<path style="fill:#8d8e8d; stroke:none;" d="M16 73L17 74L16 73z"/>
<path style="fill:#878787; stroke:none;" d="M235 73L236 74L235 73z"/>
<path style="fill:#8d8d8d; stroke:none;" d="M14 77L15 78L14 77z"/>
<path style="fill:#7c7c7c; stroke:none;" d="M237 77L238 78L237 77z"/>
<path style="fill:#7b7b7b; stroke:none;" d="M13.3333 79.6667L13.6667 80.3333L13.3333 79.6667z"/>
<path style="fill:#653821; stroke:none;" d="M23 79L23 82L24 82L23 79z"/>
<path style="fill:#6b6b6b; stroke:none;" d="M238 79L239 80L238 79z"/>
<path style="fill:#5d5d5d; stroke:none;" d="M239.333 81.6667L239.667 82.3333L239.333 81.6667z"/>
<path style="fill:#626262; stroke:none;" d="M12.3333 82.6667L12.6667 83.3333L12.3333 82.6667z"/>
<path style="fill:#656565; stroke:none;" d="M240 84L241 85L240 84z"/>
<path style="fill:#737373; stroke:none;" d="M11 85L12 86L11 85z"/>
<path style="fill:#c8c8c8; stroke:none;" d="M241 85L241 88L242 88L241 85z"/>
<path style="fill:#831f07; stroke:none;" d="M20.3333 86.6667L20.6667 87.3333L20.3333 86.6667z"/>
<path style="fill:#707070; stroke:none;" d="M10.3333 87.6667L10.6667 88.3333L10.3333 87.6667z"/>
<path style="fill:#1b1436; stroke:none;" d="M186 88L186 96L187 96L186 88z"/>
<path style="fill:#38469e; stroke:none;" d="M228 92L231 96L224 91L224 97C218.526 100.354 222.295 104.626 222 110L207 96L206 96L206 100C199.842 98.6649 196.963 100.628 194 106L202 107L192 107L188 112L187 108L186 108L181 125L184 126L186 118L191 119L192 115L210 115L211 109L212 109L212 112L214 110L215 110C218.24 114.385 224.787 111.168 224 106L228 107L226 100L231 99L230 105L232 101L236 112L238 112L233 88L228 92z"/>
<path style="fill:#404040; stroke:none;" d="M9.33333 90.6667L9.66667 91.3333L9.33333 90.6667z"/>
<path style="fill:#5f5f5f; stroke:none;" d="M242.333 90.6667L242.667 91.3333L242.333 90.6667z"/>
<path style="fill:#d9d9d9; stroke:none;" d="M8 92L8 96L9 96L8 92z"/>
<path style="fill:#000201; stroke:none;" d="M125 214L90 191L82 172L78 172L78 158C74.4268 153.094 77.9206 145.785 79.9691 140.715C86.0556 125.65 92.0154 116.018 107 108.092C111.528 105.697 125.766 103.564 124.623 97.0147C123.334 89.626 115.438 93.1464 111 94.3673C98.1948 97.8897 89.8661 101.771 80.5147 111.856C47.0081 147.988 70.8502 220.73 125 214z"/>
<path style="fill:#373238; stroke:none;" d="M104 94L104 95L112 95L104 94z"/>
<path style="fill:#e97b24; stroke:none;" d="M18 95L16 108L29 110L26 100L20 100L18 95z"/>
<path style="fill:#745f44; stroke:none;" d="M17.3333 96.6667L17.6667 97.3333L17.3333 96.6667z"/>
<path style="fill:#d65826; stroke:none;" d="M31 96L32 98L28 98C29.3235 100.718 32.4375 103.58 31.2029 106.867C28.922 112.938 18.3588 108.746 16 105L15 105L14 112L25 117C24.477 119.54 24.4053 119.685 27 120L27 121L18 123L18 124L28 125C23.4746 138.016 38.4442 137.169 48 138L48 132L52 133L53 125L54 125C55.8217 129.45 57.2258 131.383 55 136L59 137C58.0153 139.694 58.1415 150.474 63.5 145.5C66.7873 142.448 73.3084 122.928 69 122L68 116L59 115L53 119L53 114L50 119L48 117L44 118L47 112L47 111C43.1546 107.003 38.5359 101.735 39 96L31 96z"/>
<path style="fill:#2f1532; stroke:none;" d="M125 96L125 100L126 100L125 96z"/>
<path style="fill:#4f459b; stroke:none;" d="M172 96C166.626 100.422 158.583 99.7093 158 108C153.266 108.69 150.69 111.266 150 116L140 121L140 122L147 124L146 122L163 121L163 122L155 124C157.612 128.046 160.738 125.003 164 123L164 127C172.99 119.961 173.971 106.664 174 96L172 96z"/>
<path style="fill:#d9d9d9; stroke:none;" d="M244 96L244 100L245 100L244 96z"/>
<path style="fill:#863a08; stroke:none;" d="M16.3333 98.6667L16.6667 99.3333L16.3333 98.6667z"/>
<path style="fill:#3e63b1; stroke:none;" d="M226 100L228 107L224 106C223.769 111.03 218.948 113.012 215 110L214 110L212 109L211 109L210 115L192 115L191 119L186 118L184 126L181 125L169 142L172 143L175 141L178 136C178.829 139.867 181.813 139.165 185 138L201 151L200 148L203 149L213 142C213.771 145.871 214.151 148.458 218 150L218 140L221 141L219 134L226 132L226 137L223 134L228 150L231 150L233 138L236 138L236 147L237 147C239.003 136.379 239.927 121.062 236.671 110.741C235.421 106.777 235.969 103.293 232 101L230 105L231 99L226 100z"/>
<path style="fill:#949494; stroke:none;" d="M6.33333 100.667L6.66667 101.333L6.33333 100.667z"/>
<path style="fill:#672c26; stroke:none;" d="M92 100L92 102L94 100L92 100z"/>
<path style="fill:#424242; stroke:none;" d="M244.333 100.667L244.667 101.333L244.333 100.667z"/>
<path style="fill:#393323; stroke:none;" d="M15 101L15 105L16 105L15 101z"/>
<path style="fill:#353535; stroke:none;" d="M6 102L6 105L7 105L6 102z"/>
<path style="fill:#d2d1d1; stroke:none;" d="M5 103L5 109L6 109L5 103z"/>
<path style="fill:#3b293f; stroke:none;" d="M117 103L117 104L121 104L117 103z"/>
<path style="fill:#a2a2a2; stroke:none;" d="M245.333 103.667L245.667 104.333L245.333 103.667z"/>
<path style="fill:#7e3b5a; stroke:none;" d="M111 105L111 106L116 105L111 105z"/>
<path style="fill:#c6267c; stroke:none;" d="M108 107L108 108L122 113C122.793 101.664 116.612 104.509 108 107z"/>
<path style="fill:#696969; stroke:none;" d="M245 105L245 108L246 108L245 105z"/>
<path style="fill:#8a3806; stroke:none;" d="M14 106L14 110L15 110L14 106z"/>
<path style="fill:#d6463e; stroke:none;" d="M96 115L96 116C99.1642 117.619 100.821 118.024 103 115L108 116L107 120L116 119C113.56 117.083 106.332 113.742 111 111C105.5 106.626 100.386 110.814 96 115z"/>
<path style="fill:#d43460; stroke:none;" d="M108 108L111 110L111 111L108 111L114 118L116 110L108 108z"/>
<path style="fill:#353954; stroke:none;" d="M185 108L185 114L186 114L185 108z"/>
<path style="fill:#939393; stroke:none;" d="M246 108L246 113L247 113L246 108z"/>
<path style="fill:#838383; stroke:none;" d="M5 109L5 115L6 115L5 109z"/>
<path style="fill:#e08826; stroke:none;" d="M15 111C11.3087 123.488 13.8822 140.443 16.4498 153C17.5638 158.448 18.8158 164.288 24 167L28 150L29 150L30 155L34 154L35 160C43.9468 160.847 53.3211 154.404 60 149L56 144L56 143L59 137L55 136C58.1505 131.456 56.6064 129.421 54 125L53 125L52 133L48 132L48 138C37.9395 136.222 25.234 138.094 28 125L18 124L18 123L27 121L27 120L24 120L25 117L15 111z"/>
<path style="fill:#765542; stroke:none;" d="M13 112L13 138L14 138L13 112z"/>
<path style="fill:#b64a6e; stroke:none;" d="M116 112C112.408 119.021 120.813 118.857 123 125L128 125L125 122L126 119L116 112z"/>
<path style="fill:#323232; stroke:none;" d="M246 113L246 121L247 121L246 113z"/>
<path style="fill:#414c62; stroke:none;" d="M238 114L238 140L239 140L238 114z"/>
<path style="fill:#575757; stroke:none;" d="M5 115L5 122L6 122L5 115z"/>
<path style="fill:#5c4032; stroke:none;" d="M94.6667 115.333L95.3333 115.667L94.6667 115.333z"/>
<path style="fill:#e47a24; stroke:none;" d="M103 115C97.968 119.451 90.7594 114.142 90 124C85.1338 125.516 84.1412 129.236 84 134C87.5131 132.158 87.8845 129.807 88 126L89 126L90 130C96.3203 128.64 109.477 128.566 110 122L106 122L108 116L103 115z"/>
<path style="fill:#79402f; stroke:none;" d="M74 118L74 120L76 118L74 118z"/>
<path style="fill:#bd6f6d; stroke:none;" d="M123 124C117.951 110.688 110.983 129.977 123 124z"/>
<path style="fill:#3c68af; stroke:none;" d="M146 122L147 124C142.717 124.003 137.807 123.312 135 127L138 126L136 129L150 130L151 130L152 130L156 132L154 134L154 135C160.311 134.018 163.553 129.155 164 123C160.467 124.514 158.25 126.922 155 124L163 122C157.391 117.183 152.327 121.589 146 122z"/>
<path style="fill:#b47d45; stroke:none;" d="M89 120L89 124L90 124L89 120z"/>
<path style="fill:#cf7b3d; stroke:none;" d="M106 120L106 122L110 122L108 130L113 130L112 128L117 128L118 124L115 120L106 120z"/>
<path style="fill:#7b440c; stroke:none;" d="M87.6667 123.333L88.3333 123.667L87.6667 123.333z"/>
<path style="fill:#628bb7; stroke:none;" d="M136 123L128 127L132 129L132 134L133 134L138 130L136 129L136 128L138 126L135 127L136 123z"/>
<path style="fill:#a19e67; stroke:none;" d="M121 124L116 126L120 130L119 133L124 132L125 137L126 137L126 132L127 132L128 134C130.078 129.737 128.479 128.346 124 128L123 124L121 124z"/>
<path style="fill:#9f758b; stroke:none;" d="M124 124L124 128L130 127L129 124L124 124z"/>
<path style="fill:#6c4234; stroke:none;" d="M70 126L70 129L71 129L70 126z"/>
<path style="fill:#a87965; stroke:none;" d="M85.3333 126.667L85.6667 127.333L85.3333 126.667z"/>
<path style="fill:#e7ac22; stroke:none;" d="M88 126C87.7631 129.457 87.1699 133.155 83 132C80.1241 140.29 76.4046 149.219 79 158L84 156L84 160L89 160L88 156C91.2715 153.141 89.9186 147.858 89 144L93 145L98 140L103 140L103 134L109 133L109 132L108 128C100.834 125.441 96.9698 127.878 90 130L88 126z"/>
<path style="fill:#e0ce22; stroke:none;" d="M112 128L113 130C111.414 130 105.201 130.348 109 132L109 133L103 134L103 140L98 140L93 145L89 144L88 156L89 160L84 160L84 156C77.6465 157.093 78.2936 162.69 78 168L84 180L87 179L86 172L90 174L91 174L92 174C94.6505 170.042 98.8857 163.266 96 159L105 150L106 155L107 155L107 150C113.518 148.868 113.981 140.546 114 135L118 137L119 135L119 134L117 133L120 131L112 128z"/>
<path style="fill:#72583d; stroke:none;" d="M83 129L83 132L84 132L83 129z"/>
<path style="fill:#6ca191; stroke:none;" d="M131 129C127.816 133.618 129.342 136.933 131 142L132 142L131 129z"/>
<path style="fill:#1c8ac9; stroke:none;" d="M139 131C145.264 136.946 148.492 138.655 157 136L157 135L154 135L154 134L156 132L152 130L151 130L139 131z"/>
<path style="fill:#4e4e4e; stroke:none;" d="M246 129L246 140L247 140L246 129z"/>
<path style="fill:#32b0ac; stroke:none;" d="M135 130L130 145L132 147L146 144L150 138L139 130L135 130z"/>
<path style="fill:#4a4a4a; stroke:none;" d="M5 132L5 140L6 140L5 132z"/>
<path style="fill:#a8ae34; stroke:none;" d="M117 133L119 134L119 135L118 137L114 135L115 144L119 144L120 136L124 137L124 132L117 133z"/>
<path style="fill:#88c53a; stroke:none;" d="M126 132L126 137L120 136L120 142L124 141L124 148L120 149L120 150L124 149L121 153L123 155L122 158L124 161L121 162L121 175L120 175L119 173L114 178L114 182L108 182L109 192L110 192L112 190L106 197L109 200L109 201L106 201L106 202C111.925 203.669 116.94 210.027 121 202L115 194L117 191C112.718 186.477 120.671 183.041 122 178L126 178L127 159C131.337 155.945 129.965 152.695 127 149L132 147L130 145C130.838 139.731 130.006 135.649 126 132z"/>
<path style="fill:#3096d4; stroke:none;" d="M219 134L221 141L218 140L218 150L213 142L203 149L200 148L201 151L196 150L204 160L205 157L207 158L208 158L205 156L205 155L212 158C217.798 158.19 219.974 160.74 222 166L223 166L220 154L228 156L229 168L225 170L223 167L222 170C219.087 169.5 217.683 168.877 217 172C213.554 170.367 211.39 169.726 209 173L208 173C209.241 168.294 211.1 164.019 205 163L205 171L206 177L208 177L208 183L210 184L217 185L220 182L219 178L215 178L215 177L219 176L224 180C232.737 167.041 236 153.423 236 138L233 138L231 150L228 150L223 134L226 137L226 132L219 134z"/>
<path style="fill:#b38a5e; stroke:none;" d="M81 133L81 138L82 138L81 133z"/>
<path style="fill:#9e430a; stroke:none;" d="M67.3333 134.667L67.6667 135.333L67.3333 134.667z"/>
<path style="fill:#3198d2; stroke:none;" d="M172 143L176 142L176 146L182 144L183 147L190 146C188.328 148.762 187.065 148.77 184 148L186 154L192 156L194 153C189.99 145.345 194.205 142.996 185 138C181.696 138.69 179.912 138.921 178 136L172 143z"/>
<path style="fill:#275c6e; stroke:none;" d="M150 138L150 140L152 138L150 138z"/>
<path style="fill:#bebebe; stroke:none;" d="M5 140L5 144L6 144L5 140z"/>
<path style="fill:#aaaaaa; stroke:none;" d="M246 140L246 144L247 144L246 140z"/>
<path style="fill:#824502; stroke:none;" d="M14 141L14 144L15 144L14 141z"/>
<path style="fill:#a7ce35; stroke:none;" d="M119 144L112 143C111.569 146.828 110.771 148.81 107 150C112.021 161.483 100.26 167.644 104 178L95 181L91 185L91 190L98 200L105 199L109 201L109 200L106 197C110.106 195.851 111.317 194.17 112 190L110 192L109 192L108 182L114 182L114 178L120 175L121 175L121 162L124 161L122 158L123 155L121 155L121 153L124 149L120 150L120 149L124 148L124 141L119 144z"/>
<path style="fill:#4d6b61; stroke:none;" d="M146.333 141.667L146.667 142.333L146.333 141.667z"/>
<path style="fill:#043253; stroke:none;" d="M166 141L166 144L168 143L168 142L166 141z"/>
<path style="fill:#794500; stroke:none;" d="M78 142L78 147L79 147L80 142L78 142z"/>
<path style="fill:#4e7f7c; stroke:none;" d="M165 142L164 144L166 144L165 142z"/>
<path style="fill:#22aee1; stroke:none;" d="M167 143L167 144L173 145L173 146C169.686 147.407 168.444 148.349 169 152L174 150L172 156L175 155L180 158L182 162L199 163L195 162L201 172L206 170L205 163C210.472 164.677 208.772 168.346 208 173L209 173C211.865 170.486 213.457 170.809 217 172L222 170L223 167L225 170L226 167L229 168L228 156L220 154L223 166L222 166C220.555 160.118 217.966 158.071 212 158C210.922 154.164 208.598 154.446 205 155L205 156L208 158L205 157L204 160L192 147L194 153L192 156L186 154L184 148L186 150L190 146L183 147L182 144L176 146L176 142L167 143z"/>
<path style="fill:#e4c81e; stroke:none;" d="M56 143L60 149C52.1003 153.322 44.6693 160.067 35 160L34 154L30 155L29 150L28 150L24 167L21 166C24.5618 186.043 41.5916 201.542 56 214L64 208L65 208L66 208L66 210L67 210L68 210C71.7914 206.538 74.7664 205.404 72 200C75.3963 199.501 78.2858 198.046 77.2971 193.999C75.6203 187.137 69.9647 180.701 67.4159 174C63.8839 164.714 64 155.769 64 146L56 143z"/>
<path style="fill:#52453d; stroke:none;" d="M64 144L64 152L65 152L64 144z"/>
<path style="fill:#304148; stroke:none;" d="M142.667 144.333L143.333 144.667L142.667 144.333z"/>
<path style="fill:#43c3dc; stroke:none;" d="M163 157L158 157L158 158L162 158L162 162L166 163L167 156L168 156L171 160C166.075 163.551 169.81 166.939 174 169L177 165L176 167L177 167L182 169L179 168L184 176C170.905 187.638 193.3 188.816 199 191L208 177L206 177L207 171L201 172L195 162L199 163L182 162L179 161L180 158L172 156L174 150L169 152L173 146C162.704 138.725 163.067 150.215 163 157z"/>
<path style="fill:#d2d2d2; stroke:none;" d="M246 144L246 148L247 148L246 144z"/>
<path style="fill:#6a696a; stroke:none;" d="M6.33333 145.667L6.66667 146.333L6.33333 145.667z"/>
<path style="fill:#638382; stroke:none;" d="M134 146L134 147L139 147L134 146z"/>
<path style="fill:#3c7787; stroke:none;" d="M159 146L155 150L156 150L159 146z"/>
<path style="fill:#119bb8; stroke:none;" d="M160 146L152 150L150 158L154 160L155 160L156 160L163 157L162 146L160 146z"/>
<path style="fill:#a6a5a6; stroke:none;" d="M6 147L6 150L7 150L6 147z"/>
<path style="fill:#322e25; stroke:none;" d="M15 147L15 152L16 152L15 147z"/>
<path style="fill:#423a2f; stroke:none;" d="M77 147L77 151L78 151L77 147z"/>
<path style="fill:#43515c; stroke:none;" d="M236 147L236 150L237 150L236 147z"/>
<path style="fill:#3b4a37; stroke:none;" d="M128.667 148.333L129.333 148.667L128.667 148.333z"/>
<path style="fill:#6a6a6a; stroke:none;" d="M245 149L245 152L246 152L245 149z"/>
<path style="fill:#cddb2c; stroke:none;" d="M104 150L96 159L92 174L91 174L90 174L86 172L85 179L85 180L85 181L91 189L91 185L95 181L104 178L110 153L107 155L106 155L104 150z"/>
<path style="fill:#c6b45e; stroke:none;" d="M77 151L77 157L78 157L77 151z"/>
<path style="fill:#2a2b25; stroke:none;" d="M64 152L64 163L65 163L64 152z"/>
<path style="fill:#463600; stroke:none;" d="M76 152L76 158L77 158L76 152z"/>
<path style="fill:#004b4f; stroke:none;" d="M148 152L148 153L152 153L148 152z"/>
<path style="fill:#5a3200; stroke:none;" d="M16 153L16 156L17 156L16 153z"/>
<path style="fill:#50bc80; stroke:none;" d="M131 153L131 154L134 154C134.001 159.137 133.122 165.016 138 168L136 176L137 176L137 173L138 173L138 176L141 175L141 179L142 179L145 168L144 164L151 163L148 159L148 158L152 154L131 153z"/>
<path style="fill:#70be44; stroke:none;" d="M130 154L127 159L126 178L122 178C120.162 182.361 111.299 187.315 117 191L115 194L121 202L116 207L116 208L121 209L121 208L119 208L119 207L127 204L127 203L124 203L126 190L122 190L122 186C125.464 185.022 126.482 183.526 127 180C134.964 178.551 134.629 174.045 138 168C133.791 164.111 134.004 159.428 134 154L130 154z"/>
<path style="fill:#18774d; stroke:none;" d="M137.667 154.333L138.333 154.667L137.667 154.333z"/>
<path style="fill:#065444; stroke:none;" d="M142 154L142 155L146 155L142 154z"/>
<path style="fill:#3ec0c2; stroke:none;" d="M167 156L166 163L162 162L162 158L157 158L158 172L161 171L159 177L165 176L166 185L172 183L175 187L174 184L178 189L177 193L180 197L181 197L184 176L179 168L182 169L176 167L177 165L174 169C170.094 166.241 167.215 164.152 171 160L167 156z"/>
<path style="fill:#d8d8d8; stroke:none;" d="M243 156L243 161L244 161L243 156z"/>
<path style="fill:#786000; stroke:none;" d="M77 157L78 160L79 160L79 157L77 157z"/>
<path style="fill:#c3c3c3; stroke:none;" d="M8.33333 158.667L8.66667 159.333L8.33333 158.667z"/>
<path style="fill:#1fb288; stroke:none;" d="M148 158L148 159L151 163L144 164L145 168L144 171L145 171L146 168L148 170L151 168L151 173L152 173L156 172L157 158L156 158L155 160L148 158z"/>
<path style="fill:#7b4507; stroke:none;" d="M18.3333 160.667L18.6667 161.333L18.3333 160.667z"/>
<path style="fill:#a0975c; stroke:none;" d="M77 160L77 165L78 165L77 160z"/>
<path style="fill:#979797; stroke:none;" d="M9.33333 161.667L9.66667 162.333L9.33333 161.667z"/>
<path style="fill:#949494; stroke:none;" d="M242 162L243 163L242 162z"/>
<path style="fill:#3e3432; stroke:none;" d="M19.3333 163.667L19.6667 164.333L19.3333 163.667z"/>
<path style="fill:#8e7c4c; stroke:none;" d="M64.3333 163.667L64.6667 164.333L64.3333 163.667z"/>
<path style="fill:#9d9d9d; stroke:none;" d="M10 165L10 168L11 168L10 165z"/>
<path style="fill:#724800; stroke:none;" d="M20 165L20 168L21 168L20 165z"/>
<path style="fill:#7d6800; stroke:none;" d="M78.3333 165.667L78.6667 166.333L78.3333 165.667z"/>
<path style="fill:#6b5600; stroke:none;" d="M65.3333 166.667L65.6667 167.333L65.3333 166.667z"/>
<path style="fill:#4a6777; stroke:none;" d="M230.333 166.667L230.667 167.333L230.333 166.667z"/>
<path style="fill:#787878; stroke:none;" d="M240 167L241 168L240 167z"/>
<path style="fill:#4d4100; stroke:none;" d="M78 168L78 172L79 172L78 168z"/>
<path style="fill:#dac35d; stroke:none;" d="M79 168L79 172L82 171L79 168z"/>
<path style="fill:#4dad4c; stroke:none;" d="M146 168L142 179L141 179L141 175L138 173L137 173L127 180L122 186L122 190L126 190C124.302 193.708 121.48 201.817 127 203L127 204L119 207L119 208L125 214L121 214L121 215L124 215L124 216L122 222L116 222L116 230L106 232L106 237L102 237L102 238L125 239L125 238L116 238L119 235L118 230L122 230L120 224L128 222L126 216L132 216L131 222L141 215L144 214L152 215L150 213L150 212C154.394 208.12 148.173 200.466 144 199L143 204L140.26 189.09L145 175L149 176L151 168L148 170L146 168z"/>
<path style="fill:#b4b4b5; stroke:none;" d="M239.333 169.667L239.667 170.333L239.333 169.667z"/>
<path style="fill:#a7a7a7; stroke:none;" d="M12.3333 170.667L12.6667 171.333L12.3333 170.667z"/>
<path style="fill:#43beaa; stroke:none;" d="M156 170L154 171L156 180L152 181L152 182C157.367 183.403 157.943 186.902 158 192L160 189L164 189L168 199L168 200L168 201L166 203L170 200L175 201L179 197L177 193L178 189L174 184L175 187L172 183L166 185L165 176L159 177L161 171L158 170L156 170z"/>
<path style="fill:#a19446; stroke:none;" d="M66.3333 171.667L66.6667 172.333L66.3333 171.667z"/>
<path style="fill:#958b05; stroke:none;" d="M80.6667 171.333L81.3333 171.667L80.6667 171.333z"/>
<path style="fill:#48bb94; stroke:none;" d="M152 171L149 176L145 175C143.31 186.85 138.435 191.552 143 204L144 199C148.113 201.152 149.682 203.355 150 208L160 210L161 210L162 204L164 204L163 201L168 201L164 189L158 192C157.982 186.761 157.899 182.867 152 182L152 181L156 180L154 171L152 171z"/>
<path style="fill:#7a787a; stroke:none;" d="M238 171L238 174L239 174L238 171z"/>
<path style="fill:#7f7f7f; stroke:none;" d="M13 173L14 174L13 173z"/>
<path style="fill:#74725d; stroke:none;" d="M81 173L81 176L82 176L81 173z"/>
<path style="fill:#878787; stroke:none;" d="M14 175L15 176L14 175z"/>
<path style="fill:#959596; stroke:none;" d="M237 175L238 176L237 175z"/>
<path style="fill:#5d5d5d; stroke:none;" d="M15 176L16 177L15 176z"/>
<path style="fill:#8f806b; stroke:none;" d="M68.3333 176.667L68.6667 177.333L68.3333 176.667z"/>
<path style="fill:#524e00; stroke:none;" d="M82 176L84 179L82 176z"/>
<path style="fill:#069ec7; stroke:none;" d="M215 177L215 178L219 178L220 182L217 185L210 182L203 186L206 190L211 188L213 194L213 195L212 200L226 178L224 180L219 176L215 177z"/>
<path style="fill:#9e9e9e; stroke:none;" d="M235 179L236 180L235 179z"/>
<path style="fill:#98906c; stroke:none;" d="M70.3333 180.667L70.6667 181.333L70.3333 180.667z"/>
<path style="fill:#c6c6c7; stroke:none;" d="M18.3333 183.667L18.6667 184.333L18.3333 183.667z"/>
<path style="fill:#676667; stroke:none;" d="M233 183L234 184L233 183z"/>
<path style="fill:#6b6239; stroke:none;" d="M72 184L73 185L72 184z"/>
<path style="fill:#737373; stroke:none;" d="M232 185L233 186L232 185z"/>
<path style="fill:#848484; stroke:none;" d="M20 186L21 187L20 186z"/>
<path style="fill:#595959; stroke:none;" d="M231 186L232 187L231 186z"/>
<path style="fill:#5f5f5f; stroke:none;" d="M21 188L22 189L21 188z"/>
<path style="fill:#c8c689; stroke:none;" d="M74.3333 188.667L74.6667 189.333L74.3333 188.667z"/>
<path style="fill:#32c0c2; stroke:none;" d="M183 197L192 198L192 202L197 202L196 207L204 210L204 200L200 199L200 198L204 198L204 197C200.414 196.503 196.874 195.899 196 200L195 200L193 195L207 192C205.103 188.673 200.158 185.597 199 191C191.414 187.052 185.354 188.554 183 197z"/>
<path style="fill:#19b1be; stroke:none;" d="M206 188L207 192L193 195L195 200L196 200L196 197L204 197L204 198L200 198L200 199L204 200L202 202L202 207C210.289 208.22 209.765 199.891 213 195L213 194L211 188L206 188z"/>
<path style="fill:#737373; stroke:none;" d="M230 188L231 189L230 188z"/>
<path style="fill:#777777; stroke:none;" d="M22 189L23 190L22 189z"/>
<path style="fill:#737d36; stroke:none;" d="M90 191L95 194L93 190L90 191z"/>
<path style="fill:#1caf92; stroke:none;" d="M184 190L181 197L180 197L179 195L175 201L170 200C170.536 204.169 172.052 206.468 168 209L169 213L165 210L164 210L163 215L162 212L161 212L160 217L153 209L150 212L150 213L150 214L158 218L159 222L164 219L168 221L175 225L180 224L179 221L186 221L202 208L196 207L197 202L192 202L192 198L190 200L183 197L184 190z"/>
<path style="fill:#7f7f7f; stroke:none;" d="M229 190L230 191L229 190z"/>
<path style="fill:#c9d12c; stroke:none;" d="M78 195L72 200C73.9682 205.618 70.981 205.975 68 210L67 210L66 210L66 208L65 208L64 208L56 214L53 212C57.6488 217.71 63.9764 220.349 71 222L71 221L69 220L82 214L82 210L90 208L90 212L92 212C91.4345 204.643 83.6913 198.996 78 195z"/>
<path style="fill:#8b8b8b; stroke:none;" d="M226 195L227 196L226 195z"/>
<path style="fill:#5e5e5c; stroke:none;" d="M37 196L38 197L37 196z"/>
<path style="fill:#828282; stroke:none;" d="M224 198L225 199L224 198z"/>
<path style="fill:#4b6200; stroke:none;" d="M99.6667 199.333L100.333 199.667L99.6667 199.333z"/>
<path style="fill:#648208; stroke:none;" d="M103.667 199.333L104.333 199.667L103.667 199.333z"/>
<path style="fill:#7f7f7f; stroke:none;" d="M223 199L224 200L223 199z"/>
<path style="fill:#7e7e7e; stroke:none;" d="M29 200L30 201L29 200z"/>
<path style="fill:#606068; stroke:none;" d="M102 200L103 201L102 200z"/>
<path style="fill:#5c5c5c; stroke:none;" d="M30 201L31 202L30 201z"/>
<path style="fill:#32bc89; stroke:none;" d="M163 201L164 204L162 204L161 210L160 210L152 208L152 209L160 217L161 212L162 212L163 215L164 210L165 210L169 213L168 209C171.901 207.438 171.803 205.525 170 202L166 203L163 201z"/>
<path style="fill:#a2a2a2; stroke:none;" d="M222 201L223 202L222 201z"/>
<path style="fill:#575757; stroke:none;" d="M31 202L32 203L31 202z"/>
<path style="fill:#4e5f4f; stroke:none;" d="M108.667 202.333L109.333 202.667L108.667 202.333z"/>
<path style="fill:#7d7d7d; stroke:none;" d="M219 204L220 205L219 204z"/>
<path style="fill:#a5a6a5; stroke:none;" d="M218 205L219 206L218 205z"/>
<path style="fill:#777778; stroke:none;" d="M34 206L35 207L34 206z"/>
<path style="fill:#6a6a6a; stroke:none;" d="M217 206L218 207L217 206z"/>
<path style="fill:#424242; stroke:none;" d="M35.3333 207.667L35.6667 208.333L35.3333 207.667z"/>
<path style="fill:#606060; stroke:none;" d="M216 207L217 208L216 207z"/>
<path style="fill:#b4c336; stroke:none;" d="M82 210L82 214L69 220L71 221L71 222L63 220L63 221C68.523 224.063 82.5825 231.719 86 222L92 224L100 216L100 215L98 212L104 212L104 211L92 208L92 212L90 212L90 208L82 210z"/>
<path style="fill:#226b1a; stroke:none;" d="M119.667 209.333L120.333 209.667L119.667 209.333z"/>
<path style="fill:#9c9c9c; stroke:none;" d="M38.3333 211.667L38.6667 212.333L38.3333 211.667z"/>
<path style="fill:#8eb63c; stroke:none;" d="M98 212L100 215L100 216C95.7369 217.709 92.7059 219.197 92 224L86 222L75 227C79.9725 231.105 95.1698 238.83 100 232L96 232L96 230L108 229C112.68 217.629 111.879 212.048 98 212z"/>
<path style="fill:#8a8a8a; stroke:none;" d="M212 212L213 213L212 212z"/>
<path style="fill:#656565; stroke:none;" d="M39 213L40 214L39 213z"/>
<path style="fill:#6dbe3d; stroke:none;" d="M106 213L106 214C115.53 215.52 109.497 223.166 108 229L96 230L96 232L100 232L95 235L95 236L106 237L106 232L116 230L116 222L122 222L124 216L106 213z"/>
<path style="fill:#979797; stroke:none;" d="M211 213L212 214L211 213z"/>
<path style="fill:#8c8c8c; stroke:none;" d="M40 214L41 215L40 214z"/>
<path style="fill:#169649; stroke:none;" d="M144 214L141 215L128 224L125 229L125 239L114 239L114 240C134.582 240 151.224 235.684 171 231L169 229L164 219L159 222L158 218L152 215L146 214L144 214z"/>
<path style="fill:#939393; stroke:none;" d="M210 214L211 215L210 214z"/>
<path style="fill:#a6a6a6; stroke:none;" d="M41 215L41 216L44 216L41 215z"/>
<path style="fill:#9c9c9c; stroke:none;" d="M209 215L210 216L209 215z"/>
<path style="fill:#33b04a; stroke:none;" d="M126 216L128 222L120 224L122 230L118 230L119 235L116 235L116 238L126 236L125 229L128 224L132 224L132 216L126 216z"/>
<path style="fill:#10a376; stroke:none;" d="M186 221L179 221L180 224L175 225L165 221L169 229C177.26 229.954 188.583 222.991 194 217C189.741 215.963 187.765 217.002 186 221z"/>
<path style="fill:#a4a4a4; stroke:none;" d="M208 216L209 217L208 216z"/>
<path style="fill:#626262; stroke:none;" d="M46 217L47 218L46 217z"/>
<path style="fill:#aaaaa9; stroke:none;" d="M207 217L208 218L207 217z"/>
<path style="fill:#868686; stroke:none;" d="M47 218L48 219L47 218z"/>
<path style="fill:#818181; stroke:none;" d="M48 219L49 220L48 219z"/>
<path style="fill:#6e6e6e; stroke:none;" d="M53 223L54 224L53 223z"/>
<path style="fill:#a2a2a2; stroke:none;" d="M54 224L55 225L54 224z"/>
<path style="fill:#9c9c9c; stroke:none;" d="M57 226L58 227L57 226z"/>
<path style="fill:#727272; stroke:none;" d="M196 226L197 227L196 226z"/>
<path style="fill:#8b8b8b; stroke:none;" d="M195 227L196 228L195 227z"/>
<path style="fill:#314b42; stroke:none;" d="M174.667 228.333L175.333 228.667L174.667 228.333z"/>
<path style="fill:#666666; stroke:none;" d="M193 228L194 229L193 228z"/>
<path style="fill:#989898; stroke:none;" d="M62 229L63 230L62 229z"/>
<path style="fill:#666666; stroke:none;" d="M190 230L191 231L190 230z"/>
<path style="fill:#8b8b8b; stroke:none;" d="M65 231L66 232L65 231M66 232L67 233L66 232z"/>
<path style="fill:#929292; stroke:none;" d="M187 232L188 233L187 232z"/>
<path style="fill:#5f5f5f; stroke:none;" d="M68 233L69 234L68 233z"/>
<path style="fill:#696969; stroke:none;" d="M185 233L186 234L185 233z"/>
<path style="fill:#868685; stroke:none;" d="M70 234L71 235L70 234z"/>
<path style="fill:#404d2f; stroke:none;" d="M91.6667 234.333L92.3333 234.667L91.6667 234.333z"/>
<path style="fill:#878787; stroke:none;" d="M183 234L184 235L183 234z"/>
<path style="fill:#737373; stroke:none;" d="M72 235L73 236L72 235z"/>
<path style="fill:#6d6d6d; stroke:none;" d="M74.6667 236.333L75.3333 236.667L74.6667 236.333z"/>
<path style="fill:#4d5d39; stroke:none;" d="M97 236L97 237L101 237L97 236z"/>
<path style="fill:#666666; stroke:none;" d="M77 237L78 238L77 237z"/>
<path style="fill:#545454; stroke:none;" d="M79.6667 238.333L80.3333 238.667L79.6667 238.333z"/>
<path style="fill:#969595; stroke:none;" d="M173.667 238.333L174.333 238.667L173.667 238.333z"/>
<path style="fill:#636363; stroke:none;" d="M82 239L83 240L82 239z"/>
<path style="fill:#626262; stroke:none;" d="M85 240L86 241L85 240z"/>
<path style="fill:#989898; stroke:none;" d="M86.6667 241.333L87.3333 241.667L86.6667 241.333z"/>
<path style="fill:#bababa; stroke:none;" d="M166.667 241.333L167.333 241.667L166.667 241.333z"/>
<path style="fill:#545454; stroke:none;" d="M89 242L89 243L92 243L89 242z"/>
<path style="fill:#828282; stroke:none;" d="M164 242L165 243L164 242z"/>
<path style="fill:#767676; stroke:none;" d="M93 243L94 244L93 243z"/>
<path style="fill:#a1a1a1; stroke:none;" d="M155.667 244.333L156.333 244.667L155.667 244.333z"/>
<path style="fill:#bcbcbc; stroke:none;" d="M96.6667 245.333L97.3333 245.667L96.6667 245.333z"/>
<path style="fill:#c9c9c9; stroke:none;" d="M152.667 245.333L153.333 245.667L152.667 245.333z"/>
<path style="fill:#747474; stroke:none;" d="M100 246L100 247L104 247L100 246z"/>
<path style="fill:#757575; stroke:none;" d="M107 246L107 247L111 247L107 246z"/>
<path style="fill:#5d5d5d; stroke:none;" d="M144 246L144 247L151 247L144 246z"/>
<path style="fill:#b9b9b9; stroke:none;" d="M104 247L104 248L107 248L104 247z"/>
<path style="fill:#8a8a8a; stroke:none;" d="M113 247L113 248L117 248L113 247z"/>
<path style="fill:#3d3d3d; stroke:none;" d="M119.667 247.333L120.333 247.667L119.667 247.333z"/>
<path style="fill:#626262; stroke:none;" d="M122 247L122 248L130 248L122 247M131 247L131 248L139 248L131 247z"/>
<path style="fill:#b4b4b4; stroke:none;" d="M139.667 247.333L140.333 247.667L139.667 247.333z"/>
</svg>
