<?xml version="1.0" standalone="yes"?>
<svg width="252" height="252">

<path style="fill:#a3a3a3; stroke:none;" d="M108 5L108 6L113 6L108 5z"/>
<path style="fill:#5f5f5f; stroke:none;" d="M113 5L113 6L121 6L113 5z"/>
<path style="fill:#000000; stroke:none;" d="M121 5.70988C66.2095 6.5237 15.533 47.7342 6.32562 103C-5.04018 171.221 45.7303 249.514 120 247.59C149.201 246.833 176.041 242.327 200 224.101C255.402 181.955 264.415 89.6209 212.981 40.2446C187.774 16.0449 155.066 5.2039 121 5.70988z"/>
<path style="fill:#626262; stroke:none;" d="M122 5L122 6L130 6L122 5z"/>
<path style="fill:#5c5c5c; stroke:none;" d="M131.667 5.33333L132.333 5.66667L131.667 5.33333z"/>
<path style="fill:#898989; stroke:none;" d="M134 5L134 6L139 6L134 5z"/>
<path style="fill:#a4a4a4; stroke:none;" d="M145 5L145 6L148 6L145 5z"/>
<path style="fill:#adadad; stroke:none;" d="M100.667 6.33333L101.333 6.66667L100.667 6.33333z"/>
<path style="fill:#696969; stroke:none;" d="M102.667 6.33333L103.333 6.66667L102.667 6.33333z"/>
<path style="fill:#545454; stroke:none;" d="M142 6L142 7L145 7L142 6z"/>
<path style="fill:#959595; stroke:none;" d="M150.667 6.33333L151.333 6.66667L150.667 6.33333z"/>
<path style="fill:#979797; stroke:none;" d="M98.6667 7.33333L99.3333 7.66667L98.6667 7.33333z"/>
<path style="fill:#737373; stroke:none;" d="M94 8L94 9L97 9L94 8z"/>
<path style="fill:#848484; stroke:none;" d="M156 8L157 9L156 8z"/>
<path style="fill:#464646; stroke:none;" d="M89.6667 9.33333L90.3333 9.66667L89.6667 9.33333z"/>
<path style="fill:#7c7c7c; stroke:none;" d="M87 10L88 11L87 10z"/>
<path style="fill:#545454; stroke:none;" d="M160 10L160 11L163 11L160 10z"/>
<path style="fill:#7b7b7b; stroke:none;" d="M84 11L85 12L84 11z"/>
<path style="fill:#8e8e8e; stroke:none;" d="M165 11L166 12L165 11z"/>
<path style="fill:#838383; stroke:none;" d="M82 12L83 13L82 12z"/>
<path style="fill:#606060; stroke:none;" d="M166 12L167 13L166 12z"/>
<path style="fill:#858585; stroke:none;" d="M79.6667 13.3333L80.3333 13.6667L79.6667 13.3333z"/>
<path style="fill:#484443; stroke:none;" d="M110 13L110 14L115 14L110 13z"/>
<path style="fill:#979392; stroke:none;" d="M115 13L115 14L128 14L115 13z"/>
<path style="fill:#6f6b6c; stroke:none;" d="M128 13L128 14L138 14L128 13z"/>
<path style="fill:#8e8e8e; stroke:none;" d="M77 14L78 15L77 14z"/>
<path style="fill:#353535; stroke:none;" d="M105 14L105 15L108 15L105 14z"/>
<path style="fill:#cdc8c5; stroke:none;" d="M26 79L27 79L28 77L29 80C34.8565 80.131 38.3226 81.6534 42 76L37 77L37 71L42 72L48 68L48 67L42 67L50 61L48 59L55 59L55 58L52 58L52 57L58 56C68.025 60.7923 77.4314 68.8926 85 77L87 75L93 80L94 80L94 77L95 77L98 83L99 80C104.449 81.461 112.849 82.4756 115 76L110 77L109 76C110.678 71.9212 112.691 70.036 117 69L113 65L113 64C116.41 63.7586 123.203 59.5591 124 65L143 64L147 67L147 72L154 71L154 70L152 69L152 68L154 68L152 65L153 56L164 61L172 61L170 56L175 56L176 52L183 50L184 50L192 52L191 48L203 49L203 48L199 46L201 44L198 43C197.743 37.2235 191.482 34.0237 187 31.0787C175.22 23.338 161.803 18.3786 148 15.74C111.326 8.72911 72.5676 19.391 46.0008 46.0008C38.0958 53.9185 26.6288 67.3739 26 79z"/>
<path style="fill:#6d6d6d; stroke:none;" d="M172 14L173 15L172 14z"/>
<path style="fill:#3d3d3d; stroke:none;" d="M101 15L101 16L104 16L101 15z"/>
<path style="fill:#6b6b6b; stroke:none;" d="M146.667 15.3333L147.333 15.6667L146.667 15.3333z"/>
<path style="fill:#666666; stroke:none;" d="M174 15L175 16L174 15z"/>
<path style="fill:#6a6a6a; stroke:none;" d="M73 16L74 17L73 16z"/>
<path style="fill:#827d7a; stroke:none;" d="M98.6667 16.3333L99.3333 16.6667L98.6667 16.3333z"/>
<path style="fill:#4a4542; stroke:none;" d="M152.667 16.3333L153.333 16.6667L152.667 16.3333z"/>
<path style="fill:#7a7a7a; stroke:none;" d="M176.667 16.3333L177.333 16.6667L176.667 16.3333z"/>
<path style="fill:#898989; stroke:none;" d="M70 17L71 18L70 17z"/>
<path style="fill:#918c89; stroke:none;" d="M95.6667 17.3333L96.3333 17.6667L95.6667 17.3333z"/>
<path style="fill:#4d4845; stroke:none;" d="M155.667 17.3333L156.333 17.6667L155.667 17.3333z"/>
<path style="fill:#c7c7c7; stroke:none;" d="M179.667 17.3333L180.333 17.6667L179.667 17.3333z"/>
<path style="fill:#7a7a7a; stroke:none;" d="M68 18L69 19L68 18z"/>
<path style="fill:#575556; stroke:none;" d="M91 18L91 19L94 19L91 18z"/>
<path style="fill:#6c6764; stroke:none;" d="M158.667 18.3333L159.333 18.6667L158.667 18.3333z"/>
<path style="fill:#bebebe; stroke:none;" d="M181.667 18.3333L182.333 18.6667L181.667 18.3333z"/>
<path style="fill:#929292; stroke:none;" d="M64 20L65 21L64 20z"/>
<path style="fill:#8b8b8b; stroke:none;" d="M185 20L186 21L185 20z"/>
<path style="fill:#909090; stroke:none;" d="M62 21L63 22L62 21z"/>
<path style="fill:#919191; stroke:none;" d="M191 24L192 25L191 24z"/>
<path style="fill:#8b8b8b; stroke:none;" d="M56 25L57 26L56 25z"/>
<path style="fill:#626262; stroke:none;" d="M55 26L56 27L55 26z"/>
<path style="fill:#6e6a69; stroke:none;" d="M71.6667 26.3333L72.3333 26.6667L71.6667 26.3333z"/>
<path style="fill:#a7a7a7; stroke:none;" d="M53 27L54 28L53 27z"/>
<path style="fill:#696866; stroke:none;" d="M70 27L71 28L70 27z"/>
<path style="fill:#a7a7a7; stroke:none;" d="M196 27L197 28L196 27z"/>
<path style="fill:#989898; stroke:none;" d="M52 28L53 29L52 28z"/>
<path style="fill:#656565; stroke:none;" d="M51 29L52 30L51 29z"/>
<path style="fill:#6f6e6a; stroke:none;" d="M65 30L66 31L65 30z"/>
<path style="fill:#a4a4a4; stroke:none;" d="M201 31L202 32L201 31z"/>
<path style="fill:#919191; stroke:none;" d="M47 32L48 33L47 32z"/>
<path style="fill:#909090; stroke:none;" d="M202 32L203 33L202 32z"/>
<path style="fill:#818181; stroke:none;" d="M203 33L204 34L203 33z"/>
<path style="fill:#9d9d9d; stroke:none;" d="M45 34L46 35L45 34z"/>
<path style="fill:#5c5857; stroke:none;" d="M59 34L60 35L59 34z"/>
<path style="fill:#6d6865; stroke:none;" d="M191 34L192 35L191 34z"/>
<path style="fill:#767676; stroke:none;" d="M204 34L205 35L204 34z"/>
<path style="fill:#a2a2a2; stroke:none;" d="M44 35L45 36L44 35z"/>
<path style="fill:#a4a4a4; stroke:none;" d="M43 36L44 37L43 36z"/>
<path style="fill:#636363; stroke:none;" d="M42 37L43 38L42 37z"/>
<path style="fill:#686667; stroke:none;" d="M55 37L56 38L55 37z"/>
<path style="fill:#635f5e; stroke:none;" d="M195 37L196 38L195 37z"/>
<path style="fill:#7a7a7a; stroke:none;" d="M208 37L208 38L211 38L208 37z"/>
<path style="fill:#8d8d8d; stroke:none;" d="M41 38L42 39L41 38z"/>
<path style="fill:#6f6e6c; stroke:none;" d="M54 38L55 39L54 38z"/>
<path style="fill:#8b8b8b; stroke:none;" d="M211 38L212 39L211 38z"/>
<path style="fill:#878787; stroke:none;" d="M40 39L41 40L40 39z"/>
<path style="fill:#7c7c7c; stroke:none;" d="M39 40L40 41L39 40z"/>
<path style="fill:#5d5d5d; stroke:none;" d="M213.333 40.6667L213.667 41.3333L213.333 40.6667z"/>
<path style="fill:#e1dcd9; stroke:none;" d="M198 41L201 44L199 46L203 48L203 49L191 48L192 52L184 50L183 50L176 52L175 56L170 56L172 61L164 61L153 56L152 65L154 67L154 68L152 68L154 70L154 71L147 72L147 67L143 64L124 65C123.319 59.5814 116.51 63.3006 113 64L113 65L117 69C112.307 69.6344 110.248 71.4401 109 76L110 77L115 76C111.645 84.1239 98.9815 76.8492 98 83L95 77L94 77L94 80L93 80L92 78L86 75L105 99L109 98L125 117C136.799 103.731 151.463 93.0662 163.424 79.9599C169.484 73.3203 177.306 60.8355 186.17 57.865C189.539 56.7357 193.642 59.4017 197 60C197.313 74.6846 202.03 88.1862 198 103L199.579 122L200 192C196.601 192.509 192.495 194.792 189.09 194.087C184.719 193.182 180.187 187.931 177.015 185.05C170.125 178.793 163.067 172.737 156.224 166.441C153.574 164.003 151.909 159.935 148.674 158.215C139.406 153.284 141.159 163.683 145 168L140 168C140.096 172.114 142.72 177.404 139 180L142.812 187.856L128 182L128 183L129 187L124 186L127 194L113 187L113 188L118 191L112 191L112 192L117 192L119 197L100 192L97 188L98 192L96 195L95 195L94 192L90 197L91 193L87 195L89 191L93 192L93 190L96 191L89 184L89 189L85 188L86 178C78.3504 181.642 73.6167 193.662 64.9606 195.35C58.1285 196.683 55.0134 189.122 53.9005 184C51.2681 171.886 50.9115 157.078 54 145C51.399 139.914 54.0007 134.882 56 130C49.8895 124.694 51.4573 115.323 51.8688 108C52.7649 92.0547 51.8684 75.8955 52 60L62 58L62 57L58 56L52 57L52 58L55 58L55 59C52.5601 58.754 47.4446 57.3427 50 61C46.1075 61.9874 43.3171 63.04 42 67L48 67L48 68L42 72L37 71L37 77L42 76C37.6054 80.7912 34.9453 79.788 29 80L28 77L26 79C24.5844 75.7441 22.0252 82.0074 21.3333 84C18.2416 92.9042 14.9221 102.515 14 112C11.5558 137.141 16.4444 163.419 29.3333 185C62.7738 240.993 141.919 256.728 194 217.667C214.47 202.314 226.768 179.696 234.667 156C244.424 126.727 236.654 91.6539 221.333 66C216.563 58.0126 207.232 43.6724 198 41z"/>
<path style="fill:#909090; stroke:none;" d="M37 42L38 43L37 42z"/>
<path style="fill:#5d595a; stroke:none;" d="M48 43L49 44L48 43z"/>
<path style="fill:#575757; stroke:none;" d="M36 44L37 45L36 44z"/>
<path style="fill:#595959; stroke:none;" d="M47 44L48 45L47 44z"/>
<path style="fill:#696969; stroke:none;" d="M46 45L47 46L46 45z"/>
<path style="fill:#6f6e6c; stroke:none;" d="M204 45L205 46L204 45z"/>
<path style="fill:#6b6b6b; stroke:none;" d="M34 46L35 47L34 46z"/>
<path style="fill:#777777; stroke:none;" d="M45 46L46 47L45 46z"/>
<path style="fill:#7a7a7a; stroke:none;" d="M217 46L218 47L217 46z"/>
<path style="fill:#959595; stroke:none;" d="M33 47L34 48L33 47z"/>
<path style="fill:#686463; stroke:none;" d="M206 47L207 48L206 47z"/>
<path style="fill:#6b6b6b; stroke:none;" d="M32 48L33 49L32 48z"/>
<path style="fill:#605f5d; stroke:none;" d="M43 48L44 49L43 48z"/>
<path style="fill:#8a8a8a; stroke:none;" d="M31 49L32 50L31 49z"/>
<path style="fill:#8f8f8f; stroke:none;" d="M30 50L31 51L30 50z"/>
<path style="fill:#a1a1a1; stroke:none;" d="M29 51L30 52L29 51z"/>
<path style="fill:#707070; stroke:none;" d="M222 52L223 53L222 52z"/>
<path style="fill:#999999; stroke:none;" d="M223 53L224 54L223 53z"/>
<path style="fill:#828282; stroke:none;" d="M27 54L28 55L27 54z"/>
<path style="fill:#777674; stroke:none;" d="M38.3333 54.6667L38.6667 55.3333L38.3333 54.6667z"/>
<path style="fill:#6c6b69; stroke:none;" d="M213 55L214 56L213 55z"/>
<path style="fill:#676566; stroke:none;" d="M37 56L38 57L37 56z"/>
<path style="fill:#61605e; stroke:none;" d="M186.667 56.3333L187.333 56.6667L186.667 56.3333z"/>
<path style="fill:#71706e; stroke:none;" d="M214 56L215 57L214 56z"/>
<path style="fill:#888888; stroke:none;" d="M25 57L26 58L25 57z"/>
<path style="fill:#010000; stroke:none;" d="M127 117L124 117L115 111C115.413 103.864 108.985 102.403 105.054 97.7307C95.2692 86.1006 84.7974 74.9678 72.9969 65.2446C67.6852 60.8679 61.2212 55.3783 54.5887 61.125C49.8071 65.2681 52.8577 74.707 52.9853 80C53.379 96.3277 52.9551 112.714 53 129L57 129C55.3188 133.436 50.4738 140.04 55 144L52 151L52 152C57.7835 162.071 48.413 181.145 56.0131 191.454C63.0836 201.046 73.3082 190.806 78.4244 184.996C88.0773 174.034 98.5868 164.147 108.965 153.91C115.558 147.407 121.648 139.339 130 135L139 149L142 148L146 157C150.472 157.607 153.431 163.593 156.459 166.769C163.284 173.925 180.578 194.252 191.001 193.656C198.286 193.239 199.921 188.684 199.921 182C199.922 165.659 199.663 149.323 199.985 133C200.088 127.727 200.511 118.253 196 115L200 98C195.826 88.7021 203.938 67.6075 194.686 60.4437C188.005 55.271 182.462 58.7538 177.208 64.125C165.498 76.0975 154.303 88.5552 142.255 100.24C137.016 105.321 128.811 109.562 127 117z"/>
<path style="fill:#a0a0a0; stroke:none;" d="M226 57L227 58L226 57z"/>
<path style="fill:#969696; stroke:none;" d="M24 58L25 59L24 58z"/>
<path style="fill:#565656; stroke:none;" d="M191 58L192 59L191 58z"/>
<path style="fill:#757172; stroke:none;" d="M35 59L36 60L35 59z"/>
<path style="fill:#9b9798; stroke:none;" d="M56 59L56 60L59 60L56 59z"/>
<path style="fill:#7d7875; stroke:none;" d="M192.667 59.3333L193.333 59.6667L192.667 59.3333z"/>
<path style="fill:#828282; stroke:none;" d="M227 59L228 60L227 59z"/>
<path style="fill:#aaaaaa; stroke:none;" d="M23 60L24 61L23 60z"/>
<path style="fill:#393738; stroke:none;" d="M52 60L52 66L53 66L55 61L52 60z"/>
<path style="fill:#565455; stroke:none;" d="M181.667 60.3333L182.333 60.6667L181.667 60.3333z"/>
<path style="fill:#75706d; stroke:none;" d="M195.667 60.3333L196.333 60.6667L195.667 60.3333z"/>
<path style="fill:#7c7c7c; stroke:none;" d="M22 62L23 63L22 62z"/>
<path style="fill:#a4a4a4; stroke:none;" d="M21 63L22 64L21 63z"/>
<path style="fill:#353535; stroke:none;" d="M230.333 64.6667L230.667 65.3333L230.333 64.6667z"/>
<path style="fill:#686360; stroke:none;" d="M221 66L222 67L221 66z"/>
<path style="fill:#6a6a6a; stroke:none;" d="M231 66L232 67L231 66z"/>
<path style="fill:#747474; stroke:none;" d="M19 67L20 68L19 67z"/>
<path style="fill:#918d8c; stroke:none;" d="M51 67L51 73L52 73L51 67z"/>
<path style="fill:#5e5858; stroke:none;" d="M174 67L175 68L174 67z"/>
<path style="fill:#61605c; stroke:none;" d="M29 68L30 69L29 68z"/>
<path style="fill:#433f3e; stroke:none;" d="M173.333 68.6667L173.667 69.3333L173.333 68.6667z"/>
<path style="fill:#8e8d8b; stroke:none;" d="M198 69L198 74L199 74L198 69z"/>
<path style="fill:#5c5b57; stroke:none;" d="M28 70L29 71L28 70z"/>
<path style="fill:#747273; stroke:none;" d="M79 71L80 72L79 71z"/>
<path style="fill:#7d7d7d; stroke:none;" d="M224 71L225 72L224 71z"/>
<path style="fill:#919191; stroke:none;" d="M234 71L235 72L234 71z"/>
<path style="fill:#8d8d8d; stroke:none;" d="M16 73L17 74L16 73z"/>
<path style="fill:#878787; stroke:none;" d="M235 73L236 74L235 73z"/>
<path style="fill:#353334; stroke:none;" d="M52 74L52 82L53 82L52 74z"/>
<path style="fill:#7d7c78; stroke:none;" d="M82.6667 74.3333L83.3333 74.6667L82.6667 74.3333z"/>
<path style="fill:#e5e0dd; stroke:none;" d="M185 75L169.431 92.8264L161 103L153 106L154 110L136 125C148.228 142.565 168.816 164.626 187 176L185 151L188 145L187.468 130.285L185.735 97L185 75z"/>
<path style="fill:#454442; stroke:none;" d="M198 75L198 79L199 79L198 75z"/>
<path style="fill:#676767; stroke:none;" d="M226 75L227 76L226 75z"/>
<path style="fill:#7d7978; stroke:none;" d="M25 76L26 77L25 76z"/>
<path style="fill:#615d5c; stroke:none;" d="M65 76L66 77L65 76z"/>
<path style="fill:#626262; stroke:none;" d="M183 76L184 77L183 76z"/>
<path style="fill:#8d8d8d; stroke:none;" d="M14 77L15 78L14 77z"/>
<path style="fill:#9e9a99; stroke:none;" d="M65 77L65 79L67 77L65 77z"/>
<path style="fill:#747474; stroke:none;" d="M182.333 77.6667L182.667 78.3333L182.333 77.6667z"/>
<path style="fill:#7c7c7c; stroke:none;" d="M237 77L238 78L237 77z"/>
<path style="fill:#d9d4d1; stroke:none;" d="M66 78L67 98C64.9661 99.7685 64.9661 101.231 67 103C63.4779 116.608 66.2531 123.844 73 135L75 133L82 134L84 126L87 128L88 128C87.8655 122.455 86.7762 120.192 81 120L81 115L92 109L94 111L93 114L96 111L98 111L99 115L96 115L97 121L91 120L93 125L90 126L90 128L95 129L94 127L111 128L108 132L104 131C102.524 134.956 101.166 137.715 97 139L97 140L100 143L104 142L102 138L105 139L118 128L118 127C97.3932 115.978 87.4728 88.0136 66 78z"/>
<path style="fill:#736f70; stroke:none;" d="M164 78L165 79L164 78z"/>
<path style="fill:#7b7b7b; stroke:none;" d="M13.3333 79.6667L13.6667 80.3333L13.3333 79.6667z"/>
<path style="fill:#5b5555; stroke:none;" d="M23.3333 79.6667L23.6667 80.3333L23.3333 79.6667z"/>
<path style="fill:#424041; stroke:none;" d="M65 79L65 87L66 87L65 79z"/>
<path style="fill:#777372; stroke:none;" d="M69 79L70 80L69 79z"/>
<path style="fill:#91908e; stroke:none;" d="M199 79L199 87L200 87L199 79z"/>
<path style="fill:#5e5e5e; stroke:none;" d="M228 79L229 80L228 79z"/>
<path style="fill:#6b6b6b; stroke:none;" d="M238 79L239 80L238 79z"/>
<path style="fill:#928c8c; stroke:none;" d="M180 80L181 81L180 80z"/>
<path style="fill:#686463; stroke:none;" d="M89.6667 81.3333L90.3333 81.6667L89.6667 81.3333z"/>
<path style="fill:#5f5b58; stroke:none;" d="M178 81L179 82L178 81z"/>
<path style="fill:#6e6868; stroke:none;" d="M229 81L230 82L229 81z"/>
<path style="fill:#5d5d5d; stroke:none;" d="M239.333 81.6667L239.667 82.3333L239.333 81.6667z"/>
<path style="fill:#626262; stroke:none;" d="M12.3333 82.6667L12.6667 83.3333L12.3333 82.6667z"/>
<path style="fill:#676664; stroke:none;" d="M52 82L52 90L53 90L52 82z"/>
<path style="fill:#656162; stroke:none;" d="M72 82L73 83L72 82z"/>
<path style="fill:#7d7978; stroke:none;" d="M92 82L93 83L92 82z"/>
<path style="fill:#696564; stroke:none;" d="M93 83L94 84L93 83z"/>
<path style="fill:#4d494a; stroke:none;" d="M186 83L186 90L187 90L186 83z"/>
<path style="fill:#94908f; stroke:none;" d="M230.333 83.6667L230.667 84.3333L230.333 83.6667z"/>
<path style="fill:#656565; stroke:none;" d="M240 84L241 85L240 84z"/>
<path style="fill:#737373; stroke:none;" d="M11 85L12 86L11 85z"/>
<path style="fill:#c8c8c8; stroke:none;" d="M241 85L241 88L242 88L241 85z"/>
<path style="fill:#6e6c6d; stroke:none;" d="M95 86L96 87L95 86z"/>
<path style="fill:#707070; stroke:none;" d="M10.3333 87.6667L10.6667 88.3333L10.3333 87.6667z"/>
<path style="fill:#848081; stroke:none;" d="M20.3333 87.6667L20.6667 88.3333L20.3333 87.6667z"/>
<path style="fill:#6a6967; stroke:none;" d="M66.3333 87.6667L66.6667 88.3333L66.3333 87.6667z"/>
<path style="fill:#5b595a; stroke:none;" d="M173 87L174 88L173 87z"/>
<path style="fill:#636162; stroke:none;" d="M154 88L155 89L154 88z"/>
<path style="fill:#393a35; stroke:none;" d="M65 89L65 94L66 94L65 89z"/>
<path style="fill:#827e7f; stroke:none;" d="M171.667 89.3333L172.333 89.6667L171.667 89.3333z"/>
<path style="fill:#404040; stroke:none;" d="M9.33333 90.6667L9.66667 91.3333L9.33333 90.6667z"/>
<path style="fill:#767070; stroke:none;" d="M185.333 90.6667L185.667 91.3333L185.333 90.6667z"/>
<path style="fill:#72716f; stroke:none;" d="M199 90L199 93L200 93L199 90z"/>
<path style="fill:#5f5f5f; stroke:none;" d="M242.333 90.6667L242.667 91.3333L242.333 90.6667z"/>
<path style="fill:#7e7a79; stroke:none;" d="M151 91L152 92L151 91z"/>
<path style="fill:#979694; stroke:none;" d="M233.333 91.6667L233.667 92.3333L233.333 91.6667z"/>
<path style="fill:#d9d9d9; stroke:none;" d="M8 92L8 96L9 96L8 92z"/>
<path style="fill:#888687; stroke:none;" d="M18.3333 92.6667L18.6667 93.3333L18.3333 92.6667z"/>
<path style="fill:#323031; stroke:none;" d="M52 92L52 109L53 109L52 92z"/>
<path style="fill:#7e7a79; stroke:none;" d="M149 92L150 93L149 92z"/>
<path style="fill:#373334; stroke:none;" d="M186 92L186 97L187 97L186 92z"/>
<path style="fill:#858182; stroke:none;" d="M169 93L170 94L169 93z"/>
<path style="fill:#a2a39e; stroke:none;" d="M65 94L66 98L67 98L65 94z"/>
<path style="fill:#6a6464; stroke:none;" d="M147 94L148 95L147 94z"/>
<path style="fill:#656364; stroke:none;" d="M166 94L166 95L169 95L166 94z"/>
<path style="fill:#494846; stroke:none;" d="M198 94L198 97L199 97L198 94z"/>
<path style="fill:#6f6d6e; stroke:none;" d="M234.333 94.6667L234.667 95.3333L234.333 94.6667z"/>
<path style="fill:#77726f; stroke:none;" d="M165 96L166 97L165 96z"/>
<path style="fill:#d9d9d9; stroke:none;" d="M244 96L244 100L245 100L244 96z"/>
<path style="fill:#4d4b4c; stroke:none;" d="M86.6667 97.3333L87.3333 97.6667L86.6667 97.3333z"/>
<path style="fill:#848381; stroke:none;" d="M185 97L185 100L186 100L185 97z"/>
<path style="fill:#5a5552; stroke:none;" d="M64.3333 98.6667L64.6667 99.3333L64.3333 98.6667z"/>
<path style="fill:#363231; stroke:none;" d="M108 98L109 101L108 98z"/>
<path style="fill:#9a9997; stroke:none;" d="M198 98L198 102L199 102L198 98z"/>
<path style="fill:#7c7879; stroke:none;" d="M235.333 98.6667L235.667 99.3333L235.333 98.6667z"/>
<path style="fill:#5f5d5e; stroke:none;" d="M89 99L90 100L89 99z"/>
<path style="fill:#9e9a99; stroke:none;" d="M105.667 99.3333L106.333 99.6667L105.667 99.3333z"/>
<path style="fill:#7c7676; stroke:none;" d="M143 99L144 100L143 99z"/>
<path style="fill:#949494; stroke:none;" d="M6.33333 100.667L6.66667 101.333L6.33333 100.667z"/>
<path style="fill:#8b8683; stroke:none;" d="M160 100L157 102L157 103C159.348 102.706 160.951 102.507 160 100z"/>
<path style="fill:#424242; stroke:none;" d="M244.333 100.667L244.667 101.333L244.333 100.667z"/>
<path style="fill:#3a3a3a; stroke:none;" d="M15 101L15 105L16 105L15 101z"/>
<path style="fill:#aba6a3; stroke:none;" d="M64.3333 101.667L64.6667 102.333L64.3333 101.667z"/>
<path style="fill:#7e7a79; stroke:none;" d="M141 101L142 102L141 101z"/>
<path style="fill:#636162; stroke:none;" d="M236 101L236 106L237 106L236 101z"/>
<path style="fill:#3b3633; stroke:none;" d="M64 103L66 105L66 103L64 103z"/>
<path style="fill:#918c89; stroke:none;" d="M66.3333 103.667L66.6667 104.333L66.3333 103.667z"/>
<path style="fill:#383637; stroke:none;" d="M186 103L186 108L187 108L186 103z"/>
<path style="fill:#575654; stroke:none;" d="M199.333 103.667L199.667 104.333L199.333 103.667z"/>
<path style="fill:#a2a2a2; stroke:none;" d="M245.333 103.667L245.667 104.333L245.333 103.667z"/>
<path style="fill:#c8c8c8; stroke:none;" d="M5 104L5 109L6 109L5 104z"/>
<path style="fill:#a6a19e; stroke:none;" d="M65.3333 105.667L65.6667 106.333L65.3333 105.667z"/>
<path style="fill:#696969; stroke:none;" d="M245 105L245 108L246 108L245 105z"/>
<path style="fill:#4e4e4e; stroke:none;" d="M14 107L14 110L15 110L14 107z"/>
<path style="fill:#767271; stroke:none;" d="M134 107L135 108L134 107z"/>
<path style="fill:#736f6e; stroke:none;" d="M98 108L99 109L98 108z"/>
<path style="fill:#7c7877; stroke:none;" d="M133 108L134 109L133 108z"/>
<path style="fill:#939290; stroke:none;" d="M199.333 108.667L199.667 109.333L199.333 108.667z"/>
<path style="fill:#504e4f; stroke:none;" d="M237.333 108.667L237.667 109.333L237.333 108.667z"/>
<path style="fill:#939393; stroke:none;" d="M246 108L246 113L247 113L246 108z"/>
<path style="fill:#838383; stroke:none;" d="M5 109L5 115L6 115L5 109z"/>
<path style="fill:#cdc9c6; stroke:none;" d="M81 115L81 120C86.3316 120.412 87.7174 122.856 88 128L87 128L84 126L82 134L73 135L67 131L66 177L86.4252 156.431L95 146C99.0603 145.322 100.973 142.599 97 140L97 139C101.638 138.214 102.902 135.329 104 131L108 132L111 128C106.497 122.601 100.585 128.039 94 127L95 129L90 128L90 126L93 125L91 120L97 121L96 115L99 115L98 111L96 111L93 114L94 111L92 109L81 115z"/>
<path style="fill:#7b7776; stroke:none;" d="M99 109L100 110L99 109z"/>
<path style="fill:#625d5a; stroke:none;" d="M116 109L119 112L119 111L116 109z"/>
<path style="fill:#696564; stroke:none;" d="M132 109L133 110L132 109z"/>
<path style="fill:#827e7d; stroke:none;" d="M152.667 109.333L153.333 109.667L152.667 109.333z"/>
<path style="fill:#61605e; stroke:none;" d="M185 109L185 115L186 115L185 109z"/>
<path style="fill:#9d9998; stroke:none;" d="M51 110L51 113L52 113L51 110z"/>
<path style="fill:#7b7575; stroke:none;" d="M100 110L101 111L100 110z"/>
<path style="fill:#817b7b; stroke:none;" d="M130 110L131 111L130 110z"/>
<path style="fill:#a8a6a7; stroke:none;" d="M150.667 110.333L151.333 110.667L150.667 110.333z"/>
<path style="fill:#5e5d5b; stroke:none;" d="M198.333 110.667L198.667 111.333L198.333 110.667z"/>
<path style="fill:#848283; stroke:none;" d="M237.333 110.667L237.667 111.333L237.333 110.667z"/>
<path style="fill:#403f3d; stroke:none;" d="M64 111L62 115L64 111z"/>
<path style="fill:#5c5a5b; stroke:none;" d="M149 111L150 112L149 111z"/>
<path style="fill:#9c9897; stroke:none;" d="M13 112L13 131L14 131L13 112z"/>
<path style="fill:#5d5c5a; stroke:none;" d="M102 112L103 113L102 112z"/>
<path style="fill:#929091; stroke:none;" d="M119 112L119 113L122 113L119 112z"/>
<path style="fill:#726d6a; stroke:none;" d="M148 113L149 114L148 113z"/>
<path style="fill:#434142; stroke:none;" d="M196 113L198 116L198 113L196 113z"/>
<path style="fill:#85807d; stroke:none;" d="M238 113L238 136L239 136L238 113z"/>
<path style="fill:#323232; stroke:none;" d="M246 113L246 121L247 121L246 113z"/>
<path style="fill:#a7a6a4; stroke:none;" d="M126 114L126 117L127 117L126 114z"/>
<path style="fill:#888380; stroke:none;" d="M146 114L147 115L146 114z"/>
<path style="fill:#575757; stroke:none;" d="M5 115L5 124L6 124L5 115z"/>
<path style="fill:#514d4a; stroke:none;" d="M51 115L52 124L53 124L51 115z"/>
<path style="fill:#767475; stroke:none;" d="M104 115L105 116L104 115z"/>
<path style="fill:#7e7e7c; stroke:none;" d="M124 116L125 117L124 116z"/>
<path style="fill:#656462; stroke:none;" d="M140 116L140 120L141 120L142 116L140 116z"/>
<path style="fill:#81807e; stroke:none;" d="M143 116L144 117L143 116z"/>
<path style="fill:#91908e; stroke:none;" d="M184 116L184 119L185 119L184 116z"/>
<path style="fill:#87827f; stroke:none;" d="M65 117L65 122L66 122L65 117z"/>
<path style="fill:#626262; stroke:none;" d="M106 117L107 118L106 117z"/>
<path style="fill:#9c9b99; stroke:none;" d="M199 117L199 120L200 120L199 117z"/>
<path style="fill:#494546; stroke:none;" d="M139.333 120.667L139.667 121.333L139.333 120.667z"/>
<path style="fill:#3c3a3b; stroke:none;" d="M185 120L186 124L187 124L185 120z"/>
<path style="fill:#433e3b; stroke:none;" d="M65 122L65 126L66 126L65 122z"/>
<path style="fill:#6d6968; stroke:none;" d="M110 122L111 123L110 122z"/>
<path style="fill:#939290; stroke:none;" d="M199 122L199 126L200 126L199 122z"/>
<path style="fill:#7f7b7a; stroke:none;" d="M111 123L112 124L111 123z"/>
<path style="fill:#a9a5a6; stroke:none;" d="M138 123L136 124L136 125L138 123z"/>
<path style="fill:#8a8987; stroke:none;" d="M52 125L52 128L53 128L52 125z"/>
<path style="fill:#7b7a78; stroke:none;" d="M114.667 125.333L115.333 125.667L114.667 125.333z"/>
<path style="fill:#5a5859; stroke:none;" d="M186 125L186 129L187 129L186 125z"/>
<path style="fill:#605c5d; stroke:none;" d="M136 126L137 127L136 126z"/>
<path style="fill:#343331; stroke:none;" d="M200 126L200 131L201 131L200 126z"/>
<path style="fill:#8d8c88; stroke:none;" d="M67 127L67 131L68 131L67 127z"/>
<path style="fill:#8d898a; stroke:none;" d="M137 127L138 128L137 127z"/>
<path style="fill:#8a8685; stroke:none;" d="M115 130L118 128L115 130z"/>
<path style="fill:#7f7e7c; stroke:none;" d="M138 128L139 129L138 128z"/>
<path style="fill:#323230; stroke:none;" d="M54 129L54 130L57 131L54 129z"/>
<path style="fill:#5c5b59; stroke:none;" d="M139 129L140 130L139 129z"/>
<path style="fill:#4e4e4e; stroke:none;" d="M246 129L246 140L247 140L246 129z"/>
<path style="fill:#302c2b; stroke:none;" d="M114 130L117 132L114 130z"/>
<path style="fill:#838182; stroke:none;" d="M188 130L188 133L189 133L190 130L188 130z"/>
<path style="fill:#686465; stroke:none;" d="M13 131L13 138L14 138L13 131z"/>
<path style="fill:#444442; stroke:none;" d="M55 131L54 134L55 131z"/>
<path style="fill:#74736f; stroke:none;" d="M66 131L66 138L67 138L66 131z"/>
<path style="fill:#4a4a4a; stroke:none;" d="M5 132L5 140L6 140L5 132z"/>
<path style="fill:#5d595a; stroke:none;" d="M187.333 133.667L187.667 134.333L187.333 133.667z"/>
<path style="fill:#3c3a3b; stroke:none;" d="M108.333 134.667L108.667 135.333L108.333 134.667z"/>
<path style="fill:#474644; stroke:none;" d="M53.3333 135.667L53.6667 136.333L53.3333 135.667z"/>
<path style="fill:#929091; stroke:none;" d="M126 136L126 137L130 136L126 136z"/>
<path style="fill:#7f7e7a; stroke:none;" d="M144 135L145 136L144 135z"/>
<path style="fill:#999896; stroke:none;" d="M200.333 135.667L200.667 136.333L200.333 135.667z"/>
<path style="fill:#575556; stroke:none;" d="M107 136L105 139L107 136z"/>
<path style="fill:#595758; stroke:none;" d="M129 136L129 138L131 136L129 136z"/>
<path style="fill:#757671; stroke:none;" d="M145 136L146 137L145 136z"/>
<path style="fill:#5f5a57; stroke:none;" d="M238 136L238 140L239 140L238 136z"/>
<path style="fill:#8b898a; stroke:none;" d="M125 137L126 138L125 137z"/>
<path style="fill:#d6d1ce; stroke:none;" d="M85 188L89 189L89 184L96 191L93 190L93 192L89 191L87 195L91 193L90 197L94 192L95 195L96 195L98 192L97 188L100 192L119 197L117 192L112 192L112 191L118 191L113 188L113 187L127 194L124 186L129 187L128 183L128 182C134.198 182.479 134.038 187.517 139.035 189.712C143.124 191.508 143.978 187.716 141.955 185.001C140.683 183.292 139.822 181.98 139 180C144.159 178.895 140.068 172.035 140 168L145 168C142.504 163.989 138.232 160.074 145 158L142 149L138 150C133.724 134.393 123.088 138.516 114.255 147.518C101.901 160.107 86.2915 170.093 85 188z"/>
<path style="fill:#5c5b57; stroke:none;" d="M146 137L147 138L146 137z"/>
<path style="fill:#767573; stroke:none;" d="M52.3333 138.667L52.6667 139.333L52.3333 138.667z"/>
<path style="fill:#2a2925; stroke:none;" d="M65 138L65 146L66 146L65 138z"/>
<path style="fill:#94908f; stroke:none;" d="M102 138L102 140L104 138L102 138z"/>
<path style="fill:#868583; stroke:none;" d="M124 138L125 139L124 138z"/>
<path style="fill:#686463; stroke:none;" d="M130 138L131 139L130 138z"/>
<path style="fill:#82817f; stroke:none;" d="M199 138L199 147L200 147L199 138z"/>
<path style="fill:#787677; stroke:none;" d="M123 139L124 140L123 139z"/>
<path style="fill:#bebebe; stroke:none;" d="M5 140L5 144L6 144L5 140z"/>
<path style="fill:#575654; stroke:none;" d="M122 140L123 141L122 140z"/>
<path style="fill:#9e9a9b; stroke:none;" d="M186 140L186 143L187 143L186 140z"/>
<path style="fill:#aaaaaa; stroke:none;" d="M246 140L246 144L247 144L246 140z"/>
<path style="fill:#686264; stroke:none;" d="M14 141L14 144L15 144L14 141z"/>
<path style="fill:#656462; stroke:none;" d="M132 141L133 142L132 141z"/>
<path style="fill:#737172; stroke:none;" d="M120 142L121 143L120 142z"/>
<path style="fill:#686360; stroke:none;" d="M237.333 142.667L237.667 143.333L237.333 142.667z"/>
<path style="fill:#4e4d4b; stroke:none;" d="M52 143L55 146L52 143z"/>
<path style="fill:#716d6e; stroke:none;" d="M100.667 143.333L101.333 143.667L100.667 143.333z"/>
<path style="fill:#9c9696; stroke:none;" d="M185.333 143.667L185.667 144.333L185.333 143.667z"/>
<path style="fill:#323031; stroke:none;" d="M186 143L189 146L186 143z"/>
<path style="fill:#5c5754; stroke:none;" d="M117 144L118 145L117 144z"/>
<path style="fill:#7f7b7a; stroke:none;" d="M154 144L155 145L154 144z"/>
<path style="fill:#d2d2d2; stroke:none;" d="M246 144L246 148L247 148L246 144z"/>
<path style="fill:#696969; stroke:none;" d="M6.33333 145.667L6.66667 146.333L6.33333 145.667z"/>
<path style="fill:#9d9996; stroke:none;" d="M136.333 145.667L136.667 146.333L136.333 145.667z"/>
<path style="fill:#444444; stroke:none;" d="M15 146L15 150L16 150L15 146z"/>
<path style="fill:#636260; stroke:none;" d="M53 146L53 151L54 151L53 146z"/>
<path style="fill:#958f8f; stroke:none;" d="M95 146L95 149L96 149L95 146z"/>
<path style="fill:#323230; stroke:none;" d="M96 149L97 149L99 147C96.8603 145.882 96.4732 146.749 96 149z"/>
<path style="fill:#827d7a; stroke:none;" d="M115 146L116 147L115 146z"/>
<path style="fill:#868485; stroke:none;" d="M236.333 146.667L236.667 147.333L236.333 146.667z"/>
<path style="fill:#a5a5a5; stroke:none;" d="M6 147L6 150L7 150L6 147z"/>
<path style="fill:#81807c; stroke:none;" d="M66 147L66 152L67 152L66 147z"/>
<path style="fill:#373632; stroke:none;" d="M138 147L140 150L138 147z"/>
<path style="fill:#817c79; stroke:none;" d="M113 148L114 149L113 148z"/>
<path style="fill:#5c5b57; stroke:none;" d="M140.667 148.333L141.333 148.667L140.667 148.333z"/>
<path style="fill:#848381; stroke:none;" d="M157 148L158 149L157 148z"/>
<path style="fill:#767273; stroke:none;" d="M94 149L95 150L94 149z"/>
<path style="fill:#8d8988; stroke:none;" d="M158 149L159 150L158 149z"/>
<path style="fill:#6a6a6a; stroke:none;" d="M245 149L245 152L246 152L245 149z"/>
<path style="fill:#777576; stroke:none;" d="M93 150L94 151L93 150z"/>
<path style="fill:#575556; stroke:none;" d="M159 150L160 151L159 150z"/>
<path style="fill:#5d5c58; stroke:none;" d="M160 151L161 152L160 151z"/>
<path style="fill:#b6b2b3; stroke:none;" d="M185 151L186 155L187 155L185 151z"/>
<path style="fill:#51504e; stroke:none;" d="M53 152L53 155L54 155L53 152z"/>
<path style="fill:#767573; stroke:none;" d="M199 152L199 157L200 157L199 152z"/>
<path style="fill:#656162; stroke:none;" d="M235.333 152.667L235.667 153.333L235.333 152.667z"/>
<path style="fill:#4c4744; stroke:none;" d="M16.3333 153.667L16.6667 154.333L16.3333 153.667z"/>
<path style="fill:#969291; stroke:none;" d="M145 153L145 157L146 157L145 153z"/>
<path style="fill:#393536; stroke:none;" d="M186 155L186 160L187 160L186 155z"/>
<path style="fill:#585755; stroke:none;" d="M52 156L52 160L53 160L52 156z"/>
<path style="fill:#888483; stroke:none;" d="M147 156L148 157L147 156z"/>
<path style="fill:#d8d8d8; stroke:none;" d="M243 156L243 161L244 161L243 156z"/>
<path style="fill:#7c7b77; stroke:none;" d="M66.3333 157.667L66.6667 158.333L66.3333 157.667z"/>
<path style="fill:#6d696a; stroke:none;" d="M104 157L105 158L104 157z"/>
<path style="fill:#3d3c3a; stroke:none;" d="M148.667 157.333L149.333 157.667L148.667 157.333z"/>
<path style="fill:#c3c3c3; stroke:none;" d="M8.33333 158.667L8.66667 159.333L8.33333 158.667z"/>
<path style="fill:#686667; stroke:none;" d="M103 158L104 159L103 158z"/>
<path style="fill:#807a7a; stroke:none;" d="M233.333 158.667L233.667 159.333L233.333 158.667z"/>
<path style="fill:#9f9e9c; stroke:none;" d="M199 159L199 165L200 165L199 159z"/>
<path style="fill:#636162; stroke:none;" d="M18.3333 160.667L18.6667 161.333L18.3333 160.667z"/>
<path style="fill:#4a4b46; stroke:none;" d="M65 160L65 168L66 168L65 160z"/>
<path style="fill:#454543; stroke:none;" d="M82.6667 160.333L83.3333 160.667L82.6667 160.333z"/>
<path style="fill:#767271; stroke:none;" d="M185 160L185 163L186 163L185 160z"/>
<path style="fill:#979797; stroke:none;" d="M9.33333 161.667L9.66667 162.333L9.33333 161.667z"/>
<path style="fill:#373735; stroke:none;" d="M81.3333 161.667L81.6667 162.333L81.3333 161.667z"/>
<path style="fill:#777674; stroke:none;" d="M170 161L171 162L170 161z"/>
<path style="fill:#949494; stroke:none;" d="M242 162L243 163L242 162z"/>
<path style="fill:#8a8987; stroke:none;" d="M52 163L52 172L53 172L52 163z"/>
<path style="fill:#7d7875; stroke:none;" d="M99 163L100 164L99 163z"/>
<path style="fill:#838383; stroke:none;" d="M154 163L154 166L155 166L154 163z"/>
<path style="fill:#434142; stroke:none;" d="M186 163L186 167L187 167L186 163z"/>
<path style="fill:#9d9d9d; stroke:none;" d="M10 165L10 168L11 168L10 165z"/>
<path style="fill:#514d4e; stroke:none;" d="M20 165L20 168L21 168L20 165z"/>
<path style="fill:#736e6b; stroke:none;" d="M96 165L97 166L96 165z"/>
<path style="fill:#595856; stroke:none;" d="M199 165L199 178L200 178L199 165z"/>
<path style="fill:#4e4a49; stroke:none;" d="M76 166L76 168L78 166L76 166z"/>
<path style="fill:#6f6d6e; stroke:none;" d="M155 166L156 167L155 166z"/>
<path style="fill:#868583; stroke:none;" d="M230.333 166.667L230.667 167.333L230.333 166.667z"/>
<path style="fill:#696768; stroke:none;" d="M186 167L186 172L187 172L186 167z"/>
<path style="fill:#787878; stroke:none;" d="M240 167L241 168L240 167z"/>
<path style="fill:#585453; stroke:none;" d="M75 169L76 170L75 169z"/>
<path style="fill:#b4b4b4; stroke:none;" d="M239.333 169.667L239.667 170.333L239.333 169.667z"/>
<path style="fill:#a7a7a7; stroke:none;" d="M12.3333 170.667L12.6667 171.333L12.3333 170.667z"/>
<path style="fill:#736f70; stroke:none;" d="M91 170L92 171L91 170z"/>
<path style="fill:#5f5e5c; stroke:none;" d="M160 170L161 171L160 170z"/>
<path style="fill:#6b6766; stroke:none;" d="M229 170L230 171L229 170z"/>
<path style="fill:#848081; stroke:none;" d="M90 171L91 172L90 171z"/>
<path style="fill:#787a78; stroke:none;" d="M238 171L238 174L239 174L238 171z"/>
<path style="fill:#504f4d; stroke:none;" d="M53 172L53 176L54 176L53 172z"/>
<path style="fill:#484445; stroke:none;" d="M71.6667 172.333L72.3333 172.667L71.6667 172.333z"/>
<path style="fill:#646061; stroke:none;" d="M89 172L90 173L89 172z"/>
<path style="fill:#7f7f7f; stroke:none;" d="M13 173L14 174L13 173z"/>
<path style="fill:#706f6d; stroke:none;" d="M183 173L184 174L183 173z"/>
<path style="fill:#9d9c9a; stroke:none;" d="M165.333 174.667L165.667 175.333L165.333 174.667z"/>
<path style="fill:#777674; stroke:none;" d="M184 174L185 175L184 174z"/>
<path style="fill:#878787; stroke:none;" d="M14 175L15 176L14 175z"/>
<path style="fill:#656162; stroke:none;" d="M69 175L70 176L69 175z"/>
<path style="fill:#6b6a68; stroke:none;" d="M185 175L186 176L185 175z"/>
<path style="fill:#959595; stroke:none;" d="M237 175L238 176L237 175z"/>
<path style="fill:#5d5d5d; stroke:none;" d="M15 176L16 177L15 176z"/>
<path style="fill:#a7a6a2; stroke:none;" d="M166.667 176.333L167.333 176.667L166.667 176.333z"/>
<path style="fill:#575956; stroke:none;" d="M66.6667 177.333L67.3333 177.667L66.6667 177.333z"/>
<path style="fill:#7e7d7b; stroke:none;" d="M200 178L200 186L201 186L200 178z"/>
<path style="fill:#464243; stroke:none;" d="M26.3333 179.667L26.6667 180.333L26.3333 179.667z"/>
<path style="fill:#8f8b8a; stroke:none;" d="M53 179L53 184L54 184L53 179z"/>
<path style="fill:#767273; stroke:none;" d="M27 181L28 182L27 181z"/>
<path style="fill:#50514c; stroke:none;" d="M172.667 181.333L173.333 181.667L172.667 181.333z"/>
<path style="fill:#61625d; stroke:none;" d="M174 182L175 183L174 182z"/>
<path style="fill:#c6c6c7; stroke:none;" d="M18.3333 183.667L18.6667 184.333L18.3333 183.667z"/>
<path style="fill:#6c6c6c; stroke:none;" d="M79 183L80 184L79 183z"/>
<path style="fill:#666666; stroke:none;" d="M233 183L234 184L233 183z"/>
<path style="fill:#615f60; stroke:none;" d="M78 184L79 185L78 184z"/>
<path style="fill:#737373; stroke:none;" d="M232 185L233 186L232 185z"/>
<path style="fill:#848484; stroke:none;" d="M20 186L21 187L20 186z"/>
<path style="fill:#595856; stroke:none;" d="M30 186L31 187L30 186z"/>
<path style="fill:#908f8d; stroke:none;" d="M199 186L199 189L200 189L199 186z"/>
<path style="fill:#5f5f5f; stroke:none;" d="M21 188L22 189L21 188z"/>
<path style="fill:#8b898a; stroke:none;" d="M180 188L181 189L180 188z"/>
<path style="fill:#737373; stroke:none;" d="M230 188L231 189L230 188z"/>
<path style="fill:#777777; stroke:none;" d="M22 189L23 190L22 189z"/>
<path style="fill:#736e6b; stroke:none;" d="M32 189L33 190L32 189z"/>
<path style="fill:#7c7a7b; stroke:none;" d="M182 189L183 190L182 189z"/>
<path style="fill:#535250; stroke:none;" d="M199 189L199 192L200 192L199 189z"/>
<path style="fill:#949293; stroke:none;" d="M183 190L184 191L183 190z"/>
<path style="fill:#7f7f7f; stroke:none;" d="M229 190L230 191L229 190z"/>
<path style="fill:#7f7f7d; stroke:none;" d="M35 193L36 194L35 193z"/>
<path style="fill:#433f3c; stroke:none;" d="M58.6667 193.333L59.3333 193.667L58.6667 193.333z"/>
<path style="fill:#827d7a; stroke:none;" d="M68 193L69 194L68 193z"/>
<path style="fill:#6b6663; stroke:none;" d="M186 193L187 194L186 193z"/>
<path style="fill:#888380; stroke:none;" d="M192.667 193.333L193.333 193.667L192.667 193.333z"/>
<path style="fill:#676664; stroke:none;" d="M216 193L217 194L216 193z"/>
<path style="fill:#7e7a77; stroke:none;" d="M60 194L61 195L60 194z"/>
<path style="fill:#534e4b; stroke:none;" d="M188.667 194.333L189.333 194.667L188.667 194.333z"/>
<path style="fill:#8e8986; stroke:none;" d="M190.667 194.333L191.333 194.667L190.667 194.333z"/>
<path style="fill:#8b8b8b; stroke:none;" d="M226 195L227 196L226 195z"/>
<path style="fill:#666563; stroke:none;" d="M37 196L38 197L37 196z"/>
<path style="fill:#5b5653; stroke:none;" d="M64.6667 196.333L65.3333 196.667L64.6667 196.333z"/>
<path style="fill:#44403f; stroke:none;" d="M214 196L213 199L214 196z"/>
<path style="fill:#676362; stroke:none;" d="M38 197L39 198L38 197z"/>
<path style="fill:#938f8e; stroke:none;" d="M212.333 198.667L212.667 199.333L212.333 198.667z"/>
<path style="fill:#828282; stroke:none;" d="M224 198L225 199L224 198z"/>
<path style="fill:#7f7f7f; stroke:none;" d="M223 199L224 200L223 199z"/>
<path style="fill:#7e7e7e; stroke:none;" d="M29 200L30 201L29 200z"/>
<path style="fill:#5c5c5c; stroke:none;" d="M30 201L31 202L30 201z"/>
<path style="fill:#a2a2a2; stroke:none;" d="M222 201L223 202L222 201z"/>
<path style="fill:#575757; stroke:none;" d="M31 202L32 203L31 202z"/>
<path style="fill:#585753; stroke:none;" d="M209 203L210 204L209 203z"/>
<path style="fill:#61625d; stroke:none;" d="M208 204L209 205L208 204z"/>
<path style="fill:#7d7d7d; stroke:none;" d="M219 204L220 205L219 204z"/>
<path style="fill:#a6a6a6; stroke:none;" d="M218 205L219 206L218 205z"/>
<path style="fill:#777777; stroke:none;" d="M34 206L35 207L34 206z"/>
<path style="fill:#6a6a6a; stroke:none;" d="M217 206L218 207L217 206z"/>
<path style="fill:#424242; stroke:none;" d="M35.3333 207.667L35.6667 208.333L35.3333 207.667z"/>
<path style="fill:#595554; stroke:none;" d="M47 207L48 208L47 207z"/>
<path style="fill:#606060; stroke:none;" d="M216 207L217 208L216 207z"/>
<path style="fill:#626260; stroke:none;" d="M204 208L205 209L204 208z"/>
<path style="fill:#555555; stroke:none;" d="M215 208L216 209L215 208z"/>
<path style="fill:#696866; stroke:none;" d="M203 209L204 210L203 209z"/>
<path style="fill:#9c9c9c; stroke:none;" d="M38.3333 211.667L38.6667 212.333L38.3333 211.667z"/>
<path style="fill:#8a8a8a; stroke:none;" d="M212 212L213 213L212 212z"/>
<path style="fill:#656565; stroke:none;" d="M39 213L40 214L39 213z"/>
<path style="fill:#6b6a68; stroke:none;" d="M54 213L55 214L54 213z"/>
<path style="fill:#979797; stroke:none;" d="M211 213L212 214L211 213z"/>
<path style="fill:#8c8c8c; stroke:none;" d="M40 214L41 215L40 214z"/>
<path style="fill:#6f6e6c; stroke:none;" d="M55 214L56 215L55 214z"/>
<path style="fill:#837f7c; stroke:none;" d="M197 214L198 215L197 214z"/>
<path style="fill:#939393; stroke:none;" d="M210 214L211 215L210 214z"/>
<path style="fill:#a6a6a6; stroke:none;" d="M41 215L41 216L44 216L41 215z"/>
<path style="fill:#9c9c9c; stroke:none;" d="M209 215L210 216L209 215z"/>
<path style="fill:#a4a4a4; stroke:none;" d="M208 216L209 217L208 216z"/>
<path style="fill:#626262; stroke:none;" d="M46 217L47 218L46 217z"/>
<path style="fill:#868686; stroke:none;" d="M47 218L48 219L47 218z"/>
<path style="fill:#62615f; stroke:none;" d="M60 218L61 219L60 218z"/>
<path style="fill:#818181; stroke:none;" d="M48 219L49 220L48 219z"/>
<path style="fill:#91908e; stroke:none;" d="M63 220L64 221L63 220z"/>
<path style="fill:#817c79; stroke:none;" d="M186 222L187 223L186 222z"/>
<path style="fill:#6e6e6e; stroke:none;" d="M53 223L54 224L53 223z"/>
<path style="fill:#433e3b; stroke:none;" d="M184.667 223.333L185.333 223.667L184.667 223.333z"/>
<path style="fill:#a2a2a2; stroke:none;" d="M54 224L55 225L54 224z"/>
<path style="fill:#5f5d5e; stroke:none;" d="M69 224L70 225L69 224z"/>
<path style="fill:#787878; stroke:none;" d="M181 225L182 226L181 225z"/>
<path style="fill:#9c9c9c; stroke:none;" d="M57 226L58 227L57 226z"/>
<path style="fill:#8a8889; stroke:none;" d="M73 226L74 227L73 226z"/>
<path style="fill:#727272; stroke:none;" d="M196 226L197 227L196 226z"/>
<path style="fill:#767676; stroke:none;" d="M177 227L178 228L177 227z"/>
<path style="fill:#8b8b8b; stroke:none;" d="M195 227L196 228L195 227z"/>
<path style="fill:#777777; stroke:none;" d="M76.6667 228.333L77.3333 228.667L76.6667 228.333z"/>
<path style="fill:#666666; stroke:none;" d="M193 228L194 229L193 228z"/>
<path style="fill:#989898; stroke:none;" d="M62 229L63 230L62 229z"/>
<path style="fill:#727272; stroke:none;" d="M79 229L80 230L79 229z"/>
<path style="fill:#3b3a38; stroke:none;" d="M170.667 230.333L171.333 230.667L170.667 230.333z"/>
<path style="fill:#666666; stroke:none;" d="M190 230L191 231L190 230z"/>
<path style="fill:#8b8b8b; stroke:none;" d="M65 231L66 232L65 231M66 232L67 233L66 232z"/>
<path style="fill:#929292; stroke:none;" d="M187 232L188 233L187 232z"/>
<path style="fill:#5f5f5f; stroke:none;" d="M68 233L69 234L68 233z"/>
<path style="fill:#b5b4b2; stroke:none;" d="M160 233L160 234L163 234L160 233z"/>
<path style="fill:#696969; stroke:none;" d="M185 233L186 234L185 233z"/>
<path style="fill:#868686; stroke:none;" d="M70 234L71 235L70 234z"/>
<path style="fill:#9c9c9c; stroke:none;" d="M92.6667 234.333L93.3333 234.667L92.6667 234.333z"/>
<path style="fill:#878787; stroke:none;" d="M183 234L184 235L183 234z"/>
<path style="fill:#737373; stroke:none;" d="M72 235L73 236L72 235z"/>
<path style="fill:#908f8b; stroke:none;" d="M95.6667 235.333L96.3333 235.667L95.6667 235.333z"/>
<path style="fill:#6d6d6d; stroke:none;" d="M74.6667 236.333L75.3333 236.667L74.6667 236.333z"/>
<path style="fill:#53524e; stroke:none;" d="M98 236L98 237L101 237L98 236z"/>
<path style="fill:#8f8d8e; stroke:none;" d="M150.667 236.333L151.333 236.667L150.667 236.333z"/>
<path style="fill:#484647; stroke:none;" d="M152.667 236.333L153.333 236.667L152.667 236.333z"/>
<path style="fill:#666666; stroke:none;" d="M77 237L78 238L77 237z"/>
<path style="fill:#4b4a46; stroke:none;" d="M102.667 237.333L103.333 237.667L102.667 237.333z"/>
<path style="fill:#a1a09c; stroke:none;" d="M104.667 237.333L105.333 237.667L104.667 237.333z"/>
<path style="fill:#5f5d5e; stroke:none;" d="M147.667 237.333L148.333 237.667L147.667 237.333z"/>
<path style="fill:#545454; stroke:none;" d="M79.6667 238.333L80.3333 238.667L79.6667 238.333z"/>
<path style="fill:#4c4b47; stroke:none;" d="M107 238L107 239L110 239L107 238z"/>
<path style="fill:#9c9794; stroke:none;" d="M140 238L140 239L144 239L140 238z"/>
<path style="fill:#3b3b3b; stroke:none;" d="M144.667 238.333L145.333 238.667L144.667 238.333z"/>
<path style="fill:#959595; stroke:none;" d="M173.667 238.333L174.333 238.667L173.667 238.333z"/>
<path style="fill:#636363; stroke:none;" d="M82 239L83 240L82 239z"/>
<path style="fill:#8d8885; stroke:none;" d="M114 239L114 240L123 240L114 239z"/>
<path style="fill:#b6b1ae; stroke:none;" d="M123 239L123 240L133 240L123 239z"/>
<path style="fill:#393431; stroke:none;" d="M133 239L133 240L139 240L133 239z"/>
<path style="fill:#626262; stroke:none;" d="M85 240L86 241L85 240z"/>
<path style="fill:#989898; stroke:none;" d="M86.6667 241.333L87.3333 241.667L86.6667 241.333z"/>
<path style="fill:#bababa; stroke:none;" d="M166.667 241.333L167.333 241.667L166.667 241.333z"/>
<path style="fill:#545454; stroke:none;" d="M89 242L89 243L92 243L89 242z"/>
<path style="fill:#828282; stroke:none;" d="M164 242L165 243L164 242z"/>
<path style="fill:#767676; stroke:none;" d="M93 243L94 244L93 243z"/>
<path style="fill:#a1a1a1; stroke:none;" d="M155.667 244.333L156.333 244.667L155.667 244.333z"/>
<path style="fill:#bcbcbc; stroke:none;" d="M96.6667 245.333L97.3333 245.667L96.6667 245.333z"/>
<path style="fill:#c9c9c9; stroke:none;" d="M152.667 245.333L153.333 245.667L152.667 245.333z"/>
<path style="fill:#747474; stroke:none;" d="M100 246L100 247L104 247L100 246z"/>
<path style="fill:#757575; stroke:none;" d="M107 246L107 247L111 247L107 246z"/>
<path style="fill:#5d5d5d; stroke:none;" d="M144 246L144 247L151 247L144 246z"/>
<path style="fill:#b9b9b9; stroke:none;" d="M104 247L104 248L107 248L104 247z"/>
<path style="fill:#8a8a8a; stroke:none;" d="M113 247L113 248L117 248L113 247z"/>
<path style="fill:#3d3d3d; stroke:none;" d="M119.667 247.333L120.333 247.667L119.667 247.333z"/>
<path style="fill:#626262; stroke:none;" d="M122 247L122 248L130 248L122 247M131 247L131 248L139 248L131 247z"/>
<path style="fill:#b4b4b4; stroke:none;" d="M139.667 247.333L140.333 247.667L139.667 247.333z"/>
</svg>
