<?xml version="1.0" standalone="yes"?>
<svg width="252" height="252">

<path style="fill:#a3a3a3; stroke:none;" d="M108 5L108 6L113 6L108 5z"/>
<path style="fill:#5f5f5f; stroke:none;" d="M113 5L113 6L121 6L113 5z"/>
<path style="fill:#010100; stroke:none;" d="M121 5.70988C66.2095 6.5237 15.533 47.7342 6.32562 103C-5.04018 171.221 45.7303 249.514 120 247.59C149.201 246.833 176.041 242.327 200 224.101C255.396 181.959 264.411 89.6174 212.981 40.2446C187.774 16.0449 155.066 5.2039 121 5.70988z"/>
<path style="fill:#626262; stroke:none;" d="M122 5L122 6L130 6L122 5z"/>
<path style="fill:#5c5c5c; stroke:none;" d="M131.667 5.33333L132.333 5.66667L131.667 5.33333z"/>
<path style="fill:#898989; stroke:none;" d="M134 5L134 6L139 6L134 5z"/>
<path style="fill:#a4a4a4; stroke:none;" d="M145 5L145 6L148 6L145 5z"/>
<path style="fill:#adadab; stroke:none;" d="M100.667 6.33333L101.333 6.66667L100.667 6.33333z"/>
<path style="fill:#696969; stroke:none;" d="M102.667 6.33333L103.333 6.66667L102.667 6.33333z"/>
<path style="fill:#545454; stroke:none;" d="M142 6L142 7L145 7L142 6z"/>
<path style="fill:#959595; stroke:none;" d="M150.667 6.33333L151.333 6.66667L150.667 6.33333z"/>
<path style="fill:#979797; stroke:none;" d="M98.6667 7.33333L99.3333 7.66667L98.6667 7.33333z"/>
<path style="fill:#737373; stroke:none;" d="M94 8L94 9L97 9L94 8z"/>
<path style="fill:#848484; stroke:none;" d="M156 8L157 9L156 8z"/>
<path style="fill:#464646; stroke:none;" d="M89.6667 9.33333L90.3333 9.66667L89.6667 9.33333z"/>
<path style="fill:#7c7c7c; stroke:none;" d="M87 10L88 11L87 10z"/>
<path style="fill:#545454; stroke:none;" d="M160 10L160 11L163 11L160 10z"/>
<path style="fill:#7b7b7b; stroke:none;" d="M84 11L85 12L84 11z"/>
<path style="fill:#8e8e8e; stroke:none;" d="M165 11L166 12L165 11z"/>
<path style="fill:#838383; stroke:none;" d="M82 12L83 13L82 12z"/>
<path style="fill:#606060; stroke:none;" d="M166 12L167 13L166 12z"/>
<path style="fill:#858585; stroke:none;" d="M79.6667 13.3333L80.3333 13.6667L79.6667 13.3333z"/>
<path style="fill:#6f6b52; stroke:none;" d="M111 13L111 14L117 14L111 13z"/>
<path style="fill:#a3a07d; stroke:none;" d="M117 13L117 14L138 14L117 13z"/>
<path style="fill:#4d4835; stroke:none;" d="M138 13L138 14L141 14L138 13z"/>
<path style="fill:#8e8e8e; stroke:none;" d="M77 14L78 15L77 14z"/>
<path style="fill:#686312; stroke:none;" d="M106 14L106 15L109 15L106 14z"/>
<path style="fill:#f9ef76; stroke:none;" d="M79 23L79 24L84 24L84 26L80 26L86 30L86 26L94 28L95 28L96 28L100 26L99 23L106 21L106 20L100 20L100 18L114 18L112 16L112 15L116 15C116.071 20.9509 122.982 28.5809 126 20L144 22L144 20L134 20L134 18L155 18C133.548 6.57489 100.137 15.2239 79 23z"/>
<path style="fill:#6d6d6d; stroke:none;" d="M172 14L173 15L172 14z"/>
<path style="fill:#46402a; stroke:none;" d="M101 15L101 16L104 16L101 15z"/>
<path style="fill:#f7dd4a; stroke:none;" d="M112 15L112 16L114 18L100 18L100 20L106 20L106 21L99 23L100 26L96 28L95 28L94 28L86 26L86 30L80 26L84 26L84 24C71.0672 24.0442 66.6874 30.9041 59 39L62 40L64 46L64 47L64 48L62 50C60.4076 49.6987 56.8874 49.6467 60 51L60 52L42 56L42 55L45 54L44 50L48 47C38.4735 50.7409 26.3761 67.5953 28 78L33 76L32 80L39 81L45 76L45 75L43 74L52 70L53 73L58 70L51 67L51 66L64 66L64 65L53 64L53 63C56.6624 62.8543 61.4638 63.3871 64.7369 61.4923C70.0118 58.4385 73.9739 49.0104 82 55L84 55L84 53L85 53C86.2164 58.5703 89.522 57.6795 94 55.5864C105.734 50.1019 121.964 46.2151 135 48.3248C143.748 49.7407 155.605 56.744 164 55L162 51L169 51L169 46L168 46L165 45L173 45L172 38L175 40L180 39L179 33L176 34L174 28L177 27L177 25C161.852 19.5459 150.095 18.0018 134 18L134 20L144 20L144 22L126 20C121.775 27.2005 116.196 21.0007 116 15L112 15z"/>
<path style="fill:#7f815c; stroke:none;" d="M146.667 15.3333L147.333 15.6667L146.667 15.3333z"/>
<path style="fill:#666666; stroke:none;" d="M174 15L175 16L174 15z"/>
<path style="fill:#6b6a6b; stroke:none;" d="M73 16L74 17L73 16z"/>
<path style="fill:#a39c41; stroke:none;" d="M98.6667 16.3333L99.3333 16.6667L98.6667 16.3333z"/>
<path style="fill:#867f24; stroke:none;" d="M151.667 16.3333L152.333 16.6667L151.667 16.3333z"/>
<path style="fill:#7a7a7a; stroke:none;" d="M176.667 16.3333L177.333 16.6667L176.667 16.3333z"/>
<path style="fill:#898989; stroke:none;" d="M70 17L71 18L70 17z"/>
<path style="fill:#a8a266; stroke:none;" d="M95.6667 17.3333L96.3333 17.6667L95.6667 17.3333z"/>
<path style="fill:#565247; stroke:none;" d="M155.667 17.3333L156.333 17.6667L155.667 17.3333z"/>
<path style="fill:#c7c7c7; stroke:none;" d="M179.667 17.3333L180.333 17.6667L179.667 17.3333z"/>
<path style="fill:#7a7a7a; stroke:none;" d="M68 18L69 19L68 18z"/>
<path style="fill:#746b10; stroke:none;" d="M91.6667 18.3333L92.3333 18.6667L91.6667 18.3333z"/>
<path style="fill:#8f7a07; stroke:none;" d="M158.667 18.3333L159.333 18.6667L158.667 18.3333z"/>
<path style="fill:#bebebd; stroke:none;" d="M181.667 18.3333L182.333 18.6667L181.667 18.3333z"/>
<path style="fill:#929292; stroke:none;" d="M64 20L65 21L64 20z"/>
<path style="fill:#b0a64d; stroke:none;" d="M86.6667 20.3333L87.3333 20.6667L86.6667 20.3333z"/>
<path style="fill:#8b8b8c; stroke:none;" d="M185 20L186 21L185 20z"/>
<path style="fill:#909090; stroke:none;" d="M62 21L63 22L62 21z"/>
<path style="fill:#b9b075; stroke:none;" d="M166 21L166 22L169 22L166 21z"/>
<path style="fill:#919191; stroke:none;" d="M191 24L192 25L191 24z"/>
<path style="fill:#8b8b8b; stroke:none;" d="M56 25L57 26L56 25z"/>
<path style="fill:#7d7244; stroke:none;" d="M74 25L75 26L74 25z"/>
<path style="fill:#626262; stroke:none;" d="M55 26L56 27L55 26z"/>
<path style="fill:#8e7f00; stroke:none;" d="M71.6667 26.3333L72.3333 26.6667L71.6667 26.3333z"/>
<path style="fill:#f9ef80; stroke:none;" d="M100 28L98 33L130 42L130 38L140 38L140 36L136 36L138 32L126 32L128 30L100 28z"/>
<path style="fill:#ebc639; stroke:none;" d="M174 28L176 34L179 33L180 39L175 40L172 38L174 40L173 45L165 45C165.929 46.9367 166.665 47.9706 168 46L169 46L169 51L162 51L164 55L161 56L161 57L171 59L169 53C171.614 55.8266 173.173 56.9173 177 56L176 52C178.046 53.7467 178.474 53.6451 179 51L180 51L183 57L184 57L189 49L189 48L185 49L187 47C185.276 41.6473 190.762 40.1943 190.67 35.7809C190.535 29.2874 178.635 26.4536 174 28z"/>
<path style="fill:#563d00; stroke:none;" d="M178.667 26.3333L179.333 26.6667L178.667 26.3333z"/>
<path style="fill:#a7a7a7; stroke:none;" d="M53 27L54 28L53 27z"/>
<path style="fill:#7e6b33; stroke:none;" d="M70 27L71 28L70 27z"/>
<path style="fill:#a7a7a7; stroke:none;" d="M196 27L197 28L196 27z"/>
<path style="fill:#989898; stroke:none;" d="M52 28L53 29L52 28z"/>
<path style="fill:#656565; stroke:none;" d="M51 29L52 30L51 29z"/>
<path style="fill:#a4a4a4; stroke:none;" d="M201 31L202 32L201 31z"/>
<path style="fill:#909190; stroke:none;" d="M47 32L48 33L47 32z"/>
<path style="fill:#908f90; stroke:none;" d="M202 32L203 33L202 32z"/>
<path style="fill:#f6eb6f; stroke:none;" d="M61 33L45 48L48 47L44 50L45 54L42 55L42 56L60 52L60 51L58 50L62 50L64 48L64 47L64 46L59 39C61.4557 37.2344 62.118 35.8811 61 33z"/>
<path style="fill:#818181; stroke:none;" d="M203 33L204 34L203 33z"/>
<path style="fill:#9d9d9d; stroke:none;" d="M45 34L46 35L45 34z"/>
<path style="fill:#767676; stroke:none;" d="M204 34L205 35L204 34z"/>
<path style="fill:#a2a2a2; stroke:none;" d="M44 35L45 36L44 35z"/>
<path style="fill:#d7ad35; stroke:none;" d="M192 35L185 49L189 48L189 49C185.034 50.8868 184.144 52.6644 184 57L183 57L180 51L179 51L179 54L176 52L177 56L169 53L171 58L170 62L180 66L181 66L184 65L187 64L189 58L187 58L192 53L190 46L194 40L193 44L194 44L196 42L195 40L197 38L192 35z"/>
<path style="fill:#a4a4a4; stroke:none;" d="M43 36L44 37L43 36z"/>
<path style="fill:#636363; stroke:none;" d="M42 37L43 38L42 37z"/>
<path style="fill:#7f7866; stroke:none;" d="M55 37L56 38L55 37z"/>
<path style="fill:#7a7a7a; stroke:none;" d="M208 37L208 38L211 38L208 37z"/>
<path style="fill:#8e8d8e; stroke:none;" d="M41 38L42 39L41 38z"/>
<path style="fill:#8d7d1e; stroke:none;" d="M54 38L55 39L54 38z"/>
<path style="fill:#8b8b8b; stroke:none;" d="M211 38L212 39L211 38z"/>
<path style="fill:#878787; stroke:none;" d="M40 39L41 40L40 39z"/>
<path style="fill:#7c7c7c; stroke:none;" d="M39 40L40 41L39 40z"/>
<path style="fill:#c0892c; stroke:none;" d="M192 40L191 41L190 46L192 53L187 58L189 58L187 64L184 63C185.497 66.8336 189.014 69.3506 190.397 73.0895C192.743 79.4348 188.148 87.8402 197 91L205.674 119L204 137L207 131L212 134L211 131L222 126L220 123L224 123L225 123L220 108L223 110L224 110C226.568 105.962 233.264 103.346 234.319 98.6744C235.425 93.7811 231.995 87.4383 230.316 83C225.22 69.5339 210.879 42.4399 195 40L194 44L193 44L194 40L192 40z"/>
<path style="fill:#5d5d5d; stroke:none;" d="M213.333 40.6667L213.667 41.3333L213.333 40.6667z"/>
<path style="fill:#909090; stroke:none;" d="M37 42L38 43L37 42z"/>
<path style="fill:#6b6531; stroke:none;" d="M48 43L49 44L48 43z"/>
<path style="fill:#575757; stroke:none;" d="M36 44L37 45L36 44z"/>
<path style="fill:#827940; stroke:none;" d="M46 45L47 46L46 45z"/>
<path style="fill:#efc54f; stroke:none;" d="M197 45L193 50L199 51L197 45z"/>
<path style="fill:#6b6b6b; stroke:none;" d="M34 46L35 47L34 46z"/>
<path style="fill:#7a7a7a; stroke:none;" d="M217 46L218 47L217 46z"/>
<path style="fill:#959595; stroke:none;" d="M33 47L34 48L33 47z"/>
<path style="fill:#6b6b6b; stroke:none;" d="M32 48L33 49L32 48z"/>
<path style="fill:#716430; stroke:none;" d="M43 48L44 49L43 48z"/>
<path style="fill:#2b2c26; stroke:none;" d="M123 48L123 49L134 49L123 48z"/>
<path style="fill:#948e6c; stroke:none;" d="M134 48L134 49L137 49L134 48z"/>
<path style="fill:#8a8a8a; stroke:none;" d="M31 49L32 50L31 49z"/>
<path style="fill:#7c7004; stroke:none;" d="M114 49L114 50L121 50L114 49z"/>
<path style="fill:#000100; stroke:none;" d="M121 49.4244C91.7953 53.259 67.3057 66.3393 55.0394 95C32.919 146.685 74.256 212.07 133 203.7C159.419 199.935 184.514 185.881 196.209 161C220.462 109.402 181.45 41.4871 121 49.4244z"/>
<path style="fill:#4f3b00; stroke:none;" d="M137 49L137 50L140 50L137 49z"/>
<path style="fill:#8f8f8f; stroke:none;" d="M30 50L31 51L30 50z"/>
<path style="fill:#a1a1a1; stroke:none;" d="M29 51L30 52L29 51z"/>
<path style="fill:#564300; stroke:none;" d="M104.667 51.3333L105.333 51.6667L104.667 51.3333z"/>
<path style="fill:#8d780f; stroke:none;" d="M148.667 51.3333L149.333 51.6667L148.667 51.3333z"/>
<path style="fill:#5a5a5a; stroke:none;" d="M221 51L222 52L221 51z"/>
<path style="fill:#63543d; stroke:none;" d="M100 52L100 53L103 53L100 52z"/>
<path style="fill:#4c3d40; stroke:none;" d="M150 52L150 53L153 53L150 52z"/>
<path style="fill:#707070; stroke:none;" d="M222 52L223 53L222 52z"/>
<path style="fill:#d7aa2d; stroke:none;" d="M53 63L53 64L64 65L64 66L51 66L51 67L58 67L59 67L60 67L65 71L64 75L56 75L58 77L56 80L56 81L60 80L59 77L63 78L66 73L82 63L79 54L53 63z"/>
<path style="fill:#d8bf40; stroke:none;" d="M81 53C75.5928 60.7416 87.7018 64.6308 85 53L84 53L82 55L81 53z"/>
<path style="fill:#999999; stroke:none;" d="M223 53L224 54L223 53z"/>
<path style="fill:#828282; stroke:none;" d="M27 54L28 55L27 54z"/>
<path style="fill:#8e852a; stroke:none;" d="M38.3333 54.6667L38.6667 55.3333L38.3333 54.6667z"/>
<path style="fill:#665300; stroke:none;" d="M93 55L93 56L96 56L93 55z"/>
<path style="fill:#67610b; stroke:none;" d="M158.667 55.3333L159.333 55.6667L158.667 55.3333z"/>
<path style="fill:#888888; stroke:none;" d="M25 57L26 58L25 57z"/>
<path style="fill:#a0a0a0; stroke:none;" d="M226 57L227 58L226 57z"/>
<path style="fill:#969696; stroke:none;" d="M24 58L25 59L24 58z"/>
<path style="fill:#6f6251; stroke:none;" d="M35 59L36 60L35 59z"/>
<path style="fill:#828282; stroke:none;" d="M227 59L228 60L227 59z"/>
<path style="fill:#aaaaaa; stroke:none;" d="M23 60L24 61L23 60z"/>
<path style="fill:#494100; stroke:none;" d="M124 60L124 61L132 61L124 60z"/>
<path style="fill:#a38f6c; stroke:none;" d="M168.667 60.3333L169.333 60.6667L168.667 60.3333z"/>
<path style="fill:#5d5553; stroke:none;" d="M115 61L115 62L119 62L115 61z"/>
<path style="fill:#7c6b4f; stroke:none;" d="M122.667 61.3333L123.333 61.6667L122.667 61.3333z"/>
<path style="fill:#f2d249; stroke:none;" d="M87 78L88 78L89 76L90 76L98 78L96 82L96 83L102 86L90 88L91 84L89 82L88 82L87 84L86 84C81.7162 75.868 59.6921 96.9568 79 99L80 101L79 105L72 103L67 114L70 113L69 119L75 124C70.8622 124.63 73.0943 134.947 74.5556 138.019C79.2674 147.922 73.6971 152.576 88 155L88 167L89 167L89 161L92 163L93 163C95.909 161.01 98.17 160.878 101 163L102 160L95 157L95 156L106 157L105 160L108 157L110 160L115 160L115 161L114 164L116 164L117 160L125 160L124 156L129 157L127 154L134 157L135 157L132 152L139 151L137 145L141 150L146 148L145 142L140 141L142 135C136.941 138.304 130.571 144.47 124 143.512C104.484 140.667 107.074 114.278 124 110L116 106L116 105L121 103L121 98L120 98L115 101L116 98L113 99L118 96L117 88L120 87C119.391 84.4971 118.105 83.386 121 83L121 82L119 79L120 79L121 81L123 72L125 74L126 74L131 67L131 72L132 77L133 77L133 73L137 75L136 72L138 69L144 72C144.456 68.3547 147.844 68.7558 151 68L150 71L154 71C152.767 63.8774 144.607 64.8387 139 63.2762C125.458 59.5022 91.915 60.8622 87 78z"/>
<path style="fill:#706853; stroke:none;" d="M133 61L133 62L136 62L133 61z"/>
<path style="fill:#7c7c7c; stroke:none;" d="M22 62L23 63L22 62z"/>
<path style="fill:#948329; stroke:none;" d="M137.667 62.3333L138.333 62.6667L137.667 62.3333z"/>
<path style="fill:#a4a4a4; stroke:none;" d="M21 63L22 64L21 63z"/>
<path style="fill:#7d7664; stroke:none;" d="M108.667 63.3333L109.333 63.6667L108.667 63.3333z"/>
<path style="fill:#dece9b; stroke:none;" d="M138 63L138 64L142 64L138 63z"/>
<path style="fill:#95876c; stroke:none;" d="M142.667 63.3333L143.333 63.6667L142.667 63.3333z"/>
<path style="fill:#938210; stroke:none;" d="M105.667 64.3333L106.333 64.6667L105.667 64.3333z"/>
<path style="fill:#f6ea5a; stroke:none;" d="M176 65L185 76L186 76C185.951 73.4633 186.452 60.9653 181 66L176 65z"/>
<path style="fill:#353535; stroke:none;" d="M230.333 64.6667L230.667 65.3333L230.333 64.6667z"/>
<path style="fill:#a4860a; stroke:none;" d="M99.6667 66.3333L100.333 66.6667L99.6667 66.3333z"/>
<path style="fill:#6a6a6a; stroke:none;" d="M231 66L232 67L231 66z"/>
<path style="fill:#747474; stroke:none;" d="M19 67L20 68L19 67z"/>
<path style="fill:#cb962c; stroke:none;" d="M58 67L58 71L53 73L52 70C50.0336 70.5866 41.9862 72.9539 45 75L45 76L39 81L32 80L33 76L28 78L27 73L26 73L19 91C24.7472 92.1209 28.5052 90.5356 33 87L34 90L41 89L56 83L58 80L58 79L51 80L51 79C56.1851 75.7767 57.5115 73.5929 64 75L65 71L58 67z"/>
<path style="fill:#dbb337; stroke:none;" d="M131 67L126 74L125 74L123 72L121 81L120 79L119 79L121 82L121 83L118 84L120 87L117 88L118 96L113 99L116 98L115 101C118.08 101.283 119.144 101.03 120 98L121 98L121 103L116 105L116 106L122 106L122 87L125 87L122 85L124 79L138 77L140 79L142 87L140 86L142 91L146 90L146 91L144 92L144 93L148 97L149 97L152 92L147 88L147 87L147 86L149 83L146 80L142 80L142 79L149 73L145 71L145 70L151 73L151 68C147.462 68.325 144.771 68.2331 144 72L138 69L136 72L137 75L133 73L133 77L132 77L131 72C133.034 70.2315 133.034 68.7685 131 67z"/>
<path style="fill:#6f6a32; stroke:none;" d="M29 68L30 69L29 68z"/>
<path style="fill:#ac961c; stroke:none;" d="M95.6667 68.3333L96.3333 68.6667L95.6667 68.3333z"/>
<path style="fill:#f6eb78; stroke:none;" d="M154 68L151 71C152.223 75.5626 152.89 79.1328 158 80L154 89L162 87L156 91L156 92L172 94L174 88L174 92L176 92L176 86C170.634 84.9137 163.38 87.4139 161 82L166 80C163.832 73.3233 160.557 70.4196 154 68z"/>
<path style="fill:#645c13; stroke:none;" d="M155.667 68.3333L156.333 68.6667L155.667 68.3333z"/>
<path style="fill:#8e8739; stroke:none;" d="M94 69L95 70L94 69z"/>
<path style="fill:#e9c334; stroke:none;" d="M187 69C184.809 74.0311 186.624 77.349 189 82C192.052 77.5332 191.747 71.9118 187 69z"/>
<path style="fill:#f9df4e; stroke:none;" d="M145 70L145 71L149 73L142 79L142 80L146 80L149 83L147 86L147 87L147 88L152 92C148.55 96.9723 149.589 101.003 155 104C154.539 107.27 155.131 110.849 159 109L160 113L161 113L164 112L162 110L162 105L171 107L178 108L177 111L180 115L184 114L182 105L183 105L183 107L184 107L186 105L184 102C189.37 92.0483 170.99 77.7203 164 73L166 80L161 82C162.806 87.818 170.721 85.4134 176 86L176 92L174 92L174 88L172 94L156 92L156 91L162 87L154 89L158 80C153.836 78.7145 152.565 76.2107 152 72L145 70z"/>
<path style="fill:#9a9031; stroke:none;" d="M159 70L160 71L159 70z"/>
<path style="fill:#655c5d; stroke:none;" d="M91 71L92 72L91 71z"/>
<path style="fill:#919191; stroke:none;" d="M234 71L235 72L234 71z"/>
<path style="fill:#8e8d8d; stroke:none;" d="M16 73L17 74L16 73z"/>
<path style="fill:#a9752a; stroke:none;" d="M51 79L51 80L58 78L56 75L61 74C56.0991 73.0891 54.3637 75.8887 51 79z"/>
<path style="fill:#edd43c; stroke:none;" d="M66 73L63 78L59 77L60 80L55 81L41 89L34 90L33 87L19 91L20 97L19 100C23.7492 102.588 26.2059 104.173 31 101L30 98L33 96L34 99L42 102L38 100L43 111L45 109L50 112L58.8156 88L68 73L66 73z"/>
<path style="fill:#888787; stroke:none;" d="M235 73L236 74L235 73z"/>
<path style="fill:#655b51; stroke:none;" d="M66 76L67 77L66 76z"/>
<path style="fill:#98952c; stroke:none;" d="M84 76L84 77L87 77L84 76z"/>
<path style="fill:#faf081; stroke:none;" d="M88 76L82 79L82 80C84.0908 81.3828 86.4059 84.8694 88 82L89 82L91 84L90 88L102 86L96 83L96 82L98 78L90 76L88 76z"/>
<path style="fill:#8d8d8d; stroke:none;" d="M14 77L15 78L14 77z"/>
<path style="fill:#5b5509; stroke:none;" d="M82.3333 77.6667L82.6667 78.3333L82.3333 77.6667z"/>
<path style="fill:#bb8e31; stroke:none;" d="M124 79L122 85L125 87L122 87L120 107L124 110C133.888 108.434 142.112 116.588 144 126L147 123L148 123L150 126L148 118L145 116L144 116L144 119L143 119L141 117L140 113L143 112L145 113L147 117L148 117L145 103L150 105L152 102L152 101L146 91L146 90L142 91L140 86L142 87L142 86L140 79L138 77L124 79z"/>
<path style="fill:#7c7c7c; stroke:none;" d="M237 77L238 78L237 77z"/>
<path style="fill:#796c42; stroke:none;" d="M170 78L171 79L170 78z"/>
<path style="fill:#7b7b7b; stroke:none;" d="M13.3333 79.6667L13.6667 80.3333L13.3333 79.6667z"/>
<path style="fill:#6b582e; stroke:none;" d="M23.3333 79.6667L23.6667 80.3333L23.3333 79.6667z"/>
<path style="fill:#6b6b6b; stroke:none;" d="M238 79L239 80L238 79z"/>
<path style="fill:#93803c; stroke:none;" d="M172 80L173 81L172 80z"/>
<path style="fill:#615b4f; stroke:none;" d="M79 81L80 82L79 81z"/>
<path style="fill:#5d5d5d; stroke:none;" d="M239.333 81.6667L239.667 82.3333L239.333 81.6667z"/>
<path style="fill:#626262; stroke:none;" d="M12.3333 82.6667L12.6667 83.3333L12.3333 82.6667z"/>
<path style="fill:#413535; stroke:none;" d="M230.333 82.6667L230.667 83.3333L230.333 82.6667z"/>
<path style="fill:#77706a; stroke:none;" d="M176 83L177 84L176 83z"/>
<path style="fill:#b5ac61; stroke:none;" d="M177.333 84.6667L177.667 85.3333L177.333 84.6667z"/>
<path style="fill:#656565; stroke:none;" d="M240 84L241 85L240 84z"/>
<path style="fill:#737373; stroke:none;" d="M11 85L12 86L11 85z"/>
<path style="fill:#c8c8c8; stroke:none;" d="M241 85L241 88L242 88L241 85z"/>
<path style="fill:#5a3f00; stroke:none;" d="M20 86L20 89L21 89L20 86z"/>
<path style="fill:#7f6d25; stroke:none;" d="M75 86L76 87L75 86z"/>
<path style="fill:#707070; stroke:none;" d="M10.3333 87.6667L10.6667 88.3333L10.3333 87.6667z"/>
<path style="fill:#868447; stroke:none;" d="M179 87L180 88L179 87z"/>
<path style="fill:#6c612b; stroke:none;" d="M73 88L74 89L73 88z"/>
<path style="fill:#765c1f; stroke:none;" d="M57.3333 89.6667L57.6667 90.3333L57.3333 89.6667z"/>
<path style="fill:#706e3e; stroke:none;" d="M181 89L182 90L181 89z"/>
<path style="fill:#404040; stroke:none;" d="M9.33333 90.6667L9.66667 91.3333L9.33333 90.6667z"/>
<path style="fill:#664f09; stroke:none;" d="M233.333 90.6667L233.667 91.3333L233.333 90.6667z"/>
<path style="fill:#5f5f5f; stroke:none;" d="M242.333 90.6667L242.667 91.3333L242.333 90.6667z"/>
<path style="fill:#53381a; stroke:none;" d="M194 91L194 92L197 93L194 91z"/>
<path style="fill:#d9d9d9; stroke:none;" d="M8 92L8 96L9 96L8 92z"/>
<path style="fill:#896c08; stroke:none;" d="M18.3333 92.6667L18.6667 93.3333L18.3333 92.6667z"/>
<path style="fill:#605100; stroke:none;" d="M70.3333 92.6667L70.6667 93.3333L70.3333 92.6667z"/>
<path style="fill:#9a8f25; stroke:none;" d="M183.333 92.6667L183.667 93.3333L183.333 92.6667z"/>
<path style="fill:#655f51; stroke:none;" d="M234 94L234 97L235 97L234 94z"/>
<path style="fill:#dfb434; stroke:none;" d="M69 95L64 116L66 123L65 126L69 128C66.616 133.77 72.2507 151.986 78 155L77 157L83 158L83 169L92 171L91 168L106 180L101 173L102 173L106 172L103 172L103 171L107 169L105 166L109 166L111 170L110 165L114 164L115 161L115 160L110 160L108 157L105 160L106 157L95 156L95 157L101 163C98.1003 160.939 95.8502 160.828 93 163L92 163L89 161L89 167L88 167L88 155C80.2602 153.71 74.3469 151.959 77 144C78.4816 139.555 73.5595 138.357 73 135C72.4163 131.498 72.2582 123.315 75 124L69 119L70 113L67 114L72 103C72.8153 106.727 75.7669 105.163 79 105L80 101L79 99L69 95z"/>
<path style="fill:#b3922b; stroke:none;" d="M184 95L185 99L186 99L184 95z"/>
<path style="fill:#7a704d; stroke:none;" d="M17.3333 96.6667L17.6667 97.3333L17.3333 96.6667z"/>
<path style="fill:#e1b636; stroke:none;" d="M32 96L30 98L31 101C26.0678 103.188 23.8481 101.804 19 100L20 98L20 97C11.376 102.034 14 121.353 14 130L32 128L32 134L33 134L33 131L39 129L39 128L36 125L42 131L43 131L43 128L45 127L48 129L50 114L49 111L43 111L38 100L42 102L34 99L32 96z"/>
<path style="fill:#d9d9d9; stroke:none;" d="M244 96L244 100L245 100L244 96z"/>
<path style="fill:#583700; stroke:none;" d="M235 97L235 100L236 100L235 97z"/>
<path style="fill:#67530e; stroke:none;" d="M16.3333 98.6667L16.6667 99.3333L16.3333 98.6667z"/>
<path style="fill:#cb9b2d; stroke:none;" d="M186 99L184 102L186 105L184 107L183 107L183 105L182 105L184 114C177.683 114.35 177.623 115.732 174 120L174 121L176 122L172 124L172 126L175 127L175 137L174 147L178 146L176 144L181 130L181 129L179 126L182 130L183 130C182.77 124.066 185.163 122.189 191 122L188 114L186 99z"/>
<path style="fill:#949494; stroke:none;" d="M6.33333 100.667L6.66667 101.333L6.33333 100.667z"/>
<path style="fill:#5c3800; stroke:none;" d="M200.333 100.667L200.667 101.333L200.333 100.667z"/>
<path style="fill:#f5d542; stroke:none;" d="M224 110L223 110L220 108L225 123L224 123L223 121L220 124L227 127L220 128L222 130L222 131L217 129L216 129L216 138L211 137L206 144L210 151L206 154L215 151L215 155L218 153L219 153L220 153L229 157L231 163L227 162L227 163L228 165L231 167C238.608 143.206 236.203 124.138 236 100C231.135 101.34 226.04 105.352 224 110z"/>
<path style="fill:#424242; stroke:none;" d="M244.333 100.667L244.667 101.333L244.333 100.667z"/>
<path style="fill:#3c3731; stroke:none;" d="M15 101L15 105L16 105L15 101z"/>
<path style="fill:#5a5947; stroke:none;" d="M52.3333 101.667L52.6667 102.333L52.3333 101.667z"/>
<path style="fill:#e0b12d; stroke:none;" d="M150 105L145 103L148 117L147 117L145 113L143 114L140 113L141 117L143 119L144 119L144 116L145 116L148 118L150 126L148 123L147 123L140 141L145 142L146 148L141 150L137 145L139 151L132 152L135 157L134 157L127 154L129 157L124 156L125 160L117 160L115 169L114 173L108 174L106 178L112 175L123 180L122 176L120 177L119 177L123 174L122 171L118 173L117 173L115 171L115 170L122 168L127 172L126 169L133 168L133 167L131 167L131 166L137 166L140 172L137 173L137 174L146 174L143 168L147 168L147 167L144 167L144 166C146.529 165.494 146.529 165.506 144 165L144 164L148 164L148 163L145 163C148.188 159.513 152.249 157.791 157 158L157 159L149 161L155 161L156 164L153 165L158 170L159 170L160 168L163 170L173 142L169 143L170 146C166.55 145.826 162.89 143.866 162 148L161 148L158 143L167 144L170 137L169 139L170 139L174 140L175 137L175 127L172 126L172 124C173.798 123.159 176.108 122.431 174 121L174 120C176.163 118.239 179.73 112.995 177 111L178 108C175.492 106.258 173.315 104.38 171 107L162 105L164 112L161 113L160 113L159 109L157 111L155 104L151 102L150 105z"/>
<path style="fill:#d2d2d1; stroke:none;" d="M5 103L5 109L6 109L5 103z"/>
<path style="fill:#9b632a; stroke:none;" d="M188 103L188 114L191 122C184.93 122.072 182.391 123.607 183 130L182 130L179 126L181 129L181 130L176 144C187.863 145.908 172.397 164.323 169 169L173 170L174 170C181.753 161.621 187.516 152.485 189 141L182 141C181.4 137.104 181.41 134.998 185 133L185 134L182 135L185 139L186 133C199.543 135.275 191.379 108.981 188 103z"/>
<path style="fill:#3f352c; stroke:none;" d="M201.333 103.667L201.667 104.333L201.333 103.667z"/>
<path style="fill:#91874c; stroke:none;" d="M236 103L236 108L237 108L236 103z"/>
<path style="fill:#a2a2a2; stroke:none;" d="M245.333 103.667L245.667 104.333L245.333 103.667z"/>
<path style="fill:#705d01; stroke:none;" d="M51 105L51 108L52 108L51 105z"/>
<path style="fill:#696969; stroke:none;" d="M245 105L245 108L246 108L245 105z"/>
<path style="fill:#6d4d00; stroke:none;" d="M14 107L14 111L15 111L14 107z"/>
<path style="fill:#635100; stroke:none;" d="M237 108L237 111L238 111L237 108z"/>
<path style="fill:#939393; stroke:none;" d="M246 108L246 113L247 113L246 108z"/>
<path style="fill:#838383; stroke:none;" d="M5 109L5 115L6 115L5 109z"/>
<path style="fill:#7e7451; stroke:none;" d="M63 109L63 112L64 112L63 109z"/>
<path style="fill:#623500; stroke:none;" d="M125 109L125 110L129 110L125 109z"/>
<path style="fill:#000100; stroke:none;" d="M121 110.558C101.437 115.698 109.538 147.528 130 142.292C152.488 136.537 143.074 104.757 121 110.558z"/>
<path style="fill:#65553e; stroke:none;" d="M132.667 110.333L133.333 110.667L132.667 110.333z"/>
<path style="fill:#584200; stroke:none;" d="M62 112L62 132L63 132L62 112z"/>
<path style="fill:#d6bc65; stroke:none;" d="M63 112L63 125L64 125L63 112z"/>
<path style="fill:#80765b; stroke:none;" d="M13 113L13 131L14 131L13 113z"/>
<path style="fill:#cba96a; stroke:none;" d="M48 113L48 140L49 140L48 113z"/>
<path style="fill:#92826b; stroke:none;" d="M238 113L238 139L239 139L238 113z"/>
<path style="fill:#323232; stroke:none;" d="M246 113L246 121L247 121L246 113z"/>
<path style="fill:#836a06; stroke:none;" d="M49 114L49 121L50 121L49 114z"/>
<path style="fill:#533600; stroke:none;" d="M204 114L204 132L205 132L204 114z"/>
<path style="fill:#595757; stroke:none;" d="M5 115L5 124L6 124L5 115z"/>
<path style="fill:#ab7f16; stroke:none;" d="M42 117L43 121L44 121L42 117z"/>
<path style="fill:#b39c59; stroke:none;" d="M205 117L205 132L206 132L205 117z"/>
<path style="fill:#694314; stroke:none;" d="M193 119L193 124L194 124L193 119z"/>
<path style="fill:#cc9a27; stroke:none;" d="M65 123C57.5476 141.298 71.0577 163.218 83 176L84 176L83 172L88 172C88.3899 173.854 90.1051 176.069 90 173L100 179L97 178L93 181L93 182C103.665 187.664 113.567 191.964 126 192L126 191L124 190L126 188L131 189L130 185L128 187L124 184L123 184L114 188L114 187L116 185L108 183L108 182L112 182L112 178L115 182L115 183L120 184L119 178L112 175C102.901 183.818 98.3564 172.988 91 168L92 171L83 169L83 158L77 157L78 155C72.5986 150.775 67.1159 134.43 69 128L65 126L65 123z"/>
<path style="fill:#c8942f; stroke:none;" d="M36 125L39 128L39 129L33 134L32 134L32 128L25 130L24 133L25 136L21 135L22 140L14 138L17 155L20 153L21 145L25 147L23 143L24 142L28 143L28 144L26 147L34 147L34 148L32 150L29 151L25 149L25 150L26 152L27 153L29 152L33 156L35 155L34 168L24 166L28 175L25 173C24.0157 181.55 34.1094 193.02 39.5147 199.17C54.1239 215.79 72.3669 229.472 94 235.265C100.13 236.906 106.636 234.47 112 236L113 236L113 232L109 233L106 227L111 231L110 228L118 230L118 229L115 226L119 228L120 228L121 228L132 231L124 238L124 239L135 239L134 237L140 237L140 236L139 231L150 235L150 231L155 233L158 226L156 224C156.497 220.21 155.865 218.672 152 218C152.22 215.096 152.544 211.609 156 213L157 213L158 206L157 201L158 201L162 205L160 209L165 210C164.13 207.464 161.642 204.147 161.64 201.484C161.637 196.466 166.773 200.026 168 202L166 201L166 202L174 219L170 218L174 223L166 222L171 230L196 216L190 204L195 207L192 202L197 207L203 208C203.886 199.383 192.64 189.661 189 182L190 182L198 190L198 194L207 205C212.445 201.767 222.305 188.527 222.792 182C223.106 177.781 220.133 173.002 219 169L226 168L226 158C223.192 158.592 219.901 158.957 222 162L217 167L216 167L213 158L215 151L205 154L204 150L203 150L203 154C198.637 154.712 197.482 156.725 197 161L199 158L200 158L207 161L207 164L204 165L208 172L205 169L194 169L173 191L183 202L183 203L181 203L181 205L183 204L183 205L180 206L182 216C176.356 211.338 166.782 199.709 168 192L141 202L141 203L145 203L145 204C117.308 204 88.5748 204.223 70 179L65 182C61.4451 178.202 57.8315 179.095 53 179L56 173L55 168L51 168L52 165L54 167L55 167L53 161L56 161L56 160L53 153L52 153L49 157L51 153C49.2152 145.503 50.7744 132.493 45 127L43 131L42 131C40.9664 127.303 39.6968 126.034 36 125z"/>
<path style="fill:#e4b72a; stroke:none;" d="M211 131L212 134L207 131L203 137L200 154L203 154L203 150L204 150L205 154L206 154L210 151L206 144L211 137L213 139L214 139L216 138L216 129L217 129L222 131L222 130L220 128L227 127C222.419 121.839 215.333 128.846 211 131z"/>
<path style="fill:#a58a5d; stroke:none;" d="M63 126L63 142L64 142L63 126z"/>
<path style="fill:#a97722; stroke:none;" d="M16 140L22 140L21 135L25 136L26 131C17.7756 128.951 10.4302 129.296 16 140z"/>
<path style="fill:#654500; stroke:none;" d="M142 129L142 132L143 132L142 129z"/>
<path style="fill:#2b2318; stroke:none;" d="M192 129L192 138L193 138L192 129z"/>
<path style="fill:#4e4e4e; stroke:none;" d="M246 129L246 140L247 140L246 129z"/>
<path style="fill:#3a3531; stroke:none;" d="M13 131L13 140L14 140L13 131z"/>
<path style="fill:#4a4a4a; stroke:none;" d="M5 132L5 140L6 140L5 132z"/>
<path style="fill:#7b6941; stroke:none;" d="M141.333 133.667L141.667 134.333L141.333 133.667z"/>
<path style="fill:#865125; stroke:none;" d="M182 141L192 143L192 133L186 133L185 139L182 135L185 134C180.503 132.99 181.312 137.968 182 141z"/>
<path style="fill:#674100; stroke:none;" d="M49 134L49 141L50 141L49 134z"/>
<path style="fill:#fedb3f; stroke:none;" d="M168 137L167 144L165 142L158 143L161 148L162 148L162 145L170 146L169 143L173 142L172 145L173 138L169 139L170 137L168 137z"/>
<path style="fill:#bebebe; stroke:none;" d="M5 140L5 144L6 144L5 140z"/>
<path style="fill:#6b4c00; stroke:none;" d="M202 140L202 143L203 143L202 140z"/>
<path style="fill:#aaaaaa; stroke:none;" d="M246 140L246 144L247 144L246 140z"/>
<path style="fill:#784c03; stroke:none;" d="M14 141L14 144L15 144L14 141z"/>
<path style="fill:#e3bc33; stroke:none;" d="M24 142L23 143L25 147L21 145L20 153C14.1227 157.441 21.3556 169.04 24 174L28 175L24 166L34 168L35 155L33 156L27 153L26 152L25 150L25 149L29 151L32 150L34 148L34 147C30.6547 145.063 29.306 144.934 26 147L28 144L24 142z"/>
<path style="fill:#494836; stroke:none;" d="M50 142L50 146L51 146L50 142z"/>
<path style="fill:#514100; stroke:none;" d="M120.667 142.333L121.333 142.667L120.667 142.333z"/>
<path style="fill:#b09e18; stroke:none;" d="M129.667 142.333L130.333 142.667L129.667 142.333z"/>
<path style="fill:#876c03; stroke:none;" d="M237.333 142.667L237.667 143.333L237.333 142.667z"/>
<path style="fill:#a0946a; stroke:none;" d="M122 143L122 144L128 144L122 143z"/>
<path style="fill:#3b2915; stroke:none;" d="M189 143L187 150C190.538 148.757 190.803 146.569 191 143L189 143z"/>
<path style="fill:#ad7a27; stroke:none;" d="M174 147L162 168C165.389 169.949 166.018 172.164 166 176L173 169L169 169C173.664 164.633 188.708 139.052 174 147z"/>
<path style="fill:#d2d2d2; stroke:none;" d="M246 144L246 148L247 148L246 144z"/>
<path style="fill:#69696a; stroke:none;" d="M6.33333 145.667L6.66667 146.333L6.33333 145.667z"/>
<path style="fill:#2a2a22; stroke:none;" d="M64 145L65 149L66 149L64 145z"/>
<path style="fill:#655d39; stroke:none;" d="M201 145L201 148L202 148L201 145z"/>
<path style="fill:#daa82f; stroke:none;" d="M50 146L51 153L49 157C52.8755 154.202 52.0789 149.91 50 146z"/>
<path style="fill:#514936; stroke:none;" d="M236 146L236 152L237 152L236 146z"/>
<path style="fill:#a5a5a6; stroke:none;" d="M6 147L6 150L7 150L6 147z"/>
<path style="fill:#39322a; stroke:none;" d="M15 147L15 152L16 152L15 147z"/>
<path style="fill:#735b13; stroke:none;" d="M51.3333 148.667L51.6667 149.333L51.3333 148.667z"/>
<path style="fill:#624a00; stroke:none;" d="M200.333 148.667L200.667 149.333L200.333 148.667z"/>
<path style="fill:#6a6a6a; stroke:none;" d="M245 149L245 152L246 152L245 149z"/>
<path style="fill:#7c685d; stroke:none;" d="M199.333 152.667L199.667 153.333L199.333 152.667z"/>
<path style="fill:#816a00; stroke:none;" d="M235.333 152.667L235.667 153.333L235.333 152.667z"/>
<path style="fill:#563f00; stroke:none;" d="M16 153L16 156L17 156L16 153z"/>
<path style="fill:#e9b629; stroke:none;" d="M218 153L213 158L216 167L217 167L222 162L220 160L226 158L227 171L228 171L230 165L227 163L227 162L231 163L229 157L220 153L218 153z"/>
<path style="fill:#53493d; stroke:none;" d="M234.333 155.667L234.667 156.333L234.333 155.667z"/>
<path style="fill:#766c48; stroke:none;" d="M17.3333 156.667L17.6667 157.333L17.3333 156.667z"/>
<path style="fill:#d8d8d8; stroke:none;" d="M243 156L243 161L244 161L243 156z"/>
<path style="fill:#efc428; stroke:none;" d="M148 163L148 164L144 164L144 165C145.96 165.653 146.554 166 144 166L144 167L147 167L147 168L143 168L146 174L137 174L137 173L140 172L137 171L137 166L131 166L131 167L133 167L133 168L126 169L127 172L122 168L115 170L115 171L117 173L118 173L123 174L119 177L122 176L123 180L119 178L120 184L115 183L115 182L117 181L117 180L112 178L112 182L108 182L108 183L116 185L114 187L114 188L123 184L124 184C125.848 186.424 127.281 186.131 130 185L131 189L126 188L124 191C128.606 192.097 134.215 193.378 136 188C141.817 188 149.753 189.251 151 182C159.049 180.607 151.004 173.196 158 170L153 165L156 164L155 161L149 161L157 159C153.112 155.911 142.321 161.781 148 163z"/>
<path style="fill:#c3c2c3; stroke:none;" d="M8.33333 158.667L8.66667 159.333L8.33333 158.667z"/>
<path style="fill:#b37a29; stroke:none;" d="M199 158L190 172L194 169L205 169L208 172L204 165L207 164L207 161L199 158z"/>
<path style="fill:#9f9011; stroke:none;" d="M233.333 158.667L233.667 159.333L233.333 158.667z"/>
<path style="fill:#979797; stroke:none;" d="M9.33333 161.667L9.66667 162.333L9.33333 161.667z"/>
<path style="fill:#a36f24; stroke:none;" d="M53 161L55 167L54 167C52.7269 164.695 52.0262 166.059 51 168L55 168L56 173L53 179L65 182L69 179C65.5281 173.444 59.758 162.159 53 161z"/>
<path style="fill:#949494; stroke:none;" d="M242 162L243 163L242 162z"/>
<path style="fill:#744011; stroke:none;" d="M194.333 163.667L194.667 164.333L194.333 163.667z"/>
<path style="fill:#c6972f; stroke:none;" d="M113 164L110 165L111 170L109 166L105 166L107 169L103 172L106 172L106 173L102 173L101 173L106 178L108 174L114 173L115 169L113 164z"/>
<path style="fill:#9d9d9d; stroke:none;" d="M10 165L10 168L11 168L10 165z"/>
<path style="fill:#f7dd30; stroke:none;" d="M228 167L228 171L227 171L227 168L219 169C219.798 173.55 220.749 178.728 225 181L230 167L228 167z"/>
<path style="fill:#4a4c37; stroke:none;" d="M230.333 167.667L230.667 168.333L230.333 167.667z"/>
<path style="fill:#787878; stroke:none;" d="M240 167L241 168L240 167z"/>
<path style="fill:#645a36; stroke:none;" d="M21.3333 168.667L21.6667 169.333L21.3333 168.667z"/>
<path style="fill:#c39533; stroke:none;" d="M160 168C158.313 169.129 155.023 170.325 154.242 172.349C152.539 176.765 157.367 179.984 151 182L151 186L152 186C159.181 180.313 169 179.638 165 168L160 168z"/>
<path style="fill:#b4b4b4; stroke:none;" d="M239.333 169.667L239.667 170.333L239.333 169.667z"/>
<path style="fill:#a7a7a7; stroke:none;" d="M12.3333 170.667L12.6667 171.333L12.3333 170.667z"/>
<path style="fill:#787a78; stroke:none;" d="M238 171L238 174L239 174L238 171z"/>
<path style="fill:#e0b72b; stroke:none;" d="M83 172C84.7886 176.542 86.8386 179.434 92 179C93.6799 181.916 96.3224 181.162 97 178L100 179L90 173C90 176.293 88.5271 173.629 88 172L83 172z"/>
<path style="fill:#7f7f7f; stroke:none;" d="M13 173L14 174L13 173z"/>
<path style="fill:#878787; stroke:none;" d="M14 175L15 176L14 175z"/>
<path style="fill:#959595; stroke:none;" d="M237 175L238 176L237 175z"/>
<path style="fill:#5d5d5d; stroke:none;" d="M15 176L16 177L15 176z"/>
<path style="fill:#735300; stroke:none;" d="M90.6667 179.333L91.3333 179.667L90.6667 179.333z"/>
<path style="fill:#ebc036; stroke:none;" d="M55 181L60 186C59.8344 182.378 58.4427 181.739 55 181z"/>
<path style="fill:#edb32d; stroke:none;" d="M189 182L203 208L197 207L192 202L195 207L190 204L194 215C200.907 213.934 204.835 208.284 207 202L198 194L198 190L189 182z"/>
<path style="fill:#c6c6c7; stroke:none;" d="M18.3333 183.667L18.6667 184.333L18.3333 183.667z"/>
<path style="fill:#676666; stroke:none;" d="M233 183L234 184L233 183z"/>
<path style="fill:#9b9063; stroke:none;" d="M152 184L152 185L156 185L152 184z"/>
<path style="fill:#ffc955; stroke:none;" d="M214 184L217 189L214 184z"/>
<path style="fill:#737373; stroke:none;" d="M232 185L233 186L232 185z"/>
<path style="fill:#848484; stroke:none;" d="M20 186L21 187L20 186z"/>
<path style="fill:#553e2c; stroke:none;" d="M99.6667 186.333L100.333 186.667L99.6667 186.333z"/>
<path style="fill:#595959; stroke:none;" d="M231 186L232 187L231 186z"/>
<path style="fill:#514539; stroke:none;" d="M31.3333 187.667L31.6667 188.333L31.3333 187.667z"/>
<path style="fill:#5f5f5f; stroke:none;" d="M21 188L22 189L21 188z"/>
<path style="fill:#868364; stroke:none;" d="M136 188L136 189L141 189L136 188z"/>
<path style="fill:#9d9c6c; stroke:none;" d="M143 188L143 189L146 189L143 188z"/>
<path style="fill:#ae7623; stroke:none;" d="M172 188C163.62 196.058 172.687 210.908 182 216L183 204L181 205L181 204L183 202L172 188z"/>
<path style="fill:#737373; stroke:none;" d="M230 188L231 189L230 188z"/>
<path style="fill:#777777; stroke:none;" d="M22 189L23 190L22 189z"/>
<path style="fill:#867b5f; stroke:none;" d="M114.667 190.333L115.333 190.667L114.667 190.333z"/>
<path style="fill:#f5c32c; stroke:none;" d="M178 190L189 203L178 190z"/>
<path style="fill:#7f7f7f; stroke:none;" d="M229 190L230 191L229 190z"/>
<path style="fill:#523500; stroke:none;" d="M116.667 191.333L117.333 191.667L116.667 191.333z"/>
<path style="fill:#1f1f1d; stroke:none;" d="M118 192L118 193L135 193L118 192z"/>
<path style="fill:#f0bf3c; stroke:none;" d="M184 193L192 201L184 193z"/>
<path style="fill:#8b8b8b; stroke:none;" d="M226 195L227 196L226 195z"/>
<path style="fill:#c4a066; stroke:none;" d="M156 197L156 198L160 198L156 197z"/>
<path style="fill:#4e3d0f; stroke:none;" d="M213.333 197.667L213.667 198.333L213.333 197.667z"/>
<path style="fill:#b68123; stroke:none;" d="M166 221L163 225L167 226L166 222L174 223L170 218L174 219L166 201L168 202C166.919 199.312 161.793 195.997 161.292 201.148C160.895 205.221 164.764 216.511 166 221z"/>
<path style="fill:#89784a; stroke:none;" d="M212.333 198.667L212.667 199.333L212.333 198.667z"/>
<path style="fill:#828282; stroke:none;" d="M224 198L225 199L224 198z"/>
<path style="fill:#54403f; stroke:none;" d="M97 199L97 200L100 200L97 199z"/>
<path style="fill:#50493f; stroke:none;" d="M150.667 199.333L151.333 199.667L150.667 199.333z"/>
<path style="fill:#7f7f7f; stroke:none;" d="M223 199L224 200L223 199z"/>
<path style="fill:#7e7e7e; stroke:none;" d="M29 200L30 201L29 200z"/>
<path style="fill:#6e4700; stroke:none;" d="M147.667 200.333L148.333 200.667L147.667 200.333z"/>
<path style="fill:#5c5c5c; stroke:none;" d="M30 201L31 202L30 201z"/>
<path style="fill:#806c47; stroke:none;" d="M102.667 201.333L103.333 201.667L102.667 201.333z"/>
<path style="fill:#8a724e; stroke:none;" d="M145.667 201.333L146.333 201.667L145.667 201.333z"/>
<path style="fill:#a36d25; stroke:none;" d="M157 201L158 206L157 213L156 213C152.72 209.536 152.082 215.508 152 218L158 226C154.284 226.796 155 229.637 155 233L150 231L150 235L139 231L140 236L140 237L134 237L135 239L124 239L124 238L132 231C128.609 229.687 123.967 224.659 121 228L120 228L119 228L115 226L118 229L118 230L110 228L111 231L106 227L109 233L113 232L113 236L112 236L105 237L105 238C120.36 239.529 134.576 240.778 150 237.482C157.163 235.952 163.76 232.246 171 231C170.219 226.307 167.4 225.61 163 225L166 221C165.538 215.819 166.751 209.304 160 209L162 205L157 201z"/>
<path style="fill:#a3a2a2; stroke:none;" d="M222 201L223 202L222 201z"/>
<path style="fill:#575757; stroke:none;" d="M31 202L32 203L31 202z"/>
<path style="fill:#614300; stroke:none;" d="M106 202L106 203L111 203L106 202z"/>
<path style="fill:#503800; stroke:none;" d="M138 202L138 203L141 203L138 202z"/>
<path style="fill:#2e2a1f; stroke:none;" d="M113 203L113 204L118 204L113 203z"/>
<path style="fill:#685b48; stroke:none;" d="M134 203L134 204L137 204L134 203z"/>
<path style="fill:#edd46f; stroke:none;" d="M137 203L137 204L145 204L137 203z"/>
<path style="fill:#9e7f0b; stroke:none;" d="M118 204L118 205L131 205L118 204z"/>
<path style="fill:#f5da65; stroke:none;" d="M206 204L205 207L206 204z"/>
<path style="fill:#7d7d7d; stroke:none;" d="M219 204L220 205L219 204z"/>
<path style="fill:#a6a6a6; stroke:none;" d="M218 205L219 206L218 205z"/>
<path style="fill:#777776; stroke:none;" d="M34 206L35 207L34 206z"/>
<path style="fill:#6a6a6a; stroke:none;" d="M217 206L218 207L217 206z"/>
<path style="fill:#424242; stroke:none;" d="M35.3333 207.667L35.6667 208.333L35.3333 207.667z"/>
<path style="fill:#606060; stroke:none;" d="M216 207L217 208L216 207z"/>
<path style="fill:#9c9c9c; stroke:none;" d="M38.3333 211.667L38.6667 212.333L38.3333 211.667z"/>
<path style="fill:#8a8a8a; stroke:none;" d="M212 212L213 213L212 212z"/>
<path style="fill:#656565; stroke:none;" d="M39 213L40 214L39 213z"/>
<path style="fill:#979797; stroke:none;" d="M211 213L212 214L211 213z"/>
<path style="fill:#8c8c8c; stroke:none;" d="M40 214L41 215L40 214z"/>
<path style="fill:#939393; stroke:none;" d="M210 214L211 215L210 214z"/>
<path style="fill:#a6a6a6; stroke:none;" d="M41 215L41 216L44 216L41 215z"/>
<path style="fill:#9c9c9c; stroke:none;" d="M209 215L210 216L209 215z"/>
<path style="fill:#a4a4a4; stroke:none;" d="M208 216L209 217L208 216z"/>
<path style="fill:#626262; stroke:none;" d="M46 217L47 218L46 217z"/>
<path style="fill:#aaa9aa; stroke:none;" d="M207 217L208 218L207 217z"/>
<path style="fill:#868686; stroke:none;" d="M47 218L48 219L47 218z"/>
<path style="fill:#818181; stroke:none;" d="M48 219L49 220L48 219z"/>
<path style="fill:#6e6e6e; stroke:none;" d="M53 223L54 224L53 223z"/>
<path style="fill:#533b00; stroke:none;" d="M184.667 223.333L185.333 223.667L184.667 223.333z"/>
<path style="fill:#a2a2a2; stroke:none;" d="M54 224L55 225L54 224z"/>
<path style="fill:#9c9c9c; stroke:none;" d="M57 226L58 227L57 226z"/>
<path style="fill:#727272; stroke:none;" d="M196 226L197 227L196 226z"/>
<path style="fill:#8b8b8b; stroke:none;" d="M195 227L196 228L195 227z"/>
<path style="fill:#666666; stroke:none;" d="M193 228L194 229L193 228z"/>
<path style="fill:#989898; stroke:none;" d="M62 229L63 230L62 229z"/>
<path style="fill:#666666; stroke:none;" d="M190 230L191 231L190 230z"/>
<path style="fill:#8b8b8b; stroke:none;" d="M65 231L66 232L65 231M66 232L67 233L66 232z"/>
<path style="fill:#929293; stroke:none;" d="M187 232L188 233L187 232z"/>
<path style="fill:#5f5f5f; stroke:none;" d="M68 233L69 234L68 233z"/>
<path style="fill:#696969; stroke:none;" d="M185 233L186 234L185 233z"/>
<path style="fill:#858685; stroke:none;" d="M70 234L71 235L70 234z"/>
<path style="fill:#878787; stroke:none;" d="M183 234L184 235L183 234z"/>
<path style="fill:#737373; stroke:none;" d="M72 235L73 236L72 235z"/>
<path style="fill:#6d6d6d; stroke:none;" d="M74.6667 236.333L75.3333 236.667L74.6667 236.333z"/>
<path style="fill:#666666; stroke:none;" d="M77 237L78 238L77 237z"/>
<path style="fill:#523300; stroke:none;" d="M102 237L102 238L105 238L102 237z"/>
<path style="fill:#545455; stroke:none;" d="M79.6667 238.333L80.3333 238.667L79.6667 238.333z"/>
<path style="fill:#69553a; stroke:none;" d="M140 238L140 239L145 239L140 238z"/>
<path style="fill:#959595; stroke:none;" d="M173.667 238.333L174.333 238.667L173.667 238.333z"/>
<path style="fill:#636363; stroke:none;" d="M82 239L83 240L82 239z"/>
<path style="fill:#626262; stroke:none;" d="M85 240L86 241L85 240z"/>
<path style="fill:#989898; stroke:none;" d="M86.6667 241.333L87.3333 241.667L86.6667 241.333z"/>
<path style="fill:#bababa; stroke:none;" d="M166.667 241.333L167.333 241.667L166.667 241.333z"/>
<path style="fill:#545454; stroke:none;" d="M89 242L89 243L92 243L89 242z"/>
<path style="fill:#828282; stroke:none;" d="M164 242L165 243L164 242z"/>
<path style="fill:#767676; stroke:none;" d="M93 243L94 244L93 243z"/>
<path style="fill:#a1a1a1; stroke:none;" d="M155.667 244.333L156.333 244.667L155.667 244.333z"/>
<path style="fill:#bcbcbc; stroke:none;" d="M96.6667 245.333L97.3333 245.667L96.6667 245.333z"/>
<path style="fill:#c9c9c9; stroke:none;" d="M152.667 245.333L153.333 245.667L152.667 245.333z"/>
<path style="fill:#747474; stroke:none;" d="M100 246L100 247L104 247L100 246z"/>
<path style="fill:#757575; stroke:none;" d="M107 246L107 247L111 247L107 246z"/>
<path style="fill:#5d5d5d; stroke:none;" d="M144 246L144 247L151 247L144 246z"/>
<path style="fill:#b9b9b9; stroke:none;" d="M104 247L104 248L107 248L104 247z"/>
<path style="fill:#8a8a8a; stroke:none;" d="M113 247L113 248L117 248L113 247z"/>
<path style="fill:#3d3d3d; stroke:none;" d="M119.667 247.333L120.333 247.667L119.667 247.333z"/>
<path style="fill:#626262; stroke:none;" d="M122 247L122 248L130 248L122 247M131 247L131 248L139 248L131 247z"/>
<path style="fill:#b4b4b4; stroke:none;" d="M139.667 247.333L140.333 247.667L139.667 247.333z"/>
</svg>
