<?xml version="1.0" standalone="yes"?>
<svg width="252" height="252">

<path style="fill:#a4a3a4; stroke:none;" d="M108 5L108 6L113 6L108 5z"/>
<path style="fill:#5f5f5f; stroke:none;" d="M113 5L113 6L121 6L113 5z"/>
<path style="fill:#000000; stroke:none;" d="M121 5.70988C66.2095 6.5237 15.533 47.7342 6.32562 103C-5.04018 171.221 45.7303 249.514 120 247.59C149.201 246.833 176.041 242.327 200 224.101C255.397 181.958 264.409 89.6156 212.981 40.2446C187.774 16.0449 155.066 5.2039 121 5.70988z"/>
<path style="fill:#626262; stroke:none;" d="M122 5L122 6L130 6L122 5z"/>
<path style="fill:#5c5c5c; stroke:none;" d="M131.667 5.33333L132.333 5.66667L131.667 5.33333z"/>
<path style="fill:#898989; stroke:none;" d="M134 5L134 6L139 6L134 5z"/>
<path style="fill:#a4a4a4; stroke:none;" d="M145 5L145 6L148 6L145 5z"/>
<path style="fill:#adadad; stroke:none;" d="M100.667 6.33333L101.333 6.66667L100.667 6.33333z"/>
<path style="fill:#696969; stroke:none;" d="M102.667 6.33333L103.333 6.66667L102.667 6.33333z"/>
<path style="fill:#545454; stroke:none;" d="M142 6L142 7L145 7L142 6z"/>
<path style="fill:#959595; stroke:none;" d="M150.667 6.33333L151.333 6.66667L150.667 6.33333z"/>
<path style="fill:#979797; stroke:none;" d="M98.6667 7.33333L99.3333 7.66667L98.6667 7.33333z"/>
<path style="fill:#737373; stroke:none;" d="M94 8L94 9L97 9L94 8z"/>
<path style="fill:#848484; stroke:none;" d="M156 8L157 9L156 8z"/>
<path style="fill:#464646; stroke:none;" d="M89.6667 9.33333L90.3333 9.66667L89.6667 9.33333z"/>
<path style="fill:#7c7c7c; stroke:none;" d="M87 10L88 11L87 10z"/>
<path style="fill:#545454; stroke:none;" d="M160 10L160 11L163 11L160 10z"/>
<path style="fill:#7b7b7b; stroke:none;" d="M84 11L85 12L84 11z"/>
<path style="fill:#8e8e8e; stroke:none;" d="M165 11L166 12L165 11z"/>
<path style="fill:#838383; stroke:none;" d="M82 12L83 13L82 12z"/>
<path style="fill:#606060; stroke:none;" d="M166 12L167 13L166 12z"/>
<path style="fill:#858585; stroke:none;" d="M79.6667 13.3333L80.3333 13.6667L79.6667 13.3333z"/>
<path style="fill:#455249; stroke:none;" d="M110 13L110 14L139 14L110 13z"/>
<path style="fill:#8e8e8e; stroke:none;" d="M77 14L78 15L77 14z"/>
<path style="fill:#4e7c5f; stroke:none;" d="M71 26L71 27L77 35L100 37C101.596 42.6517 109.75 44.6933 115 46L115 50L124 52L125 52L146 40C149.746 41.0073 156.942 43.9356 158 39L160 41L161 41L178 41L178 40L170 38L176 34L172 29L172 28L176 28L176 26C166.507 23.9661 158.171 16.9256 148.999 15.3248C119.988 10.2611 98.1173 18.5263 71 26z"/>
<path style="fill:#6d6d6d; stroke:none;" d="M172 14L173 15L172 14z"/>
<path style="fill:#666666; stroke:none;" d="M174 15L175 16L174 15z"/>
<path style="fill:#6a6a6a; stroke:none;" d="M73 16L74 17L73 16z"/>
<path style="fill:#7a7a7a; stroke:none;" d="M176.667 16.3333L177.333 16.6667L176.667 16.3333z"/>
<path style="fill:#898989; stroke:none;" d="M70 17L71 18L70 17z"/>
<path style="fill:#c7c7c7; stroke:none;" d="M179.667 17.3333L180.333 17.6667L179.667 17.3333z"/>
<path style="fill:#7b7a7a; stroke:none;" d="M68 18L69 19L68 18z"/>
<path style="fill:#60926f; stroke:none;" d="M156 18C159.177 22.4138 170.626 25.3298 176 26L176 28L172 28L172 29L176 34L170 38L178 40L178 41L161 38L173 49C177.511 50.8927 184.688 57.0453 185.721 62.0046C186.2 64.2997 186.589 70.922 182.91 70.9452C180.025 70.9634 178.748 66.733 177.126 64.9738C173.446 60.9834 167.829 57.3302 163 54.9051C142.522 44.6212 126.404 66.2084 125 84C143.829 84.8106 159.541 95.9824 166 114C181.532 113.679 195.918 118.032 205.829 131.174C209.144 135.568 208.678 142.947 213 146L213 147L213 148L211 157L212 157L213 155L215 162C222.156 161.202 221.995 166.148 222 172L226 170L222 176C228.932 176.247 230.423 168.449 232.529 163C238.21 148.299 238.367 132.525 237.985 117C237.15 82.9822 216.585 51.2892 189 32.3472C179.89 26.0916 167.267 18.5845 156 18z"/>
<path style="fill:#bebdbe; stroke:none;" d="M181.667 18.3333L182.333 18.6667L181.667 18.3333z"/>
<path style="fill:#929292; stroke:none;" d="M64 20L65 21L64 20z"/>
<path style="fill:#8b8b8b; stroke:none;" d="M185 20L186 21L185 20z"/>
<path style="fill:#909090; stroke:none;" d="M62 21L63 22L62 21z"/>
<path style="fill:#919191; stroke:none;" d="M191 24L192 25L191 24z"/>
<path style="fill:#8b8b8b; stroke:none;" d="M56 25L57 26L56 25z"/>
<path style="fill:#626262; stroke:none;" d="M55 26L56 27L55 26z"/>
<path style="fill:#a7a7a7; stroke:none;" d="M53 27L54 28L53 27z"/>
<path style="fill:#639675; stroke:none;" d="M26 172L26 168L27 168L27 171L33 167L32 162L35 157L31 156L30 159L24 157L23 161L22 161L23 151L19 146L24 150C23.8031 146.431 23.5383 144.243 20 143L22 137L19 131L26 131C24.5951 125.096 24.0183 116.296 30 113L32 100L29 100L29 97L33 99L33 97L36 99L34 95L34 91L37 93L40 83L49 78C54.975 70.4378 63.5707 60.1082 73 70L74 70L76 68L77 68L80 70L80 77L81 77L83 75L83 86L87 84C88.4776 89.3512 91.8052 90.2959 97 91L97 88L98 91L114 86L115.684 66L124 50L115 50L115 46C109.697 43.9123 102.514 42.4624 100 37L77 35C74.0577 16.5405 48.534 42.2109 43.0039 48.5764C20.7884 74.1473 10.0041 108.411 14.5764 142C15.7776 150.824 16.7878 167.945 26 172z"/>
<path style="fill:#a7a7a7; stroke:none;" d="M196 27L197 28L196 27z"/>
<path style="fill:#989898; stroke:none;" d="M52 28L53 29L52 28z"/>
<path style="fill:#656565; stroke:none;" d="M51 29L52 30L51 29z"/>
<path style="fill:#a4a4a4; stroke:none;" d="M201 31L202 32L201 31z"/>
<path style="fill:#909191; stroke:none;" d="M47 32L48 33L47 32z"/>
<path style="fill:#8f9090; stroke:none;" d="M202 32L203 33L202 32z"/>
<path style="fill:#818181; stroke:none;" d="M203 33L204 34L203 33z"/>
<path style="fill:#9d9d9d; stroke:none;" d="M45 34L46 35L45 34z"/>
<path style="fill:#767676; stroke:none;" d="M204 34L205 35L204 34z"/>
<path style="fill:#a2a2a2; stroke:none;" d="M44 35L45 36L44 35z"/>
<path style="fill:#a4a4a4; stroke:none;" d="M43 36L44 37L43 36z"/>
<path style="fill:#636363; stroke:none;" d="M42 37L43 38L42 37z"/>
<path style="fill:#7a7a7a; stroke:none;" d="M208 37L208 38L211 38L208 37z"/>
<path style="fill:#8d8e8d; stroke:none;" d="M41 38L42 39L41 38z"/>
<path style="fill:#8b8b8b; stroke:none;" d="M211 38L212 39L211 38z"/>
<path style="fill:#878787; stroke:none;" d="M40 39L41 40L40 39z"/>
<path style="fill:#000100; stroke:none;" d="M158 39C155.315 42.8945 150.104 40.7733 146 40C136.924 46.9113 126.662 45.7959 119.728 57.4244C116.804 62.3267 114.056 69.3306 113.319 75C112.906 78.1756 114.787 82.6813 112.382 85.2762C109.402 88.4926 103.552 89.6116 100.004 92.4784C89.1666 101.235 84.0015 114.42 84 128C68.5214 123.17 44.5472 112.834 54.2639 91C58.536 81.4002 68.7026 76.4369 73 68C54.9899 63.3524 45.0975 79.0738 39 94C43.0371 97.1751 41.0287 108.733 42.679 114C48.2535 131.791 67.3114 141.284 85 138C90.7496 159.013 106.531 167.385 127 169C125.975 174.516 125.806 179.833 122.971 184.83C108.696 209.988 83.3416 198.286 70 180C58.0982 186.563 71.9257 200.363 79 204C79.2609 209.275 84.3736 210.4 89 210L94 213L106 213C113.872 205.616 124.526 207.043 131.736 196.421C134.84 191.848 137.763 184.428 138.722 179C139.317 175.636 137.388 171.325 139.643 168.418C142.411 164.849 148.457 163.54 151.981 160.621C162.703 151.742 167.991 138.64 168 125C173.87 126.212 180.574 127.224 185.715 130.443C209.159 145.126 196.909 170.507 179 183L179 184C193.13 191.541 195.754 177.366 207 174L213 160L213 159L212 147C205.356 138.23 207.017 128.137 195.714 120.957C190.807 117.84 184.803 115.023 179 114.209C175.528 113.722 169.516 115.659 166.699 113.307C162.361 109.685 160.385 101.625 156.246 97.1705C146.16 86.3157 137.125 87.1248 124 84C127.225 75.1526 127.53 67.0085 135.04 60.189C150.468 46.1797 173.65 56.2576 182 73C193.089 66.8851 181.311 51.3228 173 49L175 47L158 39z"/>
<path style="fill:#7c7c7c; stroke:none;" d="M39 40L40 41L39 40z"/>
<path style="fill:#5d5d5d; stroke:none;" d="M213.333 40.6667L213.667 41.3333L213.333 40.6667z"/>
<path style="fill:#909090; stroke:none;" d="M37 42L38 43L37 42z"/>
<path style="fill:#575757; stroke:none;" d="M36 44L37 45L36 44z"/>
<path style="fill:#6b6b6b; stroke:none;" d="M34 46L35 47L34 46z"/>
<path style="fill:#7a7a7a; stroke:none;" d="M217 46L218 47L217 46z"/>
<path style="fill:#969595; stroke:none;" d="M33 47L34 48L33 47z"/>
<path style="fill:#6b6b6b; stroke:none;" d="M32 48L33 49L32 48z"/>
<path style="fill:#8a8a8a; stroke:none;" d="M31 49L32 50L31 49z"/>
<path style="fill:#8f8f8f; stroke:none;" d="M30 50L31 51L30 50z"/>
<path style="fill:#a1a1a1; stroke:none;" d="M29 51L30 52L29 51z"/>
<path style="fill:#707070; stroke:none;" d="M222 52L223 53L222 52z"/>
<path style="fill:#999999; stroke:none;" d="M223 53L224 54L223 53z"/>
<path style="fill:#828282; stroke:none;" d="M27 54L28 55L27 54z"/>
<path style="fill:#2a5039; stroke:none;" d="M139 56L139 57L142 57L139 56z"/>
<path style="fill:#888888; stroke:none;" d="M25 57L26 58L25 57z"/>
<path style="fill:#a0a0a0; stroke:none;" d="M226 57L227 58L226 57z"/>
<path style="fill:#969696; stroke:none;" d="M24 58L25 59L24 58z"/>
<path style="fill:#828282; stroke:none;" d="M227 59L228 60L227 59z"/>
<path style="fill:#aaaaaa; stroke:none;" d="M23 60L24 61L23 60z"/>
<path style="fill:#7c7c7c; stroke:none;" d="M22 62L23 63L22 62z"/>
<path style="fill:#a4a4a4; stroke:none;" d="M21 63L22 64L21 63z"/>
<path style="fill:#383c3b; stroke:none;" d="M116.333 63.6667L116.667 64.3333L116.333 63.6667z"/>
<path style="fill:#353535; stroke:none;" d="M230.333 64.6667L230.667 65.3333L230.333 64.6667z"/>
<path style="fill:#244331; stroke:none;" d="M115 65L115 69L116 69L115 65z"/>
<path style="fill:#414f42; stroke:none;" d="M61 66L61 67L64 67L61 66z"/>
<path style="fill:#233328; stroke:none;" d="M66 66L66 67L70 67L66 66z"/>
<path style="fill:#6a6a6a; stroke:none;" d="M231 66L232 67L231 66z"/>
<path style="fill:#747474; stroke:none;" d="M19 67L20 68L19 67z"/>
<path style="fill:#133924; stroke:none;" d="M179 67L180 71L181 71L179 67z"/>
<path style="fill:#3e644b; stroke:none;" d="M55 68L55 71L56 71L55 68z"/>
<path style="fill:#6da37f; stroke:none;" d="M76 68C58.6362 77.9345 41.5291 103.145 62.0432 120.181C68.3213 125.394 76.2518 126.409 84 128C84.0115 110.58 94.1093 103.783 102 90L97 88L97 91C92.044 89.9593 89.0173 88.8603 87 84L83 86L83 75L81 77L80 77L80 70L76 68z"/>
<path style="fill:#375845; stroke:none;" d="M54 71L52 73L52 74C54.2508 73.5267 55.1178 73.1397 54 71z"/>
<path style="fill:#919191; stroke:none;" d="M234 71L235 72L234 71z"/>
<path style="fill:#8e8e8d; stroke:none;" d="M16 73L17 74L16 73z"/>
<path style="fill:#878787; stroke:none;" d="M235 73L236 74L235 73z"/>
<path style="fill:#8d8d8d; stroke:none;" d="M14 77L15 78L14 77z"/>
<path style="fill:#304830; stroke:none;" d="M46 79L49 79L48 77L46 79z"/>
<path style="fill:#7c7c7c; stroke:none;" d="M237 77L238 78L237 77z"/>
<path style="fill:#7b7b7b; stroke:none;" d="M13.3333 79.6667L13.6667 80.3333L13.3333 79.6667z"/>
<path style="fill:#334c39; stroke:none;" d="M23.3333 79.6667L23.6667 80.3333L23.3333 79.6667z"/>
<path style="fill:#6b6b6b; stroke:none;" d="M238 79L239 80L238 79z"/>
<path style="fill:#5d5d5d; stroke:none;" d="M239.333 81.6667L239.667 82.3333L239.333 81.6667z"/>
<path style="fill:#626262; stroke:none;" d="M12.3333 82.6667L12.6667 83.3333L12.3333 82.6667z"/>
<path style="fill:#2d3f33; stroke:none;" d="M124.333 82.6667L124.667 83.3333L124.333 82.6667z"/>
<path style="fill:#6fa581; stroke:none;" d="M40 83L37 93L34 91L34 95L36 99L33 97L33 99L29 97L32 100L30 113C23.6382 115.11 24.4153 125.639 26 131L19 131L22 137C18.5326 137.758 19.688 139.919 20 143L24 150L19 146L23 151L22 161L23 161L24 157L30 159L31 156L35 157L32 162L33 167C30.5437 168.358 28.936 170.864 27 168L26 168L26 172L23 171C26.4702 184.766 37.2111 197.2 47 207C83.8583 243.901 146.649 250.775 190 220.41C203.993 210.61 222.582 193.724 226 176L222 176L226 170L222 172C221.999 166 222.602 160.418 215 162L212 155L213 159L213 160C209.647 162.552 209.72 167.407 207.562 170.999C201.949 180.34 189.575 191.144 179 184L179 183C185.353 179.705 190.051 176.544 191 169L186 170L186 169L192 168L192 167L190 166L193 165L182 165L180 169L180 170L184 176L180 172L177 172L177 177L171 181L172 176L169 178L168 174L163 174L163 177L160 174L161 180C153.841 181.832 150.47 179.594 144 177L149 181L148 190L153 191L153 192L144 191L135 199L134 199L129.15 199.296L118 208.138L106 213L94 211L94 213L89 210C73.9703 211.611 64.3006 190.856 68 179C75.3796 184.61 78.8723 193.263 88.0046 197.481C109.533 207.425 124.586 187.691 127 169C115.163 168.754 102.536 165.449 94.7855 155.829C91.2258 151.411 89.4114 144.357 85.3017 140.607C82.5267 138.076 78.3215 140.065 75 139.632C68.8919 138.836 61.2301 135.28 56.2863 131.674C52.0785 128.605 46.7016 123.761 44.4985 118.996C42.6049 114.901 42.8611 109.716 39 107L39 106L39 105C42.2334 102.175 41.6762 86.9955 40 83z"/>
<path style="fill:#4a6753; stroke:none;" d="M41 84L41 89L42 89L41 84z"/>
<path style="fill:#2d332f; stroke:none;" d="M125 84L125 85L131 85L125 84z"/>
<path style="fill:#656565; stroke:none;" d="M240 84L241 85L240 84z"/>
<path style="fill:#737373; stroke:none;" d="M11 85L12 86L11 85z"/>
<path style="fill:#c8c8c8; stroke:none;" d="M241 85L241 88L242 88L241 85z"/>
<path style="fill:#404a41; stroke:none;" d="M110.667 86.3333L111.333 86.6667L110.667 86.3333z"/>
<path style="fill:#707070; stroke:none;" d="M10.3333 87.6667L10.6667 88.3333L10.3333 87.6667z"/>
<path style="fill:#404040; stroke:none;" d="M9.33333 90.6667L9.66667 91.3333L9.33333 90.6667z"/>
<path style="fill:#5f5f5f; stroke:none;" d="M242.333 90.6667L242.667 91.3333L242.333 90.6667z"/>
<path style="fill:#d9d9d9; stroke:none;" d="M8 92L8 96L9 96L8 92z"/>
<path style="fill:#515e55; stroke:none;" d="M39 94L39 95L42 96L39 94z"/>
<path style="fill:#d9d9d9; stroke:none;" d="M244 96L244 100L245 100L244 96z"/>
<path style="fill:#629574; stroke:none;" d="M117 99L117 100L121 100L121 101L118 101L118 102L125 103L128 100L128 106L123 106L123 107L128 107L126 109L126 110L132 110L132 117L135 117L135 119L128 119L128 120L132 123L102 118L112 127L106 124L112 131L103 131L104 137L110 137L108 141L113 143L111 145L120 152L116 154C122.465 160.601 139.368 154.881 145.405 149.38C161.961 134.296 156.055 104.94 134 98.8495C127.376 97.0202 123.493 97.5528 117 99z"/>
<path style="fill:#3d4842; stroke:none;" d="M129 97L129 98L132 98L129 97z"/>
<path style="fill:#6ea482; stroke:none;" d="M102 106L103 111C88.5957 120.698 100.43 164.85 120 152L113 143L108 141L110 137L104 137L103 131L112 131L106 124L112 127L113 124L102 118L132 123L128 120L128 119L135 119L132 117L132 110L126 110L126 109L128 107L123 107L123 106L128 106L128 100L125 103L123 101L118 102L118 101L121 101L121 100L117 98L102 106z"/>
<path style="fill:#335f48; stroke:none;" d="M132 98L132 99L135 99L132 98z"/>
<path style="fill:#949494; stroke:none;" d="M6.33333 100.667L6.66667 101.333L6.33333 100.667z"/>
<path style="fill:#3f5347; stroke:none;" d="M53 100L53 106L54 106L53 100z"/>
<path style="fill:#424242; stroke:none;" d="M244.333 100.667L244.667 101.333L244.333 100.667z"/>
<path style="fill:#4c584e; stroke:none;" d="M236 101L236 107L237 107L236 101z"/>
<path style="fill:#315e41; stroke:none;" d="M107.667 102.333L108.333 102.667L107.667 102.333z"/>
<path style="fill:#d2d1d2; stroke:none;" d="M5 103L5 109L6 109L5 103z"/>
<path style="fill:#a2a2a2; stroke:none;" d="M245.333 103.667L245.667 104.333L245.333 103.667z"/>
<path style="fill:#325f42; stroke:none;" d="M39 105L39 107L41 107L39 105z"/>
<path style="fill:#696969; stroke:none;" d="M245 105L245 108L246 108L245 105z"/>
<path style="fill:#305641; stroke:none;" d="M41.3333 107.667L41.6667 108.333L41.3333 107.667z"/>
<path style="fill:#416750; stroke:none;" d="M237 108L237 112L238 112L237 108z"/>
<path style="fill:#939393; stroke:none;" d="M246 108L246 113L247 113L246 108z"/>
<path style="fill:#838383; stroke:none;" d="M5 109L5 115L6 115L5 109z"/>
<path style="fill:#565752; stroke:none;" d="M86.3333 111.667L86.6667 112.333L86.3333 111.667z"/>
<path style="fill:#404740; stroke:none;" d="M165.333 111.667L165.667 112.333L165.333 111.667z"/>
<path style="fill:#56665c; stroke:none;" d="M13 112L13 130L14 130L13 112z"/>
<path style="fill:#3d5241; stroke:none;" d="M99.3333 113.667L99.6667 114.333L99.3333 113.667z"/>
<path style="fill:#2d553a; stroke:none;" d="M172 113L172 114L178 114L172 113z"/>
<path style="fill:#57645b; stroke:none;" d="M238 113L238 138L239 138L238 113z"/>
<path style="fill:#323232; stroke:none;" d="M246 113L246 121L247 121L246 113z"/>
<path style="fill:#333c37; stroke:none;" d="M166 114L166 115L170 115L166 114z"/>
<path style="fill:#575757; stroke:none;" d="M5 115L5 124L6 124L5 115z"/>
<path style="fill:#425949; stroke:none;" d="M44 117L44 121L45 121L44 117z"/>
<path style="fill:#4b5650; stroke:none;" d="M97 117L97 121L98 121L97 117z"/>
<path style="fill:#58655b; stroke:none;" d="M97 123L97 127L98 127L97 123z"/>
<path style="fill:#5b8c6c; stroke:none;" d="M168 125C167.963 138.525 162.151 150.81 151.981 159.791C148.492 162.872 141.467 164.555 139.042 168.418C137.3 171.194 139.068 174.952 138.701 178C137.971 184.07 134.928 191.377 131 196L131 197L134 199L135 199L144 191L153 192L153 191L148 190L149 181L144 177C150.153 180.46 153.984 182.37 161 180L160 174L163 177L163 174L165 176L166 176L166 174L168 174L169 178L172 176L171 181L177 177L177 172L180 172L184 176L180 170L180 169C182.851 168.386 182.854 167.697 182 165L193 165L190 166L192 167L192 168L186 169L186 170L191 172C200.811 163.652 201.911 144.834 192.776 135.21C186.418 128.51 176.829 126.189 168 125z"/>
<path style="fill:#325841; stroke:none;" d="M202.333 126.667L202.667 127.333L202.333 126.667z"/>
<path style="fill:#4e4e4e; stroke:none;" d="M246 129L246 140L247 140L246 129z"/>
<path style="fill:#3d473f; stroke:none;" d="M13 130L13 138L14 138L13 130z"/>
<path style="fill:#415347; stroke:none;" d="M154 130L154 136L155 136L154 130z"/>
<path style="fill:#3e453e; stroke:none;" d="M55 131L57 133L57 131L55 131z"/>
<path style="fill:#4a4a4a; stroke:none;" d="M5 132L5 140L6 140L5 132z"/>
<path style="fill:#445147; stroke:none;" d="M207 132L207 136L208 136L207 132z"/>
<path style="fill:#506459; stroke:none;" d="M97 133L97 137L98 137L97 133z"/>
<path style="fill:#355240; stroke:none;" d="M82 138L82 139L85 139L82 138z"/>
<path style="fill:#32513f; stroke:none;" d="M98 138L98 143L99 143L98 138z"/>
<path style="fill:#4f5c55; stroke:none;" d="M73 139L73 140L80 140L73 139z"/>
<path style="fill:#bebebe; stroke:none;" d="M5 140L5 144L6 144L5 140z"/>
<path style="fill:#aaaaaa; stroke:none;" d="M246 140L246 144L247 144L246 140z"/>
<path style="fill:#313d33; stroke:none;" d="M210 144L213 148L210 144z"/>
<path style="fill:#d2d2d2; stroke:none;" d="M246 144L246 148L247 148L246 144z"/>
<path style="fill:#6a6969; stroke:none;" d="M6.33333 145.667L6.66667 146.333L6.33333 145.667z"/>
<path style="fill:#a6a5a5; stroke:none;" d="M6 147L6 150L7 150L6 147z"/>
<path style="fill:#2f3c32; stroke:none;" d="M198 147L198 152L199 152L198 147z"/>
<path style="fill:#6a6a6a; stroke:none;" d="M245 149L245 152L246 152L245 149z"/>
<path style="fill:#395c44; stroke:none;" d="M105 151L105 152L108 152L105 151z"/>
<path style="fill:#37503b; stroke:none;" d="M114 155L114 156L117 156L114 155z"/>
<path style="fill:#3b5e48; stroke:none;" d="M131 155L131 156L134 156L131 155z"/>
<path style="fill:#46564b; stroke:none;" d="M125 156L125 157L131 157L125 156z"/>
<path style="fill:#d8d8d8; stroke:none;" d="M243 156L243 161L244 161L243 156z"/>
<path style="fill:#c3c3c3; stroke:none;" d="M8.33333 158.667L8.66667 159.333L8.33333 158.667z"/>
<path style="fill:#979797; stroke:none;" d="M9.33333 161.667L9.66667 162.333L9.33333 161.667z"/>
<path style="fill:#949494; stroke:none;" d="M242 162L243 163L242 162z"/>
<path style="fill:#9d9d9d; stroke:none;" d="M10 165L10 168L11 168L10 165z"/>
<path style="fill:#3e5646; stroke:none;" d="M106.667 165.333L107.333 165.667L106.667 165.333z"/>
<path style="fill:#334b3d; stroke:none;" d="M112 168L115 167L112 168z"/>
<path style="fill:#787878; stroke:none;" d="M240 167L241 168L240 167z"/>
<path style="fill:#3b6148; stroke:none;" d="M120 168L120 169L123 169L120 168z"/>
<path style="fill:#b4b4b4; stroke:none;" d="M239.333 169.667L239.667 170.333L239.333 169.667z"/>
<path style="fill:#a7a7a7; stroke:none;" d="M12.3333 170.667L12.6667 171.333L12.3333 170.667z"/>
<path style="fill:#7a7878; stroke:none;" d="M238 171L238 174L239 174L238 171z"/>
<path style="fill:#7f7f7f; stroke:none;" d="M13 173L14 174L13 173z"/>
<path style="fill:#30563d; stroke:none;" d="M203 174L202 178L206 174L203 174z"/>
<path style="fill:#878787; stroke:none;" d="M14 175L15 176L14 175z"/>
<path style="fill:#959595; stroke:none;" d="M237 175L238 176L237 175z"/>
<path style="fill:#5d5d5d; stroke:none;" d="M15 176L16 177L15 176z"/>
<path style="fill:#325340; stroke:none;" d="M125 177L125 180L126 180L125 177z"/>
<path style="fill:#4f7159; stroke:none;" d="M68.6667 179.333L69.3333 179.667L68.6667 179.333z"/>
<path style="fill:#2d4135; stroke:none;" d="M197 179L197 182L198 182L197 179z"/>
<path style="fill:#38483e; stroke:none;" d="M71.3333 181.667L71.6667 182.333L71.3333 181.667z"/>
<path style="fill:#c6c6c6; stroke:none;" d="M18.3333 183.667L18.6667 184.333L18.3333 183.667z"/>
<path style="fill:#666766; stroke:none;" d="M233 183L234 184L233 183z"/>
<path style="fill:#41624d; stroke:none;" d="M136 184L136 188L137 188L136 184z"/>
<path style="fill:#737373; stroke:none;" d="M232 185L233 186L232 185z"/>
<path style="fill:#848484; stroke:none;" d="M20 186L21 187L20 186z"/>
<path style="fill:#416750; stroke:none;" d="M181 186L181 187L193 187L181 186z"/>
<path style="fill:#595959; stroke:none;" d="M231 186L232 187L231 186z"/>
<path style="fill:#5f5f5f; stroke:none;" d="M21 188L22 189L21 188z"/>
<path style="fill:#737373; stroke:none;" d="M230 188L231 189L230 188z"/>
<path style="fill:#777777; stroke:none;" d="M22 189L23 190L22 189z"/>
<path style="fill:#7f7f7f; stroke:none;" d="M229 190L230 191L229 190z"/>
<path style="fill:#8b8b8b; stroke:none;" d="M226 195L227 196L226 195z"/>
<path style="fill:#384d3a; stroke:none;" d="M110 196L110 197L113 197L110 196z"/>
<path style="fill:#294036; stroke:none;" d="M73.3333 198.667L73.6667 199.333L73.3333 198.667z"/>
<path style="fill:#828282; stroke:none;" d="M224 198L225 199L224 198z"/>
<path style="fill:#0e311b; stroke:none;" d="M92 199L92 200L105 200L92 199z"/>
<path style="fill:#7f7f7f; stroke:none;" d="M223 199L224 200L223 199z"/>
<path style="fill:#7e7e7e; stroke:none;" d="M29 200L30 201L29 200z"/>
<path style="fill:#24332e; stroke:none;" d="M74 200L76 203L74 200z"/>
<path style="fill:#5c5c5c; stroke:none;" d="M30 201L31 202L30 201z"/>
<path style="fill:#a2a3a1; stroke:none;" d="M222 201L223 202L222 201z"/>
<path style="fill:#575757; stroke:none;" d="M31 202L32 203L31 202z"/>
<path style="fill:#396a54; stroke:none;" d="M125.667 202.333L126.333 202.667L125.667 202.333z"/>
<path style="fill:#4c6756; stroke:none;" d="M74 203L74 204L79 205L74 203z"/>
<path style="fill:#7d7d7d; stroke:none;" d="M219 204L220 205L219 204z"/>
<path style="fill:#a6a6a6; stroke:none;" d="M218 205L219 206L218 205z"/>
<path style="fill:#777777; stroke:none;" d="M34 206L35 207L34 206z"/>
<path style="fill:#6a6a6a; stroke:none;" d="M217 206L218 207L217 206z"/>
<path style="fill:#424242; stroke:none;" d="M35.3333 207.667L35.6667 208.333L35.3333 207.667z"/>
<path style="fill:#606060; stroke:none;" d="M216 207L217 208L216 207z"/>
<path style="fill:#555555; stroke:none;" d="M215 208L216 209L215 208z"/>
<path style="fill:#324237; stroke:none;" d="M114.667 209.333L115.333 209.667L114.667 209.333z"/>
<path style="fill:#2c4d38; stroke:none;" d="M84 210L84 211L87 211L84 210z"/>
<path style="fill:#9c9c9c; stroke:none;" d="M38.3333 211.667L38.6667 212.333L38.3333 211.667z"/>
<path style="fill:#393833; stroke:none;" d="M96.6667 211.333L97.3333 211.667L96.6667 211.333z"/>
<path style="fill:#8a8a8a; stroke:none;" d="M212 212L213 213L212 212z"/>
<path style="fill:#656565; stroke:none;" d="M39 213L40 214L39 213z"/>
<path style="fill:#979797; stroke:none;" d="M211 213L212 214L211 213z"/>
<path style="fill:#8c8c8c; stroke:none;" d="M40 214L41 215L40 214z"/>
<path style="fill:#939393; stroke:none;" d="M210 214L211 215L210 214z"/>
<path style="fill:#a6a6a6; stroke:none;" d="M41 215L41 216L44 216L41 215z"/>
<path style="fill:#9c9c9c; stroke:none;" d="M209 215L210 216L209 215z"/>
<path style="fill:#a4a4a4; stroke:none;" d="M208 216L209 217L208 216z"/>
<path style="fill:#626262; stroke:none;" d="M46 217L47 218L46 217z"/>
<path style="fill:#aaaaa9; stroke:none;" d="M207 217L208 218L207 217z"/>
<path style="fill:#868686; stroke:none;" d="M47 218L48 219L47 218z"/>
<path style="fill:#818181; stroke:none;" d="M48 219L49 220L48 219z"/>
<path style="fill:#6e6e6e; stroke:none;" d="M53 223L54 224L53 223z"/>
<path style="fill:#a2a2a2; stroke:none;" d="M54 224L55 225L54 224z"/>
<path style="fill:#9c9c9c; stroke:none;" d="M57 226L58 227L57 226z"/>
<path style="fill:#727272; stroke:none;" d="M196 226L197 227L196 226z"/>
<path style="fill:#8b8b8b; stroke:none;" d="M195 227L196 228L195 227z"/>
<path style="fill:#4d6357; stroke:none;" d="M76.6667 228.333L77.3333 228.667L76.6667 228.333z"/>
<path style="fill:#666666; stroke:none;" d="M193 228L194 229L193 228z"/>
<path style="fill:#989898; stroke:none;" d="M62 229L63 230L62 229z"/>
<path style="fill:#666666; stroke:none;" d="M190 230L191 231L190 230z"/>
<path style="fill:#8b8b8b; stroke:none;" d="M65 231L66 232L65 231M66 232L67 233L66 232z"/>
<path style="fill:#929292; stroke:none;" d="M187 232L188 233L187 232z"/>
<path style="fill:#5f5f5f; stroke:none;" d="M68 233L69 234L68 233z"/>
<path style="fill:#696969; stroke:none;" d="M185 233L186 234L185 233z"/>
<path style="fill:#868685; stroke:none;" d="M70 234L71 235L70 234z"/>
<path style="fill:#878787; stroke:none;" d="M183 234L184 235L183 234z"/>
<path style="fill:#737373; stroke:none;" d="M72 235L73 236L72 235z"/>
<path style="fill:#6d6d6d; stroke:none;" d="M74.6667 236.333L75.3333 236.667L74.6667 236.333z"/>
<path style="fill:#505e51; stroke:none;" d="M97 236L97 237L102 237L97 236z"/>
<path style="fill:#354137; stroke:none;" d="M152.667 236.333L153.333 236.667L152.667 236.333z"/>
<path style="fill:#666666; stroke:none;" d="M77 237L78 238L77 237z"/>
<path style="fill:#2e4734; stroke:none;" d="M102.667 237.333L103.333 237.667L102.667 237.333z"/>
<path style="fill:#3a5c44; stroke:none;" d="M147.667 237.333L148.333 237.667L147.667 237.333z"/>
<path style="fill:#545454; stroke:none;" d="M79.6667 238.333L80.3333 238.667L79.6667 238.333z"/>
<path style="fill:#364038; stroke:none;" d="M107 238L107 239L110 239L107 238z"/>
<path style="fill:#959695; stroke:none;" d="M173.667 238.333L174.333 238.667L173.667 238.333z"/>
<path style="fill:#636363; stroke:none;" d="M82 239L83 240L82 239z"/>
<path style="fill:#56876a; stroke:none;" d="M114 239L114 240L136 240L114 239z"/>
<path style="fill:#626262; stroke:none;" d="M85 240L86 241L85 240z"/>
<path style="fill:#989898; stroke:none;" d="M86.6667 241.333L87.3333 241.667L86.6667 241.333z"/>
<path style="fill:#bababa; stroke:none;" d="M166.667 241.333L167.333 241.667L166.667 241.333z"/>
<path style="fill:#545454; stroke:none;" d="M89 242L89 243L92 243L89 242z"/>
<path style="fill:#828282; stroke:none;" d="M164 242L165 243L164 242z"/>
<path style="fill:#767676; stroke:none;" d="M93 243L94 244L93 243z"/>
<path style="fill:#a1a1a1; stroke:none;" d="M155.667 244.333L156.333 244.667L155.667 244.333z"/>
<path style="fill:#bcbcbc; stroke:none;" d="M96.6667 245.333L97.3333 245.667L96.6667 245.333z"/>
<path style="fill:#c9c9c9; stroke:none;" d="M152.667 245.333L153.333 245.667L152.667 245.333z"/>
<path style="fill:#747474; stroke:none;" d="M100 246L100 247L104 247L100 246z"/>
<path style="fill:#757575; stroke:none;" d="M107 246L107 247L111 247L107 246z"/>
<path style="fill:#5d5d5d; stroke:none;" d="M144 246L144 247L151 247L144 246z"/>
<path style="fill:#b9b9b9; stroke:none;" d="M104 247L104 248L107 248L104 247z"/>
<path style="fill:#8a8a8a; stroke:none;" d="M113 247L113 248L117 248L113 247z"/>
<path style="fill:#3d3d3d; stroke:none;" d="M119.667 247.333L120.333 247.667L119.667 247.333z"/>
<path style="fill:#626262; stroke:none;" d="M122 247L122 248L130 248L122 247M131 247L131 248L139 248L131 247z"/>
<path style="fill:#b4b4b4; stroke:none;" d="M139.667 247.333L140.333 247.667L139.667 247.333z"/>
</svg>
