<?xml version="1.0" standalone="yes"?>
<svg width="252" height="252">

<path style="fill:#a3a3a3; stroke:none;" d="M108 5L108 6L113 6L108 5z"/>
<path style="fill:#5f5f5f; stroke:none;" d="M113 5L113 6L121 6L113 5z"/>
<path style="fill:#000000; stroke:none;" d="M121 5.70988C66.2095 6.5237 15.533 47.7342 6.32562 103C-5.04018 171.221 45.7303 249.514 120 247.59C149.201 246.833 176.041 242.327 200 224.101C255.401 181.955 264.417 89.6228 212.981 40.2446C187.774 16.0449 155.066 5.2039 121 5.70988z"/>
<path style="fill:#626262; stroke:none;" d="M122 5L122 6L130 6L122 5z"/>
<path style="fill:#5c5c5c; stroke:none;" d="M131.667 5.33333L132.333 5.66667L131.667 5.33333z"/>
<path style="fill:#898989; stroke:none;" d="M134 5L134 6L139 6L134 5z"/>
<path style="fill:#a4a4a4; stroke:none;" d="M145 5L145 6L148 6L145 5z"/>
<path style="fill:#adadad; stroke:none;" d="M100.667 6.33333L101.333 6.66667L100.667 6.33333z"/>
<path style="fill:#696969; stroke:none;" d="M102.667 6.33333L103.333 6.66667L102.667 6.33333z"/>
<path style="fill:#545454; stroke:none;" d="M142 6L142 7L145 7L142 6z"/>
<path style="fill:#959595; stroke:none;" d="M150.667 6.33333L151.333 6.66667L150.667 6.33333z"/>
<path style="fill:#979797; stroke:none;" d="M98.6667 7.33333L99.3333 7.66667L98.6667 7.33333z"/>
<path style="fill:#737373; stroke:none;" d="M94 8L94 9L97 9L94 8z"/>
<path style="fill:#848484; stroke:none;" d="M156 8L157 9L156 8z"/>
<path style="fill:#464646; stroke:none;" d="M89.6667 9.33333L90.3333 9.66667L89.6667 9.33333z"/>
<path style="fill:#7c7c7c; stroke:none;" d="M87 10L88 11L87 10z"/>
<path style="fill:#545454; stroke:none;" d="M160 10L160 11L163 11L160 10z"/>
<path style="fill:#7b7b7b; stroke:none;" d="M84 11L85 12L84 11z"/>
<path style="fill:#8e8e8e; stroke:none;" d="M165 11L166 12L165 11z"/>
<path style="fill:#838383; stroke:none;" d="M82 12L83 13L82 12z"/>
<path style="fill:#606060; stroke:none;" d="M166 12L167 13L166 12z"/>
<path style="fill:#858585; stroke:none;" d="M79.6667 13.3333L80.3333 13.6667L79.6667 13.3333z"/>
<path style="fill:#6a6a6a; stroke:none;" d="M91 18L91 19L95 20L93 21L93 22L103 23C108.61 17.2709 129.881 19.3588 136 24L137 24L149 23L147 30L151 27L168 32L168 37L176 37L176 40L183 40C181.967 44.5038 183.33 47.2075 188 48C187.924 54.4166 185.65 58.0282 179 59L179 61L189 62L189 67L194 64L193 72L192 72C187.036 67.7473 184.036 82.8015 184 86L188 87L187 90L194 96L194 97L184 101L187 109L177 112C172.242 112.25 172.927 117.12 172 121L176 121L173 123L173 124L177 122L204 130L186 133L132 134C132 137.679 129.858 144.094 134 145L128.836 175L131 182C129.137 189.457 127.455 199.229 121 204L119 134L64 134L64 135L70 135L70 136L64 141C71.2387 145.488 64.3047 151.592 59 154L60 160L65 158C65.7354 162.235 67.9484 162.776 72 163C73.8315 169.15 78.5747 168.096 84 168L84 169L80 170L86 176L87 172L88 172L88 176L90 176L90 168L102 168L100 176L100 184L95 182L95 187L90 184L88 194L80 193L81 205L88 205L87 208L79 209L83 212L79 211L78 214L74 213L76 210L69 210L70 213L67 216L63 216L63 217L66 217L66 218L63 218L62 221C97.8692 237.747 128.246 246.154 167 231.945C176.833 228.34 192.733 222.627 198 213L194 213L197 209L199 200L202 201L203 200L203 198L195 197L195 192L201 193L205 183L209 184L214 181L207.33 158.001L211.298 148.755L210 136L213 136L212 129L208 130L212 128L209 112L205 113C208.449 106.725 209.376 105.054 207 98L216 99L220 87L216 82L221 80L221 79L208 72C212.108 70.5856 213.909 67.0528 215 63L219 65C216.84 54.1472 204.278 44.2658 195.996 37.6011C172.686 18.8423 142.617 10.9079 113 13.0903C105.568 13.6379 98.3924 16.9132 91 18z"/>
<path style="fill:#8e8e8e; stroke:none;" d="M77 14L78 15L77 14z"/>
<path style="fill:#6d6d6d; stroke:none;" d="M172 14L173 15L172 14z"/>
<path style="fill:#666666; stroke:none;" d="M174 15L175 16L174 15z"/>
<path style="fill:#6a6a6a; stroke:none;" d="M73 16L74 17L73 16z"/>
<path style="fill:#7a7a7a; stroke:none;" d="M176.667 16.3333L177.333 16.6667L176.667 16.3333z"/>
<path style="fill:#898989; stroke:none;" d="M70 17L71 18L70 17z"/>
<path style="fill:#c7c7c7; stroke:none;" d="M179.667 17.3333L180.333 17.6667L179.667 17.3333z"/>
<path style="fill:#7a7a7a; stroke:none;" d="M68 18L69 19L68 18z"/>
<path style="fill:#bebebe; stroke:none;" d="M181.667 18.3333L182.333 18.6667L181.667 18.3333z"/>
<path style="fill:#787878; stroke:none;" d="M64 220L66 218L66 217L63 217L63 216L67 216L70 213L69 210L76 210L74 213L78 214L79 211L83 212L79 209L88 205L81 205L80 193L88 194L90 184L95 187L95 182L100 184L100 176L102 168L90 168L90 176L88 176L88 172L87 172L86 176L80 170L84 169L84 168C78.4268 168.03 74.6611 168.594 72 163C68.1718 162.569 66.1902 161.771 65 158L60 160L59 154C64.3823 152.298 72.5005 144.42 64 141L70 136L70 135C65.4944 134.804 54.9038 134.784 51.3302 132.307C47.4192 129.596 47.4022 124.411 52.0231 122.603C64.734 117.632 86.3914 120.07 100 119.999C103.491 119.981 115.834 120.977 117.972 118.382C120.681 115.095 119 106.044 119 102C119 88.3985 113.297 64.3301 120.028 52.0586C127.316 38.7719 131.019 61.9797 131.741 66.0895C134.644 82.6176 133.453 104.503 132 121C135.863 121 144.081 123.199 145 119L167 121.104L176 121L172 121C173.081 117.389 172.549 112.661 177 112L187 109L184 101C189.045 101.804 190.45 100.264 194 97L194 96L191 95C191.673 91.8211 189.885 90.8676 187 90L188 87L184 86C184.132 81.5334 186.274 71.4092 192 72L193 72L194 64L189 67L189 62L179 61L179 59C186.288 58.4703 187.976 54.7541 188 48C183.793 46.7002 182.548 44.3153 183 40L176 40L176 37L168 37L168 32L151 27L147 30L149 23L137 24L136 24C131.737 19.1159 106.723 17.2574 103 23L93 22L93 21L95 20C73.1609 15.2659 46.0617 43.3286 35.4097 59.0895C9.06514 98.0696 6.25842 146.251 30.6042 187C37.6828 198.848 50.5019 215.523 64 220z"/>
<path style="fill:#929292; stroke:none;" d="M64 20L65 21L64 20z"/>
<path style="fill:#8b8b8b; stroke:none;" d="M185 20L186 21L185 20z"/>
<path style="fill:#909090; stroke:none;" d="M62 21L63 22L62 21z"/>
<path style="fill:#919191; stroke:none;" d="M191 24L192 25L191 24z"/>
<path style="fill:#8b8b8b; stroke:none;" d="M56 25L57 26L56 25z"/>
<path style="fill:#626262; stroke:none;" d="M55 26L56 27L55 26z"/>
<path style="fill:#a7a7a7; stroke:none;" d="M53 27L54 28L53 27M196 27L197 28L196 27z"/>
<path style="fill:#989898; stroke:none;" d="M52 28L53 29L52 28z"/>
<path style="fill:#656565; stroke:none;" d="M51 29L52 30L51 29z"/>
<path style="fill:#a4a4a4; stroke:none;" d="M201 31L202 32L201 31z"/>
<path style="fill:#919191; stroke:none;" d="M47 32L48 33L47 32z"/>
<path style="fill:#909090; stroke:none;" d="M202 32L203 33L202 32z"/>
<path style="fill:#818181; stroke:none;" d="M203 33L204 34L203 33z"/>
<path style="fill:#9d9d9d; stroke:none;" d="M45 34L46 35L45 34z"/>
<path style="fill:#767676; stroke:none;" d="M204 34L205 35L204 34z"/>
<path style="fill:#a2a2a2; stroke:none;" d="M44 35L45 36L44 35z"/>
<path style="fill:#a4a4a4; stroke:none;" d="M43 36L44 37L43 36z"/>
<path style="fill:#636363; stroke:none;" d="M42 37L43 38L42 37z"/>
<path style="fill:#7a7a7a; stroke:none;" d="M208 37L208 38L211 38L208 37z"/>
<path style="fill:#8d8d8d; stroke:none;" d="M41 38L42 39L41 38z"/>
<path style="fill:#8b8b8b; stroke:none;" d="M211 38L212 39L211 38z"/>
<path style="fill:#878787; stroke:none;" d="M40 39L41 40L40 39z"/>
<path style="fill:#7c7c7c; stroke:none;" d="M39 40L40 41L39 40z"/>
<path style="fill:#5d5d5d; stroke:none;" d="M213.333 40.6667L213.667 41.3333L213.333 40.6667z"/>
<path style="fill:#909090; stroke:none;" d="M37 42L38 43L37 42z"/>
<path style="fill:#575757; stroke:none;" d="M36 44L37 45L36 44z"/>
<path style="fill:#6b6b6b; stroke:none;" d="M34 46L35 47L34 46z"/>
<path style="fill:#7a7a7a; stroke:none;" d="M217 46L218 47L217 46z"/>
<path style="fill:#959595; stroke:none;" d="M33 47L34 48L33 47z"/>
<path style="fill:#6b6b6b; stroke:none;" d="M32 48L33 49L32 48z"/>
<path style="fill:#000000; stroke:none;" d="M119 134L121 204C127.643 200.521 128.702 189.695 130 183C125.043 176.623 131.51 165.191 132.375 158C132.869 153.888 132.015 150.148 133 146L131 134L186 133.131L204 130L182 122L166 123L166 122L168 122L168 121L145 119L132 121C134.214 110.045 131.947 98.0644 131.181 86.9961C130.402 75.745 131.483 64.3185 129.867 53.0941C129.134 48.0077 122.749 46.3556 120.042 51.1481C118.199 54.4113 119.101 61.2497 119.015 65C118.746 76.7257 119.112 88.3375 119.91 100C120.233 104.702 121.653 114.956 117.486 118.307C114.811 120.458 108.387 119.207 105 119.754C92.5636 121.761 79.6023 120.705 67 121.015C62.9057 121.115 53.7411 120.919 50.3179 123.063C39.8305 129.633 58.5675 133.504 62 133.83C80.9423 135.633 100.091 132.351 119 134z"/>
<path style="fill:#8a8a8a; stroke:none;" d="M31 49L32 50L31 49z"/>
<path style="fill:#8f8f8f; stroke:none;" d="M30 50L31 51L30 50z"/>
<path style="fill:#a1a1a1; stroke:none;" d="M29 51L30 52L29 51z"/>
<path style="fill:#707070; stroke:none;" d="M222 52L223 53L222 52z"/>
<path style="fill:#999999; stroke:none;" d="M223 53L224 54L223 53z"/>
<path style="fill:#828282; stroke:none;" d="M27 54L28 55L27 54z"/>
<path style="fill:#444444; stroke:none;" d="M119 56L119 60L120 60L119 56z"/>
<path style="fill:#888888; stroke:none;" d="M25 57L26 58L25 57z"/>
<path style="fill:#a0a0a0; stroke:none;" d="M226 57L227 58L226 57z"/>
<path style="fill:#969696; stroke:none;" d="M24 58L25 59L24 58z"/>
<path style="fill:#828282; stroke:none;" d="M227 59L228 60L227 59z"/>
<path style="fill:#aaaaaa; stroke:none;" d="M23 60L24 61L23 60z"/>
<path style="fill:#7c7c7c; stroke:none;" d="M22 62L23 63L22 62z"/>
<path style="fill:#3a3a3a; stroke:none;" d="M118 62L118 80L119 80L118 62z"/>
<path style="fill:#a4a4a4; stroke:none;" d="M21 63L22 64L21 63z"/>
<path style="fill:#4c4c4c; stroke:none;" d="M131 63L131 80L132 80L131 63z"/>
<path style="fill:#585858; stroke:none;" d="M215 63L208 72L221 79L221 80L216 82L220 87L216 99L207 98C208.602 104.866 207.28 106.704 205 113L209 112L212 128L208 130L212 129L213 136L210 136L210.981 147.871L207.185 158.001L214 181L209 184L205 183L207 185L201 193L195 192L195 197L203 198L203 200L202 201L199 200L197 209L194 213C207.904 213.709 219.599 190.794 224.891 180C243.661 141.717 244.06 99.3663 220 63L215 63z"/>
<path style="fill:#353535; stroke:none;" d="M230.333 64.6667L230.667 65.3333L230.333 64.6667z"/>
<path style="fill:#6a6a6a; stroke:none;" d="M231 66L232 67L231 66z"/>
<path style="fill:#747474; stroke:none;" d="M19 67L20 68L19 67z"/>
<path style="fill:#919191; stroke:none;" d="M234 71L235 72L234 71z"/>
<path style="fill:#8e8e8e; stroke:none;" d="M16 73L17 74L16 73z"/>
<path style="fill:#878787; stroke:none;" d="M235 73L236 74L235 73z"/>
<path style="fill:#8d8d8d; stroke:none;" d="M14 77L15 78L14 77z"/>
<path style="fill:#7c7c7c; stroke:none;" d="M237 77L238 78L237 77z"/>
<path style="fill:#7b7b7b; stroke:none;" d="M13.3333 79.6667L13.6667 80.3333L13.3333 79.6667z"/>
<path style="fill:#414141; stroke:none;" d="M23.3333 79.6667L23.6667 80.3333L23.3333 79.6667z"/>
<path style="fill:#6b6b6b; stroke:none;" d="M238 79L239 80L238 79z"/>
<path style="fill:#494949; stroke:none;" d="M131 81L131 90L132 90L131 81z"/>
<path style="fill:#5d5d5d; stroke:none;" d="M239.333 81.6667L239.667 82.3333L239.333 81.6667z"/>
<path style="fill:#626262; stroke:none;" d="M12.3333 82.6667L12.6667 83.3333L12.3333 82.6667z"/>
<path style="fill:#656565; stroke:none;" d="M240 84L241 85L240 84z"/>
<path style="fill:#737373; stroke:none;" d="M11 85L12 86L11 85z"/>
<path style="fill:#c8c8c8; stroke:none;" d="M241 85L241 88L242 88L241 85z"/>
<path style="fill:#383838; stroke:none;" d="M20.3333 86.6667L20.6667 87.3333L20.3333 86.6667z"/>
<path style="fill:#707070; stroke:none;" d="M10.3333 87.6667L10.6667 88.3333L10.3333 87.6667z"/>
<path style="fill:#404040; stroke:none;" d="M9.33333 90.6667L9.66667 91.3333L9.33333 90.6667z"/>
<path style="fill:#5f5f5f; stroke:none;" d="M242.333 90.6667L242.667 91.3333L242.333 90.6667z"/>
<path style="fill:#d9d9d9; stroke:none;" d="M8 92L8 96L9 96L8 92z"/>
<path style="fill:#515151; stroke:none;" d="M119 96L119 116L120 116L119 96z"/>
<path style="fill:#d9d9d9; stroke:none;" d="M244 96L244 100L245 100L244 96z"/>
<path style="fill:#949494; stroke:none;" d="M6.33333 100.667L6.66667 101.333L6.33333 100.667z"/>
<path style="fill:#424242; stroke:none;" d="M244.333 100.667L244.667 101.333L244.333 100.667z"/>
<path style="fill:#a2a2a2; stroke:none;" d="M245.333 103.667L245.667 104.333L245.333 103.667z"/>
<path style="fill:#c8c8c8; stroke:none;" d="M5 104L5 109L6 109L5 104z"/>
<path style="fill:#696969; stroke:none;" d="M245 105L245 108L246 108L245 105z"/>
<path style="fill:#333333; stroke:none;" d="M14 107L14 110L15 110L14 107z"/>
<path style="fill:#939393; stroke:none;" d="M246 108L246 113L247 113L246 108z"/>
<path style="fill:#838383; stroke:none;" d="M5 109L5 115L6 115L5 109z"/>
<path style="fill:#3f3f3f; stroke:none;" d="M133 110L133 114L134 114L133 110z"/>
<path style="fill:#545454; stroke:none;" d="M13 112L13 138L14 138L13 112z"/>
<path style="fill:#323232; stroke:none;" d="M246 113L246 121L247 121L246 113z"/>
<path style="fill:#575757; stroke:none;" d="M5 115L5 124L6 124L5 115z"/>
<path style="fill:#3b3b3b; stroke:none;" d="M92 120L92 121L101 121L92 120z"/>
<path style="fill:#3a3a3a; stroke:none;" d="M147 120L147 121L151 121L147 120z"/>
<path style="fill:#4a4a4a; stroke:none;" d="M166 122L166 123L173 123L166 122z"/>
<path style="fill:#393939; stroke:none;" d="M54 122L54 123L57 123L54 122M176 125L182 122L176 125z"/>
<path style="fill:#383838; stroke:none;" d="M47 125L47 128L48 128L47 125z"/>
<path style="fill:#4e4e4e; stroke:none;" d="M246 129L246 140L247 140L246 129z"/>
<path style="fill:#4a4a4a; stroke:none;" d="M5 132L5 140L6 140L5 132z"/>
<path style="fill:#1d1d1d; stroke:none;" d="M102 132L102 133L112 133L102 132z"/>
<path style="fill:#2e2e2e; stroke:none;" d="M196 132L196 133L200 133L196 132z"/>
<path style="fill:#4a4a4a; stroke:none;" d="M51 133L51 134L55 134L51 133z"/>
<path style="fill:#3f3f3f; stroke:none;" d="M81 133L81 134L95 134L81 133z"/>
<path style="fill:#1d1d1d; stroke:none;" d="M158 133L158 134L170 134L158 133z"/>
<path style="fill:#4f4f4f; stroke:none;" d="M131 134L131 143L132 143L131 134z"/>
<path style="fill:#bebebe; stroke:none;" d="M5 140L5 144L6 144L5 140z"/>
<path style="fill:#aaaaaa; stroke:none;" d="M246 140L246 144L247 144L246 140z"/>
<path style="fill:#343434; stroke:none;" d="M119 142L119 157L120 157L119 142z"/>
<path style="fill:#d2d2d2; stroke:none;" d="M246 144L246 148L247 148L246 144z"/>
<path style="fill:#696969; stroke:none;" d="M6.33333 145.667L6.66667 146.333L6.33333 145.667z"/>
<path style="fill:#3f3f3f; stroke:none;" d="M131 145L131 146L134 147L131 145z"/>
<path style="fill:#313131; stroke:none;" d="M15 146L15 152L16 152L15 146z"/>
<path style="fill:#a5a5a5; stroke:none;" d="M6 147L6 150L7 150L6 147z"/>
<path style="fill:#6a6a6a; stroke:none;" d="M245 149L245 152L246 152L245 149z"/>
<path style="fill:#363636; stroke:none;" d="M16.3333 153.667L16.6667 154.333L16.3333 153.667z"/>
<path style="fill:#d8d8d8; stroke:none;" d="M243 156L243 161L244 161L243 156z"/>
<path style="fill:#c3c3c3; stroke:none;" d="M8.33333 158.667L8.66667 159.333L8.33333 158.667z"/>
<path style="fill:#454545; stroke:none;" d="M118 158L118 171L119 171L118 158z"/>
<path style="fill:#3c3c3c; stroke:none;" d="M131 160L129 171L130 171L131 160z"/>
<path style="fill:#979797; stroke:none;" d="M9.33333 161.667L9.66667 162.333L9.33333 161.667z"/>
<path style="fill:#949494; stroke:none;" d="M242 162L243 163L242 162z"/>
<path style="fill:#9d9d9d; stroke:none;" d="M10 165L10 168L11 168L10 165z"/>
<path style="fill:#787878; stroke:none;" d="M240 167L241 168L240 167z"/>
<path style="fill:#b4b4b4; stroke:none;" d="M239.333 169.667L239.667 170.333L239.333 169.667z"/>
<path style="fill:#a7a7a7; stroke:none;" d="M12.3333 170.667L12.6667 171.333L12.3333 170.667z"/>
<path style="fill:#787878; stroke:none;" d="M238 171L238 174L239 174L238 171z"/>
<path style="fill:#7f7f7f; stroke:none;" d="M13 173L14 174L13 173z"/>
<path style="fill:#878787; stroke:none;" d="M14 175L15 176L14 175z"/>
<path style="fill:#959595; stroke:none;" d="M237 175L238 176L237 175z"/>
<path style="fill:#5d5d5d; stroke:none;" d="M15 176L16 177L15 176z"/>
<path style="fill:#1e1e1e; stroke:none;" d="M127 177L131 184L127 177z"/>
<path style="fill:#c6c6c6; stroke:none;" d="M18.3333 183.667L18.6667 184.333L18.3333 183.667z"/>
<path style="fill:#414141; stroke:none;" d="M118 183L119 190L120 190L118 183z"/>
<path style="fill:#666666; stroke:none;" d="M233 183L234 184L233 183z"/>
<path style="fill:#282828; stroke:none;" d="M129 185L129 190L130 190L129 185z"/>
<path style="fill:#737373; stroke:none;" d="M232 185L233 186L232 185z"/>
<path style="fill:#848484; stroke:none;" d="M20 186L21 187L20 186z"/>
<path style="fill:#5f5f5f; stroke:none;" d="M21 188L22 189L21 188z"/>
<path style="fill:#737373; stroke:none;" d="M230 188L231 189L230 188z"/>
<path style="fill:#777777; stroke:none;" d="M22 189L23 190L22 189z"/>
<path style="fill:#7f7f7f; stroke:none;" d="M229 190L230 191L229 190z"/>
<path style="fill:#8b8b8b; stroke:none;" d="M226 195L227 196L226 195z"/>
<path style="fill:#2a2a2a; stroke:none;" d="M125 197L125 201L126 201L125 197z"/>
<path style="fill:#828282; stroke:none;" d="M224 198L225 199L224 198z"/>
<path style="fill:#7f7f7f; stroke:none;" d="M223 199L224 200L223 199z"/>
<path style="fill:#7e7e7e; stroke:none;" d="M29 200L30 201L29 200z"/>
<path style="fill:#5c5c5c; stroke:none;" d="M30 201L31 202L30 201z"/>
<path style="fill:#a2a2a2; stroke:none;" d="M222 201L223 202L222 201z"/>
<path style="fill:#575757; stroke:none;" d="M31 202L32 203L31 202z"/>
<path style="fill:#7d7d7d; stroke:none;" d="M219 204L220 205L219 204z"/>
<path style="fill:#a6a6a6; stroke:none;" d="M218 205L219 206L218 205z"/>
<path style="fill:#777777; stroke:none;" d="M34 206L35 207L34 206z"/>
<path style="fill:#6a6a6a; stroke:none;" d="M217 206L218 207L217 206z"/>
<path style="fill:#424242; stroke:none;" d="M35.3333 207.667L35.6667 208.333L35.3333 207.667z"/>
<path style="fill:#606060; stroke:none;" d="M216 207L217 208L216 207z"/>
<path style="fill:#9c9c9c; stroke:none;" d="M38.3333 211.667L38.6667 212.333L38.3333 211.667z"/>
<path style="fill:#8a8a8a; stroke:none;" d="M212 212L213 213L212 212z"/>
<path style="fill:#656565; stroke:none;" d="M39 213L40 214L39 213z"/>
<path style="fill:#979797; stroke:none;" d="M211 213L212 214L211 213z"/>
<path style="fill:#8c8c8c; stroke:none;" d="M40 214L41 215L40 214z"/>
<path style="fill:#939393; stroke:none;" d="M210 214L211 215L210 214z"/>
<path style="fill:#a6a6a6; stroke:none;" d="M41 215L41 216L44 216L41 215z"/>
<path style="fill:#9c9c9c; stroke:none;" d="M209 215L210 216L209 215z"/>
<path style="fill:#a4a4a4; stroke:none;" d="M208 216L209 217L208 216z"/>
<path style="fill:#626262; stroke:none;" d="M46 217L47 218L46 217z"/>
<path style="fill:#868686; stroke:none;" d="M47 218L48 219L47 218z"/>
<path style="fill:#818181; stroke:none;" d="M48 219L49 220L48 219z"/>
<path style="fill:#6e6e6e; stroke:none;" d="M53 223L54 224L53 223z"/>
<path style="fill:#a2a2a2; stroke:none;" d="M54 224L55 225L54 224z"/>
<path style="fill:#9c9c9c; stroke:none;" d="M57 226L58 227L57 226z"/>
<path style="fill:#727272; stroke:none;" d="M196 226L197 227L196 226z"/>
<path style="fill:#8b8b8b; stroke:none;" d="M195 227L196 228L195 227z"/>
<path style="fill:#666666; stroke:none;" d="M193 228L194 229L193 228z"/>
<path style="fill:#989898; stroke:none;" d="M62 229L63 230L62 229z"/>
<path style="fill:#666666; stroke:none;" d="M190 230L191 231L190 230z"/>
<path style="fill:#8b8b8b; stroke:none;" d="M65 231L66 232L65 231M66 232L67 233L66 232z"/>
<path style="fill:#929292; stroke:none;" d="M187 232L188 233L187 232z"/>
<path style="fill:#5f5f5f; stroke:none;" d="M68 233L69 234L68 233z"/>
<path style="fill:#696969; stroke:none;" d="M185 233L186 234L185 233z"/>
<path style="fill:#868686; stroke:none;" d="M70 234L71 235L70 234z"/>
<path style="fill:#878787; stroke:none;" d="M183 234L184 235L183 234z"/>
<path style="fill:#737373; stroke:none;" d="M72 235L73 236L72 235z"/>
<path style="fill:#6d6d6d; stroke:none;" d="M74.6667 236.333L75.3333 236.667L74.6667 236.333z"/>
<path style="fill:#666666; stroke:none;" d="M77 237L78 238L77 237z"/>
<path style="fill:#545454; stroke:none;" d="M79.6667 238.333L80.3333 238.667L79.6667 238.333z"/>
<path style="fill:#959595; stroke:none;" d="M173.667 238.333L174.333 238.667L173.667 238.333z"/>
<path style="fill:#636363; stroke:none;" d="M82 239L83 240L82 239z"/>
<path style="fill:#626262; stroke:none;" d="M85 240L86 241L85 240z"/>
<path style="fill:#989898; stroke:none;" d="M86.6667 241.333L87.3333 241.667L86.6667 241.333z"/>
<path style="fill:#bababa; stroke:none;" d="M166.667 241.333L167.333 241.667L166.667 241.333z"/>
<path style="fill:#545454; stroke:none;" d="M89 242L89 243L92 243L89 242z"/>
<path style="fill:#828282; stroke:none;" d="M164 242L165 243L164 242z"/>
<path style="fill:#767676; stroke:none;" d="M93 243L94 244L93 243z"/>
<path style="fill:#a1a1a1; stroke:none;" d="M155.667 244.333L156.333 244.667L155.667 244.333z"/>
<path style="fill:#bcbcbc; stroke:none;" d="M96.6667 245.333L97.3333 245.667L96.6667 245.333z"/>
<path style="fill:#c9c9c9; stroke:none;" d="M152.667 245.333L153.333 245.667L152.667 245.333z"/>
<path style="fill:#747474; stroke:none;" d="M100 246L100 247L104 247L100 246z"/>
<path style="fill:#757575; stroke:none;" d="M107 246L107 247L111 247L107 246z"/>
<path style="fill:#5d5d5d; stroke:none;" d="M144 246L144 247L151 247L144 246z"/>
<path style="fill:#b9b9b9; stroke:none;" d="M104 247L104 248L107 248L104 247z"/>
<path style="fill:#8a8a8a; stroke:none;" d="M113 247L113 248L117 248L113 247z"/>
<path style="fill:#3d3d3d; stroke:none;" d="M119.667 247.333L120.333 247.667L119.667 247.333z"/>
<path style="fill:#626262; stroke:none;" d="M122 247L122 248L130 248L122 247M131 247L131 248L139 248L131 247z"/>
<path style="fill:#b4b4b4; stroke:none;" d="M139.667 247.333L140.333 247.667L139.667 247.333z"/>
</svg>
