<?xml version="1.0" encoding="UTF-8" standalone="no"?>
<svg
   xmlns:dc="http://purl.org/dc/elements/1.1/"
   xmlns:cc="http://creativecommons.org/ns#"
   xmlns:rdf="http://www.w3.org/1999/02/22-rdf-syntax-ns#"
   xmlns:svg="http://www.w3.org/2000/svg"
   xmlns="http://www.w3.org/2000/svg"
   xmlns:sodipodi="http://sodipodi.sourceforge.net/DTD/sodipodi-0.dtd"
   xmlns:inkscape="http://www.inkscape.org/namespaces/inkscape"
   width="252"
   height="252"
   version="1.1"
   id="svg660"
   sodipodi:docname="Seleno.svg"
   inkscape:version="0.92.1 r15371">
  <metadata
     id="metadata666">
    <rdf:RDF>
      <cc:Work
         rdf:about="">
        <dc:format>image/svg+xml</dc:format>
        <dc:type
           rdf:resource="http://purl.org/dc/dcmitype/StillImage" />
        <dc:title></dc:title>
      </cc:Work>
    </rdf:RDF>
  </metadata>
  <defs
     id="defs664" />
  <sodipodi:namedview
     pagecolor="#ffffff"
     bordercolor="#666666"
     borderopacity="1"
     objecttolerance="10"
     gridtolerance="10"
     guidetolerance="10"
     inkscape:pageopacity="0"
     inkscape:pageshadow="2"
     inkscape:window-width="769"
     inkscape:window-height="480"
     id="namedview662"
     showgrid="false"
     inkscape:zoom="0.93650794"
     inkscape:cx="-1.0677966"
     inkscape:cy="126"
     inkscape:window-x="0"
     inkscape:window-y="0"
     inkscape:window-maximized="0"
     inkscape:current-layer="svg660" />
  <path
     style="fill:#a3a3a4; stroke:none;"
     d="M108 5L108 6L113 6L108 5z"
     id="path4" />
  <path
     style="fill:#5f5f5f; stroke:none;"
     d="M113 5L113 6L121 6L113 5z"
     id="path6" />
  <path
     style="fill:#010000; stroke:none;"
     d="M121 5.70911C66.1989 6.69931 15.5545 47.6056 6.32562 103C-5.0397 171.218 45.724 249.514 120 247.59C149.186 246.833 176.04 242.327 200 224.101C255.403 181.958 264.415 89.6211 212.981 40.2446C187.829 16.0983 155.02 5.09441 121 5.70911z"
     id="path8" />
  <path
     style="fill:#626262; stroke:none;"
     d="M122 5L122 6L129 6L122 5z"
     id="path10" />
  <path
     style="fill:#5c5c5c; stroke:none;"
     d="M131.667 5.33333L132.333 5.66667L131.667 5.33333z"
     id="path12" />
  <path
     style="fill:#898989; stroke:none;"
     d="M134 5L134 6L139 6L134 5z"
     id="path14" />
  <path
     style="fill:#a4a4a5; stroke:none;"
     d="M145 5L145 6L148 6L145 5z"
     id="path16" />
  <path
     style="fill:#adadad; stroke:none;"
     d="M100.667 6.33333L101.333 6.66667L100.667 6.33333z"
     id="path18" />
  <path
     style="fill:#696969; stroke:none;"
     d="M102.667 6.33333L103.333 6.66667L102.667 6.33333z"
     id="path20" />
  <path
     style="fill:#545454; stroke:none;"
     d="M142 6L142 7L145 7L142 6z"
     id="path22" />
  <path
     style="fill:#959595; stroke:none;"
     d="M150.667 6.33333L151.333 6.66667L150.667 6.33333z"
     id="path24" />
  <path
     style="fill:#979797; stroke:none;"
     d="M98.6667 7.33333L99.3333 7.66667L98.6667 7.33333z"
     id="path26" />
  <path
     style="fill:#737373; stroke:none;"
     d="M94 8L94 9L97 9L94 8z"
     id="path28" />
  <path
     style="fill:#848484; stroke:none;"
     d="M156 8L157 9L156 8z"
     id="path30" />
  <path
     style="fill:#464646; stroke:none;"
     d="M89.6667 9.33333L90.3333 9.66667L89.6667 9.33333z"
     id="path32" />
  <path
     style="fill:#7c7c7c; stroke:none;"
     d="M87 10L88 11L87 10z"
     id="path34" />
  <path
     style="fill:#545454; stroke:none;"
     d="M160 10L160 11L163 11L160 10z"
     id="path36" />
  <path
     style="fill:#7b7b7b; stroke:none;"
     d="M84 11L85 12L84 11z"
     id="path38" />
  <path
     style="fill:#8e8e8e; stroke:none;"
     d="M165 11L166 12L165 11z"
     id="path40" />
  <path
     style="fill:#838383; stroke:none;"
     d="M82 12L83 13L82 12z"
     id="path42" />
  <path
     style="fill:#606060; stroke:none;"
     d="M166 12L167 13L166 12z"
     id="path44" />
  <path
     style="fill:#858585; stroke:none;"
     d="M79.6667 13.3333L80.3333 13.6667L79.6667 13.3333z"
     id="path46" />
  <path
     style="fill:#8c8662; stroke:none;"
     d="M112 13L112 14L141 14L112 13z"
     id="path48" />
  <path
     style="fill:#8e8e8e; stroke:none;"
     d="M77 14L78 15L77 14z"
     id="path50" />
  <path
     style="fill:#675100; stroke:none;"
     d="M106 14L106 15L109 15L106 14z"
     id="path52" />
  <path
     style="fill:#dec128; stroke:none;"
     d="M109 14L110 16C79.5688 16 50.4163 36.3323 34.142 61.0147C29.568 67.9517 23.9099 75.6923 22.2485 84C21.0752 89.8668 23.8044 93.53 23.902 99.0147C24.167 113.906 25.0182 128.876 26 144L36 146L38 159C43.1265 158.817 41.617 164.651 41 168L46 166L45 169L48 172L45 173L45 174L46 175L48 175L53 171L52 180L55 174L60 175L59 178L64 179L64 176C67.5469 175.749 73.2184 174.648 74 171L78 173L81 165L85 167L90 164L90 162L86 162L87 159L98 159L100 152L103 154L112 147L115 147L116 150L128 143L132 152L133 152C133 129.144 137.963 100.926 128 81C127.118 79.2351 124.267 72.9857 123 72C119.752 69.474 115.221 68.8842 115 68L114 68L114 80L108 80L108 85L102 72L106 72C102.353 67.9106 97.7856 73.526 102 77L101 80L108 100L102 99C103.139 104.161 100.853 104.854 96 105L92 121L97 126C101.363 126.706 102.984 128.775 104 133L94 136C93.5188 133.129 90.4127 134.398 88 135C86.6347 128.629 73.6961 130.5 69 132L71 136C66.3162 133.648 63.9104 133.262 59 135L56 132L42 139C40.6991 131.231 34.469 120.791 42 114L38 103L38 99L38 98C41.9347 95.3106 41.9839 92.5468 42 88L44 88L45 96L48 96C48 90.1562 49.3356 83.585 42 83C41.5084 78.9218 40.4905 76.8161 44 74L44 80L66 84L66 85L66 86L65 93L68 93L68 90L69 90L71 92L72 88C68.8618 84.1885 66.154 74.9523 71 72L70 75L77 75L76 70L92 68L92 71L98 66L99 66L104 69L104 56C100.151 58.0164 100.121 60.3287 102 64L96 64L96 58C93.3493 59.5196 91.2237 63.786 89 60L76 60L77 54L75 49L80 48L79 51L82 52L83 52L81 46L88 46L88 43L96 44L98 41L96 38L99 41L101 40C104.144 46.9197 111.684 43.0073 117.83 44.4552C131.838 47.7552 145.116 52.2232 156.285 61.8472C177.768 80.3591 190.164 105.247 187.106 134C186.047 143.952 181.202 151.792 182 162C175.836 164.122 164.872 181.073 162 187L170 190L170 186L172 188L173 188L174 188C179.777 180.543 180.427 179.957 180 170L186 170L184 176L184 177C189.881 184.202 193.635 184 203 184C204.726 180.647 206.239 179.877 210 180L212 157L208 156L206 152L206 151C209.905 147.615 209.996 139.892 210 135L214 135L208 130L216 125C214.147 119.902 212.983 116.207 219 114L216 108L218 104L214 104L220 101L219 104L224 104L223 110C226.947 107.154 226 102.486 226 98L230 98L230 96L226 96L227 79C223.349 79 222.669 68.1463 220.833 65C213.932 53.1685 202.808 42.5897 192 34.3333C167.234 15.4149 138.863 14 109 14z"
     id="path54" />
  <path
     style="fill:#6d6d6d; stroke:none;"
     d="M172 14L173 15L172 14z"
     id="path56" />
  <path
     style="fill:#453a28; stroke:none;"
     d="M101 15L101 16L104 16L101 15z"
     id="path58" />
  <path
     style="fill:#d5bf6a; stroke:none;"
     d="M104 15L104 16L110 16L104 15z"
     id="path60" />
  <path
     style="fill:#878258; stroke:none;"
     d="M145 15L145 16L148 16L145 15z"
     id="path62" />
  <path
     style="fill:#666666; stroke:none;"
     d="M174 15L175 16L174 15z"
     id="path64" />
  <path
     style="fill:#6b6a6a; stroke:none;"
     d="M73 16L74 17L73 16z"
     id="path66" />
  <path
     style="fill:#6f5700; stroke:none;"
     d="M97.6667 16.3333L98.3333 16.6667L97.6667 16.3333z"
     id="path68" />
  <path
     style="fill:#787a78; stroke:none;"
     d="M176.667 16.3333L177.333 16.6667L176.667 16.3333z"
     id="path70" />
  <path
     style="fill:#898989; stroke:none;"
     d="M70 17L71 18L70 17z"
     id="path72" />
  <path
     style="fill:#9d834a; stroke:none;"
     d="M95.6667 17.3333L96.3333 17.6667L95.6667 17.3333z"
     id="path74" />
  <path
     style="fill:#4c463a; stroke:none;"
     d="M155.667 17.3333L156.333 17.6667L155.667 17.3333z"
     id="path76" />
  <path
     style="fill:#c7c7c7; stroke:none;"
     d="M179.667 17.3333L180.333 17.6667L179.667 17.3333z"
     id="path78" />
  <path
     style="fill:#7a7a7a; stroke:none;"
     d="M68 18L69 19L68 18z"
     id="path80" />
  <path
     style="fill:#9d8403; stroke:none;"
     d="M92.6667 18.3333L93.3333 18.6667L92.6667 18.3333z"
     id="path82" />
  <path
     style="fill:#766000; stroke:none;"
     d="M158 18L158 19L161 19L158 18z"
     id="path84" />
  <path
     style="fill:#bebdbe; stroke:none;"
     d="M181.667 18.3333L182.333 18.6667L181.667 18.3333z"
     id="path86" />
  <path
     style="fill:#929291; stroke:none;"
     d="M64 20L65 21L64 20z"
     id="path88" />
  <path
     style="fill:#8b8b8b; stroke:none;"
     d="M185 20L186 21L185 20z"
     id="path90" />
  <path
     style="fill:#909090; stroke:none;"
     d="M62 21L63 22L62 21z"
     id="path92" />
  <path
     style="fill:#919191; stroke:none;"
     d="M191 24L192 25L191 24z"
     id="path94" />
  <path
     style="fill:#8b8b8b; stroke:none;"
     d="M56 25L57 26L56 25z"
     id="path96" />
  <path
     style="fill:#626262; stroke:none;"
     d="M55 26L56 27L55 26z"
     id="path98" />
  <path
     style="fill:#8a7e00; stroke:none;"
     d="M71.6667 26.3333L72.3333 26.6667L71.6667 26.3333z"
     id="path100" />
  <path
     style="fill:#534300; stroke:none;"
     d="M178.667 26.3333L179.333 26.6667L178.667 26.3333z"
     id="path102" />
  <path
     style="fill:#a7a7a7; stroke:none;"
     d="M53 27L54 28L53 27z"
     id="path104" />
  <path
     style="fill:#706523; stroke:none;"
     d="M70 27L71 28L70 27z"
     id="path106" />
  <path
     style="fill:#a7a7a7; stroke:none;"
     d="M196 27L197 28L196 27z"
     id="path108" />
  <path
     style="fill:#989898; stroke:none;"
     d="M52 28L53 29L52 28z"
     id="path110" />
  <path
     style="fill:#656565; stroke:none;"
     d="M51 29L52 30L51 29z"
     id="path112" />
  <path
     style="fill:#a4a4a4; stroke:none;"
     d="M201 31L202 32L201 31z"
     id="path114" />
  <path
     style="fill:#919191; stroke:none;"
     d="M47 32L48 33L47 32z"
     id="path116" />
  <path
     style="fill:#908f8f; stroke:none;"
     d="M202 32L203 33L202 32z"
     id="path118" />
  <path
     style="fill:#818181; stroke:none;"
     d="M203 33L204 34L203 33z"
     id="path120" />
  <path
     style="fill:#9d9d9d; stroke:none;"
     d="M45 34L46 35L45 34z"
     id="path122" />
  <path
     style="fill:#767676; stroke:none;"
     d="M204 34L205 35L204 34z"
     id="path124" />
  <path
     style="fill:#a2a2a2; stroke:none;"
     d="M44 35L45 36L44 35z"
     id="path126" />
  <path
     style="fill:#a4a4a4; stroke:none;"
     d="M43 36L44 37L43 36z"
     id="path128" />
  <path
     style="fill:#636363; stroke:none;"
     d="M42 37L43 38L42 37z"
     id="path130" />
  <path
     style="fill:#69614a; stroke:none;"
     d="M55 37L56 38L55 37z"
     id="path132" />
  <path
     style="fill:#7a7a7a; stroke:none;"
     d="M208 37L208 38L211 38L208 37z"
     id="path134" />
  <path
     style="fill:#8e8d8e; stroke:none;"
     d="M41 38L42 39L41 38z"
     id="path136" />
  <path
     style="fill:#866e00; stroke:none;"
     d="M54 38L55 39L54 38z"
     id="path138" />
  <path
     style="fill:#e8cc23; stroke:none;"
     d="M96 38L98 41L96 44L88 43L88 46L81 46L83 52L82 52L79 51L80 48L75 49C75.1042 51.9164 72.8499 53.5117 77 54L76 60L89 60C90.1747 65.5871 93.7502 59.8726 96 58L96 64L102 64C100.687 60.2519 100.793 58.5343 104 56L104 69L99 66L98 66L92 71L92 68L76 70L77 75L70 75L71 72C63.3184 72 70.9261 87.7852 72 88L71 92L69 90L68 90L65 93L66 86L66 85L66 84C59.7432 78.6064 51.8933 80.622 44 80L44 74C39.6199 76.2906 41.0921 78.87 42 83C48.8974 84.126 47.9994 90.2814 48 96L45 96L44 88L42 88L38 98L38 99L38 103L42 114C33.7685 119.049 39.9993 132.3 42 139C46.5222 137.978 54.3698 136.637 56 132L59 135L71 136L69 132C74.7687 130.682 84.229 129.181 88 135C91.2914 134.451 94.8595 132.562 94 136L104 133C103.37 128.341 101.747 126.375 97 126C96.4235 122.526 95.4744 121.577 92 121L96 105C100.91 104.941 103.75 104.42 102 99L104 101L108 100L101 80L102 77C98.9406 73.1599 101.584 69.0485 106 72L102 72L108 85L108 80L114 80L114 68L115 68L116 70L122 72C118.825 64.7794 113.411 56.4618 105 56L102 46L105 45L101 40L99 41L96 38z"
     id="path140" />
  <path
     style="fill:#8b8b8b; stroke:none;"
     d="M211 38L212 39L211 38z"
     id="path142" />
  <path
     style="fill:#878788; stroke:none;"
     d="M40 39L41 40L40 39z"
     id="path144" />
  <path
     style="fill:#7c7c7d; stroke:none;"
     d="M39 40L40 41L39 40z"
     id="path146" />
  <path
     style="fill:#5d5d5d; stroke:none;"
     d="M213.333 40.6667L213.667 41.3333L213.333 40.6667z"
     id="path148" />
  <path
     style="fill:#909090; stroke:none;"
     d="M37 42L38 43L37 42z"
     id="path150" />
  <path
     style="fill:#575757; stroke:none;"
     d="M36 44L37 45L36 44z"
     id="path152" />
  <path
     style="fill:#000100; stroke:none;"
     d="M103 200C111.4 209.519 128.375 202.926 139 202L144 197C144.503 193.152 151.955 192.335 155 189.889C163.872 182.762 169.723 178.261 175.667 168.056C177.364 165.14 183.674 159.164 180 157C194.209 120.366 184.656 79.8852 150.41 57.6011C139.999 50.8269 130.281 47.1499 118 45.081C114.166 44.4352 107.81 42.5723 104.604 45.7423C102.188 48.132 103.354 52.1337 105.573 54.186C114.742 62.6662 123.484 70.7152 127.972 83C138.373 111.467 139.217 151.714 122.936 178.17C117.047 187.74 114.441 195.694 103 200z"
     id="path154" />
  <path
     style="fill:#ada769; stroke:none;"
     d="M114 44L114 45L120 45L114 44z"
     id="path156" />
  <path
     style="fill:#6b6b6b; stroke:none;"
     d="M34 46L35 47L34 46z"
     id="path158" />
  <path
     style="fill:#5f4a1d; stroke:none;"
     d="M102 46L102 49L103 49L102 46z"
     id="path160" />
  <path
     style="fill:#786138; stroke:none;"
     d="M125 46L125 47L129 47L125 46z"
     id="path162" />
  <path
     style="fill:#7a7a7a; stroke:none;"
     d="M217 46L218 47L217 46z"
     id="path164" />
  <path
     style="fill:#959596; stroke:none;"
     d="M33 47L34 48L33 47z"
     id="path166" />
  <path
     style="fill:#6c604a; stroke:none;"
     d="M206 47L207 48L206 47z"
     id="path168" />
  <path
     style="fill:#6b6b6b; stroke:none;"
     d="M32 48L33 49L32 48z"
     id="path170" />
  <path
     style="fill:#404443; stroke:none;"
     d="M132 48L132 49L135 49L132 48z"
     id="path172" />
  <path
     style="fill:#8a8a8a; stroke:none;"
     d="M31 49L32 50L31 49z"
     id="path174" />
  <path
     style="fill:#8f8f8f; stroke:none;"
     d="M30 50L31 51L30 50z"
     id="path176" />
  <path
     style="fill:#a1a1a1; stroke:none;"
     d="M29 51L30 52L29 51z"
     id="path178" />
  <path
     style="fill:#5a5a5a; stroke:none;"
     d="M221 51L222 52L221 51z"
     id="path180" />
  <path
     style="fill:#89816a; stroke:none;"
     d="M142.667 52.3333L143.333 52.6667L142.667 52.3333z"
     id="path182" />
  <path
     style="fill:#707070; stroke:none;"
     d="M222 52L223 53L222 52z"
     id="path184" />
  <path
     style="fill:#999999; stroke:none;"
     d="M223 53L224 54L223 53z"
     id="path186" />
  <path
     style="fill:#828282; stroke:none;"
     d="M27 54L28 55L27 54z"
     id="path188" />
  <path
     style="fill:#877c13; stroke:none;"
     d="M38.3333 54.6667L38.6667 55.3333L38.3333 54.6667z"
     id="path190" />
  <path
     style="fill:#696051; stroke:none;"
     d="M105 55L105 56L108 56L105 55z"
     id="path192" />
  <path
     style="fill:#888888; stroke:none;"
     d="M25 57L26 58L25 57z"
     id="path194" />
  <path
     style="fill:#a0a0a0; stroke:none;"
     d="M226 57L227 58L226 57z"
     id="path196" />
  <path
     style="fill:#969696; stroke:none;"
     d="M24 58L25 59L24 58z"
     id="path198" />
  <path
     style="fill:#433c36; stroke:none;"
     d="M150.667 58.3333L151.333 58.6667L150.667 58.3333z"
     id="path200" />
  <path
     style="fill:#828282; stroke:none;"
     d="M227 59L228 60L227 59z"
     id="path202" />
  <path
     style="fill:#aaaaaa; stroke:none;"
     d="M23 60L24 61L23 60z"
     id="path204" />
  <path
     style="fill:#625602; stroke:none;"
     d="M131 61L134 63L131 61z"
     id="path206" />
  <path
     style="fill:#7c7c7c; stroke:none;"
     d="M22 62L23 63L22 62z"
     id="path208" />
  <path
     style="fill:#a4a4a4; stroke:none;"
     d="M21 63L22 64L21 63z"
     id="path210" />
  <path
     style="fill:#dabf28; stroke:none;"
     d="M133 63C139.036 85.9551 153.032 105.666 147 131L145 150L148 151L146 158L144 157C143.954 170.353 134.753 180.141 130 192C175.509 178.885 185.97 114.25 158.231 81.1698C151.664 73.3382 143.265 65.3543 133 63z"
     id="path212" />
  <path
     style="fill:#353535; stroke:none;"
     d="M230.333 64.6667L230.667 65.3333L230.333 64.6667z"
     id="path214" />
  <path
     style="fill:#6a6a6a; stroke:none;"
     d="M231 66L232 67L231 66z"
     id="path216" />
  <path
     style="fill:#747474; stroke:none;"
     d="M19 67L20 68L19 67z"
     id="path218" />
  <path
     style="fill:#615200; stroke:none;"
     d="M136 69L136 72L137 72L136 69z"
     id="path220" />
  <path
     style="fill:#baa12a; stroke:none;"
     d="M222 69L227 79L226 96L230 96L230 98L226 98L223 110L224 104L219 104L220 101L214 104L218 104L216 108L219 114C212.702 115.373 213.543 120.154 216 125C212.036 125.301 209.909 126.474 208 130L214 135L210 135L206 151L206 152L208 156L212 157C207.165 165.481 209.999 170.67 210 180C206.005 179.341 204.202 180.048 203 184C193.179 184 191.001 182.725 184 177L184 176L186 170L180 170C180.205 179.954 178.107 180.115 174 188L173 188L172 188L170 186L170 190L164 186L143 195L139 202C131.422 202.487 105.596 211.278 104 198L100 198L100 196L106 194C101.92 192.189 98.9413 190.357 98 196L89 193L89 192L91 190L81 194L81 190L80 190C78.7881 193.906 76.9069 194.202 73 194C66.9835 203.808 53.4288 191.79 48 198L47 198L44 196L46 198C42.7214 206.379 51.9506 212.268 58 216.87C73.8764 228.946 94.7115 238.48 115 238.985C137.481 239.545 158.544 237.174 179 226.961C216.314 208.333 238 166.701 238 126C238 108.557 235.954 81.5098 222 69z"
     id="path222" />
  <path
     style="fill:#919191; stroke:none;"
     d="M234 71L235 72L234 71z"
     id="path224" />
  <path
     style="fill:#897721; stroke:none;"
     d="M225.333 72.6667L225.667 73.3333L225.333 72.6667z"
     id="path226" />
  <path
     style="fill:#8e8d8e; stroke:none;"
     d="M16 73L17 74L16 73z"
     id="path228" />
  <path
     style="fill:#878788; stroke:none;"
     d="M235 73L236 74L235 73z"
     id="path230" />
  <path
     style="fill:#796d00; stroke:none;"
     d="M125 75L125 79L126 79L125 75z"
     id="path232" />
  <path
     style="fill:#958561; stroke:none;"
     d="M139 76L139 79L140 79L139 76z"
     id="path234" />
  <path
     style="fill:#8d8d8d; stroke:none;"
     d="M14 77L15 78L14 77z"
     id="path236" />
  <path
     style="fill:#7c7c7c; stroke:none;"
     d="M237 77L238 78L237 77z"
     id="path238" />
  <path
     style="fill:#7b7b7b; stroke:none;"
     d="M13.3333 79.6667L13.6667 80.3333L13.3333 79.6667z"
     id="path240" />
  <path
     style="fill:#5f4d25; stroke:none;"
     d="M23.3333 79.6667L23.6667 80.3333L23.3333 79.6667z"
     id="path242" />
  <path
     style="fill:#564000; stroke:none;"
     d="M157.333 79.6667L157.667 80.3333L157.333 79.6667z"
     id="path244" />
  <path
     style="fill:#6b6b6b; stroke:none;"
     d="M238 79L239 80L238 79z"
     id="path246" />
  <path
     style="fill:#5d5d5d; stroke:none;"
     d="M239.333 81.6667L239.667 82.3333L239.333 81.6667z"
     id="path248" />
  <path
     style="fill:#626262; stroke:none;"
     d="M12.3333 82.6667L12.6667 83.3333L12.3333 82.6667z"
     id="path250" />
  <path
     style="fill:#584d1f; stroke:none;"
     d="M175.333 82.6667L175.667 83.3333L175.333 82.6667z"
     id="path252" />
  <path
     style="fill:#5c5636; stroke:none;"
     d="M128 83L128 86L129 86L128 83z"
     id="path254" />
  <path
     style="fill:#caae29; stroke:none;"
     d="M21 84C19.382 93.1109 15.4992 101.686 14.2894 111C10.451 140.552 18.4784 184.203 44 203L44 196L47 198L48 198C54.2814 193.446 69.018 203.906 73 194C77.1642 194.646 79.2527 194.465 80 190L81 190L81 194L91 190L89 192L89 193L98 196C99.511 191.145 102.017 192.921 106 194L105 197L100 196L100 198L106 199C120.295 187.216 138.442 162.125 128 143C122.544 143.299 119.111 145.566 116 150L115 147L112 147L112 150C107.774 150.015 104.722 149.716 103 154L100 152L98 159C94.4238 158.325 88.1859 158.994 86 162L90 162L90 164L85 167L81 165L78 173L74 171L64 176L64 179L59 178L60 175L55 174L52 180L53 171L46 175L45 174L45 173L48 172L45 169L46 166L41 168C41.8752 164.281 42.7746 159.593 38 159L36 146L26 144L22.4684 108.91L21 84z"
     id="path256" />
  <path
     style="fill:#656565; stroke:none;"
     d="M240 84L241 85L240 84z"
     id="path258" />
  <path
     style="fill:#737373; stroke:none;"
     d="M11 85L12 86L11 85z"
     id="path260" />
  <path
     style="fill:#c8c8c8; stroke:none;"
     d="M241 85L241 88L242 88L241 85z"
     id="path262" />
  <path
     style="fill:#634b00; stroke:none;"
     d="M20.3333 86.6667L20.6667 87.3333L20.3333 86.6667z"
     id="path264" />
  <path
     style="fill:#707070; stroke:none;"
     d="M10.3333 87.6667L10.6667 88.3333L10.3333 87.6667z"
     id="path266" />
  <path
     style="fill:#6b5800; stroke:none;"
     d="M178.333 87.6667L178.667 88.3333L178.333 87.6667z"
     id="path268" />
  <path
     style="fill:#404040; stroke:none;"
     d="M9.33333 90.6667L9.66667 91.3333L9.33333 90.6667z"
     id="path270" />
  <path
     style="fill:#645900; stroke:none;"
     d="M233.333 90.6667L233.667 91.3333L233.333 90.6667z"
     id="path272" />
  <path
     style="fill:#5f5f5f; stroke:none;"
     d="M242.333 90.6667L242.667 91.3333L242.333 90.6667z"
     id="path274" />
  <path
     style="fill:#d9d9d9; stroke:none;"
     d="M8 92L8 96L9 96L8 92z"
     id="path276" />
  <path
     style="fill:#856f02; stroke:none;"
     d="M144 92L144 95L145 95L144 92z"
     id="path278" />
  <path
     style="fill:#736200; stroke:none;"
     d="M131 94L131 97L132 97L131 94z"
     id="path280" />
  <path
     style="fill:#82705a; stroke:none;"
     d="M17.3333 96.6667L17.6667 97.3333L17.3333 96.6667z"
     id="path282" />
  <path
     style="fill:#555148; stroke:none;"
     d="M145 96L145 101L146 101L145 96z"
     id="path284" />
  <path
     style="fill:#d9d9d9; stroke:none;"
     d="M244 96L244 100L245 100L244 96z"
     id="path286" />
  <path
     style="fill:#544933; stroke:none;"
     d="M132 97L132 100L133 100L132 97z"
     id="path288" />
  <path
     style="fill:#5b4c00; stroke:none;"
     d="M235 97L235 100L236 100L235 97z"
     id="path290" />
  <path
     style="fill:#949494; stroke:none;"
     d="M6.33333 100.667L6.66667 101.333L6.33333 100.667z"
     id="path292" />
  <path
     style="fill:#654e00; stroke:none;"
     d="M184.333 100.667L184.667 101.333L184.333 100.667z"
     id="path294" />
  <path
     style="fill:#424242; stroke:none;"
     d="M244.333 100.667L244.667 101.333L244.333 100.667z"
     id="path296" />
  <path
     style="fill:#3b372e; stroke:none;"
     d="M15 101L15 105L16 105L15 101z"
     id="path298" />
  <path
     style="fill:#947c00; stroke:none;"
     d="M133 101L133 106L134 106L133 101z"
     id="path300" />
  <path
     style="fill:#635100; stroke:none;"
     d="M146 101L146 104L147 104L146 101z"
     id="path302" />
  <path
     style="fill:#6b6847; stroke:none;"
     d="M170.333 101.667L170.667 102.333L170.333 101.667z"
     id="path304" />
  <path
     style="fill:#998755; stroke:none;"
     d="M185.333 102.667L185.667 103.333L185.333 102.667z"
     id="path306" />
  <path
     style="fill:#d2d2d1; stroke:none;"
     d="M5 103L5 109L6 109L5 103z"
     id="path308" />
  <path
     style="fill:#5b533e; stroke:none;"
     d="M236 103L236 106L237 106L236 103z"
     id="path310" />
  <path
     style="fill:#a2a2a2; stroke:none;"
     d="M245.333 103.667L245.667 104.333L245.333 103.667z"
     id="path312" />
  <path
     style="fill:#61634b; stroke:none;"
     d="M185 104L185 109L186 109L185 104z"
     id="path314" />
  <path
     style="fill:#837100; stroke:none;"
     d="M171.333 105.667L171.667 106.333L171.333 105.667z"
     id="path316" />
  <path
     style="fill:#696969; stroke:none;"
     d="M245 105L245 108L246 108L245 105z"
     id="path318" />
  <path
     style="fill:#584500; stroke:none;"
     d="M14 107L14 110L15 110L14 107z"
     id="path320" />
  <path
     style="fill:#675a49; stroke:none;"
     d="M172 108L172 116L173 116L172 108z"
     id="path322" />
  <path
     style="fill:#8b7811; stroke:none;"
     d="M237 108L237 112L238 112L237 108z"
     id="path324" />
  <path
     style="fill:#939393; stroke:none;"
     d="M246 108L246 113L247 113L246 108z"
     id="path326" />
  <path
     style="fill:#838383; stroke:none;"
     d="M5 109L5 115L6 115L5 109z"
     id="path328" />
  <path
     style="fill:#848357; stroke:none;"
     d="M13 112L13 131L14 131L13 112z"
     id="path330" />
  <path
     style="fill:#74724c; stroke:none;"
     d="M147 112L147 115L148 115L147 112z"
     id="path332" />
  <path
     style="fill:#726111; stroke:none;"
     d="M186 112L186 117L187 117L186 112z"
     id="path334" />
  <path
     style="fill:#6b654b; stroke:none;"
     d="M238 113L238 139L239 139L238 113z"
     id="path336" />
  <path
     style="fill:#323232; stroke:none;"
     d="M246 113L246 121L247 121L246 113z"
     id="path338" />
  <path
     style="fill:#595757; stroke:none;"
     d="M5 115L5 122L6 122L5 115z"
     id="path340" />
  <path
     style="fill:#9a7e00; stroke:none;"
     d="M148.333 116.667L148.667 117.333L148.333 116.667z"
     id="path342" />
  <path
     style="fill:#857504; stroke:none;"
     d="M173 116L173 120L174 120L173 116z"
     id="path344" />
  <path
     style="fill:#6e6642; stroke:none;"
     d="M134 119L134 122L135 122L134 119z"
     id="path346" />
  <path
     style="fill:#6e6000; stroke:none;"
     d="M186 119L186 133L187 133L186 119z"
     id="path348" />
  <path
     style="fill:#6f6f4b; stroke:none;"
     d="M147 121L147 130L148 130L147 121z"
     id="path350" />
  <path
     style="fill:#b2a56e; stroke:none;"
     d="M134 122L134 131L135 131L134 122z"
     id="path352" />
  <path
     style="fill:#343628; stroke:none;"
     d="M174 122L174 131L175 131L174 122z"
     id="path354" />
  <path
     style="fill:#4e4e4e; stroke:none;"
     d="M246 129L246 140L247 140L246 129z"
     id="path356" />
  <path
     style="fill:#5b5642; stroke:none;"
     d="M13 131L13 139L14 139L13 131z"
     id="path358" />
  <path
     style="fill:#574500; stroke:none;"
     d="M147 131L148 134L149 134L149 131L147 131z"
     id="path360" />
  <path
     style="fill:#4a4a4a; stroke:none;"
     d="M5 132L5 140L6 140L5 132z"
     id="path362" />
  <path
     style="fill:#402d00; stroke:none;"
     d="M173 132L173 138L174 138L173 132z"
     id="path364" />
  <path
     style="fill:#482e00; stroke:none;"
     d="M146 137L146 143L147 143L146 137z"
     id="path366" />
  <path
     style="fill:#5e5945; stroke:none;"
     d="M172 139L172 142L173 142L172 139z"
     id="path368" />
  <path
     style="fill:#bebebf; stroke:none;"
     d="M5 140L5 144L6 144L5 140z"
     id="path370" />
  <path
     style="fill:#aaaaaa; stroke:none;"
     d="M246 140L246 144L247 144L246 140z"
     id="path372" />
  <path
     style="fill:#725b00; stroke:none;"
     d="M14 141L14 144L15 144L14 141z"
     id="path374" />
  <path
     style="fill:#8f7600; stroke:none;"
     d="M133 141L133 150L134 150L133 141z"
     id="path376" />
  <path
     style="fill:#715900; stroke:none;"
     d="M184 141L184 146L185 146L184 141z"
     id="path378" />
  <path
     style="fill:#d2d2d2; stroke:none;"
     d="M246 144L246 148L247 148L246 144z"
     id="path380" />
  <path
     style="fill:#69696a; stroke:none;"
     d="M6.33333 145.667L6.66667 146.333L6.33333 145.667z"
     id="path382" />
  <path
     style="fill:#322e25; stroke:none;"
     d="M15 146L15 152L16 152L15 146z"
     id="path384" />
  <path
     style="fill:#a5a5a6; stroke:none;"
     d="M6 147L6 150L7 150L6 147z"
     id="path386" />
  <path
     style="fill:#4f5200; stroke:none;"
     d="M144 147L144 150L145 150L144 147z"
     id="path388" />
  <path
     style="fill:#cfd27b; stroke:none;"
     d="M145.333 147.667L145.667 148.333L145.333 147.667z"
     id="path390" />
  <path
     style="fill:#737351; stroke:none;"
     d="M170 147L170 150L171 150L170 147z"
     id="path392" />
  <path
     style="fill:#57523f; stroke:none;"
     d="M236 147L236 150L237 150L236 147z"
     id="path394" />
  <path
     style="fill:#6a6a6a; stroke:none;"
     d="M245 149L245 152L246 152L245 149z"
     id="path396" />
  <path
     style="fill:#806635; stroke:none;"
     d="M147.333 150.667L147.667 151.333L147.333 150.667z"
     id="path398" />
  <path
     style="fill:#574b00; stroke:none;"
     d="M182.333 150.667L182.667 151.333L182.333 150.667z"
     id="path400" />
  <path
     style="fill:#776d49; stroke:none;"
     d="M132 152L132 155L133 155L132 152z"
     id="path402" />
  <path
     style="fill:#524100; stroke:none;"
     d="M16.3333 153.667L16.6667 154.333L16.3333 153.667z"
     id="path404" />
  <path
     style="fill:#c6b678; stroke:none;"
     d="M145 153L145 158L146 158L145 153z"
     id="path406" />
  <path
     style="fill:#656411; stroke:none;"
     d="M180.333 155.667L180.667 156.333L180.333 155.667z"
     id="path408" />
  <path
     style="fill:#3c3d2d; stroke:none;"
     d="M234.333 155.667L234.667 156.333L234.333 155.667z"
     id="path410" />
  <path
     style="fill:#d8d8d8; stroke:none;"
     d="M243 156L243 161L244 161L243 156z"
     id="path412" />
  <path
     style="fill:#614200; stroke:none;"
     d="M131 157L131 160L132 160L131 157z"
     id="path414" />
  <path
     style="fill:#c3c3c3; stroke:none;"
     d="M8.33333 158.667L8.66667 159.333L8.33333 158.667z"
     id="path416" />
  <path
     style="fill:#826600; stroke:none;"
     d="M233 158L233 161L234 161L233 158z"
     id="path418" />
  <path
     style="fill:#6c5303; stroke:none;"
     d="M18.3333 160.667L18.6667 161.333L18.3333 160.667z"
     id="path420" />
  <path
     style="fill:#978148; stroke:none;"
     d="M181 160L179 161L179 162L181 160z"
     id="path422" />
  <path
     style="fill:#979797; stroke:none;"
     d="M9.33333 161.667L9.66667 162.333L9.33333 161.667z"
     id="path424" />
  <path
     style="fill:#322713; stroke:none;"
     d="M143 161L143 166L144 166L143 161z"
     id="path426" />
  <path
     style="fill:#857d12; stroke:none;"
     d="M178 162L178 165L179 165L178 162z"
     id="path428" />
  <path
     style="fill:#949494; stroke:none;"
     d="M242 162L243 163L242 162z"
     id="path430" />
  <path
     style="fill:#9d9d9d; stroke:none;"
     d="M10 165L10 168L11 168L10 165z"
     id="path432" />
  <path
     style="fill:#5b4f03; stroke:none;"
     d="M20 165L20 168L21 168L20 165z"
     id="path434" />
  <path
     style="fill:#4d4e40; stroke:none;"
     d="M128 165L128 168L129 168L128 165z"
     id="path436" />
  <path
     style="fill:#736a43; stroke:none;"
     d="M230.333 166.667L230.667 167.333L230.333 166.667z"
     id="path438" />
  <path
     style="fill:#423928; stroke:none;"
     d="M175.333 167.667L175.667 168.333L175.333 167.667z"
     id="path440" />
  <path
     style="fill:#787878; stroke:none;"
     d="M240 167L241 168L240 167z"
     id="path442" />
  <path
     style="fill:#695700; stroke:none;"
     d="M127.333 168.667L127.667 169.333L127.333 168.667z"
     id="path444" />
  <path
     style="fill:#5f523f; stroke:none;"
     d="M141.333 168.667L141.667 169.333L141.333 168.667z"
     id="path446" />
  <path
     style="fill:#b5b4b4; stroke:none;"
     d="M239.333 169.667L239.667 170.333L239.333 169.667z"
     id="path448" />
  <path
     style="fill:#a7a7a7; stroke:none;"
     d="M12.3333 170.667L12.6667 171.333L12.3333 170.667z"
     id="path450" />
  <path
     style="fill:#564102; stroke:none;"
     d="M140 170L140 173L141 173L140 170z"
     id="path452" />
  <path
     style="fill:#484534; stroke:none;"
     d="M126.333 171.667L126.667 172.333L126.333 171.667z"
     id="path454" />
  <path
     style="fill:#5e4f3c; stroke:none;"
     d="M173 171L173 174L174 174L173 171z"
     id="path456" />
  <path
     style="fill:#7a787a; stroke:none;"
     d="M238 171L238 174L239 174L238 171z"
     id="path458" />
  <path
     style="fill:#7f7f7f; stroke:none;"
     d="M13 173L14 174L13 173z"
     id="path460" />
  <path
     style="fill:#584700; stroke:none;"
     d="M125.333 174.667L125.667 175.333L125.333 174.667z"
     id="path462" />
  <path
     style="fill:#878787; stroke:none;"
     d="M14 175L15 176L14 175z"
     id="path464" />
  <path
     style="fill:#959595; stroke:none;"
     d="M237 175L238 176L237 175z"
     id="path466" />
  <path
     style="fill:#5d5d5d; stroke:none;"
     d="M15 176L16 177L15 176z"
     id="path468" />
  <path
     style="fill:#928326; stroke:none;"
     d="M136 178L135 182L136 182L138 178L136 178z"
     id="path470" />
  <path
     style="fill:#5b4f27; stroke:none;"
     d="M120.333 182.667L120.667 183.333L120.333 182.667z"
     id="path472" />
  <path
     style="fill:#c6c6c7; stroke:none;"
     d="M18.3333 183.667L18.6667 184.333L18.3333 183.667z"
     id="path474" />
  <path
     style="fill:#beab4f; stroke:none;"
     d="M132 183C130.372 185.946 126.026 191.912 131 193L130 190L134 183L132 183z"
     id="path476" />
  <path
     style="fill:#676666; stroke:none;"
     d="M233 183L234 184L233 183z"
     id="path478" />
  <path
     style="fill:#4b3b22; stroke:none;"
     d="M157 188L160 189L162 186L157 188z"
     id="path480" />
  <path
     style="fill:#737373; stroke:none;"
     d="M232 185L233 186L232 185z"
     id="path482" />
  <path
     style="fill:#848484; stroke:none;"
     d="M20 186L21 187L20 186z"
     id="path484" />
  <path
     style="fill:#7a724b; stroke:none;"
     d="M118 186L118 189L119 189L118 186z"
     id="path486" />
  <path
     style="fill:#5f5f5f; stroke:none;"
     d="M21 188L22 189L21 188z"
     id="path488" />
  <path
     style="fill:#70662b; stroke:none;"
     d="M153 192L158 188L153 192z"
     id="path490" />
  <path
     style="fill:#737373; stroke:none;"
     d="M230 188L231 189L230 188z"
     id="path492" />
  <path
     style="fill:#777777; stroke:none;"
     d="M22 189L23 190L22 189z"
     id="path494" />
  <path
     style="fill:#7f7f7f; stroke:none;"
     d="M229 190L230 191L229 190z"
     id="path496" />
  <path
     style="fill:#735f08; stroke:none;"
     d="M149 194L152 193L149 194z"
     id="path498" />
  <path
     style="fill:#615100; stroke:none;"
     d="M128 193L128 194L131 194L128 193z"
     id="path500" />
  <path
     style="fill:#504400; stroke:none;"
     d="M144.667 194.333L145.333 194.667L144.667 194.333z"
     id="path502" />
  <path
     style="fill:#8b8b8b; stroke:none;"
     d="M226 195L227 196L226 195z"
     id="path504" />
  <path
     style="fill:#857900; stroke:none;"
     d="M106 199L109 198L106 199z"
     id="path506" />
  <path
     style="fill:#828282; stroke:none;"
     d="M224 198L225 199L224 198z"
     id="path508" />
  <path
     style="fill:#4e4300; stroke:none;"
     d="M104.667 199.333L105.333 199.667L104.667 199.333z"
     id="path510" />
  <path
     style="fill:#7f7f7f; stroke:none;"
     d="M223 199L224 200L223 199z"
     id="path512" />
  <path
     style="fill:#7e7e7e; stroke:none;"
     d="M29 200L30 201L29 200z"
     id="path514" />
  <path
     style="fill:#5c5c5c; stroke:none;"
     d="M30 201L31 202L30 201z"
     id="path516" />
  <path
     style="fill:#a3a2a2; stroke:none;"
     d="M222 201L223 202L222 201z"
     id="path518" />
  <path
     style="fill:#575757; stroke:none;"
     d="M31 202L32 203L31 202z"
     id="path520" />
  <path
     style="fill:#676032; stroke:none;"
     d="M131.667 203.333L132.333 203.667L131.667 203.333z"
     id="path522" />
  <path
     style="fill:#786a00; stroke:none;"
     d="M109.667 204.333L110.333 204.667L109.667 204.333z"
     id="path524" />
  <path
     style="fill:#7a6c01; stroke:none;"
     d="M112 204L112 205L115 205L112 204z"
     id="path526" />
  <path
     style="fill:#3b2700; stroke:none;"
     d="M124 204L124 205L130 205L124 204z"
     id="path528" />
  <path
     style="fill:#7d7d7d; stroke:none;"
     d="M219 204L220 205L219 204z"
     id="path530" />
  <path
     style="fill:#a6a6a5; stroke:none;"
     d="M218 205L219 206L218 205z"
     id="path532" />
  <path
     style="fill:#777777; stroke:none;"
     d="M34 206L35 207L34 206z"
     id="path534" />
  <path
     style="fill:#6a6a6a; stroke:none;"
     d="M217 206L218 207L217 206z"
     id="path536" />
  <path
     style="fill:#424242; stroke:none;"
     d="M35.3333 207.667L35.6667 208.333L35.3333 207.667z"
     id="path538" />
  <path
     style="fill:#606060; stroke:none;"
     d="M216 207L217 208L216 207z"
     id="path540" />
  <path
     style="fill:#9c9c9c; stroke:none;"
     d="M38.3333 211.667L38.6667 212.333L38.3333 211.667z"
     id="path542" />
  <path
     style="fill:#8a8a8a; stroke:none;"
     d="M212 212L213 213L212 212z"
     id="path544" />
  <path
     style="fill:#656565; stroke:none;"
     d="M39 213L40 214L39 213z"
     id="path546" />
  <path
     style="fill:#979797; stroke:none;"
     d="M211 213L212 214L211 213z"
     id="path548" />
  <path
     style="fill:#8c8c8c; stroke:none;"
     d="M40 214L41 215L40 214z"
     id="path550" />
  <path
     style="fill:#939393; stroke:none;"
     d="M210 214L211 215L210 214z"
     id="path552" />
  <path
     style="fill:#a6a6a6; stroke:none;"
     d="M41 215L41 216L44 216L41 215z"
     id="path554" />
  <path
     style="fill:#9c9c9c; stroke:none;"
     d="M209 215L210 216L209 215z"
     id="path556" />
  <path
     style="fill:#a4a4a4; stroke:none;"
     d="M208 216L209 217L208 216z"
     id="path558" />
  <path
     style="fill:#626262; stroke:none;"
     d="M46 217L47 218L46 217z"
     id="path560" />
  <path
     style="fill:#a9aaaa; stroke:none;"
     d="M207 217L208 218L207 217z"
     id="path562" />
  <path
     style="fill:#868686; stroke:none;"
     d="M47 218L48 219L47 218z"
     id="path564" />
  <path
     style="fill:#818181; stroke:none;"
     d="M48 219L49 220L48 219z"
     id="path566" />
  <path
     style="fill:#6e6e6e; stroke:none;"
     d="M53 223L54 224L53 223z"
     id="path568" />
  <path
     style="fill:#4a3500; stroke:none;"
     d="M184.667 223.333L185.333 223.667L184.667 223.333z"
     id="path570" />
  <path
     style="fill:#a2a2a2; stroke:none;"
     d="M54 224L55 225L54 224z"
     id="path572" />
  <path
     style="fill:#9c9c9c; stroke:none;"
     d="M57 226L58 227L57 226z"
     id="path574" />
  <path
     style="fill:#727272; stroke:none;"
     d="M196 226L197 227L196 226z"
     id="path576" />
  <path
     style="fill:#8b8b8b; stroke:none;"
     d="M195 227L196 228L195 227z"
     id="path578" />
  <path
     style="fill:#666666; stroke:none;"
     d="M193 228L194 229L193 228z"
     id="path580" />
  <path
     style="fill:#989898; stroke:none;"
     d="M62 229L63 230L62 229z"
     id="path582" />
  <path
     style="fill:#666666; stroke:none;"
     d="M190 230L191 231L190 230z"
     id="path584" />
  <path
     style="fill:#8b8b8b; stroke:none;"
     d="M65 231L66 232L65 231z"
     id="path586" />
  <path
     style="fill:#555555; stroke:none;"
     d="M188 231L189 232L188 231z"
     id="path588" />
  <path
     style="fill:#8b8b8b; stroke:none;"
     d="M66 232L67 233L66 232z"
     id="path590" />
  <path
     style="fill:#929292; stroke:none;"
     d="M187 232L188 233L187 232z"
     id="path592" />
  <path
     style="fill:#5f5f5f; stroke:none;"
     d="M68 233L69 234L68 233z"
     id="path594" />
  <path
     style="fill:#696969; stroke:none;"
     d="M185 233L186 234L185 233z"
     id="path596" />
  <path
     style="fill:#868685; stroke:none;"
     d="M70 234L71 235L70 234z"
     id="path598" />
  <path
     style="fill:#878787; stroke:none;"
     d="M183 234L184 235L183 234z"
     id="path600" />
  <path
     style="fill:#737373; stroke:none;"
     d="M72 235L73 236L72 235z"
     id="path602" />
  <path
     style="fill:#6d6d6d; stroke:none;"
     d="M74.6667 236.333L75.3333 236.667L74.6667 236.333z"
     id="path604" />
  <path
     style="fill:#4b473e; stroke:none;"
     d="M98 236L98 237L101 237L98 236z"
     id="path606" />
  <path
     style="fill:#3c382d; stroke:none;"
     d="M150 236L150 237L154 237L150 236z"
     id="path608" />
  <path
     style="fill:#666666; stroke:none;"
     d="M77 237L78 238L77 237z"
     id="path610" />
  <path
     style="fill:#807211; stroke:none;"
     d="M102 237L102 238L106 238L102 237z"
     id="path612" />
  <path
     style="fill:#564809; stroke:none;"
     d="M147 237L147 238L150 238L147 237z"
     id="path614" />
  <path
     style="fill:#545454; stroke:none;"
     d="M79.6667 238.333L80.3333 238.667L79.6667 238.333z"
     id="path616" />
  <path
     style="fill:#959595; stroke:none;"
     d="M173.667 238.333L174.333 238.667L173.667 238.333z"
     id="path618" />
  <path
     style="fill:#636363; stroke:none;"
     d="M82 239L83 240L82 239z"
     id="path620" />
  <path
     style="fill:#85730f; stroke:none;"
     d="M112 239L112 240L132 240L112 239z"
     id="path622" />
  <path
     style="fill:#2a2000; stroke:none;"
     d="M132 239L132 240L140 240L132 239z"
     id="path624" />
  <path
     style="fill:#626262; stroke:none;"
     d="M85 240L86 241L85 240z"
     id="path626" />
  <path
     style="fill:#989898; stroke:none;"
     d="M86.6667 241.333L87.3333 241.667L86.6667 241.333z"
     id="path628" />
  <path
     style="fill:#bababa; stroke:none;"
     d="M166.667 241.333L167.333 241.667L166.667 241.333z"
     id="path630" />
  <path
     style="fill:#545454; stroke:none;"
     d="M89 242L89 243L92 243L89 242z"
     id="path632" />
  <path
     style="fill:#828282; stroke:none;"
     d="M164 242L165 243L164 242z"
     id="path634" />
  <path
     style="fill:#767676; stroke:none;"
     d="M93 243L94 244L93 243z"
     id="path636" />
  <path
     style="fill:#a1a1a1; stroke:none;"
     d="M155.667 244.333L156.333 244.667L155.667 244.333z"
     id="path638" />
  <path
     style="fill:#bcbcbc; stroke:none;"
     d="M96.6667 245.333L97.3333 245.667L96.6667 245.333z"
     id="path640" />
  <path
     style="fill:#c9c9c9; stroke:none;"
     d="M152.667 245.333L153.333 245.667L152.667 245.333z"
     id="path642" />
  <path
     style="fill:#747474; stroke:none;"
     d="M100 246L100 247L104 247L100 246z"
     id="path644" />
  <path
     style="fill:#757575; stroke:none;"
     d="M107 246L107 247L111 247L107 246z"
     id="path646" />
  <path
     style="fill:#5d5d5d; stroke:none;"
     d="M144 246L144 247L151 247L144 246z"
     id="path648" />
  <path
     style="fill:#b9b9b9; stroke:none;"
     d="M104 247L104 248L107 248L104 247z"
     id="path650" />
  <path
     style="fill:#8a8a8a; stroke:none;"
     d="M113 247L113 248L117 248L113 247z"
     id="path652" />
  <path
     style="fill:#3d3d3d; stroke:none;"
     d="M119.667 247.333L120.333 247.667L119.667 247.333z"
     id="path654" />
  <path
     style="fill:#626262; stroke:none;"
     d="M122 247L122 248L130 248L122 247M131 247L131 248L139 248L131 247z"
     id="path656" />
  <path
     style="fill:#b4b4b4; stroke:none;"
     d="M139.667 247.333L140.333 247.667L139.667 247.333z"
     id="path658" />
</svg>
