<?xml version="1.0" encoding="UTF-8" standalone="no"?>
<svg
   xmlns:dc="http://purl.org/dc/elements/1.1/"
   xmlns:cc="http://creativecommons.org/ns#"
   xmlns:rdf="http://www.w3.org/1999/02/22-rdf-syntax-ns#"
   xmlns:svg="http://www.w3.org/2000/svg"
   xmlns="http://www.w3.org/2000/svg"
   xmlns:sodipodi="http://sodipodi.sourceforge.net/DTD/sodipodi-0.dtd"
   xmlns:inkscape="http://www.inkscape.org/namespaces/inkscape"
   width="252"
   height="252"
   version="1.1"
   id="svg694"
   sodipodi:docname="Semo.svg"
   inkscape:version="0.92.1 r15371">
  <metadata
     id="metadata700">
    <rdf:RDF>
      <cc:Work
         rdf:about="">
        <dc:format>image/svg+xml</dc:format>
        <dc:type
           rdf:resource="http://purl.org/dc/dcmitype/StillImage" />
        <dc:title></dc:title>
      </cc:Work>
    </rdf:RDF>
  </metadata>
  <defs
     id="defs698" />
  <sodipodi:namedview
     pagecolor="#ffffff"
     bordercolor="#666666"
     borderopacity="1"
     objecttolerance="10"
     gridtolerance="10"
     guidetolerance="10"
     inkscape:pageopacity="0"
     inkscape:pageshadow="2"
     inkscape:window-width="769"
     inkscape:window-height="480"
     id="namedview696"
     showgrid="false"
     inkscape:zoom="0.93650794"
     inkscape:cx="-1.0677966"
     inkscape:cy="126"
     inkscape:window-x="0"
     inkscape:window-y="0"
     inkscape:window-maximized="0"
     inkscape:current-layer="svg694" />
  <path
     style="fill:#a3a3a3; stroke:none;"
     d="M108 5L108 6L113 6L108 5z"
     id="path4" />
  <path
     style="fill:#5f5f5f; stroke:none;"
     d="M113 5L113 6L121 6L113 5z"
     id="path6" />
  <path
     style="fill:#000000; stroke:none;"
     d="M121 5.70988C66.2095 6.5237 15.533 47.7342 6.32562 103C-5.04018 171.221 45.7303 249.514 120 247.59C149.201 246.833 176.041 242.327 200 224.101C255.402 181.955 264.415 89.6209 212.981 40.2446C187.774 16.0449 155.066 5.2039 121 5.70988z"
     id="path8" />
  <path
     style="fill:#626262; stroke:none;"
     d="M122 5L122 6L130 6L122 5z"
     id="path10" />
  <path
     style="fill:#5c5c5c; stroke:none;"
     d="M131.667 5.33333L132.333 5.66667L131.667 5.33333z"
     id="path12" />
  <path
     style="fill:#898989; stroke:none;"
     d="M134 5L134 6L139 6L134 5z"
     id="path14" />
  <path
     style="fill:#a5a4a4; stroke:none;"
     d="M145 5L145 6L148 6L145 5z"
     id="path16" />
  <path
     style="fill:#adadad; stroke:none;"
     d="M100.667 6.33333L101.333 6.66667L100.667 6.33333z"
     id="path18" />
  <path
     style="fill:#696969; stroke:none;"
     d="M102.667 6.33333L103.333 6.66667L102.667 6.33333z"
     id="path20" />
  <path
     style="fill:#545454; stroke:none;"
     d="M142 6L142 7L145 7L142 6z"
     id="path22" />
  <path
     style="fill:#959595; stroke:none;"
     d="M150.667 6.33333L151.333 6.66667L150.667 6.33333z"
     id="path24" />
  <path
     style="fill:#979797; stroke:none;"
     d="M98.6667 7.33333L99.3333 7.66667L98.6667 7.33333z"
     id="path26" />
  <path
     style="fill:#737373; stroke:none;"
     d="M94 8L94 9L97 9L94 8z"
     id="path28" />
  <path
     style="fill:#848484; stroke:none;"
     d="M156 8L157 9L156 8z"
     id="path30" />
  <path
     style="fill:#464646; stroke:none;"
     d="M89.6667 9.33333L90.3333 9.66667L89.6667 9.33333z"
     id="path32" />
  <path
     style="fill:#7c7c7c; stroke:none;"
     d="M87 10L88 11L87 10z"
     id="path34" />
  <path
     style="fill:#545454; stroke:none;"
     d="M160 10L160 11L163 11L160 10z"
     id="path36" />
  <path
     style="fill:#7b7b7b; stroke:none;"
     d="M84 11L85 12L84 11z"
     id="path38" />
  <path
     style="fill:#8e8e8e; stroke:none;"
     d="M165 11L166 12L165 11z"
     id="path40" />
  <path
     style="fill:#838383; stroke:none;"
     d="M82 12L83 13L82 12z"
     id="path42" />
  <path
     style="fill:#606060; stroke:none;"
     d="M166 12L167 13L166 12z"
     id="path44" />
  <path
     style="fill:#858585; stroke:none;"
     d="M79.6667 13.3333L80.3333 13.6667L79.6667 13.3333z"
     id="path46" />
  <path
     style="fill:#7a6868; stroke:none;"
     d="M110 13L110 14L140 14L110 13z"
     id="path48" />
  <path
     style="fill:#8e8e8e; stroke:none;"
     d="M77 14L78 15L77 14z"
     id="path50" />
  <path
     style="fill:#bd8689; stroke:none;"
     d="M52 42L52 43L52 46L62 48L72 46L72 47L69 47L80 48L81 48L88 47L86 50L99 45C99.9008 48.2063 102.337 50.7292 102.853 54.0394C103.904 60.7828 100.996 77.1078 107 81L120 70C140.972 68.154 155.128 50.213 177 51L165 60L165 61L178 60L179 64L175 64L175 65L184 72C179.534 72.9619 180.36 79.376 184 81C184.402 74.8815 187.876 67.8935 194.005 65.7654C198.647 64.1534 206.213 65.9741 203 72L203 73L212 76L210 80C218.954 83.5106 214.733 87.7595 216.542 94.7145C217.529 98.5103 223.131 107.559 226 110L226 111L226 112L224 117L230 120L230 114L232 114L237 142C239.085 137.031 238 130.35 238 125C238 108.572 235.39 92.9039 228.255 78C203.878 27.0859 143.493 1.15584 90 19.1659C75.5233 24.0399 61.9542 30.0467 52 42z"
     id="path52" />
  <path
     style="fill:#6d6d6d; stroke:none;"
     d="M172 14L173 15L172 14z"
     id="path54" />
  <path
     style="fill:#666666; stroke:none;"
     d="M174 15L175 16L174 15z"
     id="path56" />
  <path
     style="fill:#6b6a6a; stroke:none;"
     d="M73 16L74 17L73 16z"
     id="path58" />
  <path
     style="fill:#512d2f; stroke:none;"
     d="M152.667 16.3333L153.333 16.6667L152.667 16.3333z"
     id="path60" />
  <path
     style="fill:#787a7a; stroke:none;"
     d="M176.667 16.3333L177.333 16.6667L176.667 16.3333z"
     id="path62" />
  <path
     style="fill:#898989; stroke:none;"
     d="M70 17L71 18L70 17z"
     id="path64" />
  <path
     style="fill:#413936; stroke:none;"
     d="M155.667 17.3333L156.333 17.6667L155.667 17.3333z"
     id="path66" />
  <path
     style="fill:#c7c7c7; stroke:none;"
     d="M179.667 17.3333L180.333 17.6667L179.667 17.3333z"
     id="path68" />
  <path
     style="fill:#7a7a7a; stroke:none;"
     d="M68 18L69 19L68 18z"
     id="path70" />
  <path
     style="fill:#6c3e41; stroke:none;"
     d="M91.6667 18.3333L92.3333 18.6667L91.6667 18.3333z"
     id="path72" />
  <path
     style="fill:#6b4047; stroke:none;"
     d="M158 18L158 19L161 19L158 18z"
     id="path74" />
  <path
     style="fill:#bdbebe; stroke:none;"
     d="M181.667 18.3333L182.333 18.6667L181.667 18.3333z"
     id="path76" />
  <path
     style="fill:#929292; stroke:none;"
     d="M64 20L65 21L64 20z"
     id="path78" />
  <path
     style="fill:#8b8b8b; stroke:none;"
     d="M185 20L186 21L185 20z"
     id="path80" />
  <path
     style="fill:#909090; stroke:none;"
     d="M62 21L63 22L62 21z"
     id="path82" />
  <path
     style="fill:#7c5655; stroke:none;"
     d="M80.6667 22.3333L81.3333 22.6667L80.6667 22.3333z"
     id="path84" />
  <path
     style="fill:#919191; stroke:none;"
     d="M191 24L192 25L191 24z"
     id="path86" />
  <path
     style="fill:#8b8b8b; stroke:none;"
     d="M56 25L57 26L56 25z"
     id="path88" />
  <path
     style="fill:#626262; stroke:none;"
     d="M55 26L56 27L55 26z"
     id="path90" />
  <path
     style="fill:#a7a7a7; stroke:none;"
     d="M53 27L54 28L53 27M196 27L197 28L196 27z"
     id="path92" />
  <path
     style="fill:#989898; stroke:none;"
     d="M52 28L53 29L52 28z"
     id="path94" />
  <path
     style="fill:#656565; stroke:none;"
     d="M51 29L52 30L51 29z"
     id="path96" />
  <path
     style="fill:#a4a4a4; stroke:none;"
     d="M201 31L202 32L201 31z"
     id="path98" />
  <path
     style="fill:#919191; stroke:none;"
     d="M47 32L48 33L47 32z"
     id="path100" />
  <path
     style="fill:#908f90; stroke:none;"
     d="M202 32L203 33L202 32z"
     id="path102" />
  <path
     style="fill:#818181; stroke:none;"
     d="M203 33L204 34L203 33z"
     id="path104" />
  <path
     style="fill:#9d9d9d; stroke:none;"
     d="M45 34L46 35L45 34z"
     id="path106" />
  <path
     style="fill:#767676; stroke:none;"
     d="M204 34L205 35L204 34z"
     id="path108" />
  <path
     style="fill:#a2a2a2; stroke:none;"
     d="M44 35L45 36L44 35z"
     id="path110" />
  <path
     style="fill:#a4a4a4; stroke:none;"
     d="M43 36L44 37L43 36z"
     id="path112" />
  <path
     style="fill:#636363; stroke:none;"
     d="M42 37L43 38L42 37z"
     id="path114" />
  <path
     style="fill:#7a7a7a; stroke:none;"
     d="M208 37L208 38L211 38L208 37z"
     id="path116" />
  <path
     style="fill:#8e8d8d; stroke:none;"
     d="M41 38L42 39L41 38z"
     id="path118" />
  <path
     style="fill:#8b8b8b; stroke:none;"
     d="M211 38L212 39L211 38z"
     id="path120" />
  <path
     style="fill:#878787; stroke:none;"
     d="M40 39L41 40L40 39z"
     id="path122" />
  <path
     style="fill:#dca2a1; stroke:none;"
     d="M35 190L38 190L37 176C26.1955 166.237 32.5956 144.951 35 132C31.6765 129.814 32.3761 127.599 35 125L34 120L38 121L42 118L43 113L50 115C60.6631 104.721 80.8197 100.91 89.3966 88.8711C93.2786 83.4221 90.7591 72.3997 91.0394 66C91.4883 55.748 93.9462 52.8935 99 45L86 50L88 47L81 48L80 48C77.6981 42.3498 74.2912 49.6072 71.3333 49.1667C68.6748 48.7707 70.66 47.1787 72 47L72 46L62 48L52 46L54 44L52 42L55 39C44.2419 43.9877 37.8396 55.5129 31.5154 65C9.47245 98.0677 3.16451 160.56 35 190z"
     id="path124" />
  <path
     style="fill:#7c7c7c; stroke:none;"
     d="M39 40L40 41L39 40z"
     id="path126" />
  <path
     style="fill:#5d5d5d; stroke:none;"
     d="M213.333 40.6667L213.667 41.3333L213.333 40.6667z"
     id="path128" />
  <path
     style="fill:#909090; stroke:none;"
     d="M37 42L38 43L37 42z"
     id="path130" />
  <path
     style="fill:#575757; stroke:none;"
     d="M36 44L37 45L36 44z"
     id="path132" />
  <path
     style="fill:#6b6b6b; stroke:none;"
     d="M34 46L35 47L34 46z"
     id="path134" />
  <path
     style="fill:#7a7a7a; stroke:none;"
     d="M217 46L218 47L217 46z"
     id="path136" />
  <path
     style="fill:#959595; stroke:none;"
     d="M33 47L34 48L33 47z"
     id="path138" />
  <path
     style="fill:#8a5454; stroke:none;"
     d="M97.6667 47.3333L98.3333 47.6667L97.6667 47.3333z"
     id="path140" />
  <path
     style="fill:#6b6b6b; stroke:none;"
     d="M32 48L33 49L32 48z"
     id="path142" />
  <path
     style="fill:#000000; stroke:none;"
     d="M94 204C100.269 198.846 101.565 189.612 103 182C100.023 178.453 101.063 175.257 102 171L154 200.794L172 208C170.148 200.83 163.24 190.241 155 191L155 189L152 190L128 169L124 171L115 162C105.003 161.009 103.48 153.079 106 145C100.8 141.529 104.699 124.981 104.961 119C105.22 113.088 102.155 103.322 105.028 98.1042C108.116 92.494 116.816 90.2189 122 87.0733C135.351 78.9729 149.897 72.4376 162.259 63C166.976 59.3991 172.937 57.248 176 52C166.485 49.8134 158.947 53.9659 151 58L152 61L121 71L121 75L104 83C103.633 72.8003 104.4 61.9467 101.682 52.0586C100.478 47.6787 94.5519 47.1454 92.6034 51.3441C87.8153 61.6619 97.0371 78.6098 90.3966 87.571C81.3805 99.7379 61.4897 105.641 49.6651 114.819C43.3891 119.691 38.1862 120.844 38.5903 129.985C38.8406 135.647 44.9761 137.786 49 140.765C57.3215 146.926 67.7821 151.943 77 156.738C81.193 158.919 87.3608 160.627 90.3819 164.46C92.8479 167.588 90.9784 173.288 91.0046 177C91.0636 185.336 91.171 196.236 94 204z"
     id="path144" />
  <path
     style="fill:#8a8a8a; stroke:none;"
     d="M31 49L32 50L31 49z"
     id="path146" />
  <path
     style="fill:#8f8f8f; stroke:none;"
     d="M30 50L31 51L30 50z"
     id="path148" />
  <path
     style="fill:#684142; stroke:none;"
     d="M102 50L102 63L103 63L102 50z"
     id="path150" />
  <path
     style="fill:#523a3a; stroke:none;"
     d="M171.667 50.3333L172.333 50.6667L171.667 50.3333z"
     id="path152" />
  <path
     style="fill:#a1a1a1; stroke:none;"
     d="M29 51L30 52L29 51z"
     id="path154" />
  <path
     style="fill:#70434a; stroke:none;"
     d="M165 51L165 52L169 52L165 51z"
     id="path156" />
  <path
     style="fill:#5d2727; stroke:none;"
     d="M174 51L174 52L177 53L174 51z"
     id="path158" />
  <path
     style="fill:#594e4a; stroke:none;"
     d="M158 52L158 53L165 53L158 52z"
     id="path160" />
  <path
     style="fill:#707070; stroke:none;"
     d="M222 52L223 53L222 52z"
     id="path162" />
  <path
     style="fill:#999999; stroke:none;"
     d="M223 53L224 54L223 53z"
     id="path164" />
  <path
     style="fill:#828282; stroke:none;"
     d="M27 54L28 55L27 54z"
     id="path166" />
  <path
     style="fill:#7c5e5c; stroke:none;"
     d="M38.3333 54.6667L38.6667 55.3333L38.3333 54.6667z"
     id="path168" />
  <path
     style="fill:#7a5e5d; stroke:none;"
     d="M154 54L154 55L157 55L154 54z"
     id="path170" />
  <path
     style="fill:#583533; stroke:none;"
     d="M171.667 56.3333L172.333 56.6667L171.667 56.3333z"
     id="path172" />
  <path
     style="fill:#888888; stroke:none;"
     d="M25 57L26 58L25 57z"
     id="path174" />
  <path
     style="fill:#5a3a3d; stroke:none;"
     d="M152.667 57.3333L153.333 57.6667L152.667 57.3333z"
     id="path176" />
  <path
     style="fill:#a0a0a0; stroke:none;"
     d="M226 57L227 58L226 57z"
     id="path178" />
  <path
     style="fill:#969696; stroke:none;"
     d="M24 58L25 59L24 58z"
     id="path180" />
  <path
     style="fill:#5e5453; stroke:none;"
     d="M35 59L36 60L35 59z"
     id="path182" />
  <path
     style="fill:#5b504c; stroke:none;"
     d="M151 59L144 60L144 61L151 59z"
     id="path184" />
  <path
     style="fill:#828282; stroke:none;"
     d="M227 59L228 60L227 59z"
     id="path186" />
  <path
     style="fill:#aaaaaa; stroke:none;"
     d="M23 60L24 61L23 60z"
     id="path188" />
  <path
     style="fill:#8f666a; stroke:none;"
     d="M140 62L144 60L140 62z"
     id="path190" />
  <path
     style="fill:#da9fa1; stroke:none;"
     d="M104 130L106 145C103.867 153.957 105.823 161.076 116 162C117.841 167.443 123.556 169.999 129 169L152 190L155 189L155 191C163.274 191.616 170.194 201.799 173 209C159.21 206.144 144.526 196.77 133 188.846C129.83 186.666 122.652 180.042 119 183L114 180L120 188L119 194L123 193L122 197L114 196L118 199L118 200L115 200L119 205L120 205L121 202L128 206L135 205L134 202L139 206L134 208L131 207L127 210L129 213C124.63 212.78 116.246 210.186 115 216L114 216L114 212L110 214L112 213L112 214L109 215C110.033 220.902 106.345 228.276 115 228L108 229L110 238L110 239C128.273 239 145.403 239.175 163 233.41C199.238 221.538 228.721 188.91 235.829 151C238.105 138.861 232.789 126.158 232 114L230 114L230 120L224 117L226 112L226 111L226 110C223.21 106.435 218.255 99.0468 216.921 94.7106C214.861 88.0134 219.555 82.2988 210 80L212 76L203 73L203 72C205.323 69.7768 204.236 65.8521 200.867 64.8889C190.958 62.0566 184.247 72.669 184 81C181.385 78.1573 180.597 74.4493 184 72L175 65L175 64L179 64L178 60L164.054 61.8187L152.999 69.3094L122 86.4568L106.028 96.3789L105.625 110L104 130z"
     id="path192" />
  <path
     style="fill:#61393a; stroke:none;"
     d="M91 61L91 64L92 64L91 61z"
     id="path194" />
  <path
     style="fill:#7c7c7c; stroke:none;"
     d="M22 62L23 63L22 62z"
     id="path196" />
  <path
     style="fill:#a4a4a4; stroke:none;"
     d="M21 63L22 64L21 63z"
     id="path198" />
  <path
     style="fill:#353535; stroke:none;"
     d="M230.333 64.6667L230.667 65.3333L230.333 64.6667z"
     id="path200" />
  <path
     style="fill:#6c4c4d; stroke:none;"
     d="M131 65L131 66L134 66L131 65z"
     id="path202" />
  <path
     style="fill:#6a6a6a; stroke:none;"
     d="M231 66L232 67L231 66z"
     id="path204" />
  <path
     style="fill:#747474; stroke:none;"
     d="M19 67L20 68L19 67z"
     id="path206" />
  <path
     style="fill:#72454a; stroke:none;"
     d="M124 69L124 70L127 70L124 69z"
     id="path208" />
  <path
     style="fill:#715d5e; stroke:none;"
     d="M120 70L118 74L118 75L124 71L120 70z"
     id="path210" />
  <path
     style="fill:#919191; stroke:none;"
     d="M234 71L235 72L234 71z"
     id="path212" />
  <path
     style="fill:#44252a; stroke:none;"
     d="M91 72L91 80L92 80L91 72z"
     id="path214" />
  <path
     style="fill:#8e8d8c; stroke:none;"
     d="M16 73L17 74L16 73z"
     id="path216" />
  <path
     style="fill:#878787; stroke:none;"
     d="M235 73L236 74L235 73z"
     id="path218" />
  <path
     style="fill:#6d4344; stroke:none;"
     d="M139 76L139 77L142 77L139 76z"
     id="path220" />
  <path
     style="fill:#8d8d8d; stroke:none;"
     d="M14 77L15 78L14 77z"
     id="path222" />
  <path
     style="fill:#473e41; stroke:none;"
     d="M103.333 77.6667L103.667 78.3333L103.333 77.6667z"
     id="path224" />
  <path
     style="fill:#7c7c7c; stroke:none;"
     d="M237 77L238 78L237 77z"
     id="path226" />
  <path
     style="fill:#554341; stroke:none;"
     d="M107 81L108 81L113 79C110.238 77.4086 107.714 77.6685 107 81z"
     id="path228" />
  <path
     style="fill:#7b7b7b; stroke:none;"
     d="M13.3333 79.6667L13.6667 80.3333L13.3333 79.6667z"
     id="path230" />
  <path
     style="fill:#5f4340; stroke:none;"
     d="M23.3333 79.6667L23.6667 80.3333L23.3333 79.6667z"
     id="path232" />
  <path
     style="fill:#6b6b6b; stroke:none;"
     d="M238 79L239 80L238 79z"
     id="path234" />
  <path
     style="fill:#7b4e51; stroke:none;"
     d="M91 80L91 88L92 88L91 80z"
     id="path236" />
  <path
     style="fill:#645454; stroke:none;"
     d="M104 80L104 83L106 82L106 81L104 80z"
     id="path238" />
  <path
     style="fill:#765c5b; stroke:none;"
     d="M129.667 81.3333L130.333 81.6667L129.667 81.3333z"
     id="path240" />
  <path
     style="fill:#5d5d5d; stroke:none;"
     d="M239.333 81.6667L239.667 82.3333L239.333 81.6667z"
     id="path242" />
  <path
     style="fill:#626262; stroke:none;"
     d="M12.3333 82.6667L12.6667 83.3333L12.3333 82.6667z"
     id="path244" />
  <path
     style="fill:#656565; stroke:none;"
     d="M240 84L241 85L240 84z"
     id="path246" />
  <path
     style="fill:#737373; stroke:none;"
     d="M11 85L12 86L11 85z"
     id="path248" />
  <path
     style="fill:#c8c8c8; stroke:none;"
     d="M241 85L241 88L242 88L241 85z"
     id="path250" />
  <path
     style="fill:#5c343c; stroke:none;"
     d="M20.3333 86.6667L20.6667 87.3333L20.3333 86.6667z"
     id="path252" />
  <path
     style="fill:#707070; stroke:none;"
     d="M10.3333 87.6667L10.6667 88.3333L10.3333 87.6667z"
     id="path254" />
  <path
     style="fill:#404040; stroke:none;"
     d="M9.33333 90.6667L9.66667 91.3333L9.33333 90.6667z"
     id="path256" />
  <path
     style="fill:#5f5f5f; stroke:none;"
     d="M242.333 90.6667L242.667 91.3333L242.333 90.6667z"
     id="path258" />
  <path
     style="fill:#d9d9d9; stroke:none;"
     d="M8 92L8 96L9 96L8 92z"
     id="path260" />
  <path
     style="fill:#865e5f; stroke:none;"
     d="M18.3333 92.6667L18.6667 93.3333L18.3333 92.6667z"
     id="path262" />
  <path
     style="fill:#544643; stroke:none;"
     d="M84.6667 92.3333L85.3333 92.6667L84.6667 92.3333z"
     id="path264" />
  <path
     style="fill:#7e685d; stroke:none;"
     d="M17.3333 96.6667L17.6667 97.3333L17.3333 96.6667z"
     id="path266" />
  <path
     style="fill:#d9d9d9; stroke:none;"
     d="M244 96L244 100L245 100L244 96z"
     id="path268" />
  <path
     style="fill:#583539; stroke:none;"
     d="M76.6667 97.3333L77.3333 97.6667L76.6667 97.3333z"
     id="path270" />
  <path
     style="fill:#4e2e31; stroke:none;"
     d="M104 97L104 107L105 107L104 97z"
     id="path272" />
  <path
     style="fill:#7a6b68; stroke:none;"
     d="M74.6667 98.3333L75.3333 98.6667L74.6667 98.3333z"
     id="path274" />
  <path
     style="fill:#949494; stroke:none;"
     d="M6.33333 100.667L6.66667 101.333L6.33333 100.667z"
     id="path276" />
  <path
     style="fill:#645655; stroke:none;"
     d="M72 100L73 101L72 100z"
     id="path278" />
  <path
     style="fill:#424242; stroke:none;"
     d="M244.333 100.667L244.667 101.333L244.333 100.667z"
     id="path280" />
  <path
     style="fill:#3b3233; stroke:none;"
     d="M15 101L15 105L16 105L15 101z"
     id="path282" />
  <path
     style="fill:#6b5b5b; stroke:none;"
     d="M236 101L236 106L237 106L236 101z"
     id="path284" />
  <path
     style="fill:#4b3c37; stroke:none;"
     d="M68 102L68 103L71 103L68 102z"
     id="path286" />
  <path
     style="fill:#d2d2d2; stroke:none;"
     d="M5 103L5 109L6 109L5 103z"
     id="path288" />
  <path
     style="fill:#a2a2a2; stroke:none;"
     d="M245.333 103.667L245.667 104.333L245.333 103.667z"
     id="path290" />
  <path
     style="fill:#816766; stroke:none;"
     d="M64 104L64 105L67 105L64 104z"
     id="path292" />
  <path
     style="fill:#eaaeae; stroke:none;"
     d="M51 129L91 148L92 104L63 121.188L51 129z"
     id="path294" />
  <path
     style="fill:#696969; stroke:none;"
     d="M245 105L245 108L246 108L245 105z"
     id="path296" />
  <path
     style="fill:#562f32; stroke:none;"
     d="M14 107L14 110L15 110L14 107z"
     id="path298" />
  <path
     style="fill:#826869; stroke:none;"
     d="M105.333 108.667L105.667 109.333L105.333 108.667z"
     id="path300" />
  <path
     style="fill:#855c60; stroke:none;"
     d="M237 108L237 112L238 112L237 108z"
     id="path302" />
  <path
     style="fill:#939393; stroke:none;"
     d="M246 108L246 113L247 113L246 108z"
     id="path304" />
  <path
     style="fill:#838383; stroke:none;"
     d="M5 109L5 115L6 115L5 109z"
     id="path306" />
  <path
     style="fill:#85565c; stroke:none;"
     d="M57 109L58 110L57 109z"
     id="path308" />
  <path
     style="fill:#704849; stroke:none;"
     d="M79 112L82 111L79 112z"
     id="path310" />
  <path
     style="fill:#483030; stroke:none;"
     d="M105 110L105 114L106 114L105 110z"
     id="path312" />
  <path
     style="fill:#766867; stroke:none;"
     d="M13 112L13 139L14 139L13 112z"
     id="path314" />
  <path
     style="fill:#e6aaaa; stroke:none;"
     d="M43 113L42 118L38 121L34 120L35 125C31.4824 126.561 30.6799 131.074 35 132C32.3367 143.187 25.4554 168.971 37 176L38 190L35 190L32 188C44.7695 214.843 82.2845 237.918 112 238L112 237L108 229C111.085 230.155 112.933 230.803 115 228C105.93 228.321 109.57 218.233 112 213L110 214L110 213L114 212L114 216L115 216L115 213L129 213L127 210L131 207L134 208L139 206L134 202L135 205L128 206C127.494 201.321 120.552 200.444 120 205L119 205C117.922 202.704 115.123 201.382 118 200L118 199L114 196L122 197L123 193L119 194L120 188L114 180L119 183C116.238 177.683 108.586 173.849 103 172L100 176L100 177L100 178C106.198 185.572 99.3406 199.293 93 205C92.5995 195.672 90.318 186.17 90.0934 177C89.9884 172.717 92.5212 167.274 89.3966 163.554C80.5025 152.964 60.5524 148.384 49.1698 140.347C42.6785 135.764 35.5272 132.596 39.5988 123.188C41.2543 119.363 46.4098 117.307 49 114L43 113z"
     id="path316" />
  <path
     style="fill:#4a2b28; stroke:none;"
     d="M50.6667 113.333L51.3333 113.667L50.6667 113.333z"
     id="path318" />
  <path
     style="fill:#726262; stroke:none;"
     d="M75 113L76 114L75 113z"
     id="path320" />
  <path
     style="fill:#323232; stroke:none;"
     d="M246 113L246 121L247 121L246 113z"
     id="path322" />
  <path
     style="fill:#7d696b; stroke:none;"
     d="M238 114L238 130L239 130L238 114z"
     id="path324" />
  <path
     style="fill:#595757; stroke:none;"
     d="M5 115L5 124L6 124L5 115z"
     id="path326" />
  <path
     style="fill:#593a40; stroke:none;"
     d="M48.6667 115.333L49.3333 115.667L48.6667 115.333z"
     id="path328" />
  <path
     style="fill:#967276; stroke:none;"
     d="M71.6667 115.333L72.3333 115.667L71.6667 115.333z"
     id="path330" />
  <path
     style="fill:#522627; stroke:none;"
     d="M91 115L91 120L92 120L91 115z"
     id="path332" />
  <path
     style="fill:#6b5655; stroke:none;"
     d="M45.6667 117.333L46.3333 117.667L45.6667 117.333z"
     id="path334" />
  <path
     style="fill:#8e5d60; stroke:none;"
     d="M91 120L90 149C94.3543 145.195 93.193 125.226 91 120z"
     id="path336" />
  <path
     style="fill:#7c4d53; stroke:none;"
     d="M104.333 123.667L104.667 124.333L104.333 123.667z"
     id="path338" />
  <path
     style="fill:#5a4b4e; stroke:none;"
     d="M50.3333 127.667L50.6667 128.333L50.3333 127.667z"
     id="path340" />
  <path
     style="fill:#6e4549; stroke:none;"
     d="M104.333 127.667L104.667 128.333L104.333 127.667z"
     id="path342" />
  <path
     style="fill:#ad747a; stroke:none;"
     d="M53 129L53 130L56 130L53 129z"
     id="path344" />
  <path
     style="fill:#4e4e4e; stroke:none;"
     d="M246 129L246 140L247 140L246 129z"
     id="path346" />
  <path
     style="fill:#714f50; stroke:none;"
     d="M104 130L105 133L106 133L106 130L104 130z"
     id="path348" />
  <path
     style="fill:#59514f; stroke:none;"
     d="M238 130L238 139L239 139L238 130z"
     id="path350" />
  <path
     style="fill:#685652; stroke:none;"
     d="M38 131L38 134L39 134L38 131z"
     id="path352" />
  <path
     style="fill:#724548; stroke:none;"
     d="M57.6667 131.333L58.3333 131.667L57.6667 131.333z"
     id="path354" />
  <path
     style="fill:#4a4a4a; stroke:none;"
     d="M5 132L5 140L6 140L5 132z"
     id="path356" />
  <path
     style="fill:#725454; stroke:none;"
     d="M60 132L61 133L60 132z"
     id="path358" />
  <path
     style="fill:#6d4045; stroke:none;"
     d="M42.6667 136.333L43.3333 136.667L42.6667 136.333z"
     id="path360" />
  <path
     style="fill:#825b60; stroke:none;"
     d="M68 137L68 138L71 138L68 137z"
     id="path362" />
  <path
     style="fill:#875558; stroke:none;"
     d="M104.333 137.667L104.667 138.333L104.333 137.667z"
     id="path364" />
  <path
     style="fill:#835c5f; stroke:none;"
     d="M47 139L48 140L47 139z"
     id="path366" />
  <path
     style="fill:#8d6667; stroke:none;"
     d="M72.6667 139.333L73.3333 139.667L72.6667 139.333z"
     id="path368" />
  <path
     style="fill:#bebebe; stroke:none;"
     d="M5 140L5 144L6 144L5 140z"
     id="path370" />
  <path
     style="fill:#3b322d; stroke:none;"
     d="M103 140L103 143L104 143L103 140z"
     id="path372" />
  <path
     style="fill:#aaaaaa; stroke:none;"
     d="M246 140L246 144L247 144L246 140z"
     id="path374" />
  <path
     style="fill:#794748; stroke:none;"
     d="M14 141L14 144L15 144L14 141z"
     id="path376" />
  <path
     style="fill:#9a6764; stroke:none;"
     d="M79.6667 142.333L80.3333 142.667L79.6667 142.333z"
     id="path378" />
  <path
     style="fill:#3d2022; stroke:none;"
     d="M237 142L237 146L238 146L237 142z"
     id="path380" />
  <path
     style="fill:#867679; stroke:none;"
     d="M103.333 143.667L103.667 144.333L103.333 143.667z"
     id="path382" />
  <path
     style="fill:#48393e; stroke:none;"
     d="M81 144L81 145L84 145L81 144z"
     id="path384" />
  <path
     style="fill:#d2d2d2; stroke:none;"
     d="M246 144L246 148L247 148L246 144z"
     id="path386" />
  <path
     style="fill:#696969; stroke:none;"
     d="M6.33333 145.667L6.66667 146.333L6.33333 145.667z"
     id="path388" />
  <path
     style="fill:#4a3e42; stroke:none;"
     d="M15 146L15 152L16 152L15 146z"
     id="path390" />
  <path
     style="fill:#463e3b; stroke:none;"
     d="M236 146L236 150L237 150L236 146z"
     id="path392" />
  <path
     style="fill:#a5a5a5; stroke:none;"
     d="M6 147L6 150L7 150L6 147z"
     id="path394" />
  <path
     style="fill:#552c2a; stroke:none;"
     d="M62 148L62 149L65 149L62 148z"
     id="path396" />
  <path
     style="fill:#96696e; stroke:none;"
     d="M104 148L104 156L105 156L104 148z"
     id="path398" />
  <path
     style="fill:#6a6a6a; stroke:none;"
     d="M245 149L245 152L246 152L245 149z"
     id="path400" />
  <path
     style="fill:#735555; stroke:none;"
     d="M70 152L71 153L70 152z"
     id="path402" />
  <path
     style="fill:#593537; stroke:none;"
     d="M16.3333 153.667L16.6667 154.333L16.3333 153.667z"
     id="path404" />
  <path
     style="fill:#3e3f39; stroke:none;"
     d="M234.333 155.667L234.667 156.333L234.333 155.667z"
     id="path406" />
  <path
     style="fill:#d8d8d8; stroke:none;"
     d="M243 156L243 161L244 161L243 156z"
     id="path408" />
  <path
     style="fill:#856161; stroke:none;"
     d="M105.667 157.333L106.333 157.667L105.667 157.333z"
     id="path410" />
  <path
     style="fill:#c3c3c3; stroke:none;"
     d="M8.33333 158.667L8.66667 159.333L8.33333 158.667z"
     id="path412" />
  <path
     style="fill:#8d5a5f; stroke:none;"
     d="M233 158L233 161L234 161L233 158z"
     id="path414" />
  <path
     style="fill:#77424c; stroke:none;"
     d="M18.3333 160.667L18.6667 161.333L18.3333 160.667z"
     id="path416" />
  <path
     style="fill:#593131; stroke:none;"
     d="M84.6667 160.333L85.3333 160.667L84.6667 160.333z"
     id="path418" />
  <path
     style="fill:#979797; stroke:none;"
     d="M9.33333 161.667L9.66667 162.333L9.33333 161.667z"
     id="path420" />
  <path
     style="fill:#4c2c37; stroke:none;"
     d="M110.667 161.333L111.333 161.667L110.667 161.333z"
     id="path422" />
  <path
     style="fill:#5e534f; stroke:none;"
     d="M112.667 162.333L113.333 162.667L112.667 162.333z"
     id="path424" />
  <path
     style="fill:#5e4644; stroke:none;"
     d="M115.333 162.667L115.667 163.333L115.333 162.667z"
     id="path426" />
  <path
     style="fill:#949494; stroke:none;"
     d="M242 162L243 163L242 162z"
     id="path428" />
  <path
     style="fill:#726263; stroke:none;"
     d="M90 163L91 164L90 163z"
     id="path430" />
  <path
     style="fill:#60413f; stroke:none;"
     d="M91 164L91 170L92 170L91 164z"
     id="path432" />
  <path
     style="fill:#9d9d9d; stroke:none;"
     d="M10 165L10 168L11 168L10 165z"
     id="path434" />
  <path
     style="fill:#523f41; stroke:none;"
     d="M118.667 166.333L119.333 166.667L118.667 166.333z"
     id="path436" />
  <path
     style="fill:#7e6a69; stroke:none;"
     d="M230.333 166.667L230.667 167.333L230.333 166.667z"
     id="path438" />
  <path
     style="fill:#787878; stroke:none;"
     d="M240 167L241 168L240 167z"
     id="path440" />
  <path
     style="fill:#482e2f; stroke:none;"
     d="M128 169L128 172L129 172L128 169z"
     id="path442" />
  <path
     style="fill:#b4b4b4; stroke:none;"
     d="M239.333 169.667L239.667 170.333L239.333 169.667z"
     id="path444" />
  <path
     style="fill:#a7a7a7; stroke:none;"
     d="M12.3333 170.667L12.6667 171.333L12.3333 170.667z"
     id="path446" />
  <path
     style="fill:#887e7d; stroke:none;"
     d="M124.667 170.333L125.333 170.667L124.667 170.333z"
     id="path448" />
  <path
     style="fill:#76504f; stroke:none;"
     d="M102 171L102 173L104 171L102 171z"
     id="path450" />
  <path
     style="fill:#7a787a; stroke:none;"
     d="M238 171L238 174L239 174L238 171z"
     id="path452" />
  <path
     style="fill:#574c48; stroke:none;"
     d="M90 172L90 182L91 182L90 172z"
     id="path454" />
  <path
     style="fill:#7f7f7f; stroke:none;"
     d="M13 173L14 174L13 173z"
     id="path456" />
  <path
     style="fill:#6b5e56; stroke:none;"
     d="M101 173L101 176L102 176L101 173z"
     id="path458" />
  <path
     style="fill:#876365; stroke:none;"
     d="M131 173L131 174L134 174L131 173z"
     id="path460" />
  <path
     style="fill:#878787; stroke:none;"
     d="M14 175L15 176L14 175z"
     id="path462" />
  <path
     style="fill:#959595; stroke:none;"
     d="M237 175L238 176L237 175z"
     id="path464" />
  <path
     style="fill:#5d5d5d; stroke:none;"
     d="M15 176L16 177L15 176z"
     id="path466" />
  <path
     style="fill:#614d4e; stroke:none;"
     d="M100 178L101 182L102 182L100 178z"
     id="path468" />
  <path
     style="fill:#482f32; stroke:none;"
     d="M26.3333 179.667L26.6667 180.333L26.3333 179.667z"
     id="path470" />
  <path
     style="fill:#684f52; stroke:none;"
     d="M27 181L28 182L27 181z"
     id="path472" />
  <path
     style="fill:#5a4647; stroke:none;"
     d="M144 181L144 184L146 184L146 181L144 181z"
     id="path474" />
  <path
     style="fill:#c7c6c6; stroke:none;"
     d="M18.3333 183.667L18.6667 184.333L18.3333 183.667z"
     id="path476" />
  <path
     style="fill:#676666; stroke:none;"
     d="M233 183L234 184L233 183z"
     id="path478" />
  <path
     style="fill:#a17373; stroke:none;"
     d="M102 184L102 190L103 190L102 184z"
     id="path480" />
  <path
     style="fill:#625658; stroke:none;"
     d="M146 184L146 185L149 185L146 184z"
     id="path482" />
  <path
     style="fill:#54504d; stroke:none;"
     d="M149.333 185.667L149.667 186.333L149.333 185.667z"
     id="path484" />
  <path
     style="fill:#737373; stroke:none;"
     d="M232 185L233 186L232 185z"
     id="path486" />
  <path
     style="fill:#848484; stroke:none;"
     d="M20 186L21 187L20 186z"
     id="path488" />
  <path
     style="fill:#5f5f5f; stroke:none;"
     d="M21 188L22 189L21 188z"
     id="path490" />
  <path
     style="fill:#737373; stroke:none;"
     d="M230 188L231 189L230 188z"
     id="path492" />
  <path
     style="fill:#777777; stroke:none;"
     d="M22 189L23 190L22 189z"
     id="path494" />
  <path
     style="fill:#805751; stroke:none;"
     d="M32 189L33 190L32 189z"
     id="path496" />
  <path
     style="fill:#494c43; stroke:none;"
     d="M92 190L92 194L93 194L92 190z"
     id="path498" />
  <path
     style="fill:#7f7f7f; stroke:none;"
     d="M229 190L230 191L229 190z"
     id="path500" />
  <path
     style="fill:#8b8b8b; stroke:none;"
     d="M226 195L227 196L226 195z"
     id="path502" />
  <path
     style="fill:#5f5754; stroke:none;"
     d="M37 196L38 197L37 196z"
     id="path504" />
  <path
     style="fill:#4b2f2e; stroke:none;"
     d="M213.333 197.667L213.667 198.333L213.333 197.667z"
     id="path506" />
  <path
     style="fill:#937776; stroke:none;"
     d="M212.333 198.667L212.667 199.333L212.333 198.667z"
     id="path508" />
  <path
     style="fill:#828282; stroke:none;"
     d="M224 198L225 199L224 198z"
     id="path510" />
  <path
     style="fill:#373632; stroke:none;"
     d="M149.667 199.333L150.333 199.667L149.667 199.333z"
     id="path512" />
  <path
     style="fill:#7f7f7f; stroke:none;"
     d="M223 199L224 200L223 199z"
     id="path514" />
  <path
     style="fill:#7e7e7e; stroke:none;"
     d="M29 200L30 201L29 200z"
     id="path516" />
  <path
     style="fill:#9c6167; stroke:none;"
     d="M151.667 200.333L152.333 200.667L151.667 200.333z"
     id="path518" />
  <path
     style="fill:#5c5c5c; stroke:none;"
     d="M30 201L31 202L30 201z"
     id="path520" />
  <path
     style="fill:#a3a2a2; stroke:none;"
     d="M222 201L223 202L222 201z"
     id="path522" />
  <path
     style="fill:#575757; stroke:none;"
     d="M31 202L32 203L31 202z"
     id="path524" />
  <path
     style="fill:#774649; stroke:none;"
     d="M93 202L95 205L93 202z"
     id="path526" />
  <path
     style="fill:#655a56; stroke:none;"
     d="M159.667 203.333L160.333 203.667L159.667 203.333z"
     id="path528" />
  <path
     style="fill:#62474c; stroke:none;"
     d="M171.333 204.667L171.667 205.333L171.333 204.667z"
     id="path530" />
  <path
     style="fill:#635856; stroke:none;"
     d="M208 204L209 205L208 204z"
     id="path532" />
  <path
     style="fill:#7d7d7d; stroke:none;"
     d="M219 204L220 205L219 204z"
     id="path534" />
  <path
     style="fill:#a6a6a6; stroke:none;"
     d="M218 205L219 206L218 205z"
     id="path536" />
  <path
     style="fill:#787777; stroke:none;"
     d="M34 206L35 207L34 206z"
     id="path538" />
  <path
     style="fill:#866465; stroke:none;"
     d="M163 206L163 207L166 207L163 206z"
     id="path540" />
  <path
     style="fill:#6a6a6a; stroke:none;"
     d="M217 206L218 207L217 206z"
     id="path542" />
  <path
     style="fill:#424242; stroke:none;"
     d="M35.3333 207.667L35.6667 208.333L35.3333 207.667z"
     id="path544" />
  <path
     style="fill:#54231f; stroke:none;"
     d="M172 207L170 208L170 209L172 207z"
     id="path546" />
  <path
     style="fill:#77524a; stroke:none;"
     d="M205 207L206 208L205 207z"
     id="path548" />
  <path
     style="fill:#606060; stroke:none;"
     d="M216 207L217 208L216 207z"
     id="path550" />
  <path
     style="fill:#555555; stroke:none;"
     d="M215 208L216 209L215 208z"
     id="path552" />
  <path
     style="fill:#7c4b4e; stroke:none;"
     d="M203 209L204 210L203 209z"
     id="path554" />
  <path
     style="fill:#9c9c9c; stroke:none;"
     d="M38.3333 211.667L38.6667 212.333L38.3333 211.667z"
     id="path556" />
  <path
     style="fill:#8a8a8a; stroke:none;"
     d="M212 212L213 213L212 212z"
     id="path558" />
  <path
     style="fill:#656565; stroke:none;"
     d="M39 213L40 214L39 213z"
     id="path560" />
  <path
     style="fill:#875558; stroke:none;"
     d="M54 213L55 214L54 213z"
     id="path562" />
  <path
     style="fill:#979797; stroke:none;"
     d="M211 213L212 214L211 213z"
     id="path564" />
  <path
     style="fill:#8c8c8c; stroke:none;"
     d="M40 214L41 215L40 214z"
     id="path566" />
  <path
     style="fill:#6b6662; stroke:none;"
     d="M55 214L56 215L55 214z"
     id="path568" />
  <path
     style="fill:#939393; stroke:none;"
     d="M210 214L211 215L210 214z"
     id="path570" />
  <path
     style="fill:#a6a6a6; stroke:none;"
     d="M41 215L41 216L44 216L41 215z"
     id="path572" />
  <path
     style="fill:#9c9c9c; stroke:none;"
     d="M209 215L210 216L209 215z"
     id="path574" />
  <path
     style="fill:#a4a4a4; stroke:none;"
     d="M208 216L209 217L208 216z"
     id="path576" />
  <path
     style="fill:#626262; stroke:none;"
     d="M46 217L47 218L46 217z"
     id="path578" />
  <path
     style="fill:#aaaaa9; stroke:none;"
     d="M207 217L208 218L207 217z"
     id="path580" />
  <path
     style="fill:#868686; stroke:none;"
     d="M47 218L48 219L47 218z"
     id="path582" />
  <path
     style="fill:#685350; stroke:none;"
     d="M60 218L61 219L60 218z"
     id="path584" />
  <path
     style="fill:#818181; stroke:none;"
     d="M48 219L49 220L48 219z"
     id="path586" />
  <path
     style="fill:#796564; stroke:none;"
     d="M186 222L187 223L186 222z"
     id="path588" />
  <path
     style="fill:#6e6e6e; stroke:none;"
     d="M53 223L54 224L53 223z"
     id="path590" />
  <path
     style="fill:#5a3232; stroke:none;"
     d="M184.667 223.333L185.333 223.667L184.667 223.333z"
     id="path592" />
  <path
     style="fill:#a2a2a2; stroke:none;"
     d="M54 224L55 225L54 224z"
     id="path594" />
  <path
     style="fill:#9c9c9c; stroke:none;"
     d="M57 226L58 227L57 226z"
     id="path596" />
  <path
     style="fill:#727272; stroke:none;"
     d="M196 226L197 227L196 226z"
     id="path598" />
  <path
     style="fill:#8b8b8b; stroke:none;"
     d="M195 227L196 228L195 227z"
     id="path600" />
  <path
     style="fill:#735f61; stroke:none;"
     d="M76.6667 228.333L77.3333 228.667L76.6667 228.333z"
     id="path602" />
  <path
     style="fill:#666666; stroke:none;"
     d="M193 228L194 229L193 228z"
     id="path604" />
  <path
     style="fill:#989898; stroke:none;"
     d="M62 229L63 230L62 229z"
     id="path606" />
  <path
     style="fill:#666666; stroke:none;"
     d="M190 230L191 231L190 230z"
     id="path608" />
  <path
     style="fill:#8b8b8b; stroke:none;"
     d="M65 231L66 232L65 231M66 232L67 233L66 232z"
     id="path610" />
  <path
     style="fill:#929292; stroke:none;"
     d="M187 232L188 233L187 232z"
     id="path612" />
  <path
     style="fill:#5f5f5f; stroke:none;"
     d="M68 233L69 234L68 233z"
     id="path614" />
  <path
     style="fill:#696969; stroke:none;"
     d="M185 233L186 234L185 233z"
     id="path616" />
  <path
     style="fill:#868685; stroke:none;"
     d="M70 234L71 235L70 234z"
     id="path618" />
  <path
     style="fill:#91787b; stroke:none;"
     d="M92.6667 234.333L93.3333 234.667L92.6667 234.333z"
     id="path620" />
  <path
     style="fill:#463734; stroke:none;"
     d="M158.667 234.333L159.333 234.667L158.667 234.333z"
     id="path622" />
  <path
     style="fill:#878787; stroke:none;"
     d="M183 234L184 235L183 234z"
     id="path624" />
  <path
     style="fill:#737373; stroke:none;"
     d="M72 235L73 236L72 235z"
     id="path626" />
  <path
     style="fill:#a76b6d; stroke:none;"
     d="M95.6667 235.333L96.3333 235.667L95.6667 235.333z"
     id="path628" />
  <path
     style="fill:#6d6d6d; stroke:none;"
     d="M74.6667 236.333L75.3333 236.667L74.6667 236.333z"
     id="path630" />
  <path
     style="fill:#554e48; stroke:none;"
     d="M98 236L98 237L101 237L98 236z"
     id="path632" />
  <path
     style="fill:#48403d; stroke:none;"
     d="M150 236L150 237L154 237L150 236z"
     id="path634" />
  <path
     style="fill:#666666; stroke:none;"
     d="M77 237L78 238L77 237z"
     id="path636" />
  <path
     style="fill:#543835; stroke:none;"
     d="M102.667 237.333L103.333 237.667L102.667 237.333z"
     id="path638" />
  <path
     style="fill:#734b4c; stroke:none;"
     d="M147.667 237.333L148.333 237.667L147.667 237.333z"
     id="path640" />
  <path
     style="fill:#545454; stroke:none;"
     d="M79.6667 238.333L80.3333 238.667L79.6667 238.333z"
     id="path642" />
  <path
     style="fill:#473c38; stroke:none;"
     d="M107 238L107 239L110 239L107 238z"
     id="path644" />
  <path
     style="fill:#96837d; stroke:none;"
     d="M141 238L141 239L144 239L141 238z"
     id="path646" />
  <path
     style="fill:#3b3233; stroke:none;"
     d="M144.667 238.333L145.333 238.667L144.667 238.333z"
     id="path648" />
  <path
     style="fill:#979594; stroke:none;"
     d="M173.667 238.333L174.333 238.667L173.667 238.333z"
     id="path650" />
  <path
     style="fill:#636363; stroke:none;"
     d="M82 239L83 240L82 239z"
     id="path652" />
  <path
     style="fill:#8c605f; stroke:none;"
     d="M114 239L114 240L123 240L114 239z"
     id="path654" />
  <path
     style="fill:#b07c7e; stroke:none;"
     d="M123 239L123 240L134 240L123 239z"
     id="path656" />
  <path
     style="fill:#452624; stroke:none;"
     d="M134 239L134 240L141 240L134 239z"
     id="path658" />
  <path
     style="fill:#626262; stroke:none;"
     d="M85 240L86 241L85 240z"
     id="path660" />
  <path
     style="fill:#989898; stroke:none;"
     d="M86.6667 241.333L87.3333 241.667L86.6667 241.333z"
     id="path662" />
  <path
     style="fill:#bababa; stroke:none;"
     d="M166.667 241.333L167.333 241.667L166.667 241.333z"
     id="path664" />
  <path
     style="fill:#545454; stroke:none;"
     d="M89 242L89 243L92 243L89 242z"
     id="path666" />
  <path
     style="fill:#828282; stroke:none;"
     d="M164 242L165 243L164 242z"
     id="path668" />
  <path
     style="fill:#767676; stroke:none;"
     d="M93 243L94 244L93 243z"
     id="path670" />
  <path
     style="fill:#a1a1a1; stroke:none;"
     d="M155.667 244.333L156.333 244.667L155.667 244.333z"
     id="path672" />
  <path
     style="fill:#bcbcbc; stroke:none;"
     d="M96.6667 245.333L97.3333 245.667L96.6667 245.333z"
     id="path674" />
  <path
     style="fill:#c9c9c9; stroke:none;"
     d="M152.667 245.333L153.333 245.667L152.667 245.333z"
     id="path676" />
  <path
     style="fill:#747474; stroke:none;"
     d="M100 246L100 247L104 247L100 246z"
     id="path678" />
  <path
     style="fill:#757575; stroke:none;"
     d="M107 246L107 247L111 247L107 246z"
     id="path680" />
  <path
     style="fill:#5d5d5d; stroke:none;"
     d="M144 246L144 247L151 247L144 246z"
     id="path682" />
  <path
     style="fill:#b9b9b9; stroke:none;"
     d="M104 247L104 248L107 248L104 247z"
     id="path684" />
  <path
     style="fill:#8a8a8a; stroke:none;"
     d="M113 247L113 248L117 248L113 247z"
     id="path686" />
  <path
     style="fill:#3d3d3d; stroke:none;"
     d="M119.667 247.333L120.333 247.667L119.667 247.333z"
     id="path688" />
  <path
     style="fill:#626262; stroke:none;"
     d="M122 247L122 248L130 248L122 247M131 247L131 248L139 248L131 247z"
     id="path690" />
  <path
     style="fill:#b4b4b4; stroke:none;"
     d="M139.667 247.333L140.333 247.667L139.667 247.333z"
     id="path692" />
</svg>
