<?xml version="1.0" encoding="UTF-8" standalone="no"?>
<svg
   xmlns:dc="http://purl.org/dc/elements/1.1/"
   xmlns:cc="http://creativecommons.org/ns#"
   xmlns:rdf="http://www.w3.org/1999/02/22-rdf-syntax-ns#"
   xmlns:svg="http://www.w3.org/2000/svg"
   xmlns="http://www.w3.org/2000/svg"
   xmlns:sodipodi="http://sodipodi.sourceforge.net/DTD/sodipodi-0.dtd"
   xmlns:inkscape="http://www.inkscape.org/namespaces/inkscape"
   width="252"
   height="252"
   version="1.1"
   id="svg550"
   sodipodi:docname="Topo.svg"
   inkscape:version="0.92.1 r15371">
  <metadata
     id="metadata556">
    <rdf:RDF>
      <cc:Work
         rdf:about="">
        <dc:format>image/svg+xml</dc:format>
        <dc:type
           rdf:resource="http://purl.org/dc/dcmitype/StillImage" />
        <dc:title></dc:title>
      </cc:Work>
    </rdf:RDF>
  </metadata>
  <defs
     id="defs554" />
  <sodipodi:namedview
     pagecolor="#ffffff"
     bordercolor="#666666"
     borderopacity="1"
     objecttolerance="10"
     gridtolerance="10"
     guidetolerance="10"
     inkscape:pageopacity="0"
     inkscape:pageshadow="2"
     inkscape:window-width="769"
     inkscape:window-height="480"
     id="namedview552"
     showgrid="false"
     inkscape:zoom="0.93650794"
     inkscape:cx="-1.0677966"
     inkscape:cy="126"
     inkscape:window-x="825"
     inkscape:window-y="73"
     inkscape:window-maximized="0"
     inkscape:current-layer="svg550" />
  <path
     style="fill:#a3a3a2; stroke:none;"
     d="M108 5L108 6L113 6L108 5z"
     id="path4" />
  <path
     style="fill:#5f5f5f; stroke:none;"
     d="M113 5L113 6L121 6L113 5z"
     id="path6" />
  <path
     style="fill:#000000; stroke:none;"
     d="M121 5.70988C66.2095 6.5237 15.533 47.7342 6.32562 103C-5.04018 171.221 45.7303 249.514 120 247.59C149.201 246.833 176.041 242.327 200 224.101C255.396 181.959 264.411 89.6176 212.981 40.2446C187.774 16.0449 155.066 5.2039 121 5.70988z"
     id="path8" />
  <path
     style="fill:#626262; stroke:none;"
     d="M122 5L122 6L130 6L122 5z"
     id="path10" />
  <path
     style="fill:#5c5c5c; stroke:none;"
     d="M131.667 5.33333L132.333 5.66667L131.667 5.33333z"
     id="path12" />
  <path
     style="fill:#898989; stroke:none;"
     d="M134 5L134 6L139 6L134 5z"
     id="path14" />
  <path
     style="fill:#a4a4a4; stroke:none;"
     d="M145 5L145 6L148 6L145 5z"
     id="path16" />
  <path
     style="fill:#adadac; stroke:none;"
     d="M100.667 6.33333L101.333 6.66667L100.667 6.33333z"
     id="path18" />
  <path
     style="fill:#696969; stroke:none;"
     d="M102.667 6.33333L103.333 6.66667L102.667 6.33333z"
     id="path20" />
  <path
     style="fill:#545454; stroke:none;"
     d="M142 6L142 7L145 7L142 6z"
     id="path22" />
  <path
     style="fill:#959595; stroke:none;"
     d="M150.667 6.33333L151.333 6.66667L150.667 6.33333z"
     id="path24" />
  <path
     style="fill:#979797; stroke:none;"
     d="M98.6667 7.33333L99.3333 7.66667L98.6667 7.33333z"
     id="path26" />
  <path
     style="fill:#737373; stroke:none;"
     d="M94 8L94 9L97 9L94 8z"
     id="path28" />
  <path
     style="fill:#848484; stroke:none;"
     d="M156 8L157 9L156 8z"
     id="path30" />
  <path
     style="fill:#464646; stroke:none;"
     d="M89.6667 9.33333L90.3333 9.66667L89.6667 9.33333z"
     id="path32" />
  <path
     style="fill:#7c7c7c; stroke:none;"
     d="M87 10L88 11L87 10z"
     id="path34" />
  <path
     style="fill:#545454; stroke:none;"
     d="M160 10L160 11L163 11L160 10z"
     id="path36" />
  <path
     style="fill:#7b7b7b; stroke:none;"
     d="M84 11L85 12L84 11z"
     id="path38" />
  <path
     style="fill:#8e8e8e; stroke:none;"
     d="M165 11L166 12L165 11z"
     id="path40" />
  <path
     style="fill:#838383; stroke:none;"
     d="M82 12L83 13L82 12z"
     id="path42" />
  <path
     style="fill:#606060; stroke:none;"
     d="M166 12L167 13L166 12z"
     id="path44" />
  <path
     style="fill:#858585; stroke:none;"
     d="M79.6667 13.3333L80.3333 13.6667L79.6667 13.3333z"
     id="path46" />
  <path
     style="fill:#6c6d4e; stroke:none;"
     d="M110 13L110 14L139 14L110 13z"
     id="path48" />
  <path
     style="fill:#8e8e8e; stroke:none;"
     d="M77 14L78 15L77 14z"
     id="path50" />
  <path
     style="fill:#434a17; stroke:none;"
     d="M106 14L106 15L109 15L106 14z"
     id="path52" />
  <path
     style="fill:#818435; stroke:none;"
     d="M144 239L144 238L127 238C128.332 233.493 129.165 228.004 125 225L125 224L136 224L136 221C145.391 220.999 145.8 218.851 152 213L155 216L152 212L152 210L158 208L157 205L152 206L154 200L154 204L167 201L176 201L176 200C162.269 200 148.629 198.023 135 198.548C129.643 198.754 124.356 201.219 119 201.455C108.871 201.901 97.2218 200.656 87 200.13C79.2177 199.731 63.6909 203.94 57.4336 198.4C54.3408 195.662 54.6572 189.79 54.1304 186C52.4388 173.832 51.5543 161.096 54 149L52 149C54.5699 138.329 51.694 131.428 51.4552 121C51.1524 107.768 52 94.2839 52 81C52 75.2805 49.4012 60.9172 54.3179 57.0093C64.3124 49.0655 86.1856 54.5689 98 52C99.5965 54.9912 103.163 55.8872 104 52C114.63 55.3614 121.75 52.0837 132.09 51.5455C144.39 50.9053 157.503 52 170 52C176.22 52 190.488 49.7056 195.258 54.6026C201.776 61.2949 199.311 82.3599 199.08 91C198.982 94.6895 197.395 101.329 200 104C194.557 121.912 201.939 142.139 199.715 161C199.091 166.288 197.718 178.258 202 182L201 176L204 176L207 170L216 170L214 173C229.22 188.542 237.505 149.361 237.96 140C239.64 105.439 232.653 73.6337 207.576 48.1551C194.745 35.119 178.903 23.7133 161 19.0247C119.488 8.15266 74.9764 14.9912 44.1312 47.1736C-7.39205 100.93 9.30195 194.276 75 227.742C97.9073 239.41 119.223 239.003 144 239z"
     id="path54" />
  <path
     style="fill:#6d6d6d; stroke:none;"
     d="M172 14L173 15L172 14z"
     id="path56" />
  <path
     style="fill:#666666; stroke:none;"
     d="M174 15L175 16L174 15z"
     id="path58" />
  <path
     style="fill:#6a6a6a; stroke:none;"
     d="M73 16L74 17L73 16z"
     id="path60" />
  <path
     style="fill:#7a7a7a; stroke:none;"
     d="M176.667 16.3333L177.333 16.6667L176.667 16.3333z"
     id="path62" />
  <path
     style="fill:#898989; stroke:none;"
     d="M70 17L71 18L70 17z"
     id="path64" />
  <path
     style="fill:#c7c7c7; stroke:none;"
     d="M179.667 17.3333L180.333 17.6667L179.667 17.3333z"
     id="path66" />
  <path
     style="fill:#7a7a7a; stroke:none;"
     d="M68 18L69 19L68 18z"
     id="path68" />
  <path
     style="fill:#51570f; stroke:none;"
     d="M158 18L158 19L161 19L158 18z"
     id="path70" />
  <path
     style="fill:#bebebe; stroke:none;"
     d="M181.667 18.3333L182.333 18.6667L181.667 18.3333z"
     id="path72" />
  <path
     style="fill:#929292; stroke:none;"
     d="M64 20L65 21L64 20z"
     id="path74" />
  <path
     style="fill:#8b8b8b; stroke:none;"
     d="M185 20L186 21L185 20z"
     id="path76" />
  <path
     style="fill:#909090; stroke:none;"
     d="M62 21L63 22L62 21z"
     id="path78" />
  <path
     style="fill:#444702; stroke:none;"
     d="M174.667 24.3333L175.333 24.6667L174.667 24.3333z"
     id="path80" />
  <path
     style="fill:#919191; stroke:none;"
     d="M191 24L192 25L191 24z"
     id="path82" />
  <path
     style="fill:#8b8b8b; stroke:none;"
     d="M56 25L57 26L56 25z"
     id="path84" />
  <path
     style="fill:#626262; stroke:none;"
     d="M55 26L56 27L55 26z"
     id="path86" />
  <path
     style="fill:#5a5c1a; stroke:none;"
     d="M71.6667 26.3333L72.3333 26.6667L71.6667 26.3333z"
     id="path88" />
  <path
     style="fill:#a7a7a7; stroke:none;"
     d="M53 27L54 28L53 27M196 27L197 28L196 27z"
     id="path90" />
  <path
     style="fill:#989898; stroke:none;"
     d="M52 28L53 29L52 28z"
     id="path92" />
  <path
     style="fill:#656565; stroke:none;"
     d="M51 29L52 30L51 29z"
     id="path94" />
  <path
     style="fill:#a4a4a4; stroke:none;"
     d="M201 31L202 32L201 31z"
     id="path96" />
  <path
     style="fill:#919190; stroke:none;"
     d="M47 32L48 33L47 32z"
     id="path98" />
  <path
     style="fill:#8f908f; stroke:none;"
     d="M202 32L203 33L202 32z"
     id="path100" />
  <path
     style="fill:#818181; stroke:none;"
     d="M203 33L204 34L203 33z"
     id="path102" />
  <path
     style="fill:#9d9d9d; stroke:none;"
     d="M45 34L46 35L45 34z"
     id="path104" />
  <path
     style="fill:#767676; stroke:none;"
     d="M204 34L205 35L204 34z"
     id="path106" />
  <path
     style="fill:#a2a2a2; stroke:none;"
     d="M44 35L45 36L44 35z"
     id="path108" />
  <path
     style="fill:#a4a4a4; stroke:none;"
     d="M43 36L44 37L43 36z"
     id="path110" />
  <path
     style="fill:#636363; stroke:none;"
     d="M42 37L43 38L42 37z"
     id="path112" />
  <path
     style="fill:#7a7a7a; stroke:none;"
     d="M208 37L208 38L211 38L208 37z"
     id="path114" />
  <path
     style="fill:#8d8d8d; stroke:none;"
     d="M41 38L42 39L41 38z"
     id="path116" />
  <path
     style="fill:#8b8b8b; stroke:none;"
     d="M211 38L212 39L211 38z"
     id="path118" />
  <path
     style="fill:#878787; stroke:none;"
     d="M40 39L41 40L40 39z"
     id="path120" />
  <path
     style="fill:#7c7c7c; stroke:none;"
     d="M39 40L40 41L39 40z"
     id="path122" />
  <path
     style="fill:#5d5d5d; stroke:none;"
     d="M213.333 40.6667L213.667 41.3333L213.333 40.6667z"
     id="path124" />
  <path
     style="fill:#909090; stroke:none;"
     d="M37 42L38 43L37 42z"
     id="path126" />
  <path
     style="fill:#575757; stroke:none;"
     d="M36 44L37 45L36 44z"
     id="path128" />
  <path
     style="fill:#6b6b6b; stroke:none;"
     d="M34 46L35 47L34 46z"
     id="path130" />
  <path
     style="fill:#7a7a7a; stroke:none;"
     d="M217 46L218 47L217 46z"
     id="path132" />
  <path
     style="fill:#959595; stroke:none;"
     d="M33 47L34 48L33 47z"
     id="path134" />
  <path
     style="fill:#6b6b6b; stroke:none;"
     d="M32 48L33 49L32 48z"
     id="path136" />
  <path
     style="fill:#8a8a8a; stroke:none;"
     d="M31 49L32 50L31 49z"
     id="path138" />
  <path
     style="fill:#8f8f8f; stroke:none;"
     d="M30 50L31 51L30 50z"
     id="path140" />
  <path
     style="fill:#a1a1a1; stroke:none;"
     d="M29 51L30 52L29 51z"
     id="path142" />
  <path
     style="fill:#494d03; stroke:none;"
     d="M129 51L129 52L134 52L129 51z"
     id="path144" />
  <path
     style="fill:#383530; stroke:none;"
     d="M85 52L85 53L92 53L85 52z"
     id="path146" />
  <path
     style="fill:#353511; stroke:none;"
     d="M93 53L93 54L98 52L93 53z"
     id="path148" />
  <path
     style="fill:#000000; stroke:none;"
     d="M104 52C101.026 56.0844 94.438 53.3934 90 53.0895C80.1859 52.4174 64.2532 52.0317 55.3171 56.5988C50.1153 59.2574 52.6063 69.558 52.9105 74C53.9046 88.517 52.1061 103.535 51.5285 118C51.3391 122.744 52.1424 131.388 57 133L56 138L54 137C53.307 140.733 51.8646 145.26 55 148L52 155C54.8052 166.921 49.1976 187.187 56.179 197.683C59.9838 203.403 72.4818 200.425 78 199.834C90.0903 198.54 102.723 200.709 115 200.985C121.176 201.125 126.787 199.005 133 199L132 195C147.712 201.116 162.981 199.008 180 199C184.331 198.998 196.022 198.819 198.436 194.566C201.875 188.509 199.008 179.521 199 173L199 120L195 120C196.681 115.564 201.526 108.96 197 105C200.471 92.2892 198.03 80.8076 198 68C197.992 64.7168 198.298 55.922 195.5 53.7222C191.613 50.6665 183.46 52.9897 179 53C164.318 53.034 149.571 52 135 52C130.627 52 120.034 52.176 119 57L104 52z"
     id="path150" />
  <path
     style="fill:#5c5d4b; stroke:none;"
     d="M147 52L147 53L186 53C175.726 48.6889 158.172 52 147 52z"
     id="path152" />
  <path
     style="fill:#707070; stroke:none;"
     d="M222 52L223 53L222 52z"
     id="path154" />
  <path
     style="fill:#3d3d19; stroke:none;"
     d="M105 53L105 54L109 54L105 53z"
     id="path156" />
  <path
     style="fill:#2f3200; stroke:none;"
     d="M120 53L120 54L124 54L120 53z"
     id="path158" />
  <path
     style="fill:#999999; stroke:none;"
     d="M223 53L224 54L223 53z"
     id="path160" />
  <path
     style="fill:#828282; stroke:none;"
     d="M27 54L28 55L27 54z"
     id="path162" />
  <path
     style="fill:#474c24; stroke:none;"
     d="M115 54L119 57L115 54z"
     id="path164" />
  <path
     style="fill:#3b4000; stroke:none;"
     d="M56 55L56 56L62 56L56 55z"
     id="path166" />
  <path
     style="fill:#888888; stroke:none;"
     d="M25 57L26 58L25 57z"
     id="path168" />
  <path
     style="fill:#434037; stroke:none;"
     d="M52 57L52 63L53 63L52 57z"
     id="path170" />
  <path
     style="fill:#a0a0a0; stroke:none;"
     d="M226 57L227 58L226 57z"
     id="path172" />
  <path
     style="fill:#969696; stroke:none;"
     d="M24 58L25 59L24 58z"
     id="path174" />
  <path
     style="fill:#828282; stroke:none;"
     d="M227 59L228 60L227 59z"
     id="path176" />
  <path
     style="fill:#aaaaaa; stroke:none;"
     d="M23 60L24 61L23 60z"
     id="path178" />
  <path
     style="fill:#323429; stroke:none;"
     d="M132 61L137 64L137 63L132 61z"
     id="path180" />
  <path
     style="fill:#7c7c7c; stroke:none;"
     d="M22 62L23 63L22 62z"
     id="path182" />
  <path
     style="fill:#a4a4a4; stroke:none;"
     d="M21 63L22 64L21 63z"
     id="path184" />
  <path
     style="fill:#858636; stroke:none;"
     d="M65 67L67 188L98 186C99.5965 188.991 103.163 189.887 104 186L133 185.545L187 186L188 149L185 149L185 148C190.397 139.759 185.692 128.01 185.09 119C183.905 101.288 185.768 82.885 185 65L154 67C150.609 63.1399 134.066 64.8472 129.004 65.7461C109.051 69.2895 85.5959 67 65 67z"
     id="path186" />
  <path
     style="fill:#48511c; stroke:none;"
     d="M148 64L148 65L151 65L148 64z"
     id="path188" />
  <path
     style="fill:#353535; stroke:none;"
     d="M230.333 64.6667L230.667 65.3333L230.333 64.6667z"
     id="path190" />
  <path
     style="fill:#272612; stroke:none;"
     d="M123 65L123 66L132 66L123 65z"
     id="path192" />
  <path
     style="fill:#4b4f34; stroke:none;"
     d="M154 67L159 66L154 67z"
     id="path194" />
  <path
     style="fill:#2a2b23; stroke:none;"
     d="M170 65L170 66L176 66L170 65z"
     id="path196" />
  <path
     style="fill:#4b4a14; stroke:none;"
     d="M185 65L185 71L186 71L185 65z"
     id="path198" />
  <path
     style="fill:#595f17; stroke:none;"
     d="M198 65L198 70L199 70L198 65z"
     id="path200" />
  <path
     style="fill:#5f6024; stroke:none;"
     d="M71 66L71 67L82 67L71 66z"
     id="path202" />
  <path
     style="fill:#373a00; stroke:none;"
     d="M97 66L97 67L101 67L97 66z"
     id="path204" />
  <path
     style="fill:#6a6a6a; stroke:none;"
     d="M231 66L232 67L231 66z"
     id="path206" />
  <path
     style="fill:#747474; stroke:none;"
     d="M19 67L20 68L19 67z"
     id="path208" />
  <path
     style="fill:#383b04; stroke:none;"
     d="M64 67L64 74L65 74L64 67z"
     id="path210" />
  <path
     style="fill:#43402f; stroke:none;"
     d="M117 67L117 68L123 68L117 67z"
     id="path212" />
  <path
     style="fill:#2a2924; stroke:none;"
     d="M52 70L52 80L53 80L52 70z"
     id="path214" />
  <path
     style="fill:#434516; stroke:none;"
     d="M198 71L198 77L199 77L198 71z"
     id="path216" />
  <path
     style="fill:#919191; stroke:none;"
     d="M234 71L235 72L234 71z"
     id="path218" />
  <path
     style="fill:#8e8e8d; stroke:none;"
     d="M16 73L17 74L16 73z"
     id="path220" />
  <path
     style="fill:#878787; stroke:none;"
     d="M235 73L236 74L235 73z"
     id="path222" />
  <path
     style="fill:#8d8d8d; stroke:none;"
     d="M14 77L15 78L14 77z"
     id="path224" />
  <path
     style="fill:#32332e; stroke:none;"
     d="M65 77L65 86L66 86L65 77z"
     id="path226" />
  <path
     style="fill:#7c7c7c; stroke:none;"
     d="M237 77L238 78L237 77z"
     id="path228" />
  <path
     style="fill:#7b7b7b; stroke:none;"
     d="M13.3333 79.6667L13.6667 80.3333L13.3333 79.6667z"
     id="path230" />
  <path
     style="fill:#6b6b6b; stroke:none;"
     d="M238 79L239 80L238 79z"
     id="path232" />
  <path
     style="fill:#4f4f43; stroke:none;"
     d="M52 80L52 88L53 88L52 80z"
     id="path234" />
  <path
     style="fill:#5d5d5d; stroke:none;"
     d="M239.333 81.6667L239.667 82.3333L239.333 81.6667z"
     id="path236" />
  <path
     style="fill:#626262; stroke:none;"
     d="M12.3333 82.6667L12.6667 83.3333L12.3333 82.6667z"
     id="path238" />
  <path
     style="fill:#656565; stroke:none;"
     d="M240 84L241 85L240 84z"
     id="path240" />
  <path
     style="fill:#737373; stroke:none;"
     d="M11 85L12 86L11 85z"
     id="path242" />
  <path
     style="fill:#c8c8c8; stroke:none;"
     d="M241 85L241 88L242 88L241 85z"
     id="path244" />
  <path
     style="fill:#707070; stroke:none;"
     d="M10.3333 87.6667L10.6667 88.3333L10.3333 87.6667z"
     id="path246" />
  <path
     style="fill:#2a2b23; stroke:none;"
     d="M65 89L65 93L66 93L65 89z"
     id="path248" />
  <path
     style="fill:#404040; stroke:none;"
     d="M9.33333 90.6667L9.66667 91.3333L9.33333 90.6667z"
     id="path250" />
  <path
     style="fill:#5f5f5f; stroke:none;"
     d="M242.333 90.6667L242.667 91.3333L242.333 90.6667z"
     id="path252" />
  <path
     style="fill:#d9d9d9; stroke:none;"
     d="M8 92L8 96L9 96L8 92z"
     id="path254" />
  <path
     style="fill:#272622; stroke:none;"
     d="M186 92L186 97L187 97L186 92z"
     id="path256" />
  <path
     style="fill:#433b26; stroke:none;"
     d="M17 95L17 98L18 98L17 95z"
     id="path258" />
  <path
     style="fill:#d9d9d9; stroke:none;"
     d="M244 96L244 100L245 100L244 96z"
     id="path260" />
  <path
     style="fill:#626514; stroke:none;"
     d="M185 97L185 101L186 101L185 97z"
     id="path262" />
  <path
     style="fill:#2b2e01; stroke:none;"
     d="M64 98L64 103L65 103L64 98z"
     id="path264" />
  <path
     style="fill:#535524; stroke:none;"
     d="M198 98L198 102L199 102L198 98z"
     id="path266" />
  <path
     style="fill:#949494; stroke:none;"
     d="M6.33333 100.667L6.66667 101.333L6.33333 100.667z"
     id="path268" />
  <path
     style="fill:#424242; stroke:none;"
     d="M244.333 100.667L244.667 101.333L244.333 100.667z"
     id="path270" />
  <path
     style="fill:#3d3d35; stroke:none;"
     d="M52 101L52 110L53 110L52 101z"
     id="path272" />
  <path
     style="fill:#272624; stroke:none;"
     d="M186 101L186 110L187 110L186 101z"
     id="path274" />
  <path
     style="fill:#d2d2d1; stroke:none;"
     d="M5 103L5 109L6 109L5 103z"
     id="path276" />
  <path
     style="fill:#43431d; stroke:none;"
     d="M197 103L200 105L200 104L197 103z"
     id="path278" />
  <path
     style="fill:#a2a2a2; stroke:none;"
     d="M245.333 103.667L245.667 104.333L245.333 103.667z"
     id="path280" />
  <path
     style="fill:#696969; stroke:none;"
     d="M245 105L245 108L246 108L245 105z"
     id="path282" />
  <path
     style="fill:#939393; stroke:none;"
     d="M246 108L246 113L247 113L246 108z"
     id="path284" />
  <path
     style="fill:#838383; stroke:none;"
     d="M5 109L5 115L6 115L5 109z"
     id="path286" />
  <path
     style="fill:#424800; stroke:none;"
     d="M185 110L185 117L186 117L185 110z"
     id="path288" />
  <path
     style="fill:#5e5f4d; stroke:none;"
     d="M13 112L13 138L14 138L13 112z"
     id="path290" />
  <path
     style="fill:#292c1b; stroke:none;"
     d="M64 113L61 120L64 113z"
     id="path292" />
  <path
     style="fill:#575b42; stroke:none;"
     d="M238 113L238 139L239 139L238 113z"
     id="path294" />
  <path
     style="fill:#323232; stroke:none;"
     d="M246 113L246 121L247 121L246 113z"
     id="path296" />
  <path
     style="fill:#575757; stroke:none;"
     d="M5 115L5 124L6 124L5 115z"
     id="path298" />
  <path
     style="fill:#333327; stroke:none;"
     d="M196 115C195.5 117.913 194.877 119.317 198 120L198 115L196 115z"
     id="path300" />
  <path
     style="fill:#464809; stroke:none;"
     d="M51.3333 121.667L51.6667 122.333L51.3333 121.667z"
     id="path302" />
  <path
     style="fill:#656543; stroke:none;"
     d="M52 123L52 132L53 132L52 123z"
     id="path304" />
  <path
     style="fill:#3c3c20; stroke:none;"
     d="M186 123L186 132L187 132L186 123z"
     id="path306" />
  <path
     style="fill:#4e4e4e; stroke:none;"
     d="M246 129L246 140L247 140L246 129z"
     id="path308" />
  <path
     style="fill:#4a4a4a; stroke:none;"
     d="M5 132L5 140L6 140L5 132z"
     id="path310" />
  <path
     style="fill:#2b2c27; stroke:none;"
     d="M190 132L187 140L188 140L190 138L190 132z"
     id="path312" />
  <path
     style="fill:#222313; stroke:none;"
     d="M54 133L55 138L57 133L54 133z"
     id="path314" />
  <path
     style="fill:#575a21; stroke:none;"
     d="M66 135L66 142L67 142L66 135z"
     id="path316" />
  <path
     style="fill:#bebebe; stroke:none;"
     d="M5 140L5 144L6 144L5 140z"
     id="path318" />
  <path
     style="fill:#aaaaaa; stroke:none;"
     d="M246 140L246 144L247 144L246 140z"
     id="path320" />
  <path
     style="fill:#4b4b3f; stroke:none;"
     d="M199 142L199 152L200 152L199 142z"
     id="path322" />
  <path
     style="fill:#d2d2d2; stroke:none;"
     d="M246 144L246 148L247 148L246 144z"
     id="path324" />
  <path
     style="fill:#696969; stroke:none;"
     d="M6.33333 145.667L6.66667 146.333L6.33333 145.667z"
     id="path326" />
  <path
     style="fill:#292a24; stroke:none;"
     d="M15 146L15 152L16 152L15 146z"
     id="path328" />
  <path
     style="fill:#a5a5a5; stroke:none;"
     d="M6 147L6 150L7 150L6 147z"
     id="path330" />
  <path
     style="fill:#3e3f17; stroke:none;"
     d="M52 147L55 150L52 147z"
     id="path332" />
  <path
     style="fill:#32340f; stroke:none;"
     d="M185 147L189 150L185 147z"
     id="path334" />
  <path
     style="fill:#6a6a6a; stroke:none;"
     d="M245 149L245 152L246 152L245 149z"
     id="path336" />
  <path
     style="fill:#34370a; stroke:none;"
     d="M187 150L187 155L188 155L187 150z"
     id="path338" />
  <path
     style="fill:#4e501e; stroke:none;"
     d="M53 151L53 155L54 155L53 151z"
     id="path340" />
  <path
     style="fill:#47473d; stroke:none;"
     d="M199 155L199 161L200 161L199 155z"
     id="path342" />
  <path
     style="fill:#d8d8d8; stroke:none;"
     d="M243 156L243 161L244 161L243 156z"
     id="path344" />
  <path
     style="fill:#c3c3c3; stroke:none;"
     d="M8.33333 158.667L8.66667 159.333L8.33333 158.667z"
     id="path346" />
  <path
     style="fill:#2a2924; stroke:none;"
     d="M186 159L186 164L187 164L186 159z"
     id="path348" />
  <path
     style="fill:#3e3b34; stroke:none;"
     d="M52 160L52 164L53 164L52 160z"
     id="path350" />
  <path
     style="fill:#979797; stroke:none;"
     d="M9.33333 161.667L9.66667 162.333L9.33333 161.667z"
     id="path352" />
  <path
     style="fill:#949494; stroke:none;"
     d="M242 162L243 163L242 162z"
     id="path354" />
  <path
     style="fill:#9d9d9d; stroke:none;"
     d="M10 165L10 168L11 168L10 165z"
     id="path356" />
  <path
     style="fill:#2c2c24; stroke:none;"
     d="M186 166L186 176L187 176L186 166z"
     id="path358" />
  <path
     style="fill:#787878; stroke:none;"
     d="M240 167L241 168L240 167z"
     id="path360" />
  <path
     style="fill:#b4b4b4; stroke:none;"
     d="M239.333 169.667L239.667 170.333L239.333 169.667z"
     id="path362" />
  <path
     style="fill:#a7a7a7; stroke:none;"
     d="M12.3333 170.667L12.6667 171.333L12.3333 170.667z"
     id="path364" />
  <path
     style="fill:#68692d; stroke:none;"
     d="M206 170L204 176L201 176L202 182L200 182L200 196L167 199L167 200L176 200L176 201L167 201L154 204L154 200L151 201L152 206L157 205L158 208L152 210L152 212L155 216L152 213C145.232 217.239 145.428 220.994 136 221L136 224L125 224L125 225C128.669 228.886 128.183 233.031 127 238C169.69 238 209.436 216.76 227 176L214 174L214 173L216 170L206 170z"
     id="path366" />
  <path
     style="fill:#333327; stroke:none;"
     d="M199 171L199 182L200 182L199 171z"
     id="path368" />
  <path
     style="fill:#7a787a; stroke:none;"
     d="M238 171L238 174L239 174L238 171z"
     id="path370" />
  <path
     style="fill:#7f7f7f; stroke:none;"
     d="M13 173L14 174L13 173z"
     id="path372" />
  <path
     style="fill:#878787; stroke:none;"
     d="M14 175L15 176L14 175z"
     id="path374" />
  <path
     style="fill:#959595; stroke:none;"
     d="M237 175L238 176L237 175z"
     id="path376" />
  <path
     style="fill:#5d5d5d; stroke:none;"
     d="M15 176L16 177L15 176z"
     id="path378" />
  <path
     style="fill:#434611; stroke:none;"
     d="M53 176L53 182L54 182L53 176z"
     id="path380" />
  <path
     style="fill:#292a0a; stroke:none;"
     d="M187 176L187 186L188 186L187 176z"
     id="path382" />
  <path
     style="fill:#c6c6c7; stroke:none;"
     d="M18.3333 183.667L18.6667 184.333L18.3333 183.667z"
     id="path384" />
  <path
     style="fill:#666666; stroke:none;"
     d="M233 183L234 184L233 183z"
     id="path386" />
  <path
     style="fill:#42420c; stroke:none;"
     d="M200 184L200 189L201 189L200 184z"
     id="path388" />
  <path
     style="fill:#3d3d01; stroke:none;"
     d="M130 185L130 186L135 186L130 185z"
     id="path390" />
  <path
     style="fill:#737373; stroke:none;"
     d="M232 185L233 186L232 185z"
     id="path392" />
  <path
     style="fill:#848484; stroke:none;"
     d="M20 186L21 187L20 186z"
     id="path394" />
  <path
     style="fill:#484d17; stroke:none;"
     d="M93 187L93 188L98 186L93 187z"
     id="path396" />
  <path
     style="fill:#48493b; stroke:none;"
     d="M141 186L141 187L181 187C170.488 182.589 152.434 186 141 186z"
     id="path398" />
  <path
     style="fill:#595959; stroke:none;"
     d="M231 186L232 187L231 186z"
     id="path400" />
  <path
     style="fill:#5f5f5f; stroke:none;"
     d="M21 188L22 189L21 188z"
     id="path402" />
  <path
     style="fill:#4b4a36; stroke:none;"
     d="M113 188L113 189L117 190L113 188z"
     id="path404" />
  <path
     style="fill:#737373; stroke:none;"
     d="M230 188L231 189L230 188z"
     id="path406" />
  <path
     style="fill:#777777; stroke:none;"
     d="M22 189L23 190L22 189z"
     id="path408" />
  <path
     style="fill:#363523; stroke:none;"
     d="M199 190L199 196L200 196L199 190z"
     id="path410" />
  <path
     style="fill:#7f7f7f; stroke:none;"
     d="M229 190L230 191L229 190z"
     id="path412" />
  <path
     style="fill:#212516; stroke:none;"
     d="M132 195L138 199L132 195z"
     id="path414" />
  <path
     style="fill:#8b8b8b; stroke:none;"
     d="M226 195L227 196L226 195z"
     id="path416" />
  <path
     style="fill:#828282; stroke:none;"
     d="M224 198L225 199L224 198z"
     id="path418" />
  <path
     style="fill:#2e2d29; stroke:none;"
     d="M80 199L80 200L89 200L80 199z"
     id="path420" />
  <path
     style="fill:#353338; stroke:none;"
     d="M123 199L123 200L132 200L123 199z"
     id="path422" />
  <path
     style="fill:#7f7f7f; stroke:none;"
     d="M223 199L224 200L223 199z"
     id="path424" />
  <path
     style="fill:#7e7e7e; stroke:none;"
     d="M29 200L30 201L29 200z"
     id="path426" />
  <path
     style="fill:#5c5c5c; stroke:none;"
     d="M30 201L31 202L30 201z"
     id="path428" />
  <path
     style="fill:#4b4537; stroke:none;"
     d="M117 201L117 202L122 202L117 201z"
     id="path430" />
  <path
     style="fill:#a2a2a1; stroke:none;"
     d="M222 201L223 202L222 201z"
     id="path432" />
  <path
     style="fill:#575757; stroke:none;"
     d="M31 202L32 203L31 202z"
     id="path434" />
  <path
     style="fill:#7d7d7d; stroke:none;"
     d="M219 204L220 205L219 204z"
     id="path436" />
  <path
     style="fill:#a6a6a6; stroke:none;"
     d="M218 205L219 206L218 205z"
     id="path438" />
  <path
     style="fill:#777776; stroke:none;"
     d="M34 206L35 207L34 206z"
     id="path440" />
  <path
     style="fill:#6a6a6a; stroke:none;"
     d="M217 206L218 207L217 206z"
     id="path442" />
  <path
     style="fill:#424242; stroke:none;"
     d="M35.3333 207.667L35.6667 208.333L35.3333 207.667z"
     id="path444" />
  <path
     style="fill:#606060; stroke:none;"
     d="M216 207L217 208L216 207z"
     id="path446" />
  <path
     style="fill:#9c9c9c; stroke:none;"
     d="M38.3333 211.667L38.6667 212.333L38.3333 211.667z"
     id="path448" />
  <path
     style="fill:#8a8a8a; stroke:none;"
     d="M212 212L213 213L212 212z"
     id="path450" />
  <path
     style="fill:#656565; stroke:none;"
     d="M39 213L40 214L39 213z"
     id="path452" />
  <path
     style="fill:#979797; stroke:none;"
     d="M211 213L212 214L211 213z"
     id="path454" />
  <path
     style="fill:#8c8c8c; stroke:none;"
     d="M40 214L41 215L40 214z"
     id="path456" />
  <path
     style="fill:#939393; stroke:none;"
     d="M210 214L211 215L210 214z"
     id="path458" />
  <path
     style="fill:#a6a6a6; stroke:none;"
     d="M41 215L41 216L44 216L41 215z"
     id="path460" />
  <path
     style="fill:#9c9c9c; stroke:none;"
     d="M209 215L210 216L209 215z"
     id="path462" />
  <path
     style="fill:#a4a4a4; stroke:none;"
     d="M208 216L209 217L208 216z"
     id="path464" />
  <path
     style="fill:#626262; stroke:none;"
     d="M46 217L47 218L46 217z"
     id="path466" />
  <path
     style="fill:#aaaaa9; stroke:none;"
     d="M207 217L208 218L207 217z"
     id="path468" />
  <path
     style="fill:#868686; stroke:none;"
     d="M47 218L48 219L47 218z"
     id="path470" />
  <path
     style="fill:#818181; stroke:none;"
     d="M48 219L49 220L48 219z"
     id="path472" />
  <path
     style="fill:#6e6e6e; stroke:none;"
     d="M53 223L54 224L53 223z"
     id="path474" />
  <path
     style="fill:#a2a2a2; stroke:none;"
     d="M54 224L55 225L54 224z"
     id="path476" />
  <path
     style="fill:#9c9c9c; stroke:none;"
     d="M57 226L58 227L57 226z"
     id="path478" />
  <path
     style="fill:#727272; stroke:none;"
     d="M196 226L197 227L196 226z"
     id="path480" />
  <path
     style="fill:#8b8b8b; stroke:none;"
     d="M195 227L196 228L195 227z"
     id="path482" />
  <path
     style="fill:#666666; stroke:none;"
     d="M193 228L194 229L193 228z"
     id="path484" />
  <path
     style="fill:#989898; stroke:none;"
     d="M62 229L63 230L62 229z"
     id="path486" />
  <path
     style="fill:#666666; stroke:none;"
     d="M190 230L191 231L190 230z"
     id="path488" />
  <path
     style="fill:#8b8b8b; stroke:none;"
     d="M65 231L66 232L65 231M66 232L67 233L66 232z"
     id="path490" />
  <path
     style="fill:#929292; stroke:none;"
     d="M187 232L188 233L187 232z"
     id="path492" />
  <path
     style="fill:#5f5f5f; stroke:none;"
     d="M68 233L69 234L68 233z"
     id="path494" />
  <path
     style="fill:#696969; stroke:none;"
     d="M185 233L186 234L185 233z"
     id="path496" />
  <path
     style="fill:#868586; stroke:none;"
     d="M70 234L71 235L70 234z"
     id="path498" />
  <path
     style="fill:#878787; stroke:none;"
     d="M183 234L184 235L183 234z"
     id="path500" />
  <path
     style="fill:#737374; stroke:none;"
     d="M72 235L73 236L72 235z"
     id="path502" />
  <path
     style="fill:#6d6d6d; stroke:none;"
     d="M74.6667 236.333L75.3333 236.667L74.6667 236.333z"
     id="path504" />
  <path
     style="fill:#2d2a21; stroke:none;"
     d="M97 236L97 237L101 237L97 236z"
     id="path506" />
  <path
     style="fill:#666666; stroke:none;"
     d="M77 237L78 238L77 237z"
     id="path508" />
  <path
     style="fill:#545454; stroke:none;"
     d="M79.6667 238.333L80.3333 238.667L79.6667 238.333z"
     id="path510" />
  <path
     style="fill:#959694; stroke:none;"
     d="M173.667 238.333L174.333 238.667L173.667 238.333z"
     id="path512" />
  <path
     style="fill:#636363; stroke:none;"
     d="M82 239L83 240L82 239z"
     id="path514" />
  <path
     style="fill:#626262; stroke:none;"
     d="M85 240L86 241L85 240z"
     id="path516" />
  <path
     style="fill:#989898; stroke:none;"
     d="M86.6667 241.333L87.3333 241.667L86.6667 241.333z"
     id="path518" />
  <path
     style="fill:#bababa; stroke:none;"
     d="M166.667 241.333L167.333 241.667L166.667 241.333z"
     id="path520" />
  <path
     style="fill:#545454; stroke:none;"
     d="M89 242L89 243L92 243L89 242z"
     id="path522" />
  <path
     style="fill:#828282; stroke:none;"
     d="M164 242L165 243L164 242z"
     id="path524" />
  <path
     style="fill:#767676; stroke:none;"
     d="M93 243L94 244L93 243z"
     id="path526" />
  <path
     style="fill:#a1a1a1; stroke:none;"
     d="M155.667 244.333L156.333 244.667L155.667 244.333z"
     id="path528" />
  <path
     style="fill:#bcbcbc; stroke:none;"
     d="M96.6667 245.333L97.3333 245.667L96.6667 245.333z"
     id="path530" />
  <path
     style="fill:#c9c9c9; stroke:none;"
     d="M152.667 245.333L153.333 245.667L152.667 245.333z"
     id="path532" />
  <path
     style="fill:#747474; stroke:none;"
     d="M100 246L100 247L104 247L100 246z"
     id="path534" />
  <path
     style="fill:#757575; stroke:none;"
     d="M107 246L107 247L111 247L107 246z"
     id="path536" />
  <path
     style="fill:#5d5d5d; stroke:none;"
     d="M144 246L144 247L151 247L144 246z"
     id="path538" />
  <path
     style="fill:#b9b9b9; stroke:none;"
     d="M104 247L104 248L107 248L104 247z"
     id="path540" />
  <path
     style="fill:#8a8a8a; stroke:none;"
     d="M113 247L113 248L117 248L113 247z"
     id="path542" />
  <path
     style="fill:#3d3d3d; stroke:none;"
     d="M119.667 247.333L120.333 247.667L119.667 247.333z"
     id="path544" />
  <path
     style="fill:#626262; stroke:none;"
     d="M122 247L122 248L130 248L122 247M131 247L131 248L139 248L131 247z"
     id="path546" />
  <path
     style="fill:#b4b4b4; stroke:none;"
     d="M139.667 247.333L140.333 247.667L139.667 247.333z"
     id="path548" />
</svg>
